M48
; DRILL file {KiCad 8.0.2} date 2025-05-20T09:10:04-0700
; FORMAT={-:-/ absolute / inch / decimal}
; #@! TF.CreationDate,2025-05-20T09:10:04-07:00
; #@! TF.GenerationSoftware,Kicad,Pcbnew,8.0.2
; #@! TF.FileFunction,Plated,1,2,PTH
FMAT,2
INCH
; #@! TA.AperFunction,Plated,PTH,ViaDrill
T1C0.0118
; #@! TA.AperFunction,Plated,PTH,ComponentDrill
T2C0.0236
; #@! TA.AperFunction,Plated,PTH,ComponentDrill
T3C0.0315
; #@! TA.AperFunction,Plated,PTH,ComponentDrill
T4C0.0394
; #@! TA.AperFunction,Plated,PTH,ComponentDrill
T5C0.0433
%
G90
G05
T1
X5.198Y-1.702
X5.218Y-1.768
X5.524Y-1.662
X5.9147Y-4.53
X5.93Y-3.418
X5.9307Y-4.7507
X5.954Y-5.164
X5.956Y-5.21
X5.968Y-4.76
X5.9752Y-3.954
X5.9794Y-4.374
X6.026Y-2.684
X6.026Y-3.556
X6.028Y-2.644
X6.03Y-4.614
X6.032Y-4.524
X6.036Y-2.006
X6.036Y-2.068
X6.036Y-2.17
X6.042Y-2.12
X6.0508Y-4.172
X6.078Y-2.272
X6.09Y-4.922
X6.11Y-3.84
X6.144Y-2.974
X6.172Y-1.908
X6.174Y-3.1446
X6.208Y-2.97
X6.222Y-1.968
X6.23Y-4.524
X6.232Y-4.622
X6.232Y-5.164
X6.238Y-2.02
X6.2432Y-3.238
X6.2572Y-5.5912
X6.268Y-2.97
X6.2857Y-3.8443
X6.29Y-5.5399
X6.328Y-4.87
X6.3378Y-4.2018
X6.348Y-5.224
X6.35Y-5.166
X6.3536Y-5.5676
X6.37Y-3.566
X6.37Y-4.428
X6.372Y-2.12
X6.374Y-2.1942
X6.374Y-2.2658
X6.38Y-2.07
X6.386Y-2.638
X6.386Y-2.684
X6.406Y-1.8677
X6.4174Y-3.16
X6.44Y-4.748
X6.4431Y-3.238
X6.4468Y-3.96
X6.464Y-2.908
X6.486Y-4.518
X6.488Y-4.746
X6.492Y-1.862
X6.4957Y-3.418
X6.5024Y-5.274
T3
X5.94Y-2.45
X6.1369Y-2.45
X6.2731Y-2.448
X6.47Y-2.448
T4
X5.07Y-1.8098
X5.07Y-1.9098
X5.0748Y-5.68
X5.075Y-1.57
X5.1748Y-5.68
X5.175Y-1.57
X5.2748Y-5.68
X5.275Y-1.57
X5.3748Y-5.68
X5.375Y-1.57
X5.4748Y-5.68
X5.475Y-1.57
X5.5748Y-5.68
X5.575Y-1.57
X5.6703Y-1.7946
X5.6703Y-1.893
X5.6703Y-1.9914
X5.6748Y-5.68
X5.675Y-1.57
X5.901Y-1.81
X5.901Y-1.91
X5.9048Y-5.68
X5.9058Y-1.569
X6.0048Y-5.68
X6.0058Y-1.569
X6.0162Y-5.3138
X6.0162Y-5.4138
X6.1048Y-5.68
X6.1058Y-1.569
X6.1162Y-5.3138
X6.1162Y-5.4138
X6.2048Y-5.68
X6.2058Y-1.569
X6.2162Y-5.3138
X6.2162Y-5.4138
X6.3048Y-5.68
X6.3058Y-1.569
X6.3162Y-5.3138
X6.3162Y-5.4138
X6.4048Y-5.68
X6.4058Y-1.569
X6.4162Y-5.3138
X6.4162Y-5.4138
X6.5048Y-5.68
X6.5058Y-1.569
T2
G00X5.1561Y-2.3103
M15
G01X5.1954Y-2.3103
M16
G05
G00X5.1561Y-2.6371
M15
G01X5.1954Y-2.6371
M16
G05
G00X5.1561Y-2.7591
M15
G01X5.1954Y-2.7591
M16
G05
G00X5.1561Y-2.8703
M15
G01X5.1954Y-2.8703
M16
G05
G00X5.1561Y-3.1971
M15
G01X5.1954Y-3.1971
M16
G05
G00X5.1561Y-3.3191
M15
G01X5.1954Y-3.3191
M16
G05
G00X5.1561Y-3.4303
M15
G01X5.1954Y-3.4303
M16
G05
G00X5.1561Y-3.7571
M15
G01X5.1954Y-3.7571
M16
G05
G00X5.1561Y-3.8791
M15
G01X5.1954Y-3.8791
M16
G05
G00X5.1561Y-3.9903
M15
G01X5.1954Y-3.9903
M16
G05
G00X5.1561Y-4.3171
M15
G01X5.1954Y-4.3171
M16
G05
G00X5.1561Y-4.4391
M15
G01X5.1954Y-4.4391
M16
G05
G00X5.1561Y-4.5503
M15
G01X5.1954Y-4.5503
M16
G05
G00X5.1561Y-4.8771
M15
G01X5.1954Y-4.8771
M16
G05
G00X5.1561Y-4.9991
M15
G01X5.1954Y-4.9991
M16
G05
G00X5.1561Y-5.1103
M15
G01X5.1954Y-5.1103
M16
G05
G00X5.1561Y-5.4371
M15
G01X5.1954Y-5.4371
M16
G05
G00X5.1561Y-5.5591
M15
G01X5.1954Y-5.5591
M16
G05
G00X5.5561Y-2.3103
M15
G01X5.5954Y-2.3103
M16
G05
G00X5.5561Y-2.6371
M15
G01X5.5954Y-2.6371
M16
G05
G00X5.5561Y-2.7591
M15
G01X5.5954Y-2.7591
M16
G05
G00X5.5561Y-2.8703
M15
G01X5.5954Y-2.8703
M16
G05
G00X5.5561Y-3.1971
M15
G01X5.5954Y-3.1971
M16
G05
G00X5.5561Y-3.3191
M15
G01X5.5954Y-3.3191
M16
G05
G00X5.5561Y-3.9903
M15
G01X5.5954Y-3.9903
M16
G05
G00X5.5561Y-4.3171
M15
G01X5.5954Y-4.3171
M16
G05
G00X5.5561Y-4.4391
M15
G01X5.5954Y-4.4391
M16
G05
G00X5.5561Y-5.1103
M15
G01X5.5954Y-5.1103
M16
G05
G00X5.5561Y-5.4371
M15
G01X5.5954Y-5.4371
M16
G05
G00X5.5561Y-5.5591
M15
G01X5.5954Y-5.5591
M16
G05
G00X5.5563Y-3.4303
M15
G01X5.5957Y-3.4303
M16
G05
G00X5.5563Y-3.7571
M15
G01X5.5957Y-3.7571
M16
G05
G00X5.5563Y-3.8791
M15
G01X5.5957Y-3.8791
M16
G05
G00X5.5563Y-4.5503
M15
G01X5.5957Y-4.5503
M16
G05
G00X5.5563Y-4.8771
M15
G01X5.5957Y-4.8771
M16
G05
G00X5.5563Y-4.9991
M15
G01X5.5957Y-4.9991
M16
G05
T5
G00X5.3888Y-1.704
M15
G01X5.3612Y-1.704
M16
G05
G00X5.3888Y-2.082
M15
G01X5.3612Y-2.082
M16
G05
M30
