%TF.GenerationSoftware,KiCad,Pcbnew,8.0.2*%
%TF.CreationDate,2025-05-20T09:10:07-07:00*%
%TF.ProjectId,ResEQ_Mini,52657345-515f-44d6-996e-692e6b696361,rev?*%
%TF.SameCoordinates,Original*%
%TF.FileFunction,Soldermask,Bot*%
%TF.FilePolarity,Negative*%
%FSLAX46Y46*%
G04 Gerber Fmt 4.6, Leading zero omitted, Abs format (unit mm)*
G04 Created by KiCad (PCBNEW 8.0.2) date 2025-05-20 09:10:07*
%MOMM*%
%LPD*%
G01*
G04 APERTURE LIST*
G04 Aperture macros list*
%AMRoundRect*
0 Rectangle with rounded corners*
0 $1 Rounding radius*
0 $2 $3 $4 $5 $6 $7 $8 $9 X,Y pos of 4 corners*
0 Add a 4 corners polygon primitive as box body*
4,1,4,$2,$3,$4,$5,$6,$7,$8,$9,$2,$3,0*
0 Add four circle primitives for the rounded corners*
1,1,$1+$1,$2,$3*
1,1,$1+$1,$4,$5*
1,1,$1+$1,$6,$7*
1,1,$1+$1,$8,$9*
0 Add four rect primitives between the rounded corners*
20,1,$1+$1,$2,$3,$4,$5,0*
20,1,$1+$1,$4,$5,$6,$7,0*
20,1,$1+$1,$6,$7,$8,$9,0*
20,1,$1+$1,$8,$9,$2,$3,0*%
G04 Aperture macros list end*
%ADD10R,1.700000X1.700000*%
%ADD11O,1.700000X1.700000*%
%ADD12O,3.100000X2.100000*%
%ADD13RoundRect,0.650000X-0.650000X-0.650000X0.650000X-0.650000X0.650000X0.650000X-0.650000X0.650000X0*%
%ADD14O,3.240000X2.720000*%
%ADD15R,1.800000X1.800000*%
%ADD16C,1.800000*%
%ADD17RoundRect,0.250000X-0.450000X0.350000X-0.450000X-0.350000X0.450000X-0.350000X0.450000X0.350000X0*%
%ADD18C,1.600000*%
%ADD19RoundRect,0.250000X0.450000X-0.350000X0.450000X0.350000X-0.450000X0.350000X-0.450000X-0.350000X0*%
%ADD20RoundRect,0.250000X-0.350000X-0.450000X0.350000X-0.450000X0.350000X0.450000X-0.350000X0.450000X0*%
%ADD21RoundRect,0.250000X-0.475000X0.337500X-0.475000X-0.337500X0.475000X-0.337500X0.475000X0.337500X0*%
%ADD22RoundRect,0.450000X-0.850000X0.450000X-0.850000X-0.450000X0.850000X-0.450000X0.850000X0.450000X0*%
%ADD23RoundRect,0.250000X0.350000X0.450000X-0.350000X0.450000X-0.350000X-0.450000X0.350000X-0.450000X0*%
%ADD24RoundRect,0.250000X0.337500X0.475000X-0.337500X0.475000X-0.337500X-0.475000X0.337500X-0.475000X0*%
%ADD25RoundRect,0.250000X-0.337500X-0.475000X0.337500X-0.475000X0.337500X0.475000X-0.337500X0.475000X0*%
%ADD26RoundRect,0.250000X0.475000X-0.337500X0.475000X0.337500X-0.475000X0.337500X-0.475000X-0.337500X0*%
G04 APERTURE END LIST*
D10*
%TO.C,J14*%
X150007000Y-39853000D03*
D11*
X152547000Y-39853000D03*
X155087000Y-39853000D03*
X157627000Y-39853000D03*
X160167000Y-39853000D03*
X162707000Y-39853000D03*
X165247000Y-39853000D03*
%TD*%
D12*
%TO.C,J1*%
X141624045Y-70081597D03*
D13*
X141624045Y-58681597D03*
X141624045Y-66981597D03*
%TD*%
D10*
%TO.C,J15*%
X149982000Y-144272000D03*
D11*
X152522000Y-144272000D03*
X155062000Y-144272000D03*
X157602000Y-144272000D03*
X160142000Y-144272000D03*
X162682000Y-144272000D03*
X165222000Y-144272000D03*
%TD*%
D12*
%TO.C,J3*%
X141624045Y-141201569D03*
D13*
X141624045Y-129801569D03*
X141624045Y-138101569D03*
%TD*%
D14*
%TO.C,RV2*%
X136525000Y-52881600D03*
X136525000Y-43281600D03*
D15*
X144025000Y-50581600D03*
D16*
X144025000Y-48081600D03*
X144025000Y-45581600D03*
%TD*%
D12*
%TO.C,J10*%
X131464049Y-112753583D03*
D13*
X131464049Y-101353583D03*
X131464049Y-109653583D03*
%TD*%
D12*
%TO.C,J7*%
X141630400Y-98529600D03*
D13*
X141630400Y-87129600D03*
X141630400Y-95429600D03*
%TD*%
D12*
%TO.C,J11*%
X141630400Y-126977600D03*
D13*
X141630400Y-115577600D03*
X141630400Y-123877600D03*
%TD*%
D12*
%TO.C,J12*%
X131464049Y-126977573D03*
D13*
X131464049Y-115577573D03*
X131464049Y-123877573D03*
%TD*%
D12*
%TO.C,J8*%
X131464049Y-98529587D03*
D13*
X131464049Y-87129587D03*
X131464049Y-95429587D03*
%TD*%
D12*
%TO.C,J9*%
X141624045Y-112753578D03*
D13*
X141624045Y-101353578D03*
X141624045Y-109653578D03*
%TD*%
D12*
%TO.C,J4*%
X131464049Y-141201569D03*
D13*
X131464049Y-129801569D03*
X131464049Y-138101569D03*
%TD*%
D12*
%TO.C,J6*%
X131464049Y-84305587D03*
D13*
X131464049Y-72905587D03*
X131464049Y-81205587D03*
%TD*%
D10*
%TO.C,J19*%
X149885000Y-45974000D03*
D11*
X149885000Y-48514000D03*
%TD*%
D12*
%TO.C,J2*%
X131464049Y-70081597D03*
D13*
X131464049Y-58681597D03*
X131464049Y-66981597D03*
%TD*%
D12*
%TO.C,J5*%
X141624045Y-84305587D03*
D13*
X141624045Y-72905587D03*
X141624045Y-81205587D03*
%TD*%
D17*
%TO.C,R7*%
X159512000Y-104054400D03*
X159512000Y-106054400D03*
%TD*%
D18*
%TO.C,C19*%
X164338000Y-62179200D03*
X159338000Y-62179200D03*
%TD*%
D19*
%TO.C,R12*%
X135001000Y-89011000D03*
X135001000Y-87011000D03*
%TD*%
D20*
%TO.C,R40*%
X153092400Y-77050300D03*
X155092400Y-77050300D03*
%TD*%
D21*
%TO.C,C30*%
X151282400Y-68152100D03*
X151282400Y-70227100D03*
%TD*%
D17*
%TO.C,R29*%
X156413200Y-94199200D03*
X156413200Y-96199200D03*
%TD*%
D22*
%TO.C,C46*%
X150353200Y-127508000D03*
X154853200Y-127508000D03*
%TD*%
D19*
%TO.C,R4*%
X140766800Y-54340000D03*
X140766800Y-52340000D03*
%TD*%
%TO.C,R11*%
X137972800Y-89138000D03*
X137972800Y-87138000D03*
%TD*%
%TO.C,R51*%
X131826000Y-106359200D03*
X131826000Y-104359200D03*
%TD*%
D10*
%TO.C,J13*%
X152811400Y-134970600D03*
D11*
X152811400Y-137510600D03*
X155351400Y-134970600D03*
X155351400Y-137510600D03*
X157891400Y-134970600D03*
X157891400Y-137510600D03*
X160431400Y-134970600D03*
X160431400Y-137510600D03*
X162971400Y-134970600D03*
X162971400Y-137510600D03*
%TD*%
D23*
%TO.C,R38*%
X161883600Y-78943200D03*
X159883600Y-78943200D03*
%TD*%
D19*
%TO.C,R53*%
X141478000Y-120634000D03*
X141478000Y-118634000D03*
%TD*%
D24*
%TO.C,C17*%
X155129900Y-79437900D03*
X153054900Y-79437900D03*
%TD*%
D17*
%TO.C,R27*%
X159105600Y-94250000D03*
X159105600Y-96250000D03*
%TD*%
%TO.C,R2*%
X138430000Y-70628000D03*
X138430000Y-72628000D03*
%TD*%
%TO.C,R21*%
X155854400Y-104070400D03*
X155854400Y-106070400D03*
%TD*%
D25*
%TO.C,C16*%
X159846100Y-76784200D03*
X161921100Y-76784200D03*
%TD*%
D22*
%TO.C,C44*%
X160360800Y-127660400D03*
X164860800Y-127660400D03*
%TD*%
D10*
%TO.C,J17*%
X128900000Y-144272000D03*
D11*
X131440000Y-144272000D03*
X133980000Y-144272000D03*
X136520000Y-144272000D03*
X139060000Y-144272000D03*
X141600000Y-144272000D03*
X144140000Y-144272000D03*
%TD*%
D25*
%TO.C,C36*%
X149432100Y-53975000D03*
X151507100Y-53975000D03*
%TD*%
D17*
%TO.C,R19*%
X159410400Y-120462800D03*
X159410400Y-122462800D03*
%TD*%
D19*
%TO.C,R52*%
X131622800Y-120532400D03*
X131622800Y-118532400D03*
%TD*%
%TO.C,R1*%
X134975600Y-74609200D03*
X134975600Y-72609200D03*
%TD*%
D17*
%TO.C,R15*%
X155956000Y-121580400D03*
X155956000Y-123580400D03*
%TD*%
D10*
%TO.C,J18*%
X128778000Y-45969000D03*
D11*
X128778000Y-48509000D03*
%TD*%
D18*
%TO.C,C20*%
X150876000Y-62230000D03*
X155876000Y-62230000D03*
%TD*%
D19*
%TO.C,R3*%
X128930400Y-54187600D03*
X128930400Y-52187600D03*
%TD*%
D26*
%TO.C,C37*%
X164185600Y-70227100D03*
X164185600Y-68152100D03*
%TD*%
D17*
%TO.C,R48*%
X128473200Y-127625600D03*
X128473200Y-129625600D03*
%TD*%
D10*
%TO.C,J16*%
X128905000Y-39878000D03*
D11*
X131445000Y-39878000D03*
X133985000Y-39878000D03*
X136525000Y-39878000D03*
X139065000Y-39878000D03*
X141605000Y-39878000D03*
X144145000Y-39878000D03*
%TD*%
D19*
%TO.C,R13*%
X141427200Y-106460800D03*
X141427200Y-104460800D03*
%TD*%
D17*
%TO.C,R49*%
X143967200Y-118684800D03*
X143967200Y-120684800D03*
%TD*%
D25*
%TO.C,C31*%
X163808500Y-53975000D03*
X165883500Y-53975000D03*
%TD*%
M02*
