%TF.GenerationSoftware,KiCad,Pcbnew,8.0.2*%
%TF.CreationDate,2025-05-20T09:10:07-07:00*%
%TF.ProjectId,ResEQ_Mini,52657345-515f-44d6-996e-692e6b696361,rev?*%
%TF.SameCoordinates,Original*%
%TF.FileFunction,Soldermask,Top*%
%TF.FilePolarity,Negative*%
%FSLAX46Y46*%
G04 Gerber Fmt 4.6, Leading zero omitted, Abs format (unit mm)*
G04 Created by KiCad (PCBNEW 8.0.2) date 2025-05-20 09:10:07*
%MOMM*%
%LPD*%
G01*
G04 APERTURE LIST*
G04 Aperture macros list*
%AMRoundRect*
0 Rectangle with rounded corners*
0 $1 Rounding radius*
0 $2 $3 $4 $5 $6 $7 $8 $9 X,Y pos of 4 corners*
0 Add a 4 corners polygon primitive as box body*
4,1,4,$2,$3,$4,$5,$6,$7,$8,$9,$2,$3,0*
0 Add four circle primitives for the rounded corners*
1,1,$1+$1,$2,$3*
1,1,$1+$1,$4,$5*
1,1,$1+$1,$6,$7*
1,1,$1+$1,$8,$9*
0 Add four rect primitives between the rounded corners*
20,1,$1+$1,$2,$3,$4,$5,0*
20,1,$1+$1,$4,$5,$6,$7,0*
20,1,$1+$1,$6,$7,$8,$9,0*
20,1,$1+$1,$8,$9,$2,$3,0*%
G04 Aperture macros list end*
%ADD10R,1.700000X1.700000*%
%ADD11O,1.700000X1.700000*%
%ADD12RoundRect,0.250000X0.450000X-0.350000X0.450000X0.350000X-0.450000X0.350000X-0.450000X-0.350000X0*%
%ADD13RoundRect,0.250000X-0.350000X-0.450000X0.350000X-0.450000X0.350000X0.450000X-0.350000X0.450000X0*%
%ADD14O,3.100000X2.100000*%
%ADD15RoundRect,0.650000X-0.650000X-0.650000X0.650000X-0.650000X0.650000X0.650000X-0.650000X0.650000X0*%
%ADD16RoundRect,0.250000X-0.450000X0.350000X-0.450000X-0.350000X0.450000X-0.350000X0.450000X0.350000X0*%
%ADD17RoundRect,0.250000X0.475000X-0.337500X0.475000X0.337500X-0.475000X0.337500X-0.475000X-0.337500X0*%
%ADD18RoundRect,0.150000X-0.825000X-0.150000X0.825000X-0.150000X0.825000X0.150000X-0.825000X0.150000X0*%
%ADD19RoundRect,0.250000X-0.475000X0.337500X-0.475000X-0.337500X0.475000X-0.337500X0.475000X0.337500X0*%
%ADD20RoundRect,0.250000X0.337500X0.475000X-0.337500X0.475000X-0.337500X-0.475000X0.337500X-0.475000X0*%
%ADD21O,3.240000X2.720000*%
%ADD22R,1.800000X1.800000*%
%ADD23C,1.800000*%
%ADD24RoundRect,0.250000X0.350000X0.450000X-0.350000X0.450000X-0.350000X-0.450000X0.350000X-0.450000X0*%
%ADD25RoundRect,0.250000X-0.337500X-0.475000X0.337500X-0.475000X0.337500X0.475000X-0.337500X0.475000X0*%
%ADD26C,1.600000*%
G04 APERTURE END LIST*
D10*
%TO.C,J14*%
X150007000Y-39853000D03*
D11*
X152547000Y-39853000D03*
X155087000Y-39853000D03*
X157627000Y-39853000D03*
X160167000Y-39853000D03*
X162707000Y-39853000D03*
X165247000Y-39853000D03*
%TD*%
D12*
%TO.C,R41*%
X153314400Y-80502000D03*
X153314400Y-78502000D03*
%TD*%
%TO.C,R35*%
X159461200Y-80502000D03*
X159461200Y-78502000D03*
%TD*%
D13*
%TO.C,R28*%
X153838400Y-99161600D03*
X155838400Y-99161600D03*
%TD*%
D14*
%TO.C,J1*%
X141624045Y-70081597D03*
D15*
X141624045Y-58681597D03*
X141624045Y-66981597D03*
%TD*%
D13*
%TO.C,R24*%
X163439600Y-119024400D03*
X165439600Y-119024400D03*
%TD*%
D10*
%TO.C,J15*%
X149982000Y-144272000D03*
D11*
X152522000Y-144272000D03*
X155062000Y-144272000D03*
X157602000Y-144272000D03*
X160142000Y-144272000D03*
X162682000Y-144272000D03*
X165222000Y-144272000D03*
%TD*%
D12*
%TO.C,R10*%
X157378400Y-44551600D03*
X157378400Y-42551600D03*
%TD*%
D16*
%TO.C,R37*%
X161747200Y-78502000D03*
X161747200Y-80502000D03*
%TD*%
D12*
%TO.C,R44*%
X160172400Y-60182000D03*
X160172400Y-58182000D03*
%TD*%
D14*
%TO.C,J3*%
X141624045Y-141201569D03*
D15*
X141624045Y-129801569D03*
X141624045Y-138101569D03*
%TD*%
D17*
%TO.C,C33*%
X162763200Y-88870700D03*
X162763200Y-86795700D03*
%TD*%
D18*
%TO.C,U3*%
X154954200Y-83870800D03*
X154954200Y-85140800D03*
X154954200Y-86410800D03*
X154954200Y-87680800D03*
X154954200Y-88950800D03*
X154954200Y-90220800D03*
X154954200Y-91490800D03*
X159904200Y-91490800D03*
X159904200Y-90220800D03*
X159904200Y-88950800D03*
X159904200Y-87680800D03*
X159904200Y-86410800D03*
X159904200Y-85140800D03*
X159904200Y-83870800D03*
%TD*%
%TO.C,U1*%
X155132000Y-48768000D03*
X155132000Y-50038000D03*
X155132000Y-51308000D03*
X155132000Y-52578000D03*
X155132000Y-53848000D03*
X155132000Y-55118000D03*
X155132000Y-56388000D03*
X160082000Y-56388000D03*
X160082000Y-55118000D03*
X160082000Y-53848000D03*
X160082000Y-52578000D03*
X160082000Y-51308000D03*
X160082000Y-50038000D03*
X160082000Y-48768000D03*
%TD*%
D12*
%TO.C,R55*%
X164185600Y-55102000D03*
X164185600Y-53102000D03*
%TD*%
D19*
%TO.C,C32*%
X152349200Y-86795700D03*
X152349200Y-88870700D03*
%TD*%
D12*
%TO.C,R56*%
X164287200Y-59623200D03*
X164287200Y-57623200D03*
%TD*%
D20*
%TO.C,C18*%
X153386700Y-75488800D03*
X151311700Y-75488800D03*
%TD*%
D21*
%TO.C,RV2*%
X136525000Y-52881600D03*
X136525000Y-43281600D03*
D22*
X144025000Y-50581600D03*
D23*
X144025000Y-48081600D03*
X144025000Y-45581600D03*
%TD*%
D14*
%TO.C,J10*%
X131464049Y-112753583D03*
D15*
X131464049Y-101353583D03*
X131464049Y-109653583D03*
%TD*%
D12*
%TO.C,R34*%
X164592000Y-80502000D03*
X164592000Y-78502000D03*
%TD*%
%TO.C,R14*%
X155803600Y-128914400D03*
X155803600Y-126914400D03*
%TD*%
D16*
%TO.C,R42*%
X155397200Y-78451200D03*
X155397200Y-80451200D03*
%TD*%
D14*
%TO.C,J7*%
X141630400Y-98529600D03*
D15*
X141630400Y-87129600D03*
X141630400Y-95429600D03*
%TD*%
D14*
%TO.C,J11*%
X141630400Y-126977600D03*
D15*
X141630400Y-115577600D03*
X141630400Y-123877600D03*
%TD*%
D24*
%TO.C,R25*%
X151876000Y-112471200D03*
X149876000Y-112471200D03*
%TD*%
D16*
%TO.C,R5*%
X159308800Y-104105200D03*
X159308800Y-106105200D03*
%TD*%
D17*
%TO.C,C35*%
X163220400Y-116810700D03*
X163220400Y-114735700D03*
%TD*%
D12*
%TO.C,R45*%
X155549600Y-60283600D03*
X155549600Y-58283600D03*
%TD*%
D25*
%TO.C,C1*%
X155172500Y-46599600D03*
X157247500Y-46599600D03*
%TD*%
D13*
%TO.C,R30*%
X161966400Y-96316800D03*
X163966400Y-96316800D03*
%TD*%
%TO.C,R32*%
X163490400Y-91541600D03*
X165490400Y-91541600D03*
%TD*%
D14*
%TO.C,J12*%
X131464049Y-126977573D03*
D15*
X131464049Y-115577573D03*
X131464049Y-123877573D03*
%TD*%
D17*
%TO.C,C8*%
X159359600Y-124430700D03*
X159359600Y-122355700D03*
%TD*%
D20*
%TO.C,C13*%
X153843900Y-102057200D03*
X151768900Y-102057200D03*
%TD*%
D12*
%TO.C,R50*%
X163677600Y-45618400D03*
X163677600Y-43618400D03*
%TD*%
D14*
%TO.C,J8*%
X131464049Y-98529587D03*
D15*
X131464049Y-87129587D03*
X131464049Y-95429587D03*
%TD*%
D13*
%TO.C,R36*%
X163947600Y-72390000D03*
X165947600Y-72390000D03*
%TD*%
D17*
%TO.C,C6*%
X156006800Y-124430700D03*
X156006800Y-122355700D03*
%TD*%
D19*
%TO.C,C4*%
X159359600Y-108233300D03*
X159359600Y-110308300D03*
%TD*%
%TO.C,C10*%
X155905200Y-108182500D03*
X155905200Y-110257500D03*
%TD*%
D14*
%TO.C,J9*%
X141624045Y-112753578D03*
D15*
X141624045Y-101353578D03*
X141624045Y-109653578D03*
%TD*%
D24*
%TO.C,R26*%
X161172400Y-99161600D03*
X159172400Y-99161600D03*
%TD*%
%TO.C,R17*%
X152333200Y-119380000D03*
X150333200Y-119380000D03*
%TD*%
D25*
%TO.C,C3*%
X161827300Y-105156000D03*
X163902300Y-105156000D03*
%TD*%
%TO.C,C7*%
X161979700Y-125425200D03*
X164054700Y-125425200D03*
%TD*%
D24*
%TO.C,R23*%
X151926800Y-108508800D03*
X149926800Y-108508800D03*
%TD*%
D13*
%TO.C,R22*%
X161915600Y-122275600D03*
X163915600Y-122275600D03*
%TD*%
D12*
%TO.C,R9*%
X155092400Y-44551600D03*
X155092400Y-42551600D03*
%TD*%
D14*
%TO.C,J4*%
X131464049Y-141201569D03*
D15*
X131464049Y-129801569D03*
X131464049Y-138101569D03*
%TD*%
D24*
%TO.C,R33*%
X151622000Y-91592400D03*
X149622000Y-91592400D03*
%TD*%
D12*
%TO.C,R54*%
X151790400Y-55000400D03*
X151790400Y-53000400D03*
%TD*%
D14*
%TO.C,J6*%
X131464049Y-84305587D03*
D15*
X131464049Y-72905587D03*
X131464049Y-81205587D03*
%TD*%
D20*
%TO.C,C9*%
X153691500Y-104495600D03*
X151616500Y-104495600D03*
%TD*%
D25*
%TO.C,C11*%
X161674900Y-101904800D03*
X163749900Y-101904800D03*
%TD*%
D16*
%TO.C,R20*%
X155854400Y-104070400D03*
X155854400Y-106070400D03*
%TD*%
D24*
%TO.C,R16*%
X153552400Y-122428000D03*
X151552400Y-122428000D03*
%TD*%
%TO.C,R43*%
X151485600Y-72898000D03*
X149485600Y-72898000D03*
%TD*%
D25*
%TO.C,C15*%
X162335300Y-75438000D03*
X164410300Y-75438000D03*
%TD*%
D17*
%TO.C,C14*%
X155194000Y-96185900D03*
X155194000Y-94110900D03*
%TD*%
D24*
%TO.C,R31*%
X152587200Y-96672400D03*
X150587200Y-96672400D03*
%TD*%
D13*
%TO.C,R6*%
X161864800Y-109067600D03*
X163864800Y-109067600D03*
%TD*%
D16*
%TO.C,R47*%
X162712400Y-48784000D03*
X162712400Y-50784000D03*
%TD*%
D17*
%TO.C,C12*%
X159258000Y-96185900D03*
X159258000Y-94110900D03*
%TD*%
D18*
%TO.C,U2*%
X155106600Y-64363600D03*
X155106600Y-65633600D03*
X155106600Y-66903600D03*
X155106600Y-68173600D03*
X155106600Y-69443600D03*
X155106600Y-70713600D03*
X155106600Y-71983600D03*
X160056600Y-71983600D03*
X160056600Y-70713600D03*
X160056600Y-69443600D03*
X160056600Y-68173600D03*
X160056600Y-66903600D03*
X160056600Y-65633600D03*
X160056600Y-64363600D03*
%TD*%
D16*
%TO.C,R46*%
X164846000Y-48784000D03*
X164846000Y-50784000D03*
%TD*%
D10*
%TO.C,J19*%
X149885000Y-45974000D03*
D11*
X149885000Y-48514000D03*
%TD*%
D12*
%TO.C,R39*%
X151282400Y-80502000D03*
X151282400Y-78502000D03*
%TD*%
%TO.C,R57*%
X152857200Y-59623200D03*
X152857200Y-57623200D03*
%TD*%
D19*
%TO.C,C34*%
X151638000Y-115091300D03*
X151638000Y-117166300D03*
%TD*%
D18*
%TO.C,U4*%
X154954200Y-112396300D03*
X154954200Y-113666300D03*
X154954200Y-114936300D03*
X154954200Y-116206300D03*
X154954200Y-117476300D03*
X154954200Y-118746300D03*
X154954200Y-120016300D03*
X159904200Y-120016300D03*
X159904200Y-118746300D03*
X159904200Y-117476300D03*
X159904200Y-116206300D03*
X159904200Y-114936300D03*
X159904200Y-113666300D03*
X159904200Y-112396300D03*
%TD*%
D13*
%TO.C,R8*%
X163287200Y-112471200D03*
X165287200Y-112471200D03*
%TD*%
D20*
%TO.C,C5*%
X153589900Y-125018800D03*
X151514900Y-125018800D03*
%TD*%
D12*
%TO.C,R18*%
X159359600Y-128914400D03*
X159359600Y-126914400D03*
%TD*%
D14*
%TO.C,J2*%
X131464049Y-70081597D03*
D15*
X131464049Y-58681597D03*
X131464049Y-66981597D03*
%TD*%
D14*
%TO.C,J5*%
X141624045Y-84305587D03*
D15*
X141624045Y-72905587D03*
X141624045Y-81205587D03*
%TD*%
D17*
%TO.C,C21*%
X161391600Y-45655900D03*
X161391600Y-43580900D03*
%TD*%
D26*
%TO.C,C19*%
X164338000Y-62179200D03*
X159338000Y-62179200D03*
%TD*%
D10*
%TO.C,J13*%
X152811400Y-134970600D03*
D11*
X152811400Y-137510600D03*
X155351400Y-134970600D03*
X155351400Y-137510600D03*
X157891400Y-134970600D03*
X157891400Y-137510600D03*
X160431400Y-134970600D03*
X160431400Y-137510600D03*
X162971400Y-134970600D03*
X162971400Y-137510600D03*
%TD*%
D10*
%TO.C,J17*%
X128900000Y-144272000D03*
D11*
X131440000Y-144272000D03*
X133980000Y-144272000D03*
X136520000Y-144272000D03*
X139060000Y-144272000D03*
X141600000Y-144272000D03*
X144140000Y-144272000D03*
%TD*%
D10*
%TO.C,J18*%
X128778000Y-45969000D03*
D11*
X128778000Y-48509000D03*
%TD*%
D26*
%TO.C,C20*%
X150876000Y-62230000D03*
X155876000Y-62230000D03*
%TD*%
D10*
%TO.C,J16*%
X128905000Y-39878000D03*
D11*
X131445000Y-39878000D03*
X133985000Y-39878000D03*
X136525000Y-39878000D03*
X139065000Y-39878000D03*
X141605000Y-39878000D03*
X144145000Y-39878000D03*
%TD*%
M02*
