%TF.GenerationSoftware,KiCad,Pcbnew,8.0.2*%
%TF.CreationDate,2025-03-09T11:52:06-07:00*%
%TF.ProjectId,ResEQ_Mini - Panel,52657345-515f-44d6-996e-69202d205061,rev?*%
%TF.SameCoordinates,Original*%
%TF.FileFunction,Legend,Top*%
%TF.FilePolarity,Positive*%
%FSLAX46Y46*%
G04 Gerber Fmt 4.6, Leading zero omitted, Abs format (unit mm)*
G04 Created by KiCad (PCBNEW 8.0.2) date 2025-03-09 11:52:06*
%MOMM*%
%LPD*%
G01*
G04 APERTURE LIST*
%ADD10C,0.126999*%
%ADD11C,0.000000*%
%ADD12C,0.176388*%
%ADD13C,0.253999*%
G04 APERTURE END LIST*
D10*
X102031802Y-147320000D02*
X121081797Y-147320000D01*
D11*
G36*
X115929818Y-36243686D02*
G01*
X115993392Y-36245437D01*
X116054092Y-36248501D01*
X116112054Y-36252996D01*
X116167412Y-36259041D01*
X116220299Y-36266755D01*
X116270851Y-36276258D01*
X116319201Y-36287667D01*
X116365484Y-36301102D01*
X116409834Y-36316682D01*
X116452386Y-36334525D01*
X116493274Y-36354750D01*
X116532633Y-36377476D01*
X116570596Y-36402823D01*
X116607298Y-36430908D01*
X116642874Y-36461851D01*
X116670408Y-36489389D01*
X116696128Y-36517779D01*
X116720040Y-36547047D01*
X116742148Y-36577220D01*
X116762458Y-36608324D01*
X116780974Y-36640383D01*
X116797703Y-36673424D01*
X116812648Y-36707473D01*
X116825816Y-36742555D01*
X116837212Y-36778696D01*
X116846840Y-36815923D01*
X116854706Y-36854261D01*
X116860815Y-36893736D01*
X116865172Y-36934373D01*
X116867783Y-36976199D01*
X116868652Y-37019240D01*
X116868437Y-37039824D01*
X116867763Y-37060553D01*
X116866582Y-37081407D01*
X116864848Y-37102363D01*
X116862515Y-37123402D01*
X116859536Y-37144504D01*
X116855865Y-37165646D01*
X116851454Y-37186809D01*
X116846258Y-37207973D01*
X116840230Y-37229115D01*
X116833323Y-37250216D01*
X116825492Y-37271255D01*
X116816688Y-37292212D01*
X116806867Y-37313065D01*
X116795981Y-37333794D01*
X116783984Y-37354379D01*
X116771841Y-37374270D01*
X116759263Y-37392957D01*
X116746313Y-37410476D01*
X116733053Y-37426863D01*
X116719544Y-37442155D01*
X116705850Y-37456388D01*
X116692032Y-37469597D01*
X116678152Y-37481820D01*
X116664272Y-37493091D01*
X116650453Y-37503448D01*
X116636759Y-37512926D01*
X116623251Y-37521562D01*
X116609991Y-37529392D01*
X116597041Y-37536452D01*
X116584462Y-37542778D01*
X116572318Y-37548406D01*
X116596468Y-37555317D01*
X116630582Y-37565990D01*
X116650767Y-37572983D01*
X116672715Y-37581211D01*
X116696182Y-37590772D01*
X116720926Y-37601764D01*
X116746703Y-37614286D01*
X116773271Y-37628436D01*
X116800386Y-37644312D01*
X116827807Y-37662012D01*
X116855289Y-37681634D01*
X116868978Y-37692197D01*
X116882591Y-37703277D01*
X116896098Y-37714887D01*
X116909468Y-37727039D01*
X116922673Y-37739745D01*
X116935680Y-37753017D01*
X116962778Y-37783804D01*
X116987266Y-37815257D01*
X117009264Y-37847299D01*
X117028890Y-37879852D01*
X117046262Y-37912840D01*
X117061501Y-37946184D01*
X117074724Y-37979807D01*
X117086050Y-38013632D01*
X117095599Y-38047581D01*
X117103489Y-38081576D01*
X117109839Y-38115540D01*
X117114768Y-38149396D01*
X117118395Y-38183066D01*
X117120838Y-38216472D01*
X117122217Y-38249537D01*
X117122651Y-38282184D01*
X117122062Y-38320019D01*
X117120260Y-38356825D01*
X117117186Y-38392650D01*
X117112784Y-38427539D01*
X117106997Y-38461540D01*
X117099768Y-38494698D01*
X117091041Y-38527061D01*
X117080758Y-38558674D01*
X117068863Y-38589584D01*
X117055299Y-38619838D01*
X117040009Y-38649482D01*
X117022936Y-38678563D01*
X117004024Y-38707127D01*
X116983215Y-38735221D01*
X116960452Y-38762891D01*
X116935680Y-38790184D01*
X116914159Y-38811769D01*
X116891962Y-38832225D01*
X116869136Y-38851582D01*
X116845728Y-38869869D01*
X116797355Y-38903348D01*
X116747219Y-38932894D01*
X116695698Y-38958739D01*
X116643170Y-38981118D01*
X116590011Y-39000261D01*
X116536599Y-39016403D01*
X116483311Y-39029774D01*
X116430525Y-39040608D01*
X116378616Y-39049137D01*
X116327964Y-39055594D01*
X116278944Y-39060211D01*
X116231935Y-39063221D01*
X116145456Y-39065350D01*
X115439902Y-39065350D01*
X115439902Y-38659656D01*
X115439902Y-37812990D01*
X115866765Y-37812990D01*
X115866765Y-38659656D01*
X116127820Y-38659656D01*
X116177126Y-38658574D01*
X116231227Y-38654971D01*
X116259508Y-38652055D01*
X116288306Y-38648308D01*
X116317392Y-38643661D01*
X116346541Y-38638049D01*
X116375525Y-38631402D01*
X116404116Y-38623655D01*
X116432086Y-38614740D01*
X116459209Y-38604590D01*
X116485258Y-38593137D01*
X116510004Y-38580316D01*
X116533220Y-38566057D01*
X116554679Y-38550295D01*
X116570217Y-38537119D01*
X116585052Y-38522769D01*
X116599142Y-38507313D01*
X116612447Y-38490819D01*
X116624926Y-38473353D01*
X116636536Y-38454983D01*
X116647236Y-38435776D01*
X116656986Y-38415799D01*
X116665743Y-38395119D01*
X116673467Y-38373803D01*
X116680116Y-38351919D01*
X116685649Y-38329533D01*
X116690024Y-38306714D01*
X116693200Y-38283528D01*
X116695137Y-38260042D01*
X116695791Y-38236323D01*
X116695299Y-38215167D01*
X116693834Y-38194072D01*
X116691419Y-38173102D01*
X116688074Y-38152318D01*
X116683820Y-38131782D01*
X116678676Y-38111555D01*
X116672664Y-38091701D01*
X116665805Y-38072281D01*
X116658119Y-38053357D01*
X116649627Y-38034992D01*
X116640350Y-38017246D01*
X116630307Y-38000182D01*
X116619521Y-37983863D01*
X116608011Y-37968350D01*
X116595798Y-37953705D01*
X116582903Y-37939990D01*
X116571505Y-37929693D01*
X116559811Y-37919960D01*
X116547834Y-37910774D01*
X116535588Y-37902121D01*
X116510341Y-37886350D01*
X116484180Y-37872521D01*
X116457213Y-37860511D01*
X116429548Y-37850197D01*
X116401294Y-37841453D01*
X116372559Y-37834156D01*
X116343452Y-37828183D01*
X116314082Y-37823408D01*
X116284557Y-37819708D01*
X116254985Y-37816958D01*
X116225475Y-37815036D01*
X116196136Y-37813817D01*
X116138403Y-37812990D01*
X115866765Y-37812990D01*
X115439902Y-37812990D01*
X115439902Y-37456684D01*
X115439902Y-36648823D01*
X115866764Y-36648823D01*
X115866764Y-37456684D01*
X115997291Y-37456684D01*
X116038639Y-37455892D01*
X116060380Y-37454754D01*
X116082674Y-37452991D01*
X116105402Y-37450505D01*
X116128445Y-37447196D01*
X116151685Y-37442968D01*
X116175002Y-37437722D01*
X116198278Y-37431360D01*
X116221394Y-37423784D01*
X116244230Y-37414894D01*
X116266669Y-37404594D01*
X116288591Y-37392785D01*
X116309877Y-37379369D01*
X116330409Y-37364248D01*
X116340355Y-37356017D01*
X116350068Y-37347323D01*
X116359072Y-37338603D01*
X116367574Y-37329649D01*
X116375588Y-37320477D01*
X116383127Y-37311101D01*
X116390206Y-37301537D01*
X116396840Y-37291799D01*
X116408827Y-37271862D01*
X116419202Y-37251407D01*
X116428079Y-37230555D01*
X116435570Y-37209424D01*
X116441791Y-37188132D01*
X116446853Y-37166799D01*
X116450872Y-37145544D01*
X116453961Y-37124485D01*
X116456233Y-37103741D01*
X116457802Y-37083432D01*
X116458782Y-37063675D01*
X116459430Y-37026295D01*
X116459250Y-37010222D01*
X116458651Y-36993788D01*
X116457546Y-36977043D01*
X116455847Y-36960039D01*
X116453466Y-36942829D01*
X116450314Y-36925464D01*
X116446305Y-36907996D01*
X116441350Y-36890476D01*
X116435361Y-36872956D01*
X116428251Y-36855488D01*
X116419932Y-36838123D01*
X116410316Y-36820913D01*
X116399315Y-36803909D01*
X116386841Y-36787165D01*
X116372807Y-36770730D01*
X116357124Y-36754657D01*
X116338359Y-36738353D01*
X116319124Y-36723775D01*
X116299445Y-36710830D01*
X116279347Y-36699425D01*
X116258857Y-36689467D01*
X116237999Y-36680863D01*
X116216801Y-36673520D01*
X116195287Y-36667344D01*
X116173484Y-36662244D01*
X116151417Y-36658125D01*
X116129113Y-36654895D01*
X116106596Y-36652461D01*
X116083894Y-36650730D01*
X116061031Y-36649609D01*
X116014929Y-36648823D01*
X115866764Y-36648823D01*
X115439902Y-36648823D01*
X115439902Y-36243129D01*
X115863236Y-36243129D01*
X115929818Y-36243686D01*
G37*
G36*
X114628513Y-36648823D02*
G01*
X113644263Y-36648823D01*
X113644263Y-37364962D01*
X114593236Y-37364962D01*
X114593236Y-37770656D01*
X113644263Y-37770656D01*
X113644263Y-39065350D01*
X113213875Y-39065350D01*
X113213875Y-36243129D01*
X114628513Y-36243129D01*
X114628513Y-36648823D01*
G37*
G36*
X111879209Y-37238256D02*
G01*
X111902196Y-37239154D01*
X111924676Y-37240683D01*
X111946686Y-37242868D01*
X111968261Y-37245735D01*
X111989439Y-37249310D01*
X112010256Y-37253619D01*
X112030746Y-37258688D01*
X112050947Y-37264542D01*
X112070895Y-37271207D01*
X112090626Y-37278710D01*
X112110176Y-37287075D01*
X112129582Y-37296330D01*
X112148878Y-37306499D01*
X112168103Y-37317608D01*
X112187291Y-37329684D01*
X112198775Y-37337295D01*
X112210697Y-37345594D01*
X112223002Y-37354605D01*
X112235633Y-37364356D01*
X112248532Y-37374871D01*
X112261643Y-37386177D01*
X112274909Y-37398299D01*
X112288274Y-37411264D01*
X112301679Y-37425097D01*
X112315070Y-37439824D01*
X112328387Y-37455471D01*
X112341576Y-37472063D01*
X112354579Y-37489627D01*
X112367338Y-37508188D01*
X112379799Y-37527773D01*
X112391902Y-37548406D01*
X112081458Y-37753017D01*
X112074403Y-37753017D01*
X112066008Y-37740268D01*
X112056688Y-37727255D01*
X112046428Y-37714128D01*
X112035211Y-37701038D01*
X112023024Y-37688133D01*
X112009849Y-37675565D01*
X111995671Y-37663482D01*
X111980476Y-37652035D01*
X111972491Y-37646596D01*
X111964247Y-37641373D01*
X111955740Y-37636384D01*
X111946969Y-37631647D01*
X111937932Y-37627181D01*
X111928626Y-37623006D01*
X111919051Y-37619139D01*
X111909204Y-37615599D01*
X111899083Y-37612406D01*
X111888686Y-37609578D01*
X111878011Y-37607134D01*
X111867057Y-37605092D01*
X111855821Y-37603471D01*
X111844301Y-37602290D01*
X111832496Y-37601568D01*
X111820403Y-37601323D01*
X111809365Y-37601567D01*
X111798741Y-37602281D01*
X111788529Y-37603439D01*
X111778731Y-37605016D01*
X111769347Y-37606986D01*
X111760376Y-37609323D01*
X111751818Y-37612000D01*
X111743674Y-37614993D01*
X111735943Y-37618275D01*
X111728626Y-37621821D01*
X111721722Y-37625605D01*
X111715231Y-37629600D01*
X111709154Y-37633782D01*
X111703490Y-37638123D01*
X111698240Y-37642600D01*
X111693403Y-37647184D01*
X111689479Y-37651315D01*
X111685659Y-37655755D01*
X111681962Y-37660486D01*
X111678410Y-37665484D01*
X111675024Y-37670731D01*
X111671823Y-37676206D01*
X111668829Y-37681887D01*
X111666063Y-37687754D01*
X111663544Y-37693786D01*
X111661295Y-37699963D01*
X111659335Y-37706264D01*
X111657684Y-37712668D01*
X111656365Y-37719156D01*
X111655397Y-37725705D01*
X111654801Y-37732295D01*
X111654597Y-37738906D01*
X111654845Y-37747342D01*
X111655583Y-37755456D01*
X111656807Y-37763261D01*
X111658511Y-37770766D01*
X111660691Y-37777982D01*
X111663341Y-37784919D01*
X111666456Y-37791587D01*
X111670031Y-37797996D01*
X111674061Y-37804158D01*
X111678541Y-37810082D01*
X111683465Y-37815778D01*
X111688828Y-37821258D01*
X111694625Y-37826530D01*
X111700851Y-37831607D01*
X111707501Y-37836497D01*
X111714570Y-37841212D01*
X111719216Y-37844407D01*
X111723961Y-37847427D01*
X111728902Y-37850343D01*
X111734138Y-37853228D01*
X111739766Y-37856155D01*
X111745886Y-37859195D01*
X111759990Y-37865906D01*
X111798410Y-37883876D01*
X111824296Y-37896292D01*
X111839252Y-37903611D01*
X111855681Y-37911767D01*
X112067348Y-38017601D01*
X112101695Y-38034854D01*
X112135753Y-38052437D01*
X112169233Y-38070683D01*
X112185665Y-38080157D01*
X112201844Y-38089920D01*
X112217734Y-38100014D01*
X112233298Y-38110480D01*
X112248500Y-38121360D01*
X112263304Y-38132694D01*
X112277675Y-38144525D01*
X112291575Y-38156893D01*
X112304968Y-38169839D01*
X112317819Y-38183406D01*
X112335563Y-38202052D01*
X112351788Y-38220951D01*
X112366545Y-38240108D01*
X112379886Y-38259529D01*
X112391863Y-38279218D01*
X112402527Y-38299182D01*
X112411931Y-38319424D01*
X112420125Y-38339951D01*
X112427162Y-38360767D01*
X112433092Y-38381878D01*
X112437969Y-38403288D01*
X112441843Y-38425004D01*
X112444766Y-38447029D01*
X112446790Y-38469370D01*
X112447967Y-38492030D01*
X112448347Y-38515017D01*
X112447651Y-38545153D01*
X112445584Y-38574700D01*
X112442185Y-38603647D01*
X112437488Y-38631985D01*
X112431531Y-38659702D01*
X112424349Y-38686789D01*
X112415978Y-38713236D01*
X112406455Y-38739031D01*
X112395816Y-38764165D01*
X112384096Y-38788626D01*
X112371333Y-38812406D01*
X112357562Y-38835494D01*
X112342820Y-38857878D01*
X112327142Y-38879549D01*
X112310565Y-38900497D01*
X112293125Y-38920711D01*
X112266299Y-38947928D01*
X112238755Y-38972753D01*
X112210518Y-38995273D01*
X112181614Y-39015575D01*
X112152070Y-39033749D01*
X112121911Y-39049882D01*
X112091163Y-39064061D01*
X112059851Y-39076374D01*
X112028002Y-39086910D01*
X111995641Y-39095757D01*
X111962795Y-39103001D01*
X111929489Y-39108731D01*
X111895748Y-39113035D01*
X111861600Y-39116000D01*
X111827068Y-39117715D01*
X111792181Y-39118267D01*
X111748456Y-39117323D01*
X111725658Y-39116011D01*
X111702333Y-39114023D01*
X111678553Y-39111269D01*
X111654391Y-39107663D01*
X111629919Y-39103116D01*
X111605209Y-39097541D01*
X111580333Y-39090850D01*
X111555365Y-39082955D01*
X111530376Y-39073767D01*
X111505439Y-39063200D01*
X111480625Y-39051166D01*
X111456009Y-39037576D01*
X111431660Y-39022342D01*
X111407653Y-39005378D01*
X111388683Y-38990338D01*
X111370163Y-38974358D01*
X111352129Y-38957489D01*
X111334617Y-38939783D01*
X111317662Y-38921292D01*
X111301302Y-38902067D01*
X111285573Y-38882159D01*
X111270510Y-38861621D01*
X111256150Y-38840504D01*
X111242529Y-38818861D01*
X111229683Y-38796741D01*
X111217649Y-38774198D01*
X111206462Y-38751283D01*
X111196158Y-38728048D01*
X111186775Y-38704544D01*
X111178347Y-38680822D01*
X111517013Y-38518545D01*
X111521185Y-38529942D01*
X111525743Y-38541592D01*
X111530664Y-38553419D01*
X111535920Y-38565343D01*
X111541487Y-38577288D01*
X111547337Y-38589176D01*
X111553446Y-38600930D01*
X111559788Y-38612472D01*
X111566336Y-38623724D01*
X111573066Y-38634610D01*
X111579950Y-38645051D01*
X111586963Y-38654970D01*
X111594080Y-38664290D01*
X111601274Y-38672933D01*
X111608520Y-38680822D01*
X111615792Y-38687878D01*
X111620836Y-38692700D01*
X111626713Y-38697848D01*
X111633426Y-38703234D01*
X111640982Y-38708769D01*
X111649386Y-38714367D01*
X111658642Y-38719938D01*
X111668756Y-38725396D01*
X111679733Y-38730652D01*
X111691578Y-38735619D01*
X111697828Y-38737967D01*
X111704296Y-38740209D01*
X111710985Y-38742335D01*
X111717893Y-38744334D01*
X111725023Y-38746194D01*
X111732374Y-38747905D01*
X111739947Y-38749456D01*
X111747743Y-38750836D01*
X111755763Y-38752034D01*
X111764007Y-38753039D01*
X111772475Y-38753839D01*
X111781169Y-38754424D01*
X111790089Y-38754784D01*
X111799236Y-38754906D01*
X111811176Y-38754659D01*
X111823152Y-38753920D01*
X111835118Y-38752697D01*
X111847027Y-38750992D01*
X111858832Y-38748812D01*
X111870488Y-38746162D01*
X111881947Y-38743047D01*
X111893163Y-38739472D01*
X111904090Y-38735442D01*
X111914681Y-38730962D01*
X111924890Y-38726038D01*
X111934670Y-38720675D01*
X111943974Y-38714878D01*
X111952756Y-38708652D01*
X111960970Y-38702002D01*
X111968569Y-38694934D01*
X111975056Y-38688117D01*
X111981275Y-38680912D01*
X111987204Y-38673346D01*
X111992823Y-38665444D01*
X111998111Y-38657231D01*
X112003048Y-38648735D01*
X112007613Y-38639980D01*
X112011785Y-38630993D01*
X112015543Y-38621799D01*
X112018868Y-38612424D01*
X112021737Y-38602894D01*
X112024132Y-38593234D01*
X112026030Y-38583472D01*
X112027411Y-38573632D01*
X112028255Y-38563740D01*
X112028541Y-38553822D01*
X112028334Y-38544062D01*
X112027708Y-38534606D01*
X112026658Y-38525429D01*
X112025179Y-38516505D01*
X112023266Y-38507809D01*
X112020914Y-38499314D01*
X112018118Y-38490995D01*
X112014871Y-38482826D01*
X112011171Y-38474781D01*
X112007010Y-38466834D01*
X112002384Y-38458959D01*
X111997288Y-38451131D01*
X111991716Y-38443324D01*
X111985664Y-38435511D01*
X111979126Y-38427667D01*
X111972097Y-38419767D01*
X111962714Y-38410710D01*
X111953087Y-38402045D01*
X111943223Y-38393753D01*
X111933126Y-38385812D01*
X111922802Y-38378202D01*
X111912256Y-38370902D01*
X111901493Y-38363891D01*
X111890517Y-38357149D01*
X111879335Y-38350655D01*
X111867952Y-38344388D01*
X111856372Y-38338328D01*
X111844601Y-38332454D01*
X111820506Y-38321182D01*
X111795708Y-38310406D01*
X111644014Y-38239850D01*
X111613001Y-38224940D01*
X111581120Y-38209203D01*
X111548826Y-38192473D01*
X111516573Y-38174587D01*
X111500604Y-38165157D01*
X111484816Y-38155377D01*
X111469266Y-38145224D01*
X111454010Y-38134679D01*
X111439106Y-38123720D01*
X111424609Y-38112327D01*
X111410578Y-38100479D01*
X111397069Y-38088156D01*
X111380528Y-38071495D01*
X111365278Y-38054580D01*
X111351289Y-38037407D01*
X111338530Y-38019971D01*
X111326970Y-38002266D01*
X111316578Y-37984286D01*
X111307323Y-37966028D01*
X111299173Y-37947486D01*
X111292099Y-37928654D01*
X111286068Y-37909528D01*
X111281050Y-37890102D01*
X111277014Y-37870371D01*
X111273929Y-37850330D01*
X111271764Y-37829974D01*
X111270488Y-37809297D01*
X111270069Y-37788295D01*
X111270725Y-37761266D01*
X111272674Y-37734448D01*
X111275883Y-37707889D01*
X111280322Y-37681635D01*
X111285960Y-37655732D01*
X111292765Y-37630227D01*
X111300708Y-37605167D01*
X111309756Y-37580597D01*
X111319880Y-37556565D01*
X111331047Y-37533117D01*
X111343227Y-37510299D01*
X111356389Y-37488158D01*
X111370502Y-37466741D01*
X111385535Y-37446094D01*
X111401456Y-37426263D01*
X111418236Y-37407295D01*
X111434078Y-37391441D01*
X111451212Y-37375711D01*
X111469690Y-37360228D01*
X111489563Y-37345118D01*
X111510883Y-37330504D01*
X111533701Y-37316510D01*
X111558070Y-37303260D01*
X111584041Y-37290879D01*
X111611666Y-37279489D01*
X111640995Y-37269216D01*
X111656316Y-37264536D01*
X111672082Y-37260183D01*
X111688301Y-37256170D01*
X111704978Y-37252514D01*
X111722120Y-37249230D01*
X111739734Y-37246333D01*
X111757825Y-37243840D01*
X111776401Y-37241765D01*
X111795468Y-37240125D01*
X111815033Y-37238933D01*
X111835101Y-37238207D01*
X111855680Y-37237962D01*
X111879209Y-37238256D01*
G37*
G36*
X109776668Y-37239375D02*
G01*
X109826148Y-37243481D01*
X109873375Y-37250077D01*
X109918380Y-37258963D01*
X109961194Y-37269937D01*
X110001848Y-37282796D01*
X110040373Y-37297341D01*
X110076800Y-37313368D01*
X110111159Y-37330677D01*
X110143483Y-37349066D01*
X110173801Y-37368334D01*
X110202146Y-37388278D01*
X110228548Y-37408698D01*
X110253037Y-37429392D01*
X110275646Y-37450158D01*
X110296404Y-37470795D01*
X110317297Y-37493226D01*
X110337005Y-37516170D01*
X110355562Y-37539583D01*
X110373002Y-37563420D01*
X110404669Y-37612190D01*
X110432278Y-37662122D01*
X110456106Y-37712860D01*
X110476424Y-37764049D01*
X110493507Y-37815330D01*
X110507629Y-37866347D01*
X110519065Y-37916745D01*
X110528086Y-37966165D01*
X110534969Y-38014253D01*
X110539986Y-38060650D01*
X110543411Y-38105002D01*
X110545518Y-38146950D01*
X110546876Y-38222212D01*
X110546876Y-38271600D01*
X109269820Y-38271600D01*
X109271718Y-38295602D01*
X109274747Y-38319908D01*
X109278882Y-38344410D01*
X109284097Y-38369000D01*
X109290366Y-38393570D01*
X109297664Y-38418010D01*
X109305964Y-38442213D01*
X109315241Y-38466069D01*
X109325468Y-38489471D01*
X109336621Y-38512309D01*
X109348673Y-38534476D01*
X109361598Y-38555862D01*
X109375370Y-38576359D01*
X109389965Y-38595860D01*
X109405355Y-38614254D01*
X109421515Y-38631434D01*
X109440235Y-38648979D01*
X109459321Y-38664644D01*
X109478729Y-38678532D01*
X109498410Y-38690744D01*
X109518318Y-38701386D01*
X109538407Y-38710561D01*
X109558631Y-38718371D01*
X109578942Y-38724920D01*
X109599295Y-38730311D01*
X109619642Y-38734649D01*
X109639938Y-38738035D01*
X109660136Y-38740574D01*
X109680189Y-38742369D01*
X109700051Y-38743523D01*
X109739015Y-38744323D01*
X109759858Y-38744030D01*
X109780080Y-38743137D01*
X109799724Y-38741625D01*
X109818831Y-38739472D01*
X109837441Y-38736657D01*
X109855597Y-38733160D01*
X109873339Y-38728961D01*
X109890709Y-38724038D01*
X109907749Y-38718371D01*
X109924499Y-38711939D01*
X109941001Y-38704721D01*
X109957296Y-38696698D01*
X109973426Y-38687847D01*
X109989432Y-38678149D01*
X110005355Y-38667583D01*
X110021237Y-38656128D01*
X110034300Y-38645384D01*
X110047027Y-38634335D01*
X110059413Y-38623006D01*
X110071452Y-38611425D01*
X110083141Y-38599616D01*
X110094472Y-38587605D01*
X110105443Y-38575419D01*
X110116046Y-38563083D01*
X110126277Y-38550623D01*
X110136131Y-38538065D01*
X110145602Y-38525434D01*
X110154686Y-38512757D01*
X110163377Y-38500059D01*
X110171670Y-38487367D01*
X110179560Y-38474705D01*
X110187042Y-38462100D01*
X110532764Y-38656128D01*
X110532765Y-38659656D01*
X110517848Y-38684617D01*
X110502228Y-38709196D01*
X110485946Y-38733341D01*
X110469045Y-38757001D01*
X110451564Y-38780122D01*
X110433546Y-38802655D01*
X110415032Y-38824547D01*
X110396064Y-38845746D01*
X110376681Y-38866201D01*
X110356927Y-38885861D01*
X110336842Y-38904673D01*
X110316468Y-38922586D01*
X110295846Y-38939547D01*
X110275017Y-38955507D01*
X110254022Y-38970412D01*
X110232904Y-38984211D01*
X110205258Y-39000832D01*
X110176604Y-39016306D01*
X110147010Y-39030643D01*
X110116543Y-39043853D01*
X110085269Y-39055947D01*
X110053256Y-39066935D01*
X110020571Y-39076828D01*
X109987282Y-39085635D01*
X109953456Y-39093367D01*
X109919159Y-39100035D01*
X109884459Y-39105649D01*
X109849423Y-39110219D01*
X109814119Y-39113756D01*
X109778613Y-39116269D01*
X109742972Y-39117769D01*
X109707265Y-39118267D01*
X109663439Y-39117552D01*
X109620580Y-39115359D01*
X109578661Y-39111616D01*
X109537656Y-39106250D01*
X109497541Y-39099190D01*
X109458288Y-39090362D01*
X109419873Y-39079694D01*
X109382269Y-39067114D01*
X109345450Y-39052550D01*
X109309392Y-39035929D01*
X109274066Y-39017179D01*
X109239449Y-38996228D01*
X109205514Y-38973003D01*
X109172235Y-38947432D01*
X109139587Y-38919442D01*
X109107543Y-38888961D01*
X109076706Y-38856317D01*
X109047709Y-38821940D01*
X109020572Y-38785921D01*
X108995316Y-38748346D01*
X108971962Y-38709304D01*
X108950530Y-38668882D01*
X108931041Y-38627168D01*
X108913516Y-38584250D01*
X108897975Y-38540215D01*
X108884439Y-38495153D01*
X108872929Y-38449149D01*
X108863465Y-38402294D01*
X108856068Y-38354673D01*
X108850760Y-38306375D01*
X108847559Y-38257489D01*
X108846488Y-38208101D01*
X108847642Y-38158352D01*
X108851090Y-38108427D01*
X108856813Y-38058482D01*
X108864788Y-38008671D01*
X108874996Y-37959149D01*
X108880737Y-37936462D01*
X109298043Y-37936462D01*
X110123542Y-37936462D01*
X110123543Y-37936462D01*
X110119908Y-37918110D01*
X110115626Y-37900109D01*
X110110715Y-37882481D01*
X110105188Y-37865245D01*
X110099061Y-37848422D01*
X110092351Y-37832034D01*
X110085073Y-37816101D01*
X110077241Y-37800642D01*
X110068872Y-37785680D01*
X110059981Y-37771235D01*
X110050584Y-37757327D01*
X110040695Y-37743978D01*
X110030332Y-37731207D01*
X110019508Y-37719035D01*
X110008240Y-37707484D01*
X109996543Y-37696573D01*
X109985584Y-37687285D01*
X109973861Y-37677997D01*
X109961351Y-37668792D01*
X109948036Y-37659752D01*
X109933894Y-37650960D01*
X109918904Y-37642499D01*
X109903047Y-37634451D01*
X109886300Y-37626900D01*
X109868644Y-37619927D01*
X109850058Y-37613615D01*
X109830520Y-37608048D01*
X109810012Y-37603308D01*
X109788511Y-37599477D01*
X109765997Y-37596638D01*
X109754354Y-37595616D01*
X109742450Y-37594874D01*
X109730282Y-37594421D01*
X109717848Y-37594268D01*
X109691344Y-37594954D01*
X109666055Y-37596948D01*
X109641954Y-37600151D01*
X109619015Y-37604465D01*
X109597214Y-37609792D01*
X109576524Y-37616034D01*
X109556918Y-37623092D01*
X109538373Y-37630868D01*
X109520860Y-37639265D01*
X109504356Y-37648183D01*
X109488833Y-37657526D01*
X109474266Y-37667193D01*
X109460630Y-37677089D01*
X109447898Y-37687113D01*
X109436044Y-37697168D01*
X109425043Y-37707157D01*
X109413966Y-37718065D01*
X109403235Y-37729598D01*
X109392866Y-37741720D01*
X109382875Y-37754396D01*
X109373276Y-37767588D01*
X109364085Y-37781261D01*
X109355318Y-37795378D01*
X109346991Y-37809903D01*
X109339118Y-37824801D01*
X109331715Y-37840034D01*
X109324798Y-37855567D01*
X109318383Y-37871364D01*
X109312484Y-37887388D01*
X109307117Y-37903603D01*
X109302298Y-37919973D01*
X109298043Y-37936462D01*
X108880737Y-37936462D01*
X108887415Y-37910072D01*
X108902026Y-37861595D01*
X108918807Y-37813872D01*
X108937738Y-37767058D01*
X108958798Y-37721309D01*
X108981966Y-37676779D01*
X109007222Y-37633624D01*
X109034545Y-37591999D01*
X109063914Y-37552058D01*
X109095310Y-37513957D01*
X109128710Y-37477851D01*
X109157032Y-37450740D01*
X109186449Y-37425003D01*
X109216983Y-37400693D01*
X109248654Y-37377860D01*
X109281482Y-37356558D01*
X109315489Y-37336836D01*
X109350694Y-37318748D01*
X109387119Y-37302344D01*
X109424784Y-37287676D01*
X109463711Y-37274797D01*
X109503918Y-37263757D01*
X109545428Y-37254609D01*
X109588261Y-37247403D01*
X109632438Y-37242192D01*
X109677978Y-37239028D01*
X109724904Y-37237962D01*
X109776668Y-37239375D01*
G37*
G36*
X107060813Y-36245189D02*
G01*
X107118306Y-36247850D01*
X107173329Y-36251673D01*
X107225996Y-36256716D01*
X107276420Y-36263035D01*
X107324715Y-36270687D01*
X107370995Y-36279730D01*
X107415373Y-36290219D01*
X107457963Y-36302212D01*
X107498879Y-36315766D01*
X107538234Y-36330938D01*
X107576142Y-36347783D01*
X107612717Y-36366360D01*
X107648072Y-36386725D01*
X107682321Y-36408935D01*
X107710596Y-36428809D01*
X107737245Y-36449365D01*
X107762314Y-36470540D01*
X107785853Y-36492271D01*
X107807909Y-36514496D01*
X107828529Y-36537151D01*
X107847762Y-36560175D01*
X107865655Y-36583504D01*
X107882257Y-36607076D01*
X107897614Y-36630829D01*
X107924787Y-36678623D01*
X107947557Y-36726387D01*
X107966307Y-36773618D01*
X107981419Y-36819816D01*
X107993275Y-36864479D01*
X108002259Y-36907106D01*
X108008751Y-36947196D01*
X108013135Y-36984247D01*
X108015793Y-37017758D01*
X108017460Y-37072157D01*
X108016730Y-37109867D01*
X108014556Y-37146918D01*
X108010960Y-37183290D01*
X108005967Y-37218966D01*
X107999599Y-37253926D01*
X107991880Y-37288151D01*
X107982833Y-37321623D01*
X107972481Y-37354324D01*
X107960847Y-37386233D01*
X107947955Y-37417333D01*
X107933828Y-37447606D01*
X107918489Y-37477031D01*
X107901962Y-37505591D01*
X107884269Y-37533266D01*
X107865434Y-37560038D01*
X107845481Y-37585889D01*
X107824432Y-37610799D01*
X107802310Y-37634750D01*
X107779140Y-37657723D01*
X107754944Y-37679699D01*
X107729745Y-37700660D01*
X107703567Y-37720586D01*
X107676433Y-37739460D01*
X107648366Y-37757262D01*
X107589527Y-37789576D01*
X107527237Y-37817379D01*
X107461680Y-37840520D01*
X107393043Y-37858851D01*
X108271460Y-39065350D01*
X107749349Y-39065350D01*
X106941488Y-37911767D01*
X106863877Y-37911767D01*
X106863877Y-39065350D01*
X106433488Y-39065350D01*
X106433488Y-37534295D01*
X106433488Y-36638240D01*
X106863877Y-36638240D01*
X106863877Y-37534295D01*
X106867405Y-37537823D01*
X107001460Y-37537823D01*
X107061667Y-37536342D01*
X107101346Y-37533568D01*
X107145769Y-37528618D01*
X107193705Y-37520878D01*
X107243926Y-37509732D01*
X107295201Y-37494566D01*
X107320850Y-37485283D01*
X107346301Y-37474764D01*
X107371400Y-37462933D01*
X107395994Y-37449712D01*
X107419930Y-37435025D01*
X107443053Y-37418795D01*
X107465209Y-37400945D01*
X107486246Y-37381398D01*
X107506008Y-37360077D01*
X107524343Y-37336905D01*
X107541097Y-37311806D01*
X107556116Y-37284703D01*
X107569245Y-37255518D01*
X107580333Y-37224175D01*
X107589224Y-37190597D01*
X107595765Y-37154707D01*
X107599803Y-37116428D01*
X107601183Y-37075684D01*
X107600093Y-37039356D01*
X107596892Y-37005078D01*
X107591677Y-36972790D01*
X107584550Y-36942435D01*
X107575608Y-36913953D01*
X107564952Y-36887285D01*
X107552681Y-36862373D01*
X107538895Y-36839158D01*
X107523693Y-36817581D01*
X107507175Y-36797583D01*
X107489439Y-36779106D01*
X107470586Y-36762091D01*
X107450715Y-36746479D01*
X107429925Y-36732211D01*
X107408316Y-36719228D01*
X107385988Y-36707473D01*
X107363040Y-36696885D01*
X107339571Y-36687406D01*
X107315680Y-36678977D01*
X107291469Y-36671540D01*
X107267034Y-36665036D01*
X107242478Y-36659406D01*
X107193394Y-36650532D01*
X107145012Y-36644449D01*
X107098130Y-36640686D01*
X107053542Y-36638773D01*
X107012044Y-36638240D01*
X106863877Y-36638240D01*
X106433488Y-36638240D01*
X106433488Y-36243129D01*
X106937960Y-36243129D01*
X107060813Y-36245189D01*
G37*
G36*
X118759106Y-144128744D02*
G01*
X118759106Y-144361583D01*
X117534968Y-144957774D01*
X117534968Y-144686147D01*
X118466300Y-144245168D01*
X117534968Y-143804199D01*
X117534968Y-143532552D01*
X118759106Y-144128744D01*
G37*
G36*
X117009329Y-144128744D02*
G01*
X117009329Y-144361583D01*
X115785191Y-144957774D01*
X115785191Y-144686147D01*
X116716523Y-144245168D01*
X115785191Y-143804199D01*
X115785191Y-143532552D01*
X117009329Y-144128744D01*
G37*
G36*
X115259551Y-144128744D02*
G01*
X115259551Y-144361583D01*
X114035412Y-144957774D01*
X114035412Y-144686147D01*
X114966745Y-144245168D01*
X114035412Y-143804199D01*
X114035412Y-143532552D01*
X115259551Y-144128744D01*
G37*
G36*
X108902498Y-143804179D02*
G01*
X107971165Y-144245148D01*
X108902498Y-144686127D01*
X108902498Y-144957764D01*
X107678360Y-144361572D01*
X107678360Y-144128733D01*
X108902498Y-143532542D01*
X108902498Y-143804179D01*
G37*
G36*
X107152720Y-143804179D02*
G01*
X106221387Y-144245148D01*
X107152720Y-144686127D01*
X107152720Y-144957764D01*
X105928582Y-144361572D01*
X105928582Y-144128733D01*
X107152720Y-143532542D01*
X107152720Y-143804179D01*
G37*
G36*
X105402943Y-143804179D02*
G01*
X104471610Y-144245148D01*
X105402943Y-144686127D01*
X105402943Y-144957764D01*
X104178805Y-144361572D01*
X104178805Y-144128733D01*
X105402943Y-143532542D01*
X105402943Y-143804179D01*
G37*
G36*
X118434551Y-129241540D02*
G01*
X118423967Y-129245050D01*
X117841884Y-129245050D01*
X117750162Y-129559025D01*
X117838357Y-129551975D01*
X117868112Y-129552597D01*
X117897805Y-129554469D01*
X117927375Y-129557602D01*
X117956758Y-129562006D01*
X117985893Y-129567691D01*
X118014718Y-129574669D01*
X118043171Y-129582948D01*
X118071190Y-129592541D01*
X118098713Y-129603456D01*
X118125678Y-129615704D01*
X118152022Y-129629297D01*
X118177685Y-129644243D01*
X118202603Y-129660554D01*
X118226715Y-129678240D01*
X118249960Y-129697311D01*
X118272273Y-129717777D01*
X118289449Y-129735026D01*
X118306490Y-129753738D01*
X118323262Y-129773969D01*
X118339631Y-129795776D01*
X118355463Y-129819216D01*
X118370623Y-129844346D01*
X118384977Y-129871222D01*
X118398391Y-129899902D01*
X118410729Y-129930442D01*
X118421859Y-129962900D01*
X118426928Y-129979865D01*
X118431644Y-129997331D01*
X118435991Y-130015304D01*
X118439952Y-130033793D01*
X118443510Y-130052803D01*
X118446648Y-130072342D01*
X118449349Y-130092418D01*
X118451597Y-130113036D01*
X118453374Y-130134205D01*
X118454665Y-130155931D01*
X118455451Y-130178222D01*
X118455717Y-130201084D01*
X118454973Y-130239032D01*
X118452741Y-130276142D01*
X118449020Y-130312406D01*
X118443811Y-130347812D01*
X118437114Y-130382351D01*
X118428928Y-130416011D01*
X118419254Y-130448783D01*
X118408092Y-130480655D01*
X118395442Y-130511619D01*
X118381303Y-130541662D01*
X118365677Y-130570776D01*
X118348561Y-130598949D01*
X118329958Y-130626171D01*
X118309866Y-130652433D01*
X118288286Y-130677722D01*
X118265218Y-130702030D01*
X118237069Y-130728587D01*
X118208201Y-130752757D01*
X118178641Y-130774632D01*
X118148415Y-130794306D01*
X118117548Y-130811871D01*
X118086066Y-130827421D01*
X118053994Y-130841048D01*
X118021360Y-130852845D01*
X117988188Y-130862906D01*
X117954504Y-130871324D01*
X117920335Y-130878192D01*
X117885705Y-130883602D01*
X117850642Y-130887648D01*
X117815171Y-130890423D01*
X117779317Y-130892019D01*
X117743106Y-130892531D01*
X117701166Y-130891787D01*
X117679568Y-130890764D01*
X117657613Y-130889224D01*
X117635348Y-130887105D01*
X117612820Y-130884346D01*
X117590075Y-130880884D01*
X117567159Y-130876658D01*
X117544119Y-130871604D01*
X117521001Y-130865662D01*
X117497853Y-130858770D01*
X117474720Y-130850864D01*
X117451649Y-130841884D01*
X117428686Y-130831767D01*
X117405879Y-130820451D01*
X117383273Y-130807875D01*
X117369237Y-130799055D01*
X117349042Y-130785605D01*
X117336983Y-130777040D01*
X117323803Y-130767193D01*
X117309642Y-130756024D01*
X117294637Y-130743491D01*
X117278930Y-130729552D01*
X117262660Y-130714166D01*
X117245966Y-130697292D01*
X117228988Y-130678889D01*
X117211865Y-130658915D01*
X117194737Y-130637329D01*
X117186214Y-130625918D01*
X117177743Y-130614089D01*
X117169340Y-130601837D01*
X117161023Y-130589156D01*
X117379744Y-130409234D01*
X117382342Y-130413892D01*
X117389941Y-130426651D01*
X117395527Y-130435501D01*
X117402254Y-130445694D01*
X117410088Y-130457004D01*
X117418991Y-130469202D01*
X117428927Y-130482062D01*
X117439861Y-130495356D01*
X117451756Y-130508857D01*
X117464576Y-130522337D01*
X117471322Y-130528999D01*
X117478285Y-130535570D01*
X117485462Y-130542022D01*
X117492847Y-130548327D01*
X117500436Y-130554456D01*
X117508225Y-130560382D01*
X117516209Y-130566074D01*
X117524383Y-130571506D01*
X117536536Y-130579195D01*
X117549174Y-130586387D01*
X117562288Y-130593084D01*
X117575867Y-130599285D01*
X117589901Y-130604989D01*
X117604379Y-130610198D01*
X117619291Y-130614911D01*
X117634627Y-130619128D01*
X117650376Y-130622848D01*
X117666528Y-130626073D01*
X117683073Y-130628802D01*
X117700000Y-130631034D01*
X117717300Y-130632770D01*
X117734961Y-130634011D01*
X117752974Y-130634755D01*
X117771328Y-130635003D01*
X117799032Y-130634318D01*
X117825285Y-130632336D01*
X117850122Y-130629166D01*
X117873578Y-130624915D01*
X117895692Y-130619693D01*
X117916498Y-130613608D01*
X117936032Y-130606769D01*
X117954332Y-130599284D01*
X117971432Y-130591261D01*
X117987370Y-130582810D01*
X118002182Y-130574038D01*
X118015903Y-130565055D01*
X118028569Y-130555969D01*
X118040218Y-130546889D01*
X118060606Y-130529178D01*
X118071255Y-130518054D01*
X118081965Y-130505840D01*
X118092635Y-130492519D01*
X118103160Y-130478078D01*
X118113436Y-130462499D01*
X118123362Y-130445768D01*
X118132832Y-130427869D01*
X118141745Y-130408787D01*
X118149996Y-130388505D01*
X118157482Y-130367010D01*
X118164100Y-130344285D01*
X118167051Y-130332457D01*
X118169746Y-130320315D01*
X118172173Y-130307858D01*
X118174318Y-130295084D01*
X118176169Y-130281991D01*
X118177712Y-130268577D01*
X118178934Y-130254841D01*
X118179823Y-130240779D01*
X118180367Y-130226391D01*
X118180550Y-130211674D01*
X118179941Y-130182726D01*
X118178159Y-130155376D01*
X118175272Y-130129565D01*
X118171345Y-130105237D01*
X118166447Y-130082335D01*
X118160644Y-130060802D01*
X118154005Y-130040581D01*
X118146595Y-130021616D01*
X118138483Y-130003851D01*
X118129735Y-129987227D01*
X118120418Y-129971688D01*
X118110601Y-129957178D01*
X118100349Y-129943640D01*
X118089730Y-129931017D01*
X118078812Y-129919252D01*
X118067661Y-129908288D01*
X118050068Y-129892567D01*
X118031757Y-129878422D01*
X118012835Y-129865775D01*
X117993413Y-129854550D01*
X117973598Y-129844667D01*
X117953498Y-129836051D01*
X117933223Y-129828623D01*
X117912881Y-129822306D01*
X117892580Y-129817023D01*
X117872429Y-129812695D01*
X117852536Y-129809246D01*
X117833010Y-129806597D01*
X117813959Y-129804673D01*
X117795493Y-129803394D01*
X117777719Y-129802683D01*
X117760746Y-129802463D01*
X117731090Y-129802973D01*
X117716779Y-129803626D01*
X117702757Y-129804557D01*
X117688984Y-129805778D01*
X117675417Y-129807299D01*
X117662016Y-129809130D01*
X117648738Y-129811280D01*
X117635544Y-129813762D01*
X117622390Y-129816585D01*
X117609237Y-129819759D01*
X117596042Y-129823295D01*
X117582765Y-129827202D01*
X117569364Y-129831493D01*
X117555797Y-129836175D01*
X117542024Y-129841261D01*
X117519851Y-129849531D01*
X117498257Y-129858462D01*
X117477159Y-129868054D01*
X117456475Y-129878307D01*
X117436121Y-129889221D01*
X117416015Y-129900796D01*
X117396075Y-129913032D01*
X117376218Y-129925927D01*
X117654912Y-128976953D01*
X118434551Y-128976953D01*
X118434551Y-129241540D01*
G37*
G36*
X116448413Y-130860762D02*
G01*
X116159135Y-130860762D01*
X116159135Y-129245050D01*
X115834580Y-129245050D01*
X115993329Y-128980462D01*
X116448413Y-128980462D01*
X116448413Y-130860762D01*
G37*
G36*
X115107857Y-130860762D02*
G01*
X114818580Y-130860762D01*
X114818580Y-129245050D01*
X114490495Y-129245050D01*
X114649247Y-128980462D01*
X115107857Y-128980462D01*
X115107857Y-130860762D01*
G37*
G36*
X107547831Y-130860762D02*
G01*
X107258554Y-130860762D01*
X107258554Y-129245050D01*
X106930471Y-129245050D01*
X107089220Y-128980462D01*
X107547831Y-128980462D01*
X107547831Y-130860762D01*
G37*
G36*
X106119082Y-129072188D02*
G01*
X106117329Y-129070881D01*
X106119082Y-129068658D01*
X106119082Y-129072188D01*
G37*
G36*
X106117329Y-129070881D02*
G01*
X105671054Y-129636621D01*
X105686626Y-129634142D01*
X105701702Y-129631994D01*
X105716447Y-129630175D01*
X105731026Y-129628687D01*
X105745606Y-129627530D01*
X105760351Y-129626703D01*
X105775427Y-129626207D01*
X105790999Y-129626041D01*
X105831102Y-129627131D01*
X105869402Y-129630292D01*
X105905914Y-129635366D01*
X105940653Y-129642191D01*
X105973636Y-129650608D01*
X106004877Y-129660457D01*
X106034392Y-129671576D01*
X106062196Y-129683807D01*
X106088306Y-129696989D01*
X106112736Y-129710962D01*
X106135502Y-129725565D01*
X106156619Y-129740638D01*
X106176104Y-129756022D01*
X106193971Y-129771556D01*
X106210236Y-129787079D01*
X106224915Y-129802433D01*
X106243636Y-129822926D01*
X106261412Y-129844674D01*
X106278206Y-129867612D01*
X106293982Y-129891672D01*
X106308704Y-129916786D01*
X106322335Y-129942887D01*
X106334840Y-129969908D01*
X106346182Y-129997782D01*
X106356326Y-130026442D01*
X106365234Y-130055819D01*
X106372871Y-130085848D01*
X106379200Y-130116460D01*
X106384186Y-130147589D01*
X106387792Y-130179167D01*
X106389982Y-130211127D01*
X106390721Y-130243402D01*
X106390016Y-130275841D01*
X106387896Y-130308280D01*
X106384349Y-130340636D01*
X106379366Y-130372826D01*
X106372935Y-130404769D01*
X106365048Y-130436380D01*
X106355693Y-130467578D01*
X106344860Y-130498281D01*
X106332538Y-130528404D01*
X106318718Y-130557866D01*
X106303389Y-130586584D01*
X106286541Y-130614475D01*
X106268163Y-130641457D01*
X106248245Y-130667446D01*
X106226777Y-130692361D01*
X106203748Y-130716119D01*
X106173515Y-130743681D01*
X106142460Y-130768267D01*
X106110754Y-130790041D01*
X106078567Y-130809169D01*
X106046071Y-130825816D01*
X106013434Y-130840148D01*
X105980829Y-130852330D01*
X105948426Y-130862527D01*
X105916394Y-130870905D01*
X105884905Y-130877629D01*
X105854129Y-130882866D01*
X105824237Y-130886779D01*
X105795399Y-130889534D01*
X105767785Y-130891298D01*
X105716915Y-130892510D01*
X105686294Y-130892078D01*
X105655338Y-130890705D01*
X105624122Y-130888278D01*
X105592726Y-130884683D01*
X105561227Y-130879807D01*
X105529702Y-130873535D01*
X105498228Y-130865754D01*
X105466884Y-130856351D01*
X105435746Y-130845211D01*
X105404893Y-130832222D01*
X105374401Y-130817269D01*
X105344349Y-130800238D01*
X105314813Y-130781017D01*
X105285872Y-130759490D01*
X105257602Y-130735546D01*
X105230082Y-130709069D01*
X105211982Y-130688851D01*
X105194749Y-130667868D01*
X105178426Y-130646099D01*
X105163054Y-130623524D01*
X105148674Y-130600122D01*
X105135328Y-130575871D01*
X105123057Y-130550753D01*
X105111902Y-130524746D01*
X105101904Y-130497829D01*
X105093105Y-130469982D01*
X105085547Y-130441184D01*
X105079270Y-130411414D01*
X105074315Y-130380653D01*
X105070726Y-130348879D01*
X105068542Y-130316071D01*
X105067804Y-130282210D01*
X105068175Y-130256736D01*
X105068298Y-130254001D01*
X105353554Y-130254001D01*
X105353969Y-130272052D01*
X105355215Y-130290428D01*
X105357298Y-130309042D01*
X105360224Y-130327806D01*
X105363997Y-130346632D01*
X105368623Y-130365432D01*
X105374107Y-130384119D01*
X105380454Y-130402604D01*
X105387669Y-130420800D01*
X105395757Y-130438619D01*
X105404724Y-130455974D01*
X105414574Y-130472775D01*
X105425313Y-130488936D01*
X105436946Y-130504369D01*
X105449479Y-130518985D01*
X105462916Y-130532698D01*
X105474764Y-130543187D01*
X105487755Y-130553449D01*
X105501789Y-130563421D01*
X105516769Y-130573043D01*
X105532597Y-130582251D01*
X105549174Y-130590983D01*
X105566402Y-130599178D01*
X105584183Y-130606774D01*
X105602419Y-130613709D01*
X105621011Y-130619920D01*
X105639862Y-130625346D01*
X105658873Y-130629924D01*
X105677945Y-130633593D01*
X105696982Y-130636290D01*
X105715885Y-130637954D01*
X105734554Y-130638523D01*
X105751285Y-130638109D01*
X105768351Y-130636869D01*
X105785675Y-130634802D01*
X105803181Y-130631908D01*
X105820789Y-130628188D01*
X105838424Y-130623640D01*
X105856007Y-130618266D01*
X105873460Y-130612065D01*
X105890707Y-130605038D01*
X105907670Y-130597183D01*
X105924271Y-130588503D01*
X105940433Y-130578995D01*
X105956078Y-130568661D01*
X105971129Y-130557500D01*
X105985508Y-130545512D01*
X105999138Y-130532698D01*
X106011993Y-130518987D01*
X106024094Y-130504372D01*
X106035430Y-130488941D01*
X106045991Y-130472781D01*
X106055766Y-130455980D01*
X106064746Y-130438627D01*
X106072919Y-130420808D01*
X106080276Y-130402612D01*
X106086806Y-130384126D01*
X106092500Y-130365439D01*
X106097345Y-130346638D01*
X106101333Y-130327812D01*
X106104452Y-130309047D01*
X106106693Y-130290431D01*
X106108046Y-130272054D01*
X106108499Y-130254001D01*
X106108046Y-130235947D01*
X106106693Y-130217568D01*
X106104452Y-130198952D01*
X106101333Y-130180187D01*
X106097345Y-130161360D01*
X106092500Y-130142558D01*
X106086807Y-130123871D01*
X106080276Y-130105386D01*
X106072919Y-130087190D01*
X106064746Y-130069371D01*
X106055766Y-130052017D01*
X106045991Y-130035216D01*
X106035430Y-130019056D01*
X106024094Y-130003623D01*
X106011993Y-129989007D01*
X105999138Y-129975295D01*
X105986748Y-129963642D01*
X105973444Y-129952517D01*
X105959303Y-129941950D01*
X105944402Y-129931972D01*
X105928819Y-129922614D01*
X105912631Y-129913907D01*
X105895917Y-129905882D01*
X105878752Y-129898571D01*
X105861216Y-129892003D01*
X105843385Y-129886211D01*
X105825337Y-129881225D01*
X105807149Y-129877076D01*
X105788900Y-129873795D01*
X105770666Y-129871413D01*
X105752525Y-129869961D01*
X105734554Y-129869470D01*
X105716543Y-129869922D01*
X105698284Y-129871268D01*
X105679860Y-129873492D01*
X105661353Y-129876579D01*
X105642846Y-129880514D01*
X105624421Y-129885280D01*
X105606162Y-129890863D01*
X105588151Y-129897247D01*
X105570471Y-129904417D01*
X105553204Y-129912356D01*
X105536434Y-129921050D01*
X105520242Y-129930483D01*
X105504711Y-129940639D01*
X105489925Y-129951503D01*
X105475965Y-129963060D01*
X105462915Y-129975295D01*
X105462916Y-129975295D01*
X105451223Y-129987029D01*
X105439985Y-129999715D01*
X105429243Y-130013310D01*
X105419039Y-130027773D01*
X105409413Y-130043063D01*
X105400408Y-130059138D01*
X105392064Y-130075958D01*
X105384422Y-130093480D01*
X105377525Y-130111664D01*
X105371414Y-130130468D01*
X105366129Y-130149851D01*
X105361712Y-130169771D01*
X105358205Y-130190188D01*
X105355649Y-130211059D01*
X105354085Y-130232344D01*
X105353554Y-130254001D01*
X105068298Y-130254001D01*
X105069286Y-130231877D01*
X105071130Y-130207586D01*
X105073702Y-130183817D01*
X105076998Y-130160524D01*
X105081013Y-130137660D01*
X105085740Y-130115178D01*
X105091176Y-130093033D01*
X105097314Y-130071177D01*
X105104150Y-130049563D01*
X105111678Y-130028147D01*
X105119894Y-130006881D01*
X105128792Y-129985718D01*
X105138367Y-129964613D01*
X105148613Y-129943518D01*
X105159526Y-129922387D01*
X105172799Y-129896570D01*
X105186164Y-129871957D01*
X105199633Y-129848429D01*
X105213215Y-129825867D01*
X105226921Y-129804153D01*
X105240762Y-129783167D01*
X105268888Y-129742906D01*
X105297675Y-129704134D01*
X105327206Y-129665900D01*
X105388832Y-129587243D01*
X105910943Y-128916966D01*
X106117329Y-129070881D01*
G37*
G36*
X118085301Y-116636777D02*
G01*
X117796024Y-116636777D01*
X117796024Y-115021054D01*
X117471467Y-115021054D01*
X117630218Y-114756472D01*
X118085301Y-114756472D01*
X118085301Y-116636777D01*
G37*
G36*
X116741218Y-116636777D02*
G01*
X116451940Y-116636777D01*
X116451940Y-115021054D01*
X116127384Y-115021054D01*
X116286134Y-114756472D01*
X116741218Y-114756472D01*
X116741218Y-116636777D01*
G37*
G36*
X115361857Y-116015892D02*
G01*
X115566469Y-116015892D01*
X115566469Y-116280474D01*
X115361857Y-116280474D01*
X115361857Y-116636777D01*
X115086691Y-116636777D01*
X115086691Y-116280474D01*
X114155358Y-116280474D01*
X114341956Y-116022946D01*
X114659830Y-116022946D01*
X115086691Y-116022946D01*
X115086691Y-115416170D01*
X114659830Y-116022946D01*
X114341956Y-116022946D01*
X115361857Y-114615364D01*
X115361857Y-116015892D01*
G37*
G36*
X108174970Y-114725733D02*
G01*
X108210944Y-114728628D01*
X108244933Y-114733240D01*
X108276979Y-114739391D01*
X108307124Y-114746906D01*
X108335408Y-114755610D01*
X108361873Y-114765326D01*
X108386561Y-114775880D01*
X108409512Y-114787095D01*
X108430768Y-114798796D01*
X108450371Y-114810808D01*
X108468361Y-114822953D01*
X108484781Y-114835058D01*
X108499670Y-114846945D01*
X108525026Y-114869367D01*
X108544250Y-114888996D01*
X108562233Y-114909488D01*
X108578976Y-114930797D01*
X108594479Y-114952876D01*
X108608742Y-114975678D01*
X108621764Y-114999158D01*
X108633547Y-115023268D01*
X108644089Y-115047961D01*
X108653390Y-115073193D01*
X108661452Y-115098915D01*
X108668273Y-115125081D01*
X108673854Y-115151646D01*
X108678195Y-115178562D01*
X108681296Y-115205783D01*
X108683156Y-115233262D01*
X108683776Y-115260953D01*
X108683527Y-115276945D01*
X108682777Y-115293144D01*
X108681521Y-115309507D01*
X108679752Y-115325995D01*
X108677467Y-115342566D01*
X108674661Y-115359178D01*
X108671327Y-115375789D01*
X108667460Y-115392360D01*
X108663057Y-115408848D01*
X108658110Y-115425211D01*
X108652616Y-115441410D01*
X108646569Y-115457401D01*
X108639964Y-115473145D01*
X108632796Y-115488600D01*
X108625059Y-115503724D01*
X108616749Y-115518475D01*
X108609926Y-115527812D01*
X108602679Y-115537273D01*
X108594998Y-115546816D01*
X108586873Y-115556401D01*
X108578293Y-115565985D01*
X108569248Y-115575528D01*
X108559727Y-115584989D01*
X108549721Y-115594325D01*
X108539218Y-115603496D01*
X108528210Y-115612460D01*
X108516684Y-115621176D01*
X108504631Y-115629603D01*
X108492041Y-115637699D01*
X108478903Y-115645422D01*
X108465207Y-115652733D01*
X108450943Y-115659589D01*
X108467231Y-115666447D01*
X108483017Y-115673776D01*
X108498297Y-115681548D01*
X108513065Y-115689739D01*
X108527317Y-115698323D01*
X108541046Y-115707274D01*
X108554249Y-115716566D01*
X108566919Y-115726172D01*
X108579052Y-115736069D01*
X108590642Y-115746228D01*
X108601684Y-115756626D01*
X108612174Y-115767235D01*
X108622105Y-115778031D01*
X108631473Y-115788987D01*
X108640273Y-115800077D01*
X108648499Y-115811276D01*
X108637915Y-115811276D01*
X108650493Y-115828631D01*
X108661810Y-115846264D01*
X108671928Y-115864125D01*
X108680910Y-115882162D01*
X108688816Y-115900323D01*
X108695710Y-115918556D01*
X108701653Y-115936810D01*
X108706707Y-115955033D01*
X108710934Y-115973174D01*
X108714396Y-115991180D01*
X108717156Y-116009000D01*
X108719275Y-116026583D01*
X108720814Y-116043876D01*
X108721838Y-116060828D01*
X108722582Y-116093503D01*
X108721732Y-116128521D01*
X108719254Y-116162149D01*
X108715257Y-116194402D01*
X108709849Y-116225297D01*
X108703139Y-116254848D01*
X108695235Y-116283071D01*
X108686245Y-116309982D01*
X108676280Y-116335596D01*
X108665446Y-116359928D01*
X108653852Y-116382994D01*
X108641607Y-116404809D01*
X108628820Y-116425389D01*
X108615598Y-116444750D01*
X108602051Y-116462906D01*
X108588287Y-116479874D01*
X108574415Y-116495668D01*
X108557254Y-116512764D01*
X108538827Y-116529581D01*
X108519108Y-116546006D01*
X108498072Y-116561923D01*
X108475691Y-116577221D01*
X108451942Y-116591785D01*
X108426797Y-116605502D01*
X108400231Y-116618257D01*
X108372218Y-116629937D01*
X108342732Y-116640429D01*
X108311748Y-116649619D01*
X108279239Y-116657393D01*
X108262405Y-116660713D01*
X108245180Y-116663637D01*
X108227561Y-116666150D01*
X108209545Y-116668238D01*
X108191128Y-116669886D01*
X108172308Y-116671082D01*
X108153080Y-116671809D01*
X108133443Y-116672055D01*
X108094538Y-116671120D01*
X108057189Y-116668383D01*
X108021380Y-116663939D01*
X107987095Y-116657889D01*
X107954319Y-116650330D01*
X107923037Y-116641360D01*
X107893233Y-116631077D01*
X107864891Y-116619581D01*
X107837996Y-116606967D01*
X107812532Y-116593336D01*
X107788485Y-116578785D01*
X107765837Y-116563413D01*
X107744575Y-116547316D01*
X107724682Y-116530595D01*
X107706143Y-116513346D01*
X107688943Y-116495668D01*
X107674489Y-116480494D01*
X107660293Y-116464063D01*
X107646449Y-116446361D01*
X107633050Y-116427373D01*
X107620187Y-116407082D01*
X107607955Y-116385473D01*
X107596447Y-116362532D01*
X107585755Y-116338241D01*
X107575973Y-116312586D01*
X107567193Y-116285552D01*
X107559509Y-116257122D01*
X107553013Y-116227282D01*
X107547799Y-116196015D01*
X107543959Y-116163307D01*
X107541588Y-116129141D01*
X107540937Y-116100552D01*
X107819471Y-116100552D01*
X107819802Y-116114559D01*
X107820794Y-116128762D01*
X107822447Y-116143109D01*
X107824763Y-116157549D01*
X107827739Y-116172030D01*
X107831377Y-116186501D01*
X107835677Y-116200910D01*
X107840638Y-116215205D01*
X107846260Y-116229335D01*
X107852544Y-116243247D01*
X107859489Y-116256891D01*
X107867096Y-116270215D01*
X107875364Y-116283166D01*
X107884294Y-116295694D01*
X107893885Y-116307746D01*
X107904137Y-116319272D01*
X107911789Y-116327900D01*
X107920205Y-116336532D01*
X107929407Y-116345093D01*
X107939415Y-116353504D01*
X107950250Y-116361687D01*
X107961932Y-116369566D01*
X107974483Y-116377062D01*
X107987922Y-116384098D01*
X107994982Y-116387420D01*
X108002271Y-116390597D01*
X108009793Y-116393620D01*
X108017550Y-116396481D01*
X108025545Y-116399168D01*
X108033780Y-116401672D01*
X108042258Y-116403984D01*
X108050981Y-116406093D01*
X108059952Y-116407991D01*
X108069174Y-116409667D01*
X108078650Y-116411112D01*
X108088381Y-116412315D01*
X108098370Y-116413269D01*
X108108621Y-116413961D01*
X108119135Y-116414384D01*
X108129915Y-116414527D01*
X108151209Y-116413961D01*
X108171449Y-116412315D01*
X108190655Y-116409667D01*
X108208849Y-116406093D01*
X108226050Y-116401672D01*
X108242280Y-116396481D01*
X108257559Y-116390597D01*
X108271908Y-116384098D01*
X108285347Y-116377062D01*
X108297898Y-116369566D01*
X108309580Y-116361687D01*
X108320415Y-116353504D01*
X108330423Y-116345093D01*
X108339625Y-116336532D01*
X108348041Y-116327900D01*
X108355693Y-116319272D01*
X108365945Y-116307127D01*
X108375536Y-116294537D01*
X108384466Y-116281555D01*
X108392734Y-116268231D01*
X108400341Y-116254618D01*
X108407286Y-116240768D01*
X108413570Y-116226731D01*
X108419192Y-116212559D01*
X108424153Y-116198306D01*
X108428453Y-116184021D01*
X108432091Y-116169756D01*
X108435067Y-116155564D01*
X108437383Y-116141496D01*
X108439036Y-116127604D01*
X108440028Y-116113938D01*
X108440359Y-116100552D01*
X108439989Y-116085226D01*
X108438885Y-116069720D01*
X108437057Y-116054099D01*
X108434516Y-116038432D01*
X108431273Y-116022785D01*
X108427337Y-116007226D01*
X108422718Y-115991822D01*
X108417428Y-115976640D01*
X108411477Y-115961748D01*
X108404874Y-115947212D01*
X108397631Y-115933100D01*
X108389757Y-115919479D01*
X108381264Y-115906416D01*
X108372160Y-115893979D01*
X108362457Y-115882234D01*
X108352165Y-115871248D01*
X108341258Y-115860957D01*
X108329737Y-115851254D01*
X108317648Y-115842150D01*
X108305036Y-115833656D01*
X108291949Y-115825782D01*
X108278433Y-115818539D01*
X108264535Y-115811936D01*
X108250300Y-115805985D01*
X108235777Y-115800695D01*
X108221010Y-115796076D01*
X108206047Y-115792140D01*
X108190934Y-115788896D01*
X108175718Y-115786355D01*
X108160445Y-115784527D01*
X108145162Y-115783423D01*
X108129915Y-115783053D01*
X108114668Y-115783423D01*
X108099384Y-115784527D01*
X108084111Y-115786355D01*
X108068895Y-115788896D01*
X108053783Y-115792140D01*
X108038820Y-115796076D01*
X108024053Y-115800695D01*
X108009530Y-115805985D01*
X107995295Y-115811936D01*
X107981397Y-115818539D01*
X107967881Y-115825782D01*
X107954794Y-115833656D01*
X107942183Y-115842150D01*
X107930093Y-115851254D01*
X107918572Y-115860957D01*
X107907665Y-115871248D01*
X107897373Y-115882234D01*
X107887670Y-115893980D01*
X107878566Y-115906418D01*
X107870072Y-115919481D01*
X107862199Y-115933102D01*
X107854955Y-115947214D01*
X107848353Y-115961750D01*
X107842401Y-115976642D01*
X107837111Y-115991824D01*
X107832493Y-116007227D01*
X107828557Y-116022786D01*
X107825314Y-116038432D01*
X107822773Y-116054099D01*
X107820945Y-116069720D01*
X107819841Y-116085227D01*
X107819471Y-116100552D01*
X107540937Y-116100552D01*
X107540776Y-116093503D01*
X107540952Y-116077388D01*
X107541520Y-116060828D01*
X107542544Y-116043876D01*
X107544083Y-116026583D01*
X107546202Y-116009001D01*
X107548962Y-115991181D01*
X107552424Y-115973175D01*
X107556651Y-115955035D01*
X107561705Y-115936812D01*
X107567648Y-115918558D01*
X107574542Y-115900325D01*
X107582448Y-115882164D01*
X107591429Y-115864127D01*
X107601548Y-115846266D01*
X107612865Y-115828632D01*
X107625443Y-115811276D01*
X107633669Y-115800077D01*
X107642468Y-115788987D01*
X107651837Y-115778031D01*
X107661768Y-115767235D01*
X107672257Y-115756625D01*
X107683300Y-115746227D01*
X107694890Y-115736067D01*
X107707023Y-115726170D01*
X107719693Y-115716563D01*
X107732895Y-115707272D01*
X107746625Y-115698321D01*
X107760876Y-115689737D01*
X107775645Y-115681546D01*
X107790924Y-115673774D01*
X107806711Y-115666446D01*
X107822998Y-115659589D01*
X107808695Y-115652732D01*
X107794893Y-115645421D01*
X107781598Y-115637697D01*
X107768814Y-115629600D01*
X107756547Y-115621174D01*
X107744801Y-115612458D01*
X107733583Y-115603494D01*
X107722898Y-115594323D01*
X107712749Y-115584987D01*
X107703143Y-115575527D01*
X107694086Y-115565984D01*
X107685580Y-115556400D01*
X107677634Y-115546816D01*
X107670250Y-115537273D01*
X107663435Y-115527812D01*
X107657193Y-115518475D01*
X107648301Y-115503724D01*
X107640133Y-115488600D01*
X107632667Y-115473145D01*
X107625884Y-115457401D01*
X107619762Y-115441409D01*
X107614281Y-115425210D01*
X107609420Y-115408846D01*
X107605158Y-115392358D01*
X107601475Y-115375787D01*
X107598351Y-115359175D01*
X107595763Y-115342563D01*
X107593693Y-115325993D01*
X107592118Y-115309505D01*
X107591019Y-115293142D01*
X107590375Y-115276944D01*
X107590211Y-115264473D01*
X107847693Y-115264473D01*
X107848100Y-115280178D01*
X107849292Y-115295532D01*
X107851228Y-115310514D01*
X107853867Y-115325104D01*
X107857167Y-115339280D01*
X107861088Y-115353023D01*
X107865587Y-115366311D01*
X107870624Y-115379123D01*
X107876157Y-115391440D01*
X107882144Y-115403240D01*
X107888545Y-115414502D01*
X107895318Y-115425206D01*
X107902422Y-115435332D01*
X107909815Y-115444858D01*
X107917456Y-115453763D01*
X107925304Y-115462028D01*
X107934967Y-115471699D01*
X107945389Y-115480858D01*
X107956504Y-115489490D01*
X107968244Y-115497580D01*
X107980542Y-115505111D01*
X107993331Y-115512070D01*
X108006544Y-115518439D01*
X108020113Y-115524203D01*
X108033972Y-115529348D01*
X108048053Y-115533857D01*
X108062289Y-115537715D01*
X108076612Y-115540906D01*
X108090957Y-115543415D01*
X108105255Y-115545226D01*
X108119439Y-115546325D01*
X108133443Y-115546694D01*
X108147446Y-115546325D01*
X108161631Y-115545227D01*
X108175929Y-115543415D01*
X108190273Y-115540907D01*
X108204597Y-115537716D01*
X108218833Y-115533858D01*
X108232914Y-115529349D01*
X108246773Y-115524205D01*
X108260342Y-115518441D01*
X108273555Y-115512072D01*
X108286344Y-115505114D01*
X108298642Y-115497582D01*
X108310382Y-115489492D01*
X108321497Y-115480859D01*
X108331919Y-115471700D01*
X108341581Y-115462028D01*
X108349429Y-115453802D01*
X108357071Y-115445003D01*
X108364464Y-115435635D01*
X108371568Y-115425703D01*
X108378341Y-115415214D01*
X108384742Y-115404172D01*
X108390729Y-115392582D01*
X108396262Y-115380449D01*
X108401299Y-115367779D01*
X108405798Y-115354576D01*
X108409719Y-115340847D01*
X108413019Y-115326595D01*
X108415658Y-115311827D01*
X108417594Y-115296547D01*
X108418786Y-115280760D01*
X108419193Y-115264473D01*
X108418825Y-115248105D01*
X108417739Y-115232088D01*
X108415960Y-115216444D01*
X108413515Y-115201192D01*
X108410429Y-115186354D01*
X108406728Y-115171949D01*
X108402438Y-115158000D01*
X108397585Y-115144526D01*
X108392194Y-115131548D01*
X108386292Y-115119087D01*
X108379904Y-115107164D01*
X108373056Y-115095798D01*
X108365774Y-115085012D01*
X108358083Y-115074825D01*
X108350011Y-115065258D01*
X108341581Y-115056333D01*
X108332075Y-115047903D01*
X108322082Y-115039830D01*
X108311614Y-115032140D01*
X108300682Y-115024858D01*
X108289294Y-115018009D01*
X108277462Y-115011621D01*
X108265195Y-115005719D01*
X108252505Y-115000328D01*
X108239402Y-114995475D01*
X108225895Y-114991185D01*
X108211996Y-114987485D01*
X108197715Y-114984399D01*
X108183061Y-114981954D01*
X108168045Y-114980175D01*
X108152679Y-114979089D01*
X108136971Y-114978721D01*
X108121224Y-114979089D01*
X108105751Y-114980175D01*
X108090578Y-114981954D01*
X108075731Y-114984399D01*
X108061234Y-114987485D01*
X108047116Y-114991185D01*
X108033400Y-114995475D01*
X108020113Y-115000328D01*
X108007281Y-115005719D01*
X107994929Y-115011621D01*
X107983084Y-115018009D01*
X107971771Y-115024858D01*
X107961017Y-115032140D01*
X107950846Y-115039830D01*
X107941285Y-115047903D01*
X107932360Y-115056333D01*
X107925304Y-115056333D01*
X107916293Y-115065879D01*
X107907789Y-115075983D01*
X107899802Y-115086625D01*
X107892341Y-115097784D01*
X107885418Y-115109439D01*
X107879043Y-115121569D01*
X107873226Y-115134154D01*
X107867978Y-115147173D01*
X107863308Y-115160606D01*
X107859227Y-115174431D01*
X107855746Y-115188629D01*
X107852875Y-115203177D01*
X107850623Y-115218057D01*
X107849002Y-115233246D01*
X107848022Y-115248725D01*
X107847693Y-115264473D01*
X107590211Y-115264473D01*
X107590165Y-115260953D01*
X107590785Y-115233262D01*
X107592646Y-115205783D01*
X107595746Y-115178562D01*
X107600087Y-115151646D01*
X107605668Y-115125081D01*
X107612489Y-115098915D01*
X107620551Y-115073193D01*
X107629853Y-115047961D01*
X107640395Y-115023268D01*
X107652177Y-114999158D01*
X107665199Y-114975678D01*
X107679462Y-114952876D01*
X107694965Y-114930797D01*
X107711708Y-114909488D01*
X107729691Y-114888996D01*
X107748915Y-114869367D01*
X107760869Y-114858440D01*
X107774271Y-114846945D01*
X107789161Y-114835058D01*
X107805580Y-114822953D01*
X107823570Y-114810808D01*
X107843173Y-114798796D01*
X107864429Y-114787095D01*
X107887380Y-114775880D01*
X107912068Y-114765326D01*
X107925076Y-114760352D01*
X107938533Y-114755610D01*
X107952445Y-114751120D01*
X107966817Y-114746906D01*
X107981655Y-114742989D01*
X107996962Y-114739391D01*
X108012745Y-114736134D01*
X108029008Y-114733240D01*
X108045757Y-114730731D01*
X108062998Y-114728628D01*
X108080734Y-114726955D01*
X108098971Y-114725733D01*
X108117715Y-114724983D01*
X108136971Y-114724729D01*
X108174970Y-114725733D01*
G37*
G36*
X106697637Y-116636777D02*
G01*
X106408360Y-116636777D01*
X106408360Y-115021054D01*
X106080276Y-115021054D01*
X106239026Y-114756472D01*
X106697637Y-114756472D01*
X106697637Y-116636777D01*
G37*
G36*
X104942651Y-114725517D02*
G01*
X104978616Y-114727880D01*
X105013421Y-114731762D01*
X105047065Y-114737114D01*
X105079546Y-114743890D01*
X105110863Y-114752043D01*
X105141015Y-114761524D01*
X105170000Y-114772288D01*
X105197817Y-114784288D01*
X105224465Y-114797475D01*
X105249943Y-114811803D01*
X105274249Y-114827224D01*
X105297381Y-114843692D01*
X105319340Y-114861159D01*
X105340122Y-114879578D01*
X105359728Y-114898903D01*
X105378156Y-114919085D01*
X105395404Y-114940078D01*
X105411471Y-114961834D01*
X105426356Y-114984307D01*
X105440058Y-115007449D01*
X105452575Y-115031213D01*
X105463906Y-115055551D01*
X105474050Y-115080418D01*
X105483005Y-115105765D01*
X105490771Y-115131546D01*
X105497345Y-115157713D01*
X105502727Y-115184219D01*
X105506915Y-115211017D01*
X105509908Y-115238060D01*
X105512304Y-115292691D01*
X105511613Y-115321468D01*
X105509583Y-115349604D01*
X105506282Y-115377120D01*
X105501776Y-115404037D01*
X105496134Y-115430374D01*
X105489422Y-115456154D01*
X105481708Y-115481396D01*
X105473058Y-115506121D01*
X105463540Y-115530350D01*
X105453221Y-115554104D01*
X105442168Y-115577402D01*
X105430449Y-115600267D01*
X105418130Y-115622718D01*
X105405279Y-115644776D01*
X105378249Y-115687797D01*
X105352115Y-115726224D01*
X105323954Y-115765023D01*
X105293727Y-115804566D01*
X105261392Y-115845226D01*
X105226906Y-115887374D01*
X105190230Y-115931382D01*
X105110138Y-116026466D01*
X104817333Y-116372189D01*
X105519360Y-116372189D01*
X105519360Y-116636772D01*
X105512304Y-116636777D01*
X104249361Y-116636777D01*
X104901999Y-115846555D01*
X104955137Y-115780463D01*
X105014888Y-115704119D01*
X105074640Y-115625791D01*
X105102449Y-115588467D01*
X105127777Y-115553749D01*
X105147214Y-115524279D01*
X105156543Y-115509232D01*
X105165535Y-115493941D01*
X105174135Y-115478382D01*
X105182285Y-115462528D01*
X105189929Y-115446354D01*
X105197010Y-115429833D01*
X105203470Y-115412941D01*
X105209254Y-115395651D01*
X105214303Y-115377936D01*
X105218562Y-115359773D01*
X105221974Y-115341134D01*
X105224481Y-115321994D01*
X105226027Y-115302327D01*
X105226555Y-115282107D01*
X105226245Y-115267269D01*
X105225315Y-115252539D01*
X105223767Y-115237939D01*
X105221601Y-115223493D01*
X105218817Y-115209225D01*
X105215416Y-115195159D01*
X105211399Y-115181320D01*
X105206766Y-115167730D01*
X105201518Y-115154415D01*
X105195657Y-115141397D01*
X105189181Y-115128701D01*
X105182092Y-115116350D01*
X105174391Y-115104369D01*
X105166079Y-115092781D01*
X105157155Y-115081611D01*
X105147621Y-115070881D01*
X105137477Y-115060617D01*
X105126724Y-115050842D01*
X105115362Y-115041579D01*
X105103393Y-115032854D01*
X105090816Y-115024689D01*
X105077633Y-115017108D01*
X105063844Y-115010137D01*
X105049449Y-115003797D01*
X105034450Y-114998114D01*
X105018847Y-114993111D01*
X105002641Y-114988812D01*
X104985832Y-114985242D01*
X104968421Y-114982423D01*
X104950409Y-114980379D01*
X104931796Y-114979136D01*
X104912583Y-114978716D01*
X104893349Y-114979187D01*
X104874675Y-114980583D01*
X104856561Y-114982876D01*
X104839009Y-114986041D01*
X104822021Y-114990050D01*
X104805597Y-114994878D01*
X104789739Y-115000499D01*
X104774448Y-115006884D01*
X104759726Y-115014009D01*
X104745573Y-115021845D01*
X104731991Y-115030368D01*
X104718982Y-115039551D01*
X104706546Y-115049366D01*
X104694686Y-115059789D01*
X104683401Y-115070791D01*
X104672694Y-115082346D01*
X104662565Y-115094429D01*
X104653017Y-115107013D01*
X104644050Y-115120070D01*
X104635666Y-115133575D01*
X104627866Y-115147501D01*
X104620650Y-115161822D01*
X104614022Y-115176511D01*
X104607981Y-115191542D01*
X104602530Y-115206888D01*
X104597668Y-115222523D01*
X104589722Y-115254552D01*
X104584153Y-115287418D01*
X104580972Y-115320910D01*
X104305805Y-115320910D01*
X104307936Y-115286935D01*
X104311613Y-115253833D01*
X104316727Y-115221652D01*
X104323168Y-115190437D01*
X104330829Y-115160235D01*
X104339601Y-115131092D01*
X104349376Y-115103055D01*
X104360044Y-115076171D01*
X104371499Y-115050486D01*
X104383630Y-115026046D01*
X104396329Y-115002898D01*
X104409488Y-114981088D01*
X104422999Y-114960664D01*
X104436753Y-114941671D01*
X104450641Y-114924156D01*
X104464555Y-114908165D01*
X104477956Y-114893315D01*
X104493053Y-114877999D01*
X104509885Y-114862415D01*
X104528496Y-114846759D01*
X104548925Y-114831227D01*
X104571215Y-114816015D01*
X104595406Y-114801320D01*
X104608228Y-114794227D01*
X104621541Y-114787337D01*
X104635350Y-114780675D01*
X104649660Y-114774265D01*
X104664476Y-114768131D01*
X104679804Y-114762298D01*
X104695649Y-114756791D01*
X104712016Y-114751634D01*
X104728910Y-114746851D01*
X104746336Y-114742468D01*
X104764300Y-114738508D01*
X104782806Y-114734997D01*
X104801860Y-114731959D01*
X104821467Y-114729418D01*
X104841632Y-114727399D01*
X104862360Y-114725926D01*
X104883656Y-114725025D01*
X104905527Y-114724719D01*
X104942651Y-114725517D01*
G37*
G36*
X118007690Y-100356090D02*
G01*
X118007690Y-101622559D01*
X118395745Y-101223918D01*
X118762634Y-101223918D01*
X118251106Y-101717805D01*
X118797911Y-102412776D01*
X118448660Y-102412776D01*
X118060606Y-101904775D01*
X118011217Y-101954168D01*
X118011217Y-102409246D01*
X117736051Y-102409246D01*
X117736051Y-100352550D01*
X118011217Y-100352550D01*
X118007690Y-100356090D01*
G37*
G36*
X116970522Y-100793529D02*
G01*
X116959939Y-100797059D01*
X116377856Y-100797059D01*
X116286134Y-101111034D01*
X116374329Y-101103974D01*
X116404084Y-101104596D01*
X116433777Y-101106468D01*
X116463346Y-101109602D01*
X116492730Y-101114006D01*
X116521865Y-101119693D01*
X116550690Y-101126671D01*
X116579143Y-101134951D01*
X116607162Y-101144544D01*
X116634685Y-101155460D01*
X116661650Y-101167709D01*
X116687995Y-101181302D01*
X116713657Y-101196249D01*
X116738575Y-101212559D01*
X116762688Y-101230245D01*
X116785931Y-101249315D01*
X116808245Y-101269781D01*
X116825421Y-101287030D01*
X116842462Y-101305742D01*
X116859234Y-101325972D01*
X116875604Y-101347779D01*
X116891436Y-101371219D01*
X116906596Y-101396348D01*
X116920950Y-101423225D01*
X116934363Y-101451904D01*
X116946702Y-101482444D01*
X116957831Y-101514901D01*
X116962901Y-101531867D01*
X116967617Y-101549333D01*
X116971964Y-101567306D01*
X116975925Y-101585795D01*
X116979483Y-101604805D01*
X116982621Y-101624344D01*
X116985322Y-101644420D01*
X116987570Y-101665039D01*
X116989347Y-101686208D01*
X116990638Y-101707934D01*
X116991424Y-101730225D01*
X116991690Y-101753088D01*
X116990946Y-101791037D01*
X116988714Y-101828149D01*
X116984993Y-101864414D01*
X116979784Y-101899821D01*
X116973086Y-101934359D01*
X116964901Y-101968019D01*
X116955227Y-102000790D01*
X116944065Y-102032663D01*
X116931414Y-102063625D01*
X116917276Y-102093668D01*
X116901649Y-102122780D01*
X116884533Y-102150952D01*
X116865930Y-102178174D01*
X116845838Y-102204434D01*
X116824258Y-102229722D01*
X116801189Y-102254029D01*
X116773002Y-102280585D01*
X116744029Y-102304754D01*
X116714311Y-102326629D01*
X116683891Y-102346302D01*
X116652810Y-102363867D01*
X116621108Y-102379416D01*
X116588828Y-102393042D01*
X116556010Y-102404840D01*
X116522695Y-102414901D01*
X116488927Y-102423318D01*
X116454744Y-102430186D01*
X116420190Y-102435596D01*
X116385305Y-102439642D01*
X116350130Y-102442416D01*
X116314707Y-102444013D01*
X116279078Y-102444525D01*
X116237138Y-102443781D01*
X116215539Y-102442758D01*
X116193585Y-102441218D01*
X116171320Y-102439100D01*
X116148792Y-102436341D01*
X116126046Y-102432879D01*
X116103131Y-102428652D01*
X116080091Y-102423599D01*
X116056973Y-102417656D01*
X116033825Y-102410762D01*
X116010692Y-102402856D01*
X115987621Y-102393874D01*
X115964659Y-102383756D01*
X115941851Y-102372438D01*
X115919245Y-102359859D01*
X115905210Y-102351039D01*
X115885014Y-102337590D01*
X115872956Y-102329026D01*
X115859775Y-102319180D01*
X115845613Y-102308011D01*
X115830609Y-102295478D01*
X115814902Y-102281539D01*
X115798632Y-102266154D01*
X115781938Y-102249280D01*
X115764960Y-102230877D01*
X115747837Y-102210902D01*
X115730709Y-102189315D01*
X115722186Y-102177904D01*
X115713715Y-102166075D01*
X115705312Y-102153821D01*
X115696995Y-102141139D01*
X115915717Y-101961223D01*
X115918314Y-101965881D01*
X115925914Y-101978642D01*
X115931500Y-101987492D01*
X115938227Y-101997686D01*
X115946060Y-102008997D01*
X115954963Y-102021196D01*
X115964900Y-102034057D01*
X115975834Y-102047352D01*
X115987729Y-102060854D01*
X116000549Y-102074335D01*
X116007294Y-102080997D01*
X116014257Y-102087568D01*
X116021434Y-102094020D01*
X116028819Y-102100325D01*
X116036408Y-102106455D01*
X116044197Y-102112380D01*
X116052181Y-102118073D01*
X116060355Y-102123505D01*
X116072508Y-102131194D01*
X116085146Y-102138386D01*
X116098260Y-102145083D01*
X116111839Y-102151284D01*
X116125872Y-102156988D01*
X116140350Y-102162197D01*
X116155262Y-102166910D01*
X116170598Y-102171126D01*
X116186348Y-102174847D01*
X116202500Y-102178072D01*
X116219045Y-102180800D01*
X116235973Y-102183033D01*
X116253272Y-102184769D01*
X116270934Y-102186010D01*
X116288947Y-102186754D01*
X116307301Y-102187002D01*
X116335005Y-102186317D01*
X116361257Y-102184335D01*
X116386094Y-102181165D01*
X116409551Y-102176915D01*
X116431664Y-102171693D01*
X116452470Y-102165608D01*
X116472004Y-102158768D01*
X116490304Y-102151283D01*
X116507404Y-102143260D01*
X116523342Y-102134808D01*
X116538153Y-102126036D01*
X116551874Y-102117052D01*
X116564541Y-102107965D01*
X116576190Y-102098882D01*
X116596578Y-102081167D01*
X116607227Y-102070043D01*
X116617938Y-102057829D01*
X116628607Y-102044510D01*
X116639132Y-102030069D01*
X116649409Y-102014491D01*
X116659334Y-101997761D01*
X116668804Y-101979863D01*
X116677717Y-101960782D01*
X116685968Y-101940501D01*
X116693454Y-101919007D01*
X116700072Y-101896282D01*
X116703023Y-101884454D01*
X116705718Y-101872312D01*
X116708145Y-101859856D01*
X116710290Y-101847081D01*
X116712140Y-101833988D01*
X116713683Y-101820574D01*
X116714906Y-101806837D01*
X116715795Y-101792774D01*
X116716338Y-101778385D01*
X116716522Y-101763667D01*
X116715913Y-101734720D01*
X116714131Y-101707368D01*
X116711243Y-101681557D01*
X116707317Y-101657229D01*
X116702419Y-101634327D01*
X116696616Y-101612795D01*
X116689977Y-101592575D01*
X116682567Y-101573610D01*
X116674455Y-101555845D01*
X116665707Y-101539222D01*
X116656390Y-101523683D01*
X116646573Y-101509174D01*
X116636321Y-101495636D01*
X116625703Y-101483012D01*
X116614784Y-101471246D01*
X116603634Y-101460282D01*
X116586041Y-101444559D01*
X116567729Y-101430413D01*
X116548808Y-101417765D01*
X116529385Y-101406538D01*
X116509570Y-101396654D01*
X116489470Y-101388037D01*
X116469195Y-101380609D01*
X116448853Y-101374291D01*
X116428552Y-101369007D01*
X116408400Y-101364679D01*
X116388508Y-101361230D01*
X116368982Y-101358581D01*
X116349931Y-101356656D01*
X116331465Y-101355377D01*
X116313690Y-101354667D01*
X116296717Y-101354447D01*
X116267062Y-101354957D01*
X116252751Y-101355609D01*
X116238730Y-101356541D01*
X116224956Y-101357762D01*
X116211389Y-101359283D01*
X116197988Y-101361114D01*
X116184710Y-101363265D01*
X116171516Y-101365747D01*
X116158362Y-101368570D01*
X116145209Y-101371744D01*
X116132014Y-101375280D01*
X116118737Y-101379189D01*
X116105335Y-101383480D01*
X116091769Y-101388163D01*
X116077995Y-101393250D01*
X116055823Y-101401519D01*
X116034229Y-101410449D01*
X116013132Y-101420040D01*
X115992447Y-101430293D01*
X115972094Y-101441207D01*
X115951988Y-101452783D01*
X115932047Y-101465021D01*
X115912190Y-101477921D01*
X116190884Y-100528947D01*
X116970522Y-100528947D01*
X116970522Y-100793529D01*
G37*
G36*
X114987913Y-102412781D02*
G01*
X114698634Y-102412781D01*
X114698634Y-100797059D01*
X114370551Y-100797059D01*
X114529301Y-100532477D01*
X114987913Y-100532477D01*
X114987913Y-102412781D01*
G37*
G36*
X108052303Y-102479813D02*
G01*
X107826525Y-102338705D01*
X108761386Y-100797069D01*
X108761387Y-100797059D01*
X107837109Y-100797059D01*
X107837109Y-100532477D01*
X109237636Y-100532477D01*
X108052303Y-102479813D01*
G37*
G36*
X106108499Y-102479813D02*
G01*
X105882721Y-102338705D01*
X106817582Y-100797069D01*
X106817582Y-100797059D01*
X105893305Y-100797059D01*
X105893305Y-100532477D01*
X107293832Y-100532477D01*
X106108499Y-102479813D01*
G37*
G36*
X104168222Y-102479813D02*
G01*
X103942444Y-102338705D01*
X104877305Y-100797069D01*
X104877305Y-100797059D01*
X103953027Y-100797059D01*
X103953027Y-100532477D01*
X105353555Y-100532477D01*
X104168222Y-102479813D01*
G37*
G36*
X118117051Y-87398564D02*
G01*
X118501579Y-86999923D01*
X118868469Y-86999923D01*
X118356941Y-87493809D01*
X118903746Y-88188781D01*
X118554495Y-88188781D01*
X118166440Y-87680780D01*
X118117051Y-87730168D01*
X118117051Y-88188781D01*
X117841885Y-88188781D01*
X117841885Y-86132085D01*
X118117051Y-86132085D01*
X118117051Y-87398564D01*
G37*
G36*
X116513760Y-86277526D02*
G01*
X116549725Y-86279889D01*
X116584531Y-86283771D01*
X116618174Y-86289123D01*
X116650655Y-86295899D01*
X116681972Y-86304051D01*
X116712124Y-86313533D01*
X116741109Y-86324297D01*
X116768926Y-86336296D01*
X116795574Y-86349483D01*
X116821052Y-86363810D01*
X116845358Y-86379232D01*
X116868490Y-86395699D01*
X116890449Y-86413166D01*
X116911232Y-86431586D01*
X116930837Y-86450910D01*
X116949265Y-86471092D01*
X116966513Y-86492085D01*
X116982581Y-86513841D01*
X116997466Y-86536314D01*
X117011168Y-86559455D01*
X117023685Y-86583219D01*
X117035016Y-86607558D01*
X117045160Y-86632425D01*
X117054115Y-86657772D01*
X117061881Y-86683553D01*
X117068455Y-86709720D01*
X117073837Y-86736226D01*
X117078025Y-86763025D01*
X117081018Y-86790068D01*
X117083414Y-86844700D01*
X117082723Y-86873477D01*
X117080693Y-86901613D01*
X117077392Y-86929129D01*
X117072886Y-86956046D01*
X117067244Y-86982383D01*
X117060532Y-87008163D01*
X117052818Y-87033405D01*
X117044168Y-87058130D01*
X117034650Y-87082359D01*
X117024331Y-87106113D01*
X117013278Y-87129411D01*
X117001559Y-87152276D01*
X116989240Y-87174727D01*
X116976389Y-87196785D01*
X116949358Y-87239806D01*
X116923224Y-87278233D01*
X116895064Y-87317031D01*
X116864836Y-87356574D01*
X116832501Y-87397233D01*
X116798015Y-87439381D01*
X116761339Y-87483389D01*
X116681248Y-87578475D01*
X116388442Y-87924198D01*
X117090469Y-87924198D01*
X117090469Y-88188781D01*
X117083413Y-88188786D01*
X115820469Y-88188786D01*
X116473108Y-87398564D01*
X116526244Y-87332470D01*
X116585996Y-87256126D01*
X116645748Y-87177799D01*
X116673557Y-87140476D01*
X116698885Y-87105758D01*
X116718323Y-87076287D01*
X116727651Y-87061239D01*
X116736643Y-87045948D01*
X116745243Y-87030389D01*
X116753393Y-87014535D01*
X116761037Y-86998361D01*
X116768117Y-86981841D01*
X116774578Y-86964948D01*
X116780361Y-86947658D01*
X116785411Y-86929944D01*
X116789669Y-86911781D01*
X116793081Y-86893143D01*
X116795588Y-86874003D01*
X116797134Y-86854336D01*
X116797662Y-86834116D01*
X116797352Y-86819279D01*
X116796423Y-86804548D01*
X116794874Y-86789948D01*
X116792708Y-86775502D01*
X116789924Y-86761234D01*
X116786523Y-86747168D01*
X116782506Y-86733329D01*
X116777873Y-86719740D01*
X116772626Y-86706424D01*
X116766764Y-86693406D01*
X116760288Y-86680710D01*
X116753200Y-86668359D01*
X116745499Y-86656378D01*
X116737186Y-86644790D01*
X116728263Y-86633620D01*
X116718728Y-86622890D01*
X116708584Y-86612626D01*
X116697831Y-86602851D01*
X116686470Y-86593588D01*
X116674500Y-86584863D01*
X116661924Y-86576698D01*
X116648741Y-86569118D01*
X116634952Y-86562146D01*
X116620557Y-86555806D01*
X116605558Y-86550123D01*
X116589955Y-86545120D01*
X116573749Y-86540821D01*
X116556940Y-86537251D01*
X116539529Y-86534432D01*
X116521517Y-86532389D01*
X116502904Y-86531145D01*
X116483691Y-86530725D01*
X116464457Y-86531196D01*
X116445783Y-86532592D01*
X116427669Y-86534885D01*
X116410117Y-86538050D01*
X116393129Y-86542059D01*
X116376705Y-86546888D01*
X116360847Y-86552508D01*
X116345556Y-86558893D01*
X116330833Y-86566018D01*
X116316681Y-86573855D01*
X116303099Y-86582378D01*
X116290090Y-86591560D01*
X116277654Y-86601376D01*
X116265793Y-86611798D01*
X116254508Y-86622800D01*
X116243801Y-86634355D01*
X116233673Y-86646438D01*
X116224125Y-86659022D01*
X116215158Y-86672079D01*
X116206773Y-86685584D01*
X116198973Y-86699510D01*
X116191758Y-86713831D01*
X116185129Y-86728520D01*
X116179089Y-86743551D01*
X116173637Y-86758897D01*
X116168776Y-86774532D01*
X116160830Y-86806561D01*
X116155261Y-86839427D01*
X116152079Y-86872919D01*
X115876914Y-86872919D01*
X115879046Y-86838944D01*
X115882722Y-86805842D01*
X115887836Y-86773661D01*
X115894277Y-86742446D01*
X115901938Y-86712244D01*
X115910710Y-86683101D01*
X115920485Y-86655064D01*
X115931154Y-86628180D01*
X115942608Y-86602495D01*
X115954739Y-86578055D01*
X115967438Y-86554907D01*
X115980598Y-86533097D01*
X115994108Y-86512673D01*
X116007862Y-86493680D01*
X116021750Y-86476165D01*
X116035664Y-86460174D01*
X116049065Y-86445323D01*
X116064162Y-86430007D01*
X116080994Y-86414423D01*
X116099605Y-86398766D01*
X116120034Y-86383234D01*
X116142324Y-86368022D01*
X116166515Y-86353326D01*
X116179337Y-86346234D01*
X116192650Y-86339345D01*
X116206459Y-86332682D01*
X116220769Y-86326272D01*
X116235585Y-86320139D01*
X116250913Y-86314306D01*
X116266758Y-86308799D01*
X116283125Y-86303642D01*
X116300019Y-86298859D01*
X116317445Y-86294476D01*
X116335409Y-86290517D01*
X116353915Y-86287006D01*
X116372969Y-86283968D01*
X116392576Y-86281427D01*
X116412741Y-86279408D01*
X116433469Y-86277935D01*
X116454766Y-86277034D01*
X116476636Y-86276728D01*
X116513760Y-86277526D01*
G37*
G36*
X115238384Y-86569534D02*
G01*
X115227801Y-86573063D01*
X114645718Y-86573063D01*
X114553996Y-86887033D01*
X114642191Y-86879979D01*
X114671946Y-86880600D01*
X114701639Y-86882473D01*
X114731208Y-86885606D01*
X114760592Y-86890010D01*
X114789727Y-86895696D01*
X114818552Y-86902674D01*
X114847005Y-86910954D01*
X114875024Y-86920547D01*
X114902547Y-86931462D01*
X114929511Y-86943711D01*
X114955856Y-86957304D01*
X114981519Y-86972251D01*
X115006437Y-86988562D01*
X115030549Y-87006248D01*
X115053793Y-87025319D01*
X115076107Y-87045786D01*
X115093283Y-87063034D01*
X115110323Y-87081744D01*
X115127096Y-87101974D01*
X115143465Y-87123781D01*
X115159297Y-87147220D01*
X115174457Y-87172349D01*
X115188811Y-87199225D01*
X115202224Y-87227904D01*
X115214563Y-87258444D01*
X115225692Y-87290901D01*
X115230762Y-87307866D01*
X115235478Y-87325332D01*
X115239825Y-87343306D01*
X115243786Y-87361794D01*
X115247344Y-87380804D01*
X115250482Y-87400344D01*
X115253183Y-87420419D01*
X115255431Y-87441038D01*
X115257208Y-87462207D01*
X115258498Y-87483934D01*
X115259285Y-87506225D01*
X115259551Y-87529087D01*
X115258807Y-87567037D01*
X115256574Y-87604149D01*
X115252854Y-87640413D01*
X115247645Y-87675820D01*
X115240948Y-87710359D01*
X115232762Y-87744019D01*
X115223088Y-87776790D01*
X115211926Y-87808663D01*
X115199276Y-87839625D01*
X115185137Y-87869669D01*
X115169510Y-87898781D01*
X115152395Y-87926954D01*
X115133792Y-87954176D01*
X115113700Y-87980436D01*
X115092120Y-88005726D01*
X115069051Y-88030033D01*
X115040864Y-88056589D01*
X115011890Y-88080758D01*
X114982173Y-88102632D01*
X114951753Y-88122304D01*
X114920671Y-88139869D01*
X114888970Y-88155418D01*
X114856689Y-88169045D01*
X114823871Y-88180842D01*
X114790557Y-88190903D01*
X114756788Y-88199321D01*
X114722606Y-88206189D01*
X114688052Y-88211599D01*
X114653167Y-88215646D01*
X114617992Y-88218421D01*
X114582570Y-88220017D01*
X114546940Y-88220529D01*
X114505000Y-88219785D01*
X114483402Y-88218762D01*
X114461447Y-88217222D01*
X114439182Y-88215103D01*
X114416654Y-88212344D01*
X114393908Y-88208881D01*
X114370992Y-88204654D01*
X114347953Y-88199600D01*
X114324835Y-88193657D01*
X114301687Y-88186763D01*
X114278553Y-88178856D01*
X114255482Y-88169874D01*
X114232520Y-88159755D01*
X114209712Y-88148437D01*
X114187106Y-88135858D01*
X114173071Y-88127039D01*
X114152876Y-88113589D01*
X114140817Y-88105025D01*
X114127637Y-88095179D01*
X114113475Y-88084010D01*
X114098471Y-88071477D01*
X114082764Y-88057539D01*
X114066494Y-88042153D01*
X114049800Y-88025279D01*
X114032822Y-88006876D01*
X114015699Y-87986902D01*
X113998571Y-87965315D01*
X113990048Y-87953904D01*
X113981577Y-87942074D01*
X113973174Y-87929821D01*
X113964857Y-87917139D01*
X114183578Y-87737227D01*
X114186175Y-87741885D01*
X114193775Y-87754645D01*
X114199361Y-87763495D01*
X114206088Y-87773689D01*
X114213921Y-87784999D01*
X114222824Y-87797198D01*
X114232761Y-87810059D01*
X114243695Y-87823353D01*
X114255590Y-87836854D01*
X114268410Y-87850335D01*
X114275156Y-87856997D01*
X114282119Y-87863568D01*
X114289295Y-87870020D01*
X114296681Y-87876325D01*
X114304270Y-87882455D01*
X114312059Y-87888380D01*
X114320043Y-87894073D01*
X114328217Y-87899505D01*
X114340370Y-87907194D01*
X114353008Y-87914387D01*
X114366122Y-87921084D01*
X114379701Y-87927285D01*
X114393734Y-87932990D01*
X114408212Y-87938199D01*
X114423124Y-87942911D01*
X114438460Y-87947128D01*
X114454210Y-87950848D01*
X114470362Y-87954073D01*
X114486907Y-87956801D01*
X114503834Y-87959033D01*
X114521134Y-87960769D01*
X114538795Y-87962009D01*
X114556808Y-87962753D01*
X114575161Y-87963001D01*
X114602866Y-87962317D01*
X114629119Y-87960335D01*
X114653955Y-87957165D01*
X114677412Y-87952914D01*
X114699526Y-87947692D01*
X114720331Y-87941607D01*
X114739866Y-87934768D01*
X114758166Y-87927283D01*
X114775266Y-87919260D01*
X114791204Y-87910808D01*
X114806015Y-87902036D01*
X114819736Y-87893052D01*
X114832403Y-87883964D01*
X114844052Y-87874882D01*
X114864440Y-87857166D01*
X114875089Y-87846044D01*
X114885799Y-87833830D01*
X114896469Y-87820511D01*
X114906993Y-87806070D01*
X114917270Y-87790493D01*
X114927195Y-87773763D01*
X114936666Y-87755865D01*
X114945578Y-87736784D01*
X114953829Y-87716503D01*
X114961316Y-87695009D01*
X114967934Y-87672285D01*
X114970885Y-87660456D01*
X114973580Y-87648315D01*
X114976007Y-87635858D01*
X114978152Y-87623084D01*
X114980002Y-87609991D01*
X114981545Y-87596577D01*
X114982768Y-87582840D01*
X114983657Y-87568778D01*
X114984200Y-87554389D01*
X114984384Y-87539672D01*
X114983775Y-87510723D01*
X114981993Y-87483371D01*
X114979105Y-87457560D01*
X114975179Y-87433231D01*
X114970281Y-87410329D01*
X114964478Y-87388797D01*
X114957839Y-87368577D01*
X114950429Y-87349612D01*
X114942317Y-87331847D01*
X114933569Y-87315223D01*
X114924252Y-87299685D01*
X114914434Y-87285175D01*
X114904183Y-87271637D01*
X114893564Y-87259013D01*
X114882646Y-87247247D01*
X114871495Y-87236281D01*
X114853902Y-87220559D01*
X114835590Y-87206412D01*
X114816669Y-87193764D01*
X114797247Y-87182537D01*
X114777432Y-87172654D01*
X114757332Y-87164037D01*
X114737057Y-87156608D01*
X114716715Y-87150291D01*
X114696414Y-87145007D01*
X114676263Y-87140679D01*
X114656370Y-87137229D01*
X114636844Y-87134581D01*
X114617793Y-87132656D01*
X114599327Y-87131377D01*
X114581553Y-87130666D01*
X114564579Y-87130447D01*
X114534924Y-87130956D01*
X114520613Y-87131609D01*
X114506591Y-87132541D01*
X114492818Y-87133763D01*
X114479251Y-87135284D01*
X114465849Y-87137115D01*
X114452572Y-87139267D01*
X114439377Y-87141749D01*
X114426224Y-87144573D01*
X114413071Y-87147747D01*
X114399876Y-87151284D01*
X114386599Y-87155193D01*
X114373197Y-87159484D01*
X114359631Y-87164168D01*
X114345857Y-87169255D01*
X114323685Y-87177522D01*
X114302091Y-87186451D01*
X114280993Y-87196042D01*
X114260309Y-87206295D01*
X114239955Y-87217209D01*
X114219849Y-87228785D01*
X114199909Y-87241022D01*
X114180052Y-87253921D01*
X114458746Y-86304946D01*
X115238384Y-86304946D01*
X115238384Y-86569534D01*
G37*
G36*
X108263970Y-86132090D02*
G01*
X108263970Y-87398564D01*
X108652026Y-86999923D01*
X109018915Y-86999923D01*
X108507387Y-87493809D01*
X109054192Y-88188781D01*
X108704942Y-88188781D01*
X108316887Y-87680780D01*
X108267498Y-87730168D01*
X108267498Y-88188781D01*
X107992331Y-88188781D01*
X107992331Y-86132085D01*
X108267498Y-86132085D01*
X108263970Y-86132090D01*
G37*
G36*
X106714470Y-86277742D02*
G01*
X106750444Y-86280638D01*
X106784433Y-86285249D01*
X106816479Y-86291400D01*
X106846624Y-86298915D01*
X106874908Y-86307619D01*
X106901373Y-86317335D01*
X106926061Y-86327889D01*
X106949012Y-86339104D01*
X106970268Y-86350806D01*
X106989871Y-86362817D01*
X107007861Y-86374962D01*
X107024281Y-86387067D01*
X107039170Y-86398954D01*
X107064526Y-86421376D01*
X107083750Y-86441005D01*
X107101733Y-86461497D01*
X107118476Y-86482806D01*
X107133979Y-86504885D01*
X107148242Y-86527687D01*
X107161265Y-86551167D01*
X107173047Y-86575277D01*
X107183589Y-86599970D01*
X107192890Y-86625202D01*
X107200952Y-86650924D01*
X107207773Y-86677090D01*
X107213354Y-86703655D01*
X107217695Y-86730571D01*
X107220796Y-86757792D01*
X107222656Y-86785271D01*
X107223276Y-86812962D01*
X107223027Y-86828954D01*
X107222277Y-86845153D01*
X107221020Y-86861516D01*
X107219252Y-86878004D01*
X107216967Y-86894575D01*
X107214160Y-86911187D01*
X107210826Y-86927798D01*
X107206960Y-86944369D01*
X107202556Y-86960857D01*
X107197610Y-86977220D01*
X107192116Y-86993419D01*
X107186069Y-87009411D01*
X107179464Y-87025154D01*
X107172296Y-87040609D01*
X107164559Y-87055733D01*
X107156248Y-87070485D01*
X107149425Y-87079821D01*
X107142179Y-87089282D01*
X107134498Y-87098825D01*
X107126372Y-87108410D01*
X107117792Y-87117994D01*
X107108747Y-87127537D01*
X107099227Y-87136997D01*
X107089221Y-87146333D01*
X107078718Y-87155504D01*
X107067709Y-87164468D01*
X107056184Y-87173183D01*
X107044131Y-87181610D01*
X107031541Y-87189705D01*
X107018403Y-87197428D01*
X107004707Y-87204738D01*
X106990443Y-87211593D01*
X107006730Y-87218452D01*
X107022517Y-87225781D01*
X107037797Y-87233555D01*
X107052565Y-87241746D01*
X107066816Y-87250331D01*
X107080546Y-87259282D01*
X107093748Y-87268574D01*
X107106418Y-87278181D01*
X107118551Y-87288077D01*
X107130141Y-87298237D01*
X107141184Y-87308635D01*
X107151673Y-87319244D01*
X107161605Y-87330040D01*
X107170973Y-87340996D01*
X107179772Y-87352086D01*
X107187998Y-87363285D01*
X107177415Y-87363285D01*
X107189993Y-87380640D01*
X107201310Y-87398273D01*
X107211428Y-87416134D01*
X107220410Y-87434171D01*
X107228316Y-87452332D01*
X107235210Y-87470565D01*
X107241152Y-87488819D01*
X107246206Y-87507042D01*
X107250434Y-87525183D01*
X107253896Y-87543189D01*
X107256655Y-87561009D01*
X107258774Y-87578592D01*
X107260314Y-87595885D01*
X107261337Y-87612837D01*
X107262081Y-87645512D01*
X107261231Y-87680530D01*
X107258754Y-87714158D01*
X107254756Y-87746411D01*
X107249348Y-87777306D01*
X107242638Y-87806857D01*
X107234734Y-87835080D01*
X107225745Y-87861991D01*
X107215779Y-87887605D01*
X107204945Y-87911937D01*
X107193352Y-87935003D01*
X107181107Y-87956818D01*
X107168320Y-87977398D01*
X107155098Y-87996759D01*
X107141551Y-88014915D01*
X107127787Y-88031883D01*
X107113915Y-88047678D01*
X107096754Y-88064773D01*
X107078327Y-88081590D01*
X107058608Y-88098015D01*
X107037572Y-88113933D01*
X107015191Y-88129230D01*
X106991442Y-88143794D01*
X106966297Y-88157511D01*
X106939731Y-88170266D01*
X106911718Y-88181946D01*
X106882232Y-88192438D01*
X106851248Y-88201628D01*
X106818739Y-88209402D01*
X106801905Y-88212722D01*
X106784680Y-88215646D01*
X106767061Y-88218159D01*
X106749045Y-88220247D01*
X106730628Y-88221896D01*
X106711808Y-88223091D01*
X106692580Y-88223818D01*
X106672943Y-88224064D01*
X106634038Y-88223130D01*
X106596689Y-88220392D01*
X106560880Y-88215948D01*
X106526595Y-88209898D01*
X106493819Y-88202339D01*
X106462537Y-88193369D01*
X106432733Y-88183087D01*
X106404391Y-88171590D01*
X106377496Y-88158977D01*
X106352032Y-88145345D01*
X106327984Y-88130794D01*
X106305337Y-88115422D01*
X106284075Y-88099325D01*
X106264182Y-88082604D01*
X106245643Y-88065355D01*
X106228443Y-88047678D01*
X106213989Y-88032503D01*
X106199793Y-88016072D01*
X106185949Y-87998370D01*
X106172549Y-87979382D01*
X106159687Y-87959091D01*
X106147455Y-87937482D01*
X106135947Y-87914541D01*
X106125255Y-87890250D01*
X106115473Y-87864595D01*
X106106693Y-87837561D01*
X106099009Y-87809131D01*
X106092513Y-87779291D01*
X106087299Y-87748024D01*
X106083459Y-87715316D01*
X106081087Y-87681150D01*
X106080437Y-87652561D01*
X106358971Y-87652561D01*
X106359302Y-87666568D01*
X106360294Y-87680771D01*
X106361947Y-87695118D01*
X106364263Y-87709558D01*
X106367239Y-87724039D01*
X106370877Y-87738510D01*
X106375177Y-87752919D01*
X106380137Y-87767214D01*
X106385760Y-87781344D01*
X106392044Y-87795256D01*
X106398989Y-87808900D01*
X106406596Y-87822224D01*
X106414864Y-87835175D01*
X106423794Y-87847703D01*
X106433385Y-87859755D01*
X106443637Y-87871281D01*
X106451289Y-87879909D01*
X106459705Y-87888541D01*
X106468907Y-87897102D01*
X106478915Y-87905512D01*
X106489750Y-87913695D01*
X106501432Y-87921573D01*
X106513983Y-87929069D01*
X106527422Y-87936105D01*
X106534482Y-87939426D01*
X106541771Y-87942603D01*
X106549293Y-87945626D01*
X106557050Y-87948486D01*
X106565045Y-87951173D01*
X106573280Y-87953677D01*
X106581758Y-87955989D01*
X106590481Y-87958098D01*
X106599453Y-87959995D01*
X106608675Y-87961671D01*
X106618150Y-87963116D01*
X106627881Y-87964320D01*
X106637871Y-87965273D01*
X106648121Y-87965965D01*
X106658635Y-87966388D01*
X106669415Y-87966531D01*
X106690709Y-87965965D01*
X106710949Y-87964320D01*
X106730156Y-87961671D01*
X106748349Y-87958098D01*
X106765551Y-87953677D01*
X106781780Y-87948486D01*
X106797059Y-87942603D01*
X106811408Y-87936105D01*
X106824848Y-87929069D01*
X106837398Y-87921573D01*
X106849080Y-87913695D01*
X106859915Y-87905512D01*
X106869923Y-87897102D01*
X106879125Y-87888541D01*
X106887542Y-87879909D01*
X106895193Y-87871281D01*
X106905446Y-87859136D01*
X106915037Y-87846546D01*
X106923967Y-87833564D01*
X106932235Y-87820240D01*
X106939841Y-87806627D01*
X106946787Y-87792777D01*
X106953071Y-87778740D01*
X106958693Y-87764569D01*
X106963654Y-87750315D01*
X106967953Y-87736030D01*
X106971591Y-87721765D01*
X106974568Y-87707573D01*
X106976883Y-87693505D01*
X106978537Y-87679613D01*
X106979529Y-87665948D01*
X106979860Y-87652561D01*
X106979489Y-87637236D01*
X106978385Y-87621729D01*
X106976558Y-87606108D01*
X106974017Y-87590441D01*
X106970773Y-87574794D01*
X106966837Y-87559235D01*
X106962219Y-87543831D01*
X106956929Y-87528649D01*
X106950978Y-87513757D01*
X106944375Y-87499221D01*
X106937132Y-87485109D01*
X106929258Y-87471488D01*
X106920764Y-87458425D01*
X106911661Y-87445988D01*
X106901957Y-87434243D01*
X106891665Y-87423258D01*
X106880759Y-87412965D01*
X106869238Y-87403261D01*
X106857148Y-87394157D01*
X106844536Y-87385663D01*
X106831449Y-87377789D01*
X106817933Y-87370546D01*
X106804035Y-87363943D01*
X106789801Y-87357992D01*
X106775277Y-87352702D01*
X106760511Y-87348084D01*
X106745548Y-87344148D01*
X106730435Y-87340904D01*
X106715219Y-87338364D01*
X106699946Y-87336536D01*
X106684662Y-87335432D01*
X106669415Y-87335062D01*
X106654168Y-87335432D01*
X106638885Y-87336536D01*
X106623612Y-87338364D01*
X106608396Y-87340904D01*
X106593283Y-87344148D01*
X106578320Y-87348084D01*
X106563553Y-87352702D01*
X106549030Y-87357992D01*
X106534795Y-87363943D01*
X106520897Y-87370546D01*
X106507381Y-87377789D01*
X106494294Y-87385663D01*
X106481683Y-87394157D01*
X106469593Y-87403261D01*
X106458072Y-87412965D01*
X106447165Y-87423258D01*
X106436873Y-87434244D01*
X106427170Y-87445989D01*
X106418066Y-87458427D01*
X106409572Y-87471490D01*
X106401699Y-87485111D01*
X106394455Y-87499223D01*
X106387853Y-87513759D01*
X106381901Y-87528651D01*
X106376612Y-87543833D01*
X106371993Y-87559236D01*
X106368057Y-87574795D01*
X106364814Y-87590441D01*
X106362273Y-87606108D01*
X106360445Y-87621729D01*
X106359341Y-87637236D01*
X106358971Y-87652561D01*
X106080437Y-87652561D01*
X106080276Y-87645512D01*
X106080452Y-87629397D01*
X106081020Y-87612837D01*
X106082043Y-87595885D01*
X106083583Y-87578592D01*
X106085702Y-87561010D01*
X106088462Y-87543190D01*
X106091924Y-87525184D01*
X106096151Y-87507044D01*
X106101205Y-87488821D01*
X106107148Y-87470567D01*
X106114042Y-87452334D01*
X106121948Y-87434173D01*
X106130929Y-87416136D01*
X106141048Y-87398275D01*
X106152365Y-87380641D01*
X106164943Y-87363285D01*
X106173169Y-87352086D01*
X106181968Y-87340996D01*
X106191336Y-87330040D01*
X106201268Y-87319244D01*
X106211757Y-87308634D01*
X106222800Y-87298236D01*
X106234390Y-87288076D01*
X106246523Y-87278179D01*
X106259193Y-87268572D01*
X106272395Y-87259279D01*
X106286125Y-87250328D01*
X106300376Y-87241744D01*
X106315145Y-87233553D01*
X106330425Y-87225780D01*
X106346211Y-87218451D01*
X106362499Y-87211593D01*
X106348195Y-87204737D01*
X106334393Y-87197427D01*
X106321098Y-87189703D01*
X106308314Y-87181607D01*
X106296047Y-87173181D01*
X106284302Y-87164466D01*
X106273084Y-87155502D01*
X106262398Y-87146332D01*
X106252249Y-87136996D01*
X106242643Y-87127536D01*
X106233585Y-87117993D01*
X106225080Y-87108409D01*
X106217133Y-87098825D01*
X106209750Y-87089282D01*
X106202934Y-87079821D01*
X106196693Y-87070485D01*
X106187801Y-87055733D01*
X106179633Y-87040609D01*
X106172167Y-87025154D01*
X106165384Y-87009410D01*
X106159262Y-86993418D01*
X106153781Y-86977219D01*
X106148920Y-86960855D01*
X106144658Y-86944367D01*
X106140975Y-86927796D01*
X106137851Y-86911184D01*
X106135263Y-86894573D01*
X106133193Y-86878002D01*
X106131618Y-86861515D01*
X106130519Y-86845151D01*
X106129875Y-86828953D01*
X106129711Y-86816482D01*
X106387193Y-86816482D01*
X106387599Y-86832187D01*
X106388791Y-86847541D01*
X106390728Y-86862523D01*
X106393367Y-86877113D01*
X106396667Y-86891289D01*
X106400588Y-86905032D01*
X106405087Y-86918320D01*
X106410124Y-86931132D01*
X106415656Y-86943449D01*
X106421644Y-86955249D01*
X106428045Y-86966511D01*
X106434818Y-86977215D01*
X106441922Y-86987341D01*
X106449315Y-86996867D01*
X106456956Y-87005772D01*
X106464804Y-87014037D01*
X106474467Y-87023708D01*
X106484889Y-87032867D01*
X106496004Y-87041499D01*
X106507744Y-87049589D01*
X106520042Y-87057120D01*
X106532831Y-87064079D01*
X106546044Y-87070448D01*
X106559613Y-87076212D01*
X106573472Y-87081357D01*
X106587553Y-87085866D01*
X106601789Y-87089724D01*
X106616113Y-87092915D01*
X106630457Y-87095424D01*
X106644755Y-87097235D01*
X106658940Y-87098334D01*
X106672943Y-87098703D01*
X106686946Y-87098334D01*
X106701131Y-87097236D01*
X106715429Y-87095424D01*
X106729773Y-87092916D01*
X106744097Y-87089725D01*
X106758333Y-87085867D01*
X106772414Y-87081359D01*
X106786273Y-87076214D01*
X106799842Y-87070450D01*
X106813055Y-87064081D01*
X106825844Y-87057123D01*
X106838142Y-87049591D01*
X106849882Y-87041501D01*
X106860997Y-87032868D01*
X106871419Y-87023709D01*
X106881082Y-87014037D01*
X106888930Y-87005811D01*
X106896571Y-86997012D01*
X106903964Y-86987643D01*
X106911068Y-86977712D01*
X106917841Y-86967222D01*
X106924242Y-86956179D01*
X106930230Y-86944589D01*
X106935763Y-86932456D01*
X106940799Y-86919786D01*
X106945299Y-86906583D01*
X106949219Y-86892854D01*
X106952520Y-86878602D01*
X106955159Y-86863834D01*
X106957095Y-86848555D01*
X106958287Y-86832769D01*
X106958693Y-86816482D01*
X106958326Y-86800114D01*
X106957239Y-86784097D01*
X106955461Y-86768453D01*
X106953016Y-86753201D01*
X106949930Y-86738363D01*
X106946229Y-86723958D01*
X106941939Y-86710009D01*
X106937086Y-86696535D01*
X106931695Y-86683557D01*
X106925793Y-86671096D01*
X106919404Y-86659173D01*
X106912556Y-86647807D01*
X106905274Y-86637021D01*
X106897584Y-86626834D01*
X106889511Y-86617267D01*
X106881082Y-86608342D01*
X106871575Y-86599912D01*
X106861583Y-86591839D01*
X106851115Y-86584149D01*
X106840182Y-86576867D01*
X106828794Y-86570019D01*
X106816962Y-86563630D01*
X106804696Y-86557728D01*
X106792006Y-86552338D01*
X106778902Y-86547484D01*
X106765396Y-86543194D01*
X106751496Y-86539494D01*
X106737215Y-86536408D01*
X106722561Y-86533963D01*
X106707546Y-86532184D01*
X106692179Y-86531098D01*
X106676471Y-86530730D01*
X106660724Y-86531098D01*
X106645251Y-86532184D01*
X106630078Y-86533963D01*
X106615231Y-86536408D01*
X106600735Y-86539494D01*
X106586616Y-86543194D01*
X106572900Y-86547484D01*
X106559613Y-86552338D01*
X106546781Y-86557728D01*
X106534430Y-86563630D01*
X106522585Y-86570019D01*
X106511272Y-86576867D01*
X106500517Y-86584149D01*
X106490346Y-86591839D01*
X106480785Y-86599912D01*
X106471860Y-86608342D01*
X106464804Y-86608342D01*
X106455794Y-86617888D01*
X106447289Y-86627992D01*
X106439302Y-86638634D01*
X106431842Y-86649793D01*
X106424919Y-86661448D01*
X106418543Y-86673578D01*
X106412726Y-86686163D01*
X106407478Y-86699182D01*
X106402808Y-86712615D01*
X106398727Y-86726440D01*
X106395246Y-86740638D01*
X106392374Y-86755187D01*
X106390123Y-86770066D01*
X106388502Y-86785256D01*
X106387522Y-86800734D01*
X106387193Y-86816482D01*
X106129711Y-86816482D01*
X106129665Y-86812962D01*
X106130285Y-86785271D01*
X106132145Y-86757792D01*
X106135246Y-86730571D01*
X106139587Y-86703655D01*
X106145168Y-86677090D01*
X106151989Y-86650924D01*
X106160051Y-86625202D01*
X106169352Y-86599970D01*
X106179894Y-86575277D01*
X106191677Y-86551167D01*
X106204699Y-86527687D01*
X106218962Y-86504885D01*
X106234465Y-86482806D01*
X106251208Y-86461497D01*
X106269191Y-86441005D01*
X106288415Y-86421376D01*
X106300369Y-86410449D01*
X106313771Y-86398954D01*
X106328661Y-86387067D01*
X106345080Y-86374962D01*
X106363070Y-86362817D01*
X106382673Y-86350806D01*
X106403929Y-86339104D01*
X106426880Y-86327889D01*
X106451568Y-86317335D01*
X106464576Y-86312361D01*
X106478033Y-86307619D01*
X106491945Y-86303129D01*
X106506317Y-86298915D01*
X106521155Y-86294998D01*
X106536462Y-86291400D01*
X106552245Y-86288143D01*
X106568508Y-86285249D01*
X106585257Y-86282740D01*
X106602498Y-86280638D01*
X106620234Y-86278964D01*
X106638471Y-86277742D01*
X106657215Y-86276993D01*
X106676471Y-86276738D01*
X106714470Y-86277742D01*
G37*
G36*
X104815651Y-86277526D02*
G01*
X104851616Y-86279889D01*
X104886421Y-86283771D01*
X104920065Y-86289123D01*
X104952546Y-86295899D01*
X104983863Y-86304051D01*
X105014015Y-86313533D01*
X105043000Y-86324297D01*
X105070817Y-86336296D01*
X105097465Y-86349483D01*
X105122943Y-86363810D01*
X105147248Y-86379232D01*
X105170381Y-86395699D01*
X105192339Y-86413166D01*
X105213122Y-86431586D01*
X105232728Y-86450910D01*
X105251156Y-86471092D01*
X105268404Y-86492085D01*
X105284471Y-86513841D01*
X105299356Y-86536314D01*
X105313058Y-86559455D01*
X105325575Y-86583219D01*
X105336906Y-86607558D01*
X105347050Y-86632425D01*
X105356005Y-86657772D01*
X105363771Y-86683553D01*
X105370345Y-86709720D01*
X105375727Y-86736226D01*
X105379915Y-86763025D01*
X105382908Y-86790068D01*
X105385304Y-86844700D01*
X105384613Y-86873477D01*
X105382583Y-86901613D01*
X105379281Y-86929129D01*
X105374776Y-86956046D01*
X105369134Y-86982383D01*
X105362422Y-87008163D01*
X105354708Y-87033405D01*
X105346058Y-87058130D01*
X105336540Y-87082359D01*
X105326221Y-87106113D01*
X105315168Y-87129411D01*
X105303449Y-87152276D01*
X105291130Y-87174727D01*
X105278279Y-87196785D01*
X105251249Y-87239806D01*
X105225114Y-87278233D01*
X105196954Y-87317031D01*
X105166727Y-87356574D01*
X105134391Y-87397233D01*
X105099906Y-87439381D01*
X105063229Y-87483389D01*
X104983138Y-87578475D01*
X104690332Y-87924198D01*
X105392360Y-87924198D01*
X105392360Y-88188781D01*
X105385304Y-88188786D01*
X104122360Y-88188786D01*
X104774999Y-87398564D01*
X104828136Y-87332470D01*
X104887888Y-87256126D01*
X104947639Y-87177799D01*
X104975448Y-87140476D01*
X105000777Y-87105758D01*
X105020214Y-87076287D01*
X105029542Y-87061239D01*
X105038535Y-87045948D01*
X105047135Y-87030389D01*
X105055285Y-87014535D01*
X105062929Y-86998361D01*
X105070009Y-86981841D01*
X105076470Y-86964948D01*
X105082253Y-86947658D01*
X105087303Y-86929944D01*
X105091562Y-86911781D01*
X105094973Y-86893143D01*
X105097480Y-86874003D01*
X105099026Y-86854336D01*
X105099554Y-86834116D01*
X105099244Y-86819279D01*
X105098315Y-86804548D01*
X105096767Y-86789948D01*
X105094600Y-86775502D01*
X105091816Y-86761234D01*
X105088415Y-86747168D01*
X105084398Y-86733329D01*
X105079766Y-86719740D01*
X105074518Y-86706424D01*
X105068656Y-86693406D01*
X105062180Y-86680710D01*
X105055092Y-86668359D01*
X105047391Y-86656378D01*
X105039078Y-86644790D01*
X105030154Y-86633620D01*
X105020620Y-86622890D01*
X105010476Y-86612626D01*
X104999723Y-86602851D01*
X104988362Y-86593588D01*
X104976392Y-86584863D01*
X104963816Y-86576698D01*
X104950632Y-86569118D01*
X104936843Y-86562146D01*
X104922449Y-86555806D01*
X104907450Y-86550123D01*
X104891847Y-86545120D01*
X104875641Y-86540821D01*
X104858832Y-86537251D01*
X104841421Y-86534432D01*
X104823408Y-86532389D01*
X104804795Y-86531145D01*
X104785582Y-86530725D01*
X104766348Y-86531196D01*
X104747674Y-86532592D01*
X104729560Y-86534885D01*
X104712009Y-86538050D01*
X104695020Y-86542059D01*
X104678597Y-86546888D01*
X104662739Y-86552508D01*
X104647448Y-86558893D01*
X104632725Y-86566018D01*
X104618573Y-86573855D01*
X104604991Y-86582378D01*
X104591982Y-86591560D01*
X104579546Y-86601376D01*
X104567685Y-86611798D01*
X104556401Y-86622800D01*
X104545693Y-86634355D01*
X104535565Y-86646438D01*
X104526017Y-86659022D01*
X104517050Y-86672079D01*
X104508666Y-86685584D01*
X104500865Y-86699510D01*
X104493650Y-86713831D01*
X104487022Y-86728520D01*
X104480981Y-86743551D01*
X104475529Y-86758897D01*
X104470668Y-86774532D01*
X104462722Y-86806561D01*
X104457153Y-86839427D01*
X104453971Y-86872919D01*
X104178805Y-86872919D01*
X104180936Y-86838944D01*
X104184613Y-86805842D01*
X104189727Y-86773661D01*
X104196168Y-86742446D01*
X104203829Y-86712244D01*
X104212601Y-86683101D01*
X104222376Y-86655064D01*
X104233044Y-86628180D01*
X104244498Y-86602495D01*
X104256629Y-86578055D01*
X104269329Y-86554907D01*
X104282488Y-86533097D01*
X104295999Y-86512673D01*
X104309753Y-86493680D01*
X104323641Y-86476165D01*
X104337555Y-86460174D01*
X104350956Y-86445323D01*
X104366052Y-86430007D01*
X104382885Y-86414423D01*
X104401496Y-86398766D01*
X104421925Y-86383234D01*
X104444215Y-86368022D01*
X104468406Y-86353326D01*
X104481228Y-86346234D01*
X104494541Y-86339345D01*
X104508349Y-86332682D01*
X104522660Y-86326272D01*
X104537476Y-86320139D01*
X104552804Y-86314306D01*
X104568649Y-86308799D01*
X104585016Y-86303642D01*
X104601910Y-86298859D01*
X104619336Y-86294476D01*
X104637299Y-86290517D01*
X104655805Y-86287006D01*
X104674859Y-86283968D01*
X104694466Y-86281427D01*
X104714631Y-86279408D01*
X104735360Y-86277935D01*
X104756656Y-86277034D01*
X104778527Y-86276728D01*
X104815651Y-86277526D01*
G37*
G36*
X118644535Y-72053536D02*
G01*
X118680500Y-72055899D01*
X118715305Y-72059780D01*
X118748949Y-72065133D01*
X118781430Y-72071909D01*
X118812747Y-72080061D01*
X118842899Y-72089543D01*
X118871884Y-72100307D01*
X118899701Y-72112306D01*
X118926349Y-72125493D01*
X118951826Y-72139821D01*
X118976132Y-72155243D01*
X118999265Y-72171711D01*
X119021223Y-72189178D01*
X119042006Y-72207597D01*
X119061612Y-72226921D01*
X119080039Y-72247104D01*
X119097287Y-72268096D01*
X119113355Y-72289853D01*
X119128240Y-72312325D01*
X119141942Y-72335467D01*
X119154459Y-72359231D01*
X119165790Y-72383570D01*
X119175934Y-72408437D01*
X119184889Y-72433784D01*
X119192655Y-72459565D01*
X119199229Y-72485731D01*
X119204611Y-72512238D01*
X119208799Y-72539036D01*
X119211792Y-72566078D01*
X119214188Y-72620710D01*
X119213497Y-72649487D01*
X119211467Y-72677623D01*
X119208165Y-72705139D01*
X119203660Y-72732056D01*
X119198018Y-72758394D01*
X119191306Y-72784174D01*
X119183592Y-72809416D01*
X119174942Y-72834142D01*
X119165424Y-72858371D01*
X119155106Y-72882125D01*
X119144053Y-72905425D01*
X119132334Y-72928290D01*
X119120015Y-72950742D01*
X119107164Y-72972801D01*
X119080133Y-73015823D01*
X119053999Y-73054250D01*
X119025838Y-73093048D01*
X118995611Y-73132591D01*
X118963276Y-73173250D01*
X118928790Y-73215397D01*
X118892114Y-73259405D01*
X118812023Y-73354490D01*
X118519217Y-73700213D01*
X119221244Y-73700213D01*
X119221244Y-73964795D01*
X119214188Y-73964790D01*
X117951244Y-73964790D01*
X118603883Y-73174568D01*
X118657019Y-73108477D01*
X118716771Y-73032134D01*
X118776522Y-72953806D01*
X118804331Y-72916482D01*
X118829659Y-72881762D01*
X118849097Y-72852293D01*
X118858425Y-72837246D01*
X118867418Y-72821956D01*
X118876018Y-72806397D01*
X118884168Y-72790543D01*
X118891812Y-72774370D01*
X118898892Y-72757850D01*
X118905352Y-72740958D01*
X118911136Y-72723668D01*
X118916185Y-72705954D01*
X118920444Y-72687791D01*
X118923856Y-72669152D01*
X118926363Y-72650012D01*
X118927909Y-72630345D01*
X118928437Y-72610125D01*
X118927236Y-72580557D01*
X118925734Y-72565957D01*
X118923627Y-72551511D01*
X118920917Y-72537243D01*
X118917600Y-72523177D01*
X118913676Y-72509338D01*
X118909144Y-72495748D01*
X118904002Y-72482432D01*
X118898249Y-72469415D01*
X118891884Y-72456718D01*
X118884904Y-72444368D01*
X118877310Y-72432387D01*
X118869100Y-72420799D01*
X118860272Y-72409628D01*
X118850825Y-72398899D01*
X118840759Y-72388635D01*
X118830070Y-72378860D01*
X118818760Y-72369597D01*
X118806825Y-72360872D01*
X118794264Y-72352707D01*
X118781078Y-72345127D01*
X118767263Y-72338155D01*
X118752819Y-72331816D01*
X118737745Y-72326132D01*
X118722039Y-72321130D01*
X118705700Y-72316831D01*
X118688727Y-72313260D01*
X118671118Y-72310441D01*
X118652872Y-72308398D01*
X118633988Y-72307155D01*
X118614464Y-72306735D01*
X118594920Y-72307206D01*
X118575975Y-72308601D01*
X118557628Y-72310895D01*
X118539878Y-72314059D01*
X118522726Y-72318069D01*
X118506169Y-72322897D01*
X118490208Y-72328517D01*
X118474842Y-72334902D01*
X118460070Y-72342026D01*
X118445892Y-72349863D01*
X118432307Y-72358386D01*
X118419314Y-72367568D01*
X118406913Y-72377384D01*
X118395103Y-72387806D01*
X118383883Y-72398808D01*
X118373253Y-72410363D01*
X118363212Y-72422446D01*
X118353760Y-72435030D01*
X118344896Y-72448087D01*
X118336618Y-72461592D01*
X118328927Y-72475518D01*
X118321822Y-72489840D01*
X118315303Y-72504529D01*
X118309368Y-72519560D01*
X118304016Y-72534906D01*
X118299248Y-72550541D01*
X118291460Y-72582571D01*
X118285997Y-72615438D01*
X118282854Y-72648931D01*
X118007689Y-72648931D01*
X118009820Y-72614957D01*
X118013497Y-72581855D01*
X118018611Y-72549674D01*
X118025052Y-72518459D01*
X118032713Y-72488256D01*
X118041485Y-72459113D01*
X118051260Y-72431076D01*
X118061929Y-72404192D01*
X118073383Y-72378506D01*
X118085514Y-72354065D01*
X118098213Y-72330917D01*
X118111373Y-72309107D01*
X118124883Y-72288682D01*
X118138637Y-72269688D01*
X118152525Y-72252172D01*
X118166439Y-72236181D01*
X118179840Y-72221331D01*
X118194936Y-72206016D01*
X118211769Y-72190432D01*
X118230379Y-72174776D01*
X118250809Y-72159243D01*
X118273098Y-72144032D01*
X118297290Y-72129337D01*
X118310112Y-72122244D01*
X118323424Y-72115355D01*
X118337233Y-72108693D01*
X118351543Y-72102283D01*
X118366360Y-72096149D01*
X118381688Y-72090316D01*
X118397533Y-72084809D01*
X118413900Y-72079652D01*
X118430794Y-72074869D01*
X118448220Y-72070486D01*
X118466184Y-72066527D01*
X118484690Y-72063016D01*
X118503744Y-72059977D01*
X118523351Y-72057436D01*
X118543516Y-72055417D01*
X118564244Y-72053945D01*
X118585541Y-72053043D01*
X118607411Y-72052737D01*
X118644535Y-72053536D01*
G37*
G36*
X116007440Y-73386236D02*
G01*
X116007440Y-72084483D01*
X116296717Y-72084483D01*
X116296717Y-74081205D01*
X114931468Y-72652453D01*
X114931468Y-73968315D01*
X114642191Y-73968315D01*
X114642191Y-71957484D01*
X116007440Y-73386236D01*
G37*
G36*
X113848440Y-73964793D02*
G01*
X113559163Y-73964793D01*
X113559163Y-72084486D01*
X113848440Y-72084486D01*
X113848440Y-73964793D01*
G37*
G36*
X108994220Y-73964793D02*
G01*
X108704942Y-73964793D01*
X108704942Y-72349070D01*
X108376859Y-72349070D01*
X108535609Y-72084486D01*
X108994220Y-72084486D01*
X108994220Y-73964793D01*
G37*
G36*
X106150832Y-73386236D02*
G01*
X106150832Y-72084483D01*
X106440109Y-72084483D01*
X106440109Y-74081205D01*
X105074860Y-72652453D01*
X105074860Y-73968315D01*
X104785582Y-73968315D01*
X104785583Y-73964790D01*
X104785583Y-71957484D01*
X106150832Y-73386236D01*
G37*
G36*
X103995361Y-73964793D02*
G01*
X103706083Y-73964793D01*
X103706083Y-72084486D01*
X103995361Y-72084486D01*
X103995361Y-73964793D01*
G37*
G36*
X114596329Y-60090045D02*
G01*
X114596329Y-58788296D01*
X114885606Y-58788296D01*
X114885606Y-60785020D01*
X113520357Y-59356268D01*
X113520357Y-60672130D01*
X113231080Y-60672130D01*
X113231080Y-58661294D01*
X114596329Y-60090045D01*
G37*
G36*
X112440858Y-60668600D02*
G01*
X112151581Y-60668600D01*
X112151581Y-58788296D01*
X112440858Y-58788296D01*
X112440858Y-60668600D01*
G37*
G36*
X111576553Y-60668600D02*
G01*
X111266109Y-60668600D01*
X111068553Y-60213517D01*
X110264219Y-60213517D01*
X110059609Y-60668600D01*
X109749164Y-60668600D01*
X110090620Y-59941880D01*
X110384164Y-59941880D01*
X110952136Y-59941880D01*
X110673442Y-59303353D01*
X110384164Y-59941880D01*
X110090620Y-59941880D01*
X110684025Y-58678936D01*
X111576553Y-60668600D01*
G37*
G36*
X108479238Y-58749909D02*
G01*
X108511170Y-58751174D01*
X108543154Y-58753306D01*
X108575132Y-58756328D01*
X108607048Y-58760259D01*
X108638845Y-58765120D01*
X108670467Y-58770931D01*
X108701856Y-58777715D01*
X108732956Y-58785490D01*
X108763709Y-58794279D01*
X108794060Y-58804101D01*
X108823950Y-58814977D01*
X108853324Y-58826928D01*
X108882124Y-58839974D01*
X108910293Y-58854137D01*
X108937776Y-58869437D01*
X108966182Y-58886210D01*
X108993208Y-58903412D01*
X109018880Y-58920976D01*
X109043223Y-58938834D01*
X109066265Y-58956920D01*
X109088030Y-58975165D01*
X109108545Y-58993504D01*
X109127835Y-59011869D01*
X109145926Y-59030193D01*
X109162844Y-59048408D01*
X109178615Y-59066447D01*
X109193264Y-59084244D01*
X109206818Y-59101730D01*
X109219302Y-59118840D01*
X109230743Y-59135505D01*
X109241165Y-59151658D01*
X109011860Y-59313935D01*
X109000951Y-59299310D01*
X108989412Y-59284576D01*
X108977273Y-59269791D01*
X108964566Y-59255010D01*
X108951321Y-59240292D01*
X108937570Y-59225693D01*
X108923343Y-59211269D01*
X108908673Y-59197078D01*
X108893588Y-59183176D01*
X108878121Y-59169620D01*
X108862303Y-59156468D01*
X108846165Y-59143775D01*
X108829737Y-59131599D01*
X108813050Y-59119997D01*
X108796137Y-59109025D01*
X108779027Y-59098741D01*
X108759102Y-59087365D01*
X108739022Y-59077023D01*
X108718798Y-59067673D01*
X108698439Y-59059274D01*
X108677956Y-59051784D01*
X108657360Y-59045163D01*
X108636660Y-59039368D01*
X108615867Y-59034359D01*
X108594991Y-59030094D01*
X108574043Y-59026532D01*
X108553033Y-59023631D01*
X108531972Y-59021350D01*
X108510869Y-59019648D01*
X108489735Y-59018484D01*
X108468580Y-59017816D01*
X108447415Y-59017602D01*
X108402180Y-59018773D01*
X108359048Y-59022177D01*
X108317973Y-59027648D01*
X108278909Y-59035020D01*
X108241808Y-59044129D01*
X108206624Y-59054809D01*
X108173311Y-59066894D01*
X108141822Y-59080220D01*
X108112110Y-59094620D01*
X108084130Y-59109931D01*
X108057835Y-59125985D01*
X108033177Y-59142618D01*
X108010111Y-59159664D01*
X107988591Y-59176959D01*
X107968569Y-59194336D01*
X107949999Y-59211630D01*
X107927393Y-59235673D01*
X107905909Y-59261425D01*
X107885592Y-59288780D01*
X107866490Y-59317628D01*
X107848649Y-59347862D01*
X107832115Y-59379371D01*
X107816935Y-59412049D01*
X107803155Y-59445786D01*
X107790823Y-59480474D01*
X107779983Y-59516004D01*
X107770684Y-59552268D01*
X107762972Y-59589157D01*
X107756892Y-59626563D01*
X107752492Y-59664378D01*
X107749817Y-59702492D01*
X107748916Y-59740797D01*
X107749738Y-59776463D01*
X107752188Y-59811973D01*
X107756241Y-59847256D01*
X107761869Y-59882239D01*
X107769048Y-59916850D01*
X107777751Y-59951017D01*
X107787953Y-59984667D01*
X107799627Y-60017728D01*
X107812749Y-60050127D01*
X107827292Y-60081792D01*
X107843229Y-60112651D01*
X107860537Y-60142632D01*
X107879188Y-60171662D01*
X107899156Y-60199669D01*
X107920417Y-60226580D01*
X107942943Y-60252323D01*
X107967747Y-60277135D01*
X107993207Y-60300010D01*
X108019318Y-60320993D01*
X108046076Y-60340131D01*
X108073474Y-60357471D01*
X108101507Y-60373060D01*
X108130171Y-60386943D01*
X108159461Y-60399167D01*
X108189370Y-60409779D01*
X108219894Y-60418825D01*
X108251029Y-60426351D01*
X108282767Y-60432405D01*
X108315106Y-60437033D01*
X108348038Y-60440281D01*
X108381560Y-60442196D01*
X108415665Y-60442823D01*
X108445805Y-60442240D01*
X108475376Y-60440474D01*
X108504388Y-60437498D01*
X108532853Y-60433288D01*
X108560781Y-60427816D01*
X108588182Y-60421058D01*
X108615066Y-60412987D01*
X108641443Y-60403578D01*
X108667324Y-60392804D01*
X108692720Y-60380640D01*
X108717640Y-60367061D01*
X108742095Y-60352039D01*
X108766095Y-60335550D01*
X108789651Y-60317568D01*
X108812773Y-60298066D01*
X108835471Y-60277019D01*
X108854578Y-60257756D01*
X108872244Y-60238344D01*
X108888514Y-60218797D01*
X108903435Y-60199131D01*
X108917055Y-60179362D01*
X108929418Y-60159506D01*
X108940573Y-60139576D01*
X108950564Y-60119591D01*
X108959440Y-60099563D01*
X108967246Y-60079510D01*
X108974028Y-60059447D01*
X108979834Y-60039389D01*
X108984710Y-60019351D01*
X108988702Y-59999349D01*
X108991857Y-59979399D01*
X108994221Y-59959517D01*
X108525027Y-59959517D01*
X108525027Y-59694934D01*
X108521498Y-59687880D01*
X109297610Y-59687880D01*
X109297610Y-59701992D01*
X109296495Y-59761515D01*
X109293159Y-59819670D01*
X109287610Y-59876408D01*
X109279861Y-59931684D01*
X109269920Y-59985451D01*
X109257798Y-60037662D01*
X109243506Y-60088271D01*
X109227054Y-60137232D01*
X109208452Y-60184498D01*
X109187711Y-60230022D01*
X109164841Y-60273759D01*
X109139852Y-60315661D01*
X109112754Y-60355681D01*
X109083559Y-60393775D01*
X109052276Y-60429894D01*
X109018915Y-60463992D01*
X108982095Y-60498080D01*
X108944453Y-60528995D01*
X108906077Y-60556871D01*
X108867055Y-60581843D01*
X108827476Y-60604045D01*
X108787426Y-60623611D01*
X108746993Y-60640676D01*
X108706266Y-60655375D01*
X108665332Y-60667841D01*
X108624280Y-60678208D01*
X108583196Y-60686613D01*
X108542169Y-60693188D01*
X108501287Y-60698067D01*
X108460638Y-60701387D01*
X108420309Y-60703280D01*
X108380388Y-60703881D01*
X108329731Y-60702965D01*
X108280893Y-60700195D01*
X108233792Y-60695533D01*
X108188344Y-60688943D01*
X108144467Y-60680390D01*
X108102079Y-60669836D01*
X108061096Y-60657247D01*
X108021436Y-60642586D01*
X107983016Y-60625816D01*
X107945754Y-60606901D01*
X107909567Y-60585806D01*
X107874372Y-60562494D01*
X107840087Y-60536929D01*
X107806628Y-60509075D01*
X107773913Y-60478895D01*
X107741860Y-60446353D01*
X107708500Y-60409941D01*
X107677216Y-60372180D01*
X107648021Y-60333127D01*
X107620923Y-60292839D01*
X107595934Y-60251373D01*
X107573064Y-60208786D01*
X107552323Y-60165134D01*
X107533721Y-60120474D01*
X107517269Y-60074864D01*
X107502977Y-60028359D01*
X107490855Y-59981018D01*
X107480915Y-59932896D01*
X107473165Y-59884050D01*
X107467617Y-59834539D01*
X107464280Y-59784417D01*
X107463166Y-59733743D01*
X107464550Y-59679311D01*
X107468623Y-59625877D01*
X107475258Y-59573527D01*
X107484332Y-59522351D01*
X107495722Y-59472436D01*
X107509302Y-59423870D01*
X107524950Y-59376740D01*
X107542541Y-59331135D01*
X107561950Y-59287142D01*
X107583055Y-59244849D01*
X107605731Y-59204344D01*
X107629853Y-59165716D01*
X107655299Y-59129051D01*
X107681943Y-59094437D01*
X107709662Y-59061963D01*
X107738332Y-59031716D01*
X107769821Y-59001804D01*
X107803382Y-58972998D01*
X107838938Y-58945412D01*
X107876411Y-58919158D01*
X107915724Y-58894352D01*
X107956799Y-58871106D01*
X107999559Y-58849534D01*
X108043926Y-58829751D01*
X108089822Y-58811869D01*
X108137171Y-58796002D01*
X108185894Y-58782264D01*
X108235914Y-58770770D01*
X108287154Y-58761632D01*
X108339535Y-58754963D01*
X108392982Y-58750879D01*
X108447415Y-58749492D01*
X108479238Y-58749909D01*
G37*
D12*
X119193189Y-155898351D02*
X119221417Y-155901155D01*
X119249408Y-155905779D01*
X119277083Y-155912179D01*
X119304366Y-155920316D01*
X119331178Y-155930148D01*
X119357442Y-155941634D01*
X119383082Y-155954732D01*
X119408018Y-155969401D01*
X119432174Y-155985599D01*
X119455473Y-156003286D01*
X119477836Y-156022420D01*
X119499186Y-156042959D01*
X119519445Y-156064862D01*
X119538537Y-156088089D01*
X119556383Y-156112597D01*
X119559910Y-156116106D01*
X119997355Y-156694669D01*
X120009550Y-156710825D01*
X120020996Y-156727503D01*
X120031687Y-156744646D01*
X120041619Y-156762197D01*
X120050785Y-156780099D01*
X120059182Y-156798295D01*
X120066804Y-156816729D01*
X120073645Y-156835343D01*
X120079700Y-156854081D01*
X120084965Y-156872887D01*
X120089434Y-156891702D01*
X120093102Y-156910471D01*
X120095964Y-156929137D01*
X120098015Y-156947642D01*
X120099249Y-156965930D01*
X120099662Y-156983945D01*
X120098958Y-157006425D01*
X120096844Y-157028838D01*
X120093313Y-157051116D01*
X120088362Y-157073192D01*
X120081984Y-157094999D01*
X120074175Y-157116471D01*
X120064929Y-157137539D01*
X120054241Y-157158136D01*
X120042107Y-157178196D01*
X120035495Y-157188004D01*
X120028520Y-157197652D01*
X120021180Y-157207131D01*
X120013476Y-157216435D01*
X120005406Y-157225553D01*
X119996970Y-157234479D01*
X119988167Y-157243202D01*
X119978996Y-157251716D01*
X119969457Y-157260012D01*
X119959549Y-157268080D01*
X119949272Y-157275914D01*
X119938625Y-157283504D01*
X119927606Y-157290842D01*
X119916217Y-157297920D01*
X119901043Y-157306853D01*
X119885941Y-157315134D01*
X119870902Y-157322775D01*
X119855914Y-157329785D01*
X119840968Y-157336175D01*
X119826052Y-157341955D01*
X119811157Y-157347136D01*
X119796273Y-157351727D01*
X119781388Y-157355740D01*
X119766493Y-157359183D01*
X119751578Y-157362069D01*
X119736631Y-157364407D01*
X119721643Y-157366207D01*
X119706604Y-157367480D01*
X119691502Y-157368237D01*
X119676328Y-157368486D01*
X119647940Y-157367542D01*
X119619711Y-157364738D01*
X119591721Y-157360115D01*
X119564045Y-157353714D01*
X119536763Y-157345577D01*
X119509950Y-157335745D01*
X119483686Y-157324260D01*
X119458047Y-157311162D01*
X119433110Y-157296493D01*
X119408954Y-157280294D01*
X119385656Y-157262608D01*
X119363293Y-157243474D01*
X119341943Y-157222935D01*
X119321683Y-157201031D01*
X119302591Y-157177805D01*
X119284745Y-157153297D01*
X118886105Y-156585324D01*
X118860646Y-156549863D01*
X118835229Y-156512623D01*
X118822858Y-156493504D01*
X118810886Y-156474143D01*
X118799440Y-156454605D01*
X118788651Y-156434959D01*
X118778647Y-156415271D01*
X118769558Y-156395609D01*
X118761513Y-156376040D01*
X118754641Y-156356631D01*
X118749071Y-156337449D01*
X118744933Y-156318562D01*
X118742355Y-156300036D01*
X118741692Y-156290930D01*
X118741467Y-156281939D01*
X118742171Y-156259460D01*
X118744285Y-156237049D01*
X118747816Y-156214772D01*
X118752767Y-156192697D01*
X118759145Y-156170891D01*
X118766954Y-156149420D01*
X118776200Y-156128352D01*
X118786887Y-156107755D01*
X118799022Y-156087695D01*
X118805633Y-156077887D01*
X118812608Y-156068239D01*
X118819948Y-156058759D01*
X118827652Y-156049455D01*
X118835722Y-156040336D01*
X118844158Y-156031411D01*
X118852961Y-156022686D01*
X118862132Y-156014172D01*
X118871671Y-156005876D01*
X118881579Y-155997806D01*
X118891856Y-155989972D01*
X118902503Y-155982381D01*
X118913521Y-155975042D01*
X118924911Y-155967964D01*
X118940085Y-155959033D01*
X118955186Y-155950753D01*
X118970226Y-155943113D01*
X118985214Y-155936104D01*
X119000160Y-155929715D01*
X119015076Y-155923936D01*
X119029971Y-155918756D01*
X119044856Y-155914165D01*
X119059740Y-155910153D01*
X119074635Y-155906710D01*
X119089551Y-155903824D01*
X119104498Y-155901487D01*
X119119485Y-155899686D01*
X119134525Y-155898413D01*
X119149627Y-155897657D01*
X119164801Y-155897407D01*
X119193189Y-155898351D01*
D13*
X102108000Y-40944801D02*
X121157995Y-40944801D01*
D10*
X102108000Y-75562873D02*
X121157995Y-75562873D01*
D13*
X102108000Y-41452800D02*
X121157995Y-41452800D01*
D11*
G36*
X118705456Y-153736513D02*
G01*
X118878032Y-153751781D01*
X119037171Y-153776724D01*
X119111773Y-153792694D01*
X119183102Y-153810927D01*
X119251185Y-153831372D01*
X119316051Y-153853977D01*
X119377729Y-153878690D01*
X119436247Y-153905461D01*
X119491633Y-153934236D01*
X119543916Y-153964965D01*
X119593125Y-153997595D01*
X119639287Y-154032075D01*
X119682431Y-154068354D01*
X119722586Y-154106380D01*
X119759779Y-154146100D01*
X119794040Y-154187464D01*
X119825397Y-154230419D01*
X119853878Y-154274915D01*
X119879512Y-154320899D01*
X119902326Y-154368319D01*
X119922350Y-154417125D01*
X119939612Y-154467263D01*
X119965964Y-154571334D01*
X119981608Y-154680117D01*
X119986772Y-154793200D01*
X119984110Y-154873843D01*
X119976058Y-154951680D01*
X119962518Y-155026634D01*
X119953659Y-155063005D01*
X119943392Y-155098626D01*
X119931703Y-155133488D01*
X119918581Y-155167581D01*
X119904013Y-155200894D01*
X119887988Y-155233419D01*
X119870492Y-155265146D01*
X119851514Y-155296064D01*
X119831041Y-155326165D01*
X119809061Y-155355438D01*
X119785562Y-155383874D01*
X119760531Y-155411463D01*
X119733956Y-155438196D01*
X119705825Y-155464063D01*
X119676126Y-155489053D01*
X119644846Y-155513158D01*
X119611974Y-155536368D01*
X119577496Y-155558672D01*
X119541400Y-155580062D01*
X119503675Y-155600528D01*
X119464308Y-155620059D01*
X119423286Y-155638647D01*
X119336231Y-155672952D01*
X119242412Y-155703366D01*
X118716772Y-155851529D01*
X118716772Y-155848009D01*
X118691449Y-155852538D01*
X118667065Y-155855590D01*
X118643608Y-155857237D01*
X118621068Y-155857553D01*
X118599431Y-155856611D01*
X118578688Y-155854483D01*
X118558826Y-155851243D01*
X118539833Y-155846964D01*
X118521697Y-155841718D01*
X118504408Y-155835579D01*
X118487954Y-155828619D01*
X118472323Y-155820912D01*
X118457502Y-155812531D01*
X118443482Y-155803548D01*
X118430250Y-155794037D01*
X118417794Y-155784070D01*
X118395165Y-155763063D01*
X118375502Y-155741109D01*
X118358712Y-155718794D01*
X118344703Y-155696701D01*
X118333380Y-155675415D01*
X118324652Y-155655518D01*
X118318425Y-155637595D01*
X118314606Y-155622230D01*
X118312653Y-155607321D01*
X118311422Y-155592377D01*
X118310914Y-155577427D01*
X118311127Y-155562499D01*
X118312061Y-155547619D01*
X118313715Y-155532816D01*
X118316088Y-155518118D01*
X118319181Y-155503552D01*
X118322992Y-155489147D01*
X118327521Y-155474929D01*
X118332767Y-155460928D01*
X118338729Y-155447170D01*
X118345406Y-155433683D01*
X118352799Y-155420495D01*
X118360906Y-155407634D01*
X118369728Y-155395127D01*
X118379262Y-155383003D01*
X118389508Y-155371290D01*
X118400467Y-155360014D01*
X118412137Y-155349204D01*
X118424517Y-155338887D01*
X118437607Y-155329092D01*
X118451407Y-155319845D01*
X118465915Y-155311176D01*
X118481131Y-155303111D01*
X118497054Y-155295678D01*
X118513684Y-155288906D01*
X118531020Y-155282821D01*
X118549062Y-155277452D01*
X118567808Y-155272827D01*
X118587259Y-155268973D01*
X118607412Y-155265917D01*
X118657525Y-155258516D01*
X118705866Y-155248210D01*
X118752233Y-155234990D01*
X118796424Y-155218844D01*
X118838238Y-155199764D01*
X118858190Y-155189120D01*
X118877473Y-155177738D01*
X118896061Y-155165617D01*
X118913928Y-155152756D01*
X118931050Y-155139153D01*
X118947401Y-155124808D01*
X118962957Y-155109718D01*
X118977692Y-155093883D01*
X118991580Y-155077301D01*
X119004597Y-155059972D01*
X119016717Y-155041893D01*
X119027916Y-155023063D01*
X119038168Y-155003481D01*
X119047447Y-154983147D01*
X119055729Y-154962058D01*
X119062989Y-154940213D01*
X119069201Y-154917611D01*
X119074340Y-154894250D01*
X119078380Y-154870131D01*
X119081298Y-154845250D01*
X119083067Y-154819607D01*
X119083662Y-154793200D01*
X119082830Y-154762058D01*
X119080357Y-154732121D01*
X119076276Y-154703375D01*
X119070619Y-154675806D01*
X119063419Y-154649400D01*
X119054710Y-154624143D01*
X119044524Y-154600019D01*
X119032895Y-154577016D01*
X119019855Y-154555119D01*
X119005436Y-154534313D01*
X118989674Y-154514585D01*
X118972599Y-154495920D01*
X118954245Y-154478304D01*
X118934645Y-154461722D01*
X118913832Y-154446162D01*
X118891839Y-154431608D01*
X118868698Y-154418046D01*
X118844443Y-154405462D01*
X118819107Y-154393841D01*
X118792723Y-154383171D01*
X118765323Y-154373435D01*
X118736941Y-154364621D01*
X118707609Y-154356714D01*
X118677360Y-154349699D01*
X118646228Y-154343563D01*
X118614246Y-154338291D01*
X118547859Y-154330283D01*
X118478466Y-154325561D01*
X118406328Y-154324013D01*
X118222885Y-154324013D01*
X118207387Y-154324508D01*
X118192664Y-154325990D01*
X118185603Y-154327100D01*
X118178748Y-154328454D01*
X118172101Y-154330053D01*
X118165668Y-154331895D01*
X118159452Y-154333979D01*
X118153457Y-154336307D01*
X118147687Y-154338875D01*
X118142145Y-154341685D01*
X118136836Y-154344735D01*
X118131763Y-154348024D01*
X118126931Y-154351553D01*
X118122343Y-154355320D01*
X118118003Y-154359325D01*
X118113914Y-154363567D01*
X118110082Y-154368045D01*
X118106509Y-154372759D01*
X118103200Y-154377708D01*
X118100158Y-154382892D01*
X118097388Y-154388310D01*
X118094892Y-154393961D01*
X118092676Y-154399844D01*
X118090743Y-154405959D01*
X118089096Y-154412306D01*
X118087740Y-154418884D01*
X118086679Y-154425691D01*
X118085916Y-154432728D01*
X118085456Y-154439993D01*
X118085301Y-154447487D01*
X118085301Y-156948677D01*
X118084817Y-156972248D01*
X118083371Y-156995328D01*
X118080973Y-157017898D01*
X118077632Y-157039943D01*
X118073359Y-157061445D01*
X118068163Y-157082388D01*
X118062053Y-157102755D01*
X118055039Y-157122529D01*
X118047132Y-157141693D01*
X118038340Y-157160230D01*
X118028674Y-157178124D01*
X118018142Y-157195358D01*
X118006756Y-157211914D01*
X117994524Y-157227778D01*
X117981456Y-157242930D01*
X117967562Y-157257355D01*
X117952851Y-157271036D01*
X117937333Y-157283957D01*
X117921019Y-157296099D01*
X117903917Y-157307447D01*
X117886037Y-157317984D01*
X117867389Y-157327692D01*
X117847983Y-157336556D01*
X117827829Y-157344558D01*
X117806935Y-157351681D01*
X117785312Y-157357909D01*
X117762969Y-157363225D01*
X117739917Y-157367612D01*
X117716164Y-157371054D01*
X117691721Y-157373533D01*
X117666597Y-157375032D01*
X117640801Y-157375536D01*
X117614996Y-157375032D01*
X117589843Y-157373533D01*
X117565352Y-157371054D01*
X117541535Y-157367612D01*
X117518403Y-157363225D01*
X117495966Y-157357909D01*
X117474236Y-157351681D01*
X117453224Y-157344558D01*
X117432940Y-157336556D01*
X117413396Y-157327692D01*
X117394602Y-157317984D01*
X117376570Y-157307447D01*
X117359311Y-157296099D01*
X117342835Y-157283957D01*
X117327154Y-157271036D01*
X117312278Y-157257355D01*
X117298219Y-157242930D01*
X117284987Y-157227778D01*
X117272593Y-157211914D01*
X117261049Y-157195358D01*
X117250366Y-157178124D01*
X117240554Y-157160230D01*
X117231624Y-157141693D01*
X117223587Y-157122529D01*
X117216455Y-157102755D01*
X117210238Y-157082388D01*
X117204948Y-157061445D01*
X117200595Y-157039943D01*
X117197190Y-157017898D01*
X117194744Y-156995328D01*
X117193268Y-156972248D01*
X117192774Y-156948677D01*
X117192774Y-154242867D01*
X117193372Y-154212844D01*
X117195156Y-154183637D01*
X117198114Y-154155254D01*
X117202234Y-154127704D01*
X117207505Y-154100996D01*
X117213912Y-154075140D01*
X117221445Y-154050144D01*
X117230092Y-154026018D01*
X117239838Y-154002770D01*
X117250673Y-153980409D01*
X117262585Y-153958945D01*
X117275560Y-153938387D01*
X117289587Y-153918744D01*
X117304653Y-153900024D01*
X117320746Y-153882236D01*
X117337854Y-153865391D01*
X117355965Y-153849496D01*
X117375065Y-153834562D01*
X117395144Y-153820596D01*
X117416189Y-153807608D01*
X117438187Y-153795608D01*
X117461126Y-153784603D01*
X117484993Y-153774603D01*
X117509778Y-153765618D01*
X117535467Y-153757656D01*
X117562048Y-153750726D01*
X117589508Y-153744838D01*
X117617837Y-153739999D01*
X117647020Y-153736221D01*
X117677046Y-153733510D01*
X117707904Y-153731877D01*
X117739579Y-153731331D01*
X118519218Y-153731331D01*
X118705456Y-153736513D01*
G37*
M02*
