%TF.GenerationSoftware,KiCad,Pcbnew,8.0.2*%
%TF.CreationDate,2025-03-09T11:52:06-07:00*%
%TF.ProjectId,ResEQ_Mini - Panel,52657345-515f-44d6-996e-69202d205061,rev?*%
%TF.SameCoordinates,Original*%
%TF.FileFunction,Profile,NP*%
%FSLAX46Y46*%
G04 Gerber Fmt 4.6, Leading zero omitted, Abs format (unit mm)*
G04 Created by KiCad (PCBNEW 8.0.2) date 2025-03-09 11:52:06*
%MOMM*%
%LPD*%
G01*
G04 APERTURE LIST*
%TA.AperFunction,Profile*%
%ADD10C,0.200000*%
%TD*%
%TA.AperFunction,Profile*%
%ADD11C,0.126999*%
%TD*%
%TA.AperFunction,Profile*%
%ADD12C,0.088194*%
%TD*%
G04 APERTURE END LIST*
D10*
X110718400Y-156006800D02*
G75*
G02*
X107518400Y-156006800I-1600000J0D01*
G01*
X107518400Y-156006800D02*
G75*
G02*
X110718400Y-156006800I1600000J0D01*
G01*
X110700000Y-33480000D02*
G75*
G02*
X107500000Y-33480000I-1600000J0D01*
G01*
X107500000Y-33480000D02*
G75*
G02*
X110700000Y-33480000I1600000J0D01*
G01*
D11*
X121598971Y-158979295D02*
X101600000Y-158979295D01*
X101600000Y-30480000D01*
X121598971Y-30480000D01*
X121598971Y-158979295D01*
D12*
X106678281Y-64262440D02*
X106833251Y-64274225D01*
X106985967Y-64293630D01*
X107136239Y-64320466D01*
X107283874Y-64354540D01*
X107428681Y-64395661D01*
X107570467Y-64443636D01*
X107709042Y-64498274D01*
X107844213Y-64559384D01*
X107975789Y-64626773D01*
X108103578Y-64700250D01*
X108227388Y-64779624D01*
X108347027Y-64864701D01*
X108462305Y-64955291D01*
X108573028Y-65051203D01*
X108679005Y-65152243D01*
X108780046Y-65258221D01*
X108875957Y-65368944D01*
X108966547Y-65484221D01*
X109051624Y-65603861D01*
X109130997Y-65727671D01*
X109204474Y-65855460D01*
X109271863Y-65987036D01*
X109332973Y-66122207D01*
X109387611Y-66260782D01*
X109435587Y-66402568D01*
X109476707Y-66547375D01*
X109510781Y-66695010D01*
X109537617Y-66845282D01*
X109557022Y-66997998D01*
X109568807Y-67152968D01*
X109572777Y-67309999D01*
X109568807Y-67467030D01*
X109557022Y-67621999D01*
X109537617Y-67774716D01*
X109510781Y-67924988D01*
X109476707Y-68072623D01*
X109435587Y-68217429D01*
X109387611Y-68359216D01*
X109332973Y-68497790D01*
X109271863Y-68632962D01*
X109204474Y-68764538D01*
X109130997Y-68892326D01*
X109051624Y-69016136D01*
X108966547Y-69135776D01*
X108875957Y-69251053D01*
X108780046Y-69361777D01*
X108679005Y-69467755D01*
X108573028Y-69568795D01*
X108462305Y-69664706D01*
X108347027Y-69755296D01*
X108227388Y-69840374D01*
X108103578Y-69919747D01*
X107975789Y-69993224D01*
X107844213Y-70060613D01*
X107709042Y-70121723D01*
X107570467Y-70176361D01*
X107428681Y-70224337D01*
X107283874Y-70265457D01*
X107136239Y-70299531D01*
X106985967Y-70326367D01*
X106833251Y-70345773D01*
X106678281Y-70357557D01*
X106521250Y-70361528D01*
X106364219Y-70357557D01*
X106209249Y-70345773D01*
X106056532Y-70326367D01*
X105906261Y-70299531D01*
X105758626Y-70265457D01*
X105613819Y-70224337D01*
X105472032Y-70176361D01*
X105333458Y-70121723D01*
X105198286Y-70060613D01*
X105066711Y-69993224D01*
X104938922Y-69919747D01*
X104815112Y-69840374D01*
X104695472Y-69755296D01*
X104580195Y-69664706D01*
X104469472Y-69568795D01*
X104363494Y-69467755D01*
X104262454Y-69361777D01*
X104166543Y-69251053D01*
X104075953Y-69135776D01*
X103990875Y-69016136D01*
X103911502Y-68892326D01*
X103838025Y-68764538D01*
X103770636Y-68632962D01*
X103709526Y-68497790D01*
X103654888Y-68359216D01*
X103606913Y-68217429D01*
X103565792Y-68072623D01*
X103531718Y-67924988D01*
X103504883Y-67774716D01*
X103485477Y-67621999D01*
X103473693Y-67467030D01*
X103469722Y-67309999D01*
X103473693Y-67152968D01*
X103485477Y-66997998D01*
X103504883Y-66845282D01*
X103531718Y-66695010D01*
X103565792Y-66547375D01*
X103606913Y-66402568D01*
X103654888Y-66260782D01*
X103709526Y-66122207D01*
X103770636Y-65987036D01*
X103838025Y-65855460D01*
X103911502Y-65727671D01*
X103990875Y-65603861D01*
X104075953Y-65484221D01*
X104166543Y-65368944D01*
X104262454Y-65258221D01*
X104363494Y-65152243D01*
X104469472Y-65051203D01*
X104580195Y-64955291D01*
X104695472Y-64864701D01*
X104815112Y-64779624D01*
X104938922Y-64700250D01*
X105066711Y-64626773D01*
X105198286Y-64559384D01*
X105333458Y-64498274D01*
X105472032Y-64443636D01*
X105613819Y-64395661D01*
X105758626Y-64354540D01*
X105906261Y-64320466D01*
X106056532Y-64293630D01*
X106209249Y-64274225D01*
X106364219Y-64262440D01*
X106521250Y-64258470D01*
X106678281Y-64262440D01*
X116838280Y-64262440D02*
X116993250Y-64274225D01*
X117145966Y-64293630D01*
X117296238Y-64320466D01*
X117443873Y-64354540D01*
X117588680Y-64395661D01*
X117730467Y-64443636D01*
X117869041Y-64498274D01*
X118004213Y-64559384D01*
X118135789Y-64626773D01*
X118263577Y-64700250D01*
X118387388Y-64779624D01*
X118507027Y-64864701D01*
X118622304Y-64955291D01*
X118733028Y-65051203D01*
X118839005Y-65152243D01*
X118940046Y-65258221D01*
X119035957Y-65368944D01*
X119126547Y-65484221D01*
X119211624Y-65603861D01*
X119290998Y-65727671D01*
X119364475Y-65855460D01*
X119431864Y-65987036D01*
X119492973Y-66122207D01*
X119547612Y-66260782D01*
X119595587Y-66402568D01*
X119636707Y-66547375D01*
X119670781Y-66695010D01*
X119697617Y-66845282D01*
X119717023Y-66997998D01*
X119728807Y-67152968D01*
X119732778Y-67309999D01*
X119728807Y-67467030D01*
X119717023Y-67621999D01*
X119697617Y-67774716D01*
X119670781Y-67924988D01*
X119636707Y-68072623D01*
X119595587Y-68217429D01*
X119547612Y-68359216D01*
X119492973Y-68497790D01*
X119431864Y-68632962D01*
X119364475Y-68764538D01*
X119290998Y-68892326D01*
X119211624Y-69016136D01*
X119126547Y-69135776D01*
X119035957Y-69251053D01*
X118940046Y-69361777D01*
X118839005Y-69467755D01*
X118733028Y-69568795D01*
X118622304Y-69664706D01*
X118507027Y-69755296D01*
X118387388Y-69840374D01*
X118263577Y-69919747D01*
X118135789Y-69993224D01*
X118004213Y-70060613D01*
X117869041Y-70121723D01*
X117730467Y-70176361D01*
X117588680Y-70224337D01*
X117443873Y-70265457D01*
X117296238Y-70299531D01*
X117145966Y-70326367D01*
X116993250Y-70345773D01*
X116838280Y-70357557D01*
X116681249Y-70361528D01*
X116524218Y-70357557D01*
X116369248Y-70345773D01*
X116216531Y-70326367D01*
X116066260Y-70299531D01*
X115918625Y-70265457D01*
X115773818Y-70224337D01*
X115632031Y-70176361D01*
X115493457Y-70121723D01*
X115358285Y-70060613D01*
X115226710Y-69993224D01*
X115098921Y-69919747D01*
X114975111Y-69840374D01*
X114855471Y-69755296D01*
X114740194Y-69664706D01*
X114629471Y-69568795D01*
X114523493Y-69467755D01*
X114422453Y-69361777D01*
X114326542Y-69251053D01*
X114235952Y-69135776D01*
X114150874Y-69016136D01*
X114071501Y-68892326D01*
X113998024Y-68764538D01*
X113930635Y-68632962D01*
X113869525Y-68497790D01*
X113814887Y-68359216D01*
X113766912Y-68217429D01*
X113725791Y-68072623D01*
X113691717Y-67924988D01*
X113664882Y-67774716D01*
X113645476Y-67621999D01*
X113633692Y-67467030D01*
X113629721Y-67309999D01*
X113633692Y-67152968D01*
X113645476Y-66997998D01*
X113664882Y-66845282D01*
X113691717Y-66695010D01*
X113725791Y-66547375D01*
X113766912Y-66402568D01*
X113814887Y-66260782D01*
X113869525Y-66122207D01*
X113930635Y-65987036D01*
X113998024Y-65855460D01*
X114071501Y-65727671D01*
X114150874Y-65603861D01*
X114235952Y-65484221D01*
X114326542Y-65368944D01*
X114422453Y-65258221D01*
X114523493Y-65152243D01*
X114629471Y-65051203D01*
X114740194Y-64955291D01*
X114855471Y-64864701D01*
X114975111Y-64779624D01*
X115098921Y-64700250D01*
X115226710Y-64626773D01*
X115358285Y-64559384D01*
X115493457Y-64498274D01*
X115632031Y-64443636D01*
X115773818Y-64395661D01*
X115918625Y-64354540D01*
X116066260Y-64320466D01*
X116216531Y-64293630D01*
X116369248Y-64274225D01*
X116524218Y-64262440D01*
X116681249Y-64258470D01*
X116838280Y-64262440D01*
X106678281Y-78486439D02*
X106833251Y-78498223D01*
X106985967Y-78517629D01*
X107136239Y-78544465D01*
X107283874Y-78578539D01*
X107428681Y-78619659D01*
X107570467Y-78667634D01*
X107709042Y-78722272D01*
X107844213Y-78783382D01*
X107975789Y-78850771D01*
X108103578Y-78924248D01*
X108227388Y-79003620D01*
X108347027Y-79088698D01*
X108462305Y-79179288D01*
X108573028Y-79275198D01*
X108679005Y-79376238D01*
X108780046Y-79482216D01*
X108875957Y-79592939D01*
X108966547Y-79708216D01*
X109051624Y-79827855D01*
X109130997Y-79951665D01*
X109204474Y-80079454D01*
X109271863Y-80211030D01*
X109332973Y-80346201D01*
X109387611Y-80484775D01*
X109435586Y-80626562D01*
X109476707Y-80771368D01*
X109510781Y-80919003D01*
X109537617Y-81069275D01*
X109557022Y-81221992D01*
X109568807Y-81376961D01*
X109572777Y-81533993D01*
X109568807Y-81691024D01*
X109557022Y-81845995D01*
X109537617Y-81998712D01*
X109510781Y-82148984D01*
X109476707Y-82296619D01*
X109435586Y-82441426D01*
X109387611Y-82583213D01*
X109332973Y-82721788D01*
X109271863Y-82856959D01*
X109204474Y-82988535D01*
X109130997Y-83116324D01*
X109051624Y-83240134D01*
X108966547Y-83359773D01*
X108875957Y-83475051D01*
X108780046Y-83585774D01*
X108679005Y-83691751D01*
X108573028Y-83792791D01*
X108462305Y-83888702D01*
X108347027Y-83979292D01*
X108227388Y-84064370D01*
X108103578Y-84143743D01*
X107975789Y-84217220D01*
X107844213Y-84284609D01*
X107709042Y-84345718D01*
X107570467Y-84400356D01*
X107428681Y-84448331D01*
X107283874Y-84489452D01*
X107136239Y-84523526D01*
X106985967Y-84550361D01*
X106833251Y-84569767D01*
X106678281Y-84581551D01*
X106521250Y-84585522D01*
X106364219Y-84581551D01*
X106209249Y-84569767D01*
X106056532Y-84550361D01*
X105906261Y-84523526D01*
X105758626Y-84489452D01*
X105613819Y-84448331D01*
X105472032Y-84400356D01*
X105333458Y-84345718D01*
X105198286Y-84284609D01*
X105066711Y-84217220D01*
X104938922Y-84143743D01*
X104815112Y-84064370D01*
X104695472Y-83979292D01*
X104580195Y-83888702D01*
X104469472Y-83792791D01*
X104363494Y-83691751D01*
X104262454Y-83585774D01*
X104166543Y-83475051D01*
X104075953Y-83359773D01*
X103990875Y-83240134D01*
X103911502Y-83116324D01*
X103838025Y-82988535D01*
X103770636Y-82856959D01*
X103709526Y-82721788D01*
X103654888Y-82583213D01*
X103606913Y-82441426D01*
X103565792Y-82296619D01*
X103531718Y-82148984D01*
X103504883Y-81998712D01*
X103485477Y-81845995D01*
X103473693Y-81691024D01*
X103469722Y-81533993D01*
X103473693Y-81376961D01*
X103485477Y-81221992D01*
X103504883Y-81069275D01*
X103531718Y-80919003D01*
X103565792Y-80771368D01*
X103606913Y-80626562D01*
X103654888Y-80484775D01*
X103709526Y-80346201D01*
X103770636Y-80211030D01*
X103838025Y-80079454D01*
X103911502Y-79951665D01*
X103990875Y-79827855D01*
X104075953Y-79708216D01*
X104166543Y-79592939D01*
X104262454Y-79482216D01*
X104363494Y-79376238D01*
X104469472Y-79275198D01*
X104580195Y-79179288D01*
X104695472Y-79088698D01*
X104815112Y-79003620D01*
X104938922Y-78924248D01*
X105066711Y-78850771D01*
X105198286Y-78783382D01*
X105333458Y-78722272D01*
X105472032Y-78667634D01*
X105613819Y-78619659D01*
X105758626Y-78578539D01*
X105906261Y-78544465D01*
X106056532Y-78517629D01*
X106209249Y-78498223D01*
X106364219Y-78486439D01*
X106521250Y-78482469D01*
X106678281Y-78486439D01*
X116838280Y-78486439D02*
X116993250Y-78498223D01*
X117145966Y-78517629D01*
X117296238Y-78544465D01*
X117443873Y-78578539D01*
X117588680Y-78619659D01*
X117730467Y-78667634D01*
X117869041Y-78722272D01*
X118004213Y-78783382D01*
X118135789Y-78850771D01*
X118263577Y-78924248D01*
X118387388Y-79003620D01*
X118507027Y-79088698D01*
X118622304Y-79179288D01*
X118733028Y-79275198D01*
X118839005Y-79376238D01*
X118940046Y-79482216D01*
X119035957Y-79592939D01*
X119126547Y-79708216D01*
X119211624Y-79827855D01*
X119290998Y-79951665D01*
X119364475Y-80079454D01*
X119431864Y-80211030D01*
X119492973Y-80346201D01*
X119547612Y-80484775D01*
X119595587Y-80626562D01*
X119636707Y-80771368D01*
X119670781Y-80919003D01*
X119697617Y-81069275D01*
X119717023Y-81221992D01*
X119728807Y-81376961D01*
X119732778Y-81533993D01*
X119728807Y-81691024D01*
X119717023Y-81845995D01*
X119697617Y-81998712D01*
X119670781Y-82148984D01*
X119636707Y-82296619D01*
X119595587Y-82441426D01*
X119547612Y-82583213D01*
X119492973Y-82721788D01*
X119431864Y-82856959D01*
X119364475Y-82988535D01*
X119290998Y-83116324D01*
X119211624Y-83240134D01*
X119126547Y-83359773D01*
X119035957Y-83475051D01*
X118940046Y-83585774D01*
X118839005Y-83691751D01*
X118733028Y-83792791D01*
X118622304Y-83888702D01*
X118507027Y-83979292D01*
X118387388Y-84064370D01*
X118263577Y-84143743D01*
X118135789Y-84217220D01*
X118004213Y-84284609D01*
X117869041Y-84345718D01*
X117730467Y-84400356D01*
X117588680Y-84448331D01*
X117443873Y-84489452D01*
X117296238Y-84523526D01*
X117145966Y-84550361D01*
X116993250Y-84569767D01*
X116838280Y-84581551D01*
X116681249Y-84585522D01*
X116524218Y-84581551D01*
X116369248Y-84569767D01*
X116216531Y-84550361D01*
X116066260Y-84523526D01*
X115918625Y-84489452D01*
X115773818Y-84448331D01*
X115632031Y-84400356D01*
X115493457Y-84345718D01*
X115358285Y-84284609D01*
X115226710Y-84217220D01*
X115098921Y-84143743D01*
X114975111Y-84064370D01*
X114855471Y-83979292D01*
X114740194Y-83888702D01*
X114629471Y-83792791D01*
X114523493Y-83691751D01*
X114422453Y-83585774D01*
X114326542Y-83475051D01*
X114235952Y-83359773D01*
X114150874Y-83240134D01*
X114071501Y-83116324D01*
X113998024Y-82988535D01*
X113930635Y-82856959D01*
X113869525Y-82721788D01*
X113814887Y-82583213D01*
X113766912Y-82441426D01*
X113725791Y-82296619D01*
X113691717Y-82148984D01*
X113664882Y-81998712D01*
X113645476Y-81845995D01*
X113633692Y-81691024D01*
X113629721Y-81533993D01*
X113633692Y-81376961D01*
X113645476Y-81221992D01*
X113664882Y-81069275D01*
X113691717Y-80919003D01*
X113725791Y-80771368D01*
X113766912Y-80626562D01*
X113814887Y-80484775D01*
X113869525Y-80346201D01*
X113930635Y-80211030D01*
X113998024Y-80079454D01*
X114071501Y-79951665D01*
X114150874Y-79827855D01*
X114235952Y-79708216D01*
X114326542Y-79592939D01*
X114422453Y-79482216D01*
X114523493Y-79376238D01*
X114629471Y-79275198D01*
X114740194Y-79179288D01*
X114855471Y-79088698D01*
X114975111Y-79003620D01*
X115098921Y-78924248D01*
X115226710Y-78850771D01*
X115358285Y-78783382D01*
X115493457Y-78722272D01*
X115632031Y-78667634D01*
X115773818Y-78619659D01*
X115918625Y-78578539D01*
X116066260Y-78544465D01*
X116216531Y-78517629D01*
X116369248Y-78498223D01*
X116524218Y-78486439D01*
X116681249Y-78482469D01*
X116838280Y-78486439D01*
X106678281Y-92710444D02*
X106833251Y-92722228D01*
X106985967Y-92741633D01*
X107136239Y-92768469D01*
X107283874Y-92802543D01*
X107428681Y-92843663D01*
X107570467Y-92891638D01*
X107709042Y-92946276D01*
X107844213Y-93007386D01*
X107975789Y-93074775D01*
X108103578Y-93148252D01*
X108227388Y-93227625D01*
X108347027Y-93312702D01*
X108462305Y-93403292D01*
X108573028Y-93499203D01*
X108679005Y-93600243D01*
X108780046Y-93706220D01*
X108875957Y-93816943D01*
X108966547Y-93932220D01*
X109051624Y-94051860D01*
X109130997Y-94175669D01*
X109204474Y-94303458D01*
X109271863Y-94435034D01*
X109332973Y-94570205D01*
X109387611Y-94708779D01*
X109435586Y-94850566D01*
X109476707Y-94995372D01*
X109510781Y-95143007D01*
X109537617Y-95293279D01*
X109557022Y-95445996D01*
X109568807Y-95600966D01*
X109572777Y-95757997D01*
X109568807Y-95915028D01*
X109557022Y-96069998D01*
X109537617Y-96222714D01*
X109510781Y-96372986D01*
X109476707Y-96520621D01*
X109435586Y-96665428D01*
X109387611Y-96807214D01*
X109332973Y-96945789D01*
X109271863Y-97080960D01*
X109204474Y-97212536D01*
X109130997Y-97340324D01*
X109051624Y-97464134D01*
X108966547Y-97583773D01*
X108875957Y-97699050D01*
X108780046Y-97809774D01*
X108679005Y-97915751D01*
X108573028Y-98016791D01*
X108462305Y-98112702D01*
X108347027Y-98203292D01*
X108227388Y-98288369D01*
X108103578Y-98367742D01*
X107975789Y-98441219D01*
X107844213Y-98508608D01*
X107709042Y-98569717D01*
X107570467Y-98624355D01*
X107428681Y-98672330D01*
X107283874Y-98713451D01*
X107136239Y-98747525D01*
X106985967Y-98774360D01*
X106833251Y-98793766D01*
X106678281Y-98805550D01*
X106521250Y-98809521D01*
X106364219Y-98805550D01*
X106209249Y-98793766D01*
X106056532Y-98774360D01*
X105906261Y-98747525D01*
X105758626Y-98713451D01*
X105613819Y-98672330D01*
X105472032Y-98624355D01*
X105333458Y-98569717D01*
X105198286Y-98508608D01*
X105066711Y-98441219D01*
X104938922Y-98367742D01*
X104815112Y-98288369D01*
X104695472Y-98203292D01*
X104580195Y-98112702D01*
X104469472Y-98016791D01*
X104363494Y-97915751D01*
X104262454Y-97809774D01*
X104166543Y-97699050D01*
X104075953Y-97583773D01*
X103990875Y-97464134D01*
X103911502Y-97340324D01*
X103838025Y-97212536D01*
X103770636Y-97080960D01*
X103709526Y-96945789D01*
X103654888Y-96807214D01*
X103606913Y-96665428D01*
X103565792Y-96520621D01*
X103531718Y-96372986D01*
X103504883Y-96222714D01*
X103485477Y-96069998D01*
X103473693Y-95915028D01*
X103469722Y-95757997D01*
X103473693Y-95600966D01*
X103485477Y-95445996D01*
X103504883Y-95293279D01*
X103531718Y-95143007D01*
X103565792Y-94995372D01*
X103606913Y-94850566D01*
X103654888Y-94708779D01*
X103709526Y-94570205D01*
X103770636Y-94435034D01*
X103838025Y-94303458D01*
X103911502Y-94175669D01*
X103990875Y-94051860D01*
X104075953Y-93932220D01*
X104166543Y-93816943D01*
X104262454Y-93706220D01*
X104363494Y-93600243D01*
X104469472Y-93499203D01*
X104580195Y-93403292D01*
X104695472Y-93312702D01*
X104815112Y-93227625D01*
X104938922Y-93148252D01*
X105066711Y-93074775D01*
X105198286Y-93007386D01*
X105333458Y-92946276D01*
X105472032Y-92891638D01*
X105613819Y-92843663D01*
X105758626Y-92802543D01*
X105906261Y-92768469D01*
X106056532Y-92741633D01*
X106209249Y-92722228D01*
X106364219Y-92710444D01*
X106521250Y-92706473D01*
X106678281Y-92710444D01*
X116838280Y-92710444D02*
X116993250Y-92722228D01*
X117145966Y-92741633D01*
X117296238Y-92768469D01*
X117443873Y-92802543D01*
X117588680Y-92843663D01*
X117730467Y-92891638D01*
X117869041Y-92946276D01*
X118004213Y-93007386D01*
X118135789Y-93074775D01*
X118263577Y-93148252D01*
X118387388Y-93227625D01*
X118507027Y-93312702D01*
X118622304Y-93403292D01*
X118733028Y-93499203D01*
X118839005Y-93600243D01*
X118940046Y-93706220D01*
X119035957Y-93816943D01*
X119126547Y-93932220D01*
X119211624Y-94051860D01*
X119290998Y-94175669D01*
X119364475Y-94303458D01*
X119431864Y-94435034D01*
X119492973Y-94570205D01*
X119547612Y-94708779D01*
X119595587Y-94850566D01*
X119636707Y-94995372D01*
X119670781Y-95143007D01*
X119697617Y-95293279D01*
X119717023Y-95445996D01*
X119728807Y-95600966D01*
X119732778Y-95757997D01*
X119728807Y-95915028D01*
X119717023Y-96069998D01*
X119697617Y-96222714D01*
X119670781Y-96372986D01*
X119636707Y-96520621D01*
X119595587Y-96665428D01*
X119547612Y-96807214D01*
X119492973Y-96945789D01*
X119431864Y-97080960D01*
X119364475Y-97212535D01*
X119290998Y-97340324D01*
X119211624Y-97464134D01*
X119126547Y-97583773D01*
X119035957Y-97699050D01*
X118940046Y-97809774D01*
X118839005Y-97915751D01*
X118733028Y-98016791D01*
X118622304Y-98112702D01*
X118507027Y-98203292D01*
X118387388Y-98288369D01*
X118263577Y-98367742D01*
X118135789Y-98441219D01*
X118004213Y-98508608D01*
X117869041Y-98569717D01*
X117730467Y-98624355D01*
X117588680Y-98672330D01*
X117443873Y-98713451D01*
X117296238Y-98747525D01*
X117145966Y-98774360D01*
X116993250Y-98793766D01*
X116838280Y-98805550D01*
X116681249Y-98809521D01*
X116524218Y-98805550D01*
X116369248Y-98793766D01*
X116216531Y-98774360D01*
X116066260Y-98747525D01*
X115918625Y-98713451D01*
X115773818Y-98672330D01*
X115632031Y-98624355D01*
X115493457Y-98569717D01*
X115358285Y-98508608D01*
X115226710Y-98441219D01*
X115098921Y-98367742D01*
X114975111Y-98288369D01*
X114855471Y-98203292D01*
X114740194Y-98112702D01*
X114629471Y-98016791D01*
X114523493Y-97915751D01*
X114422453Y-97809774D01*
X114326542Y-97699050D01*
X114235952Y-97583773D01*
X114150874Y-97464134D01*
X114071501Y-97340324D01*
X113998024Y-97212535D01*
X113930635Y-97080960D01*
X113869525Y-96945789D01*
X113814887Y-96807214D01*
X113766912Y-96665428D01*
X113725791Y-96520621D01*
X113691717Y-96372986D01*
X113664882Y-96222714D01*
X113645476Y-96069998D01*
X113633692Y-95915028D01*
X113629721Y-95757997D01*
X113633692Y-95600966D01*
X113645476Y-95445996D01*
X113664882Y-95293279D01*
X113691717Y-95143007D01*
X113725791Y-94995372D01*
X113766912Y-94850566D01*
X113814887Y-94708779D01*
X113869525Y-94570205D01*
X113930635Y-94435034D01*
X113998024Y-94303458D01*
X114071501Y-94175669D01*
X114150874Y-94051860D01*
X114235952Y-93932220D01*
X114326542Y-93816943D01*
X114422453Y-93706220D01*
X114523493Y-93600243D01*
X114629471Y-93499203D01*
X114740194Y-93403292D01*
X114855471Y-93312702D01*
X114975111Y-93227625D01*
X115098921Y-93148252D01*
X115226710Y-93074775D01*
X115358285Y-93007386D01*
X115493457Y-92946276D01*
X115632031Y-92891638D01*
X115773818Y-92843663D01*
X115918625Y-92802543D01*
X116066260Y-92768469D01*
X116216531Y-92741633D01*
X116369248Y-92722228D01*
X116524218Y-92710444D01*
X116681249Y-92706473D01*
X116838280Y-92710444D01*
X106678281Y-106934437D02*
X106833251Y-106946222D01*
X106985967Y-106965627D01*
X107136239Y-106992463D01*
X107283874Y-107026537D01*
X107428681Y-107067657D01*
X107570467Y-107115632D01*
X107709042Y-107170270D01*
X107844213Y-107231380D01*
X107975789Y-107298769D01*
X108103578Y-107372246D01*
X108227388Y-107451619D01*
X108347027Y-107536696D01*
X108462305Y-107627286D01*
X108573028Y-107723197D01*
X108679005Y-107824237D01*
X108780046Y-107930215D01*
X108875957Y-108040938D01*
X108966547Y-108156215D01*
X109051624Y-108275855D01*
X109130997Y-108399665D01*
X109204474Y-108527454D01*
X109271863Y-108659030D01*
X109332973Y-108794201D01*
X109387611Y-108932776D01*
X109435586Y-109074563D01*
X109476707Y-109219369D01*
X109510781Y-109367005D01*
X109537617Y-109517277D01*
X109557022Y-109669994D01*
X109568807Y-109824964D01*
X109572777Y-109981996D01*
X109568807Y-110139027D01*
X109557022Y-110293997D01*
X109537617Y-110446713D01*
X109510781Y-110596985D01*
X109476707Y-110744620D01*
X109435586Y-110889427D01*
X109387611Y-111031213D01*
X109332973Y-111169788D01*
X109271863Y-111304959D01*
X109204474Y-111436535D01*
X109130997Y-111564323D01*
X109051624Y-111688133D01*
X108966547Y-111807772D01*
X108875957Y-111923050D01*
X108780046Y-112033773D01*
X108679005Y-112139750D01*
X108573028Y-112240790D01*
X108462305Y-112336701D01*
X108347027Y-112427291D01*
X108227388Y-112512368D01*
X108103578Y-112591741D01*
X107975789Y-112665218D01*
X107844213Y-112732607D01*
X107709042Y-112793716D01*
X107570467Y-112848354D01*
X107428681Y-112896329D01*
X107283874Y-112937450D01*
X107136239Y-112971524D01*
X106985967Y-112998359D01*
X106833251Y-113017765D01*
X106678281Y-113029549D01*
X106521250Y-113033520D01*
X106364219Y-113029549D01*
X106209249Y-113017765D01*
X106056532Y-112998359D01*
X105906261Y-112971524D01*
X105758626Y-112937450D01*
X105613819Y-112896329D01*
X105472032Y-112848354D01*
X105333458Y-112793716D01*
X105198286Y-112732607D01*
X105066711Y-112665218D01*
X104938922Y-112591741D01*
X104815112Y-112512368D01*
X104695472Y-112427291D01*
X104580195Y-112336701D01*
X104469472Y-112240790D01*
X104363494Y-112139750D01*
X104262454Y-112033773D01*
X104166543Y-111923050D01*
X104075953Y-111807772D01*
X103990875Y-111688133D01*
X103911502Y-111564323D01*
X103838025Y-111436535D01*
X103770636Y-111304959D01*
X103709526Y-111169788D01*
X103654888Y-111031213D01*
X103606913Y-110889427D01*
X103565792Y-110744620D01*
X103531718Y-110596985D01*
X103504883Y-110446713D01*
X103485477Y-110293997D01*
X103473693Y-110139027D01*
X103469722Y-109981996D01*
X103473693Y-109824964D01*
X103485477Y-109669994D01*
X103504883Y-109517277D01*
X103531718Y-109367005D01*
X103565792Y-109219369D01*
X103606913Y-109074563D01*
X103654888Y-108932776D01*
X103709526Y-108794201D01*
X103770636Y-108659030D01*
X103838025Y-108527454D01*
X103911502Y-108399665D01*
X103990875Y-108275855D01*
X104075953Y-108156215D01*
X104166543Y-108040938D01*
X104262454Y-107930215D01*
X104363494Y-107824237D01*
X104469472Y-107723197D01*
X104580195Y-107627286D01*
X104695472Y-107536696D01*
X104815112Y-107451619D01*
X104938922Y-107372246D01*
X105066711Y-107298769D01*
X105198286Y-107231380D01*
X105333458Y-107170270D01*
X105472032Y-107115632D01*
X105613819Y-107067657D01*
X105758626Y-107026537D01*
X105906261Y-106992463D01*
X106056532Y-106965627D01*
X106209249Y-106946222D01*
X106364219Y-106934437D01*
X106521250Y-106930467D01*
X106678281Y-106934437D01*
X116838280Y-106934437D02*
X116993250Y-106946222D01*
X117145966Y-106965627D01*
X117296238Y-106992463D01*
X117443873Y-107026537D01*
X117588680Y-107067657D01*
X117730467Y-107115632D01*
X117869041Y-107170270D01*
X118004213Y-107231380D01*
X118135789Y-107298769D01*
X118263577Y-107372246D01*
X118387388Y-107451619D01*
X118507027Y-107536696D01*
X118622304Y-107627286D01*
X118733028Y-107723197D01*
X118839005Y-107824237D01*
X118940046Y-107930215D01*
X119035957Y-108040938D01*
X119126547Y-108156215D01*
X119211624Y-108275855D01*
X119290998Y-108399665D01*
X119364475Y-108527454D01*
X119431864Y-108659030D01*
X119492973Y-108794201D01*
X119547612Y-108932776D01*
X119595587Y-109074563D01*
X119636707Y-109219369D01*
X119670781Y-109367005D01*
X119697617Y-109517277D01*
X119717023Y-109669994D01*
X119728807Y-109824964D01*
X119732778Y-109981996D01*
X119728807Y-110139027D01*
X119717023Y-110293997D01*
X119697617Y-110446713D01*
X119670781Y-110596985D01*
X119636707Y-110744620D01*
X119595587Y-110889427D01*
X119547612Y-111031213D01*
X119492973Y-111169788D01*
X119431864Y-111304959D01*
X119364475Y-111436535D01*
X119290998Y-111564323D01*
X119211624Y-111688133D01*
X119126547Y-111807772D01*
X119035957Y-111923050D01*
X118940046Y-112033773D01*
X118839005Y-112139750D01*
X118733028Y-112240790D01*
X118622304Y-112336701D01*
X118507027Y-112427291D01*
X118387388Y-112512368D01*
X118263577Y-112591741D01*
X118135789Y-112665218D01*
X118004213Y-112732607D01*
X117869041Y-112793716D01*
X117730467Y-112848354D01*
X117588680Y-112896329D01*
X117443873Y-112937450D01*
X117296238Y-112971524D01*
X117145966Y-112998359D01*
X116993250Y-113017765D01*
X116838280Y-113029549D01*
X116681249Y-113033520D01*
X116524218Y-113029549D01*
X116369248Y-113017765D01*
X116216531Y-112998359D01*
X116066260Y-112971524D01*
X115918625Y-112937450D01*
X115773818Y-112896329D01*
X115632031Y-112848354D01*
X115493457Y-112793716D01*
X115358285Y-112732607D01*
X115226710Y-112665218D01*
X115098921Y-112591741D01*
X114975111Y-112512368D01*
X114855471Y-112427291D01*
X114740194Y-112336701D01*
X114629471Y-112240790D01*
X114523493Y-112139750D01*
X114422453Y-112033773D01*
X114326542Y-111923050D01*
X114235952Y-111807772D01*
X114150874Y-111688133D01*
X114071501Y-111564323D01*
X113998024Y-111436535D01*
X113930635Y-111304959D01*
X113869525Y-111169788D01*
X113814887Y-111031213D01*
X113766912Y-110889427D01*
X113725791Y-110744620D01*
X113691717Y-110596985D01*
X113664882Y-110446713D01*
X113645476Y-110293997D01*
X113633692Y-110139027D01*
X113629721Y-109981996D01*
X113633692Y-109824964D01*
X113645476Y-109669994D01*
X113664882Y-109517277D01*
X113691717Y-109367005D01*
X113725791Y-109219369D01*
X113766912Y-109074563D01*
X113814887Y-108932776D01*
X113869525Y-108794201D01*
X113930635Y-108659030D01*
X113998024Y-108527454D01*
X114071501Y-108399665D01*
X114150874Y-108275855D01*
X114235952Y-108156215D01*
X114326542Y-108040938D01*
X114422453Y-107930215D01*
X114523493Y-107824237D01*
X114629471Y-107723197D01*
X114740194Y-107627286D01*
X114855471Y-107536696D01*
X114975111Y-107451619D01*
X115098921Y-107372246D01*
X115226710Y-107298769D01*
X115358285Y-107231380D01*
X115493457Y-107170270D01*
X115632031Y-107115632D01*
X115773818Y-107067657D01*
X115918625Y-107026537D01*
X116066260Y-106992463D01*
X116216531Y-106965627D01*
X116369248Y-106946222D01*
X116524218Y-106934437D01*
X116681249Y-106930467D01*
X116838280Y-106934437D01*
X106678281Y-121158437D02*
X106833251Y-121170221D01*
X106985967Y-121189626D01*
X107136239Y-121216462D01*
X107283874Y-121250536D01*
X107428681Y-121291656D01*
X107570467Y-121339631D01*
X107709042Y-121394269D01*
X107844213Y-121455379D01*
X107975789Y-121522768D01*
X108103578Y-121596245D01*
X108227388Y-121675618D01*
X108347027Y-121760695D01*
X108462305Y-121851285D01*
X108573028Y-121947195D01*
X108679005Y-122048235D01*
X108780046Y-122154213D01*
X108875957Y-122264936D01*
X108966547Y-122380213D01*
X109051624Y-122499853D01*
X109130997Y-122623662D01*
X109204474Y-122751451D01*
X109271863Y-122883027D01*
X109332973Y-123018198D01*
X109387611Y-123156772D01*
X109435586Y-123298559D01*
X109476707Y-123443365D01*
X109510781Y-123591000D01*
X109537617Y-123741272D01*
X109557022Y-123893989D01*
X109568807Y-124048958D01*
X109572777Y-124205990D01*
X109568807Y-124363021D01*
X109557022Y-124517991D01*
X109537617Y-124670707D01*
X109510781Y-124820979D01*
X109476707Y-124968614D01*
X109435586Y-125113421D01*
X109387611Y-125255207D01*
X109332973Y-125393782D01*
X109271863Y-125528953D01*
X109204474Y-125660528D01*
X109130997Y-125788317D01*
X109051624Y-125912127D01*
X108966547Y-126031766D01*
X108875957Y-126147043D01*
X108780046Y-126257767D01*
X108679005Y-126363744D01*
X108573028Y-126464784D01*
X108462305Y-126560695D01*
X108347027Y-126651285D01*
X108227388Y-126736362D01*
X108103578Y-126815735D01*
X107975789Y-126889212D01*
X107844213Y-126956601D01*
X107709042Y-127017710D01*
X107570467Y-127072348D01*
X107428681Y-127120323D01*
X107283874Y-127161444D01*
X107136239Y-127195518D01*
X106985967Y-127222353D01*
X106833251Y-127241759D01*
X106678281Y-127253543D01*
X106521250Y-127257514D01*
X106364219Y-127253543D01*
X106209249Y-127241759D01*
X106056532Y-127222353D01*
X105906261Y-127195518D01*
X105758626Y-127161444D01*
X105613819Y-127120323D01*
X105472032Y-127072348D01*
X105333458Y-127017710D01*
X105198286Y-126956601D01*
X105066711Y-126889212D01*
X104938922Y-126815735D01*
X104815112Y-126736362D01*
X104695472Y-126651285D01*
X104580195Y-126560695D01*
X104469472Y-126464784D01*
X104363494Y-126363744D01*
X104262454Y-126257767D01*
X104166543Y-126147043D01*
X104075953Y-126031766D01*
X103990875Y-125912127D01*
X103911502Y-125788317D01*
X103838025Y-125660528D01*
X103770636Y-125528953D01*
X103709526Y-125393782D01*
X103654888Y-125255207D01*
X103606913Y-125113421D01*
X103565792Y-124968614D01*
X103531718Y-124820979D01*
X103504883Y-124670707D01*
X103485477Y-124517991D01*
X103473693Y-124363021D01*
X103469722Y-124205990D01*
X103473693Y-124048958D01*
X103485477Y-123893989D01*
X103504883Y-123741272D01*
X103531718Y-123591000D01*
X103565792Y-123443365D01*
X103606913Y-123298559D01*
X103654888Y-123156772D01*
X103709526Y-123018198D01*
X103770636Y-122883027D01*
X103838025Y-122751451D01*
X103911502Y-122623662D01*
X103990875Y-122499853D01*
X104075953Y-122380213D01*
X104166543Y-122264936D01*
X104262454Y-122154213D01*
X104363494Y-122048235D01*
X104469472Y-121947195D01*
X104580195Y-121851285D01*
X104695472Y-121760695D01*
X104815112Y-121675618D01*
X104938922Y-121596245D01*
X105066711Y-121522768D01*
X105198286Y-121455379D01*
X105333458Y-121394269D01*
X105472032Y-121339631D01*
X105613819Y-121291656D01*
X105758626Y-121250536D01*
X105906261Y-121216462D01*
X106056532Y-121189626D01*
X106209249Y-121170221D01*
X106364219Y-121158437D01*
X106521250Y-121154466D01*
X106678281Y-121158437D01*
X116838280Y-121158437D02*
X116993250Y-121170221D01*
X117145966Y-121189626D01*
X117296238Y-121216462D01*
X117443873Y-121250536D01*
X117588680Y-121291656D01*
X117730467Y-121339631D01*
X117869041Y-121394269D01*
X118004213Y-121455379D01*
X118135789Y-121522768D01*
X118263577Y-121596245D01*
X118387388Y-121675618D01*
X118507027Y-121760695D01*
X118622304Y-121851285D01*
X118733028Y-121947195D01*
X118839005Y-122048235D01*
X118940046Y-122154213D01*
X119035957Y-122264936D01*
X119126547Y-122380213D01*
X119211624Y-122499853D01*
X119290998Y-122623662D01*
X119364475Y-122751451D01*
X119431864Y-122883027D01*
X119492973Y-123018198D01*
X119547612Y-123156772D01*
X119595587Y-123298559D01*
X119636707Y-123443365D01*
X119670781Y-123591000D01*
X119697617Y-123741272D01*
X119717023Y-123893989D01*
X119728807Y-124048958D01*
X119732778Y-124205990D01*
X119728807Y-124363021D01*
X119717023Y-124517991D01*
X119697617Y-124670707D01*
X119670781Y-124820979D01*
X119636707Y-124968614D01*
X119595587Y-125113421D01*
X119547612Y-125255207D01*
X119492973Y-125393782D01*
X119431864Y-125528953D01*
X119364475Y-125660528D01*
X119290998Y-125788317D01*
X119211624Y-125912127D01*
X119126547Y-126031766D01*
X119035957Y-126147043D01*
X118940046Y-126257767D01*
X118839005Y-126363744D01*
X118733028Y-126464784D01*
X118622304Y-126560695D01*
X118507027Y-126651285D01*
X118387388Y-126736362D01*
X118263577Y-126815735D01*
X118135789Y-126889212D01*
X118004213Y-126956601D01*
X117869041Y-127017710D01*
X117730467Y-127072348D01*
X117588680Y-127120323D01*
X117443873Y-127161444D01*
X117296238Y-127195518D01*
X117145966Y-127222353D01*
X116993250Y-127241759D01*
X116838280Y-127253543D01*
X116681249Y-127257514D01*
X116524218Y-127253543D01*
X116369248Y-127241759D01*
X116216531Y-127222353D01*
X116066260Y-127195518D01*
X115918625Y-127161444D01*
X115773818Y-127120323D01*
X115632031Y-127072348D01*
X115493457Y-127017710D01*
X115358285Y-126956601D01*
X115226710Y-126889212D01*
X115098921Y-126815735D01*
X114975111Y-126736362D01*
X114855471Y-126651285D01*
X114740194Y-126560695D01*
X114629471Y-126464784D01*
X114523493Y-126363744D01*
X114422453Y-126257767D01*
X114326542Y-126147043D01*
X114235952Y-126031766D01*
X114150874Y-125912127D01*
X114071501Y-125788317D01*
X113998024Y-125660528D01*
X113930635Y-125528953D01*
X113869525Y-125393782D01*
X113814887Y-125255207D01*
X113766912Y-125113421D01*
X113725791Y-124968614D01*
X113691717Y-124820979D01*
X113664882Y-124670707D01*
X113645476Y-124517991D01*
X113633692Y-124363021D01*
X113629721Y-124205990D01*
X113633692Y-124048958D01*
X113645476Y-123893989D01*
X113664882Y-123741272D01*
X113691717Y-123591000D01*
X113725791Y-123443365D01*
X113766912Y-123298559D01*
X113814887Y-123156772D01*
X113869525Y-123018198D01*
X113930635Y-122883027D01*
X113998024Y-122751451D01*
X114071501Y-122623662D01*
X114150874Y-122499853D01*
X114235952Y-122380213D01*
X114326542Y-122264936D01*
X114422453Y-122154213D01*
X114523493Y-122048235D01*
X114629471Y-121947195D01*
X114740194Y-121851285D01*
X114855471Y-121760695D01*
X114975111Y-121675618D01*
X115098921Y-121596245D01*
X115226710Y-121522768D01*
X115358285Y-121455379D01*
X115493457Y-121394269D01*
X115632031Y-121339631D01*
X115773818Y-121291656D01*
X115918625Y-121250536D01*
X116066260Y-121216462D01*
X116216531Y-121189626D01*
X116369248Y-121170221D01*
X116524218Y-121158437D01*
X116681249Y-121154466D01*
X116838280Y-121158437D01*
X106678281Y-135382436D02*
X106833251Y-135394220D01*
X106985967Y-135413626D01*
X107136239Y-135440461D01*
X107283874Y-135474535D01*
X107428681Y-135515656D01*
X107570467Y-135563631D01*
X107709042Y-135618270D01*
X107844213Y-135679380D01*
X107975789Y-135746769D01*
X108103578Y-135820246D01*
X108227388Y-135899619D01*
X108347027Y-135984697D01*
X108462305Y-136075287D01*
X108573028Y-136171198D01*
X108679005Y-136272238D01*
X108780046Y-136378216D01*
X108875957Y-136488939D01*
X108966547Y-136604217D01*
X109051624Y-136723856D01*
X109130997Y-136847666D01*
X109204474Y-136975455D01*
X109271863Y-137107030D01*
X109332973Y-137242201D01*
X109387611Y-137380775D01*
X109435586Y-137522562D01*
X109476707Y-137667368D01*
X109510781Y-137815002D01*
X109537617Y-137965273D01*
X109557022Y-138117989D01*
X109568807Y-138272958D01*
X109572777Y-138429989D01*
X109568807Y-138587020D01*
X109557022Y-138741990D01*
X109537617Y-138894706D01*
X109510781Y-139044978D01*
X109476707Y-139192613D01*
X109435586Y-139337420D01*
X109387611Y-139479206D01*
X109332973Y-139617781D01*
X109271863Y-139752952D01*
X109204474Y-139884527D01*
X109130997Y-140012316D01*
X109051624Y-140136126D01*
X108966547Y-140255765D01*
X108875957Y-140371042D01*
X108780046Y-140481766D01*
X108679005Y-140587743D01*
X108573028Y-140688783D01*
X108462305Y-140784694D01*
X108347027Y-140875284D01*
X108227388Y-140960361D01*
X108103578Y-141039734D01*
X107975789Y-141113211D01*
X107844213Y-141180600D01*
X107709042Y-141241709D01*
X107570467Y-141296347D01*
X107428681Y-141344322D01*
X107283874Y-141385443D01*
X107136239Y-141419517D01*
X106985967Y-141446352D01*
X106833251Y-141465758D01*
X106678281Y-141477542D01*
X106521250Y-141481513D01*
X106364219Y-141477542D01*
X106209249Y-141465758D01*
X106056532Y-141446352D01*
X105906261Y-141419517D01*
X105758626Y-141385443D01*
X105613819Y-141344322D01*
X105472032Y-141296347D01*
X105333458Y-141241709D01*
X105198286Y-141180600D01*
X105066711Y-141113211D01*
X104938922Y-141039734D01*
X104815112Y-140960361D01*
X104695472Y-140875284D01*
X104580195Y-140784694D01*
X104469472Y-140688783D01*
X104363494Y-140587743D01*
X104262454Y-140481766D01*
X104166543Y-140371042D01*
X104075953Y-140255765D01*
X103990875Y-140136126D01*
X103911502Y-140012316D01*
X103838025Y-139884527D01*
X103770636Y-139752952D01*
X103709526Y-139617781D01*
X103654888Y-139479206D01*
X103606913Y-139337420D01*
X103565792Y-139192613D01*
X103531718Y-139044978D01*
X103504883Y-138894706D01*
X103485477Y-138741990D01*
X103473693Y-138587020D01*
X103469722Y-138429989D01*
X103473693Y-138272958D01*
X103485477Y-138117989D01*
X103504883Y-137965273D01*
X103531718Y-137815002D01*
X103565792Y-137667368D01*
X103606913Y-137522562D01*
X103654888Y-137380775D01*
X103709526Y-137242201D01*
X103770636Y-137107030D01*
X103838025Y-136975455D01*
X103911502Y-136847666D01*
X103990875Y-136723856D01*
X104075953Y-136604217D01*
X104166543Y-136488939D01*
X104262454Y-136378216D01*
X104363494Y-136272238D01*
X104469472Y-136171198D01*
X104580195Y-136075287D01*
X104695472Y-135984697D01*
X104815112Y-135899619D01*
X104938922Y-135820246D01*
X105066711Y-135746769D01*
X105198286Y-135679380D01*
X105333458Y-135618270D01*
X105472032Y-135563631D01*
X105613819Y-135515656D01*
X105758626Y-135474535D01*
X105906261Y-135440461D01*
X106056532Y-135413626D01*
X106209249Y-135394220D01*
X106364219Y-135382436D01*
X106521250Y-135378465D01*
X106678281Y-135382436D01*
X116838280Y-135382436D02*
X116993250Y-135394220D01*
X117145966Y-135413626D01*
X117296238Y-135440461D01*
X117443873Y-135474535D01*
X117588680Y-135515656D01*
X117730467Y-135563631D01*
X117869041Y-135618270D01*
X118004213Y-135679380D01*
X118135789Y-135746769D01*
X118263577Y-135820246D01*
X118387388Y-135899619D01*
X118507027Y-135984697D01*
X118622304Y-136075287D01*
X118733028Y-136171198D01*
X118839005Y-136272238D01*
X118940046Y-136378216D01*
X119035957Y-136488939D01*
X119126547Y-136604217D01*
X119211624Y-136723856D01*
X119290998Y-136847666D01*
X119364475Y-136975455D01*
X119431864Y-137107030D01*
X119492973Y-137242201D01*
X119547612Y-137380775D01*
X119595587Y-137522562D01*
X119636707Y-137667368D01*
X119670781Y-137815002D01*
X119697617Y-137965273D01*
X119717023Y-138117989D01*
X119728807Y-138272958D01*
X119732778Y-138429989D01*
X119728807Y-138587020D01*
X119717023Y-138741990D01*
X119697617Y-138894706D01*
X119670781Y-139044978D01*
X119636707Y-139192613D01*
X119595587Y-139337420D01*
X119547612Y-139479206D01*
X119492973Y-139617781D01*
X119431864Y-139752952D01*
X119364475Y-139884527D01*
X119290998Y-140012316D01*
X119211624Y-140136126D01*
X119126547Y-140255765D01*
X119035957Y-140371042D01*
X118940046Y-140481766D01*
X118839005Y-140587743D01*
X118733028Y-140688783D01*
X118622304Y-140784694D01*
X118507027Y-140875284D01*
X118387388Y-140960361D01*
X118263577Y-141039734D01*
X118135789Y-141113211D01*
X118004213Y-141180600D01*
X117869041Y-141241709D01*
X117730467Y-141296347D01*
X117588680Y-141344322D01*
X117443873Y-141385443D01*
X117296238Y-141419517D01*
X117145966Y-141446352D01*
X116993250Y-141465758D01*
X116838280Y-141477542D01*
X116681249Y-141481513D01*
X116524218Y-141477542D01*
X116369248Y-141465758D01*
X116216531Y-141446352D01*
X116066260Y-141419517D01*
X115918625Y-141385443D01*
X115773818Y-141344322D01*
X115632031Y-141296347D01*
X115493457Y-141241709D01*
X115358285Y-141180600D01*
X115226710Y-141113211D01*
X115098921Y-141039734D01*
X114975111Y-140960361D01*
X114855471Y-140875284D01*
X114740194Y-140784694D01*
X114629471Y-140688783D01*
X114523493Y-140587743D01*
X114422453Y-140481766D01*
X114326542Y-140371042D01*
X114235952Y-140255765D01*
X114150874Y-140136126D01*
X114071501Y-140012316D01*
X113998024Y-139884527D01*
X113930635Y-139752952D01*
X113869525Y-139617781D01*
X113814887Y-139479206D01*
X113766912Y-139337420D01*
X113725791Y-139192613D01*
X113691717Y-139044978D01*
X113664882Y-138894706D01*
X113645476Y-138741990D01*
X113633692Y-138587020D01*
X113629721Y-138429989D01*
X113633692Y-138272958D01*
X113645476Y-138117989D01*
X113664882Y-137965273D01*
X113691717Y-137815002D01*
X113725791Y-137667368D01*
X113766912Y-137522562D01*
X113814887Y-137380775D01*
X113869525Y-137242201D01*
X113930635Y-137107030D01*
X113998024Y-136975455D01*
X114071501Y-136847666D01*
X114150874Y-136723856D01*
X114235952Y-136604217D01*
X114326542Y-136488939D01*
X114422453Y-136378216D01*
X114523493Y-136272238D01*
X114629471Y-136171198D01*
X114740194Y-136075287D01*
X114855471Y-135984697D01*
X114975111Y-135899619D01*
X115098921Y-135820246D01*
X115226710Y-135746769D01*
X115358285Y-135679380D01*
X115493457Y-135618270D01*
X115632031Y-135563631D01*
X115773818Y-135515656D01*
X115918625Y-135474535D01*
X116066260Y-135440461D01*
X116216531Y-135413626D01*
X116369248Y-135394220D01*
X116524218Y-135382436D01*
X116681249Y-135378465D01*
X116838280Y-135382436D01*
X111777809Y-48320997D02*
X111955531Y-48334511D01*
X112130670Y-48356766D01*
X112303004Y-48387542D01*
X112472315Y-48426618D01*
X112638383Y-48473776D01*
X112800987Y-48528795D01*
X112959907Y-48591455D01*
X113114924Y-48661537D01*
X113265818Y-48738820D01*
X113412369Y-48823085D01*
X113554357Y-48914112D01*
X113691562Y-49011681D01*
X113823764Y-49115571D01*
X113950744Y-49225564D01*
X114072282Y-49341439D01*
X114188157Y-49462976D01*
X114298150Y-49589956D01*
X114402040Y-49722159D01*
X114499609Y-49859364D01*
X114590636Y-50001352D01*
X114674901Y-50147902D01*
X114752184Y-50298796D01*
X114822266Y-50453813D01*
X114884926Y-50612734D01*
X114939945Y-50775337D01*
X114987103Y-50941405D01*
X115026180Y-51110716D01*
X115056956Y-51283050D01*
X115079210Y-51458189D01*
X115092725Y-51635911D01*
X115097278Y-51815998D01*
X115092725Y-51996085D01*
X115079210Y-52173807D01*
X115056956Y-52348946D01*
X115026180Y-52521281D01*
X114987103Y-52690592D01*
X114939945Y-52856659D01*
X114884926Y-53019263D01*
X114822266Y-53178184D01*
X114752184Y-53333201D01*
X114674901Y-53484095D01*
X114590636Y-53630646D01*
X114499609Y-53772634D01*
X114402040Y-53909839D01*
X114298150Y-54042041D01*
X114188157Y-54169021D01*
X114072282Y-54290559D01*
X113950744Y-54406434D01*
X113823764Y-54516427D01*
X113691562Y-54620317D01*
X113554357Y-54717886D01*
X113412369Y-54808913D01*
X113265818Y-54893178D01*
X113114924Y-54970461D01*
X112959907Y-55040543D01*
X112800987Y-55103203D01*
X112638383Y-55158222D01*
X112472315Y-55205380D01*
X112303004Y-55244457D01*
X112130670Y-55275233D01*
X111955531Y-55297488D01*
X111777809Y-55311002D01*
X111597722Y-55315555D01*
X111417635Y-55311002D01*
X111239913Y-55297488D01*
X111064774Y-55275233D01*
X110892440Y-55244457D01*
X110723129Y-55205380D01*
X110557061Y-55158222D01*
X110394457Y-55103203D01*
X110235537Y-55040543D01*
X110080520Y-54970461D01*
X109929626Y-54893178D01*
X109783075Y-54808913D01*
X109641087Y-54717886D01*
X109503882Y-54620317D01*
X109371680Y-54516427D01*
X109244700Y-54406434D01*
X109123163Y-54290559D01*
X109007288Y-54169021D01*
X108897295Y-54042041D01*
X108793404Y-53909839D01*
X108695836Y-53772634D01*
X108604809Y-53630646D01*
X108520544Y-53484095D01*
X108443261Y-53333201D01*
X108373179Y-53178184D01*
X108310519Y-53019263D01*
X108255500Y-52856659D01*
X108208342Y-52690592D01*
X108169265Y-52521281D01*
X108138489Y-52348946D01*
X108116234Y-52173807D01*
X108102720Y-51996085D01*
X108098166Y-51815998D01*
X108102720Y-51635911D01*
X108116234Y-51458189D01*
X108138489Y-51283050D01*
X108169265Y-51110716D01*
X108208342Y-50941405D01*
X108255500Y-50775337D01*
X108310519Y-50612734D01*
X108373179Y-50453813D01*
X108443261Y-50298796D01*
X108520544Y-50147902D01*
X108604809Y-50001352D01*
X108695836Y-49859364D01*
X108793404Y-49722159D01*
X108897295Y-49589956D01*
X109007288Y-49462976D01*
X109123163Y-49341439D01*
X109244700Y-49225564D01*
X109371680Y-49115571D01*
X109503882Y-49011681D01*
X109641087Y-48914112D01*
X109783075Y-48823085D01*
X109929626Y-48738820D01*
X110080520Y-48661537D01*
X110235537Y-48591455D01*
X110394457Y-48528795D01*
X110557061Y-48473776D01*
X110723129Y-48426618D01*
X110892440Y-48387542D01*
X111064774Y-48356766D01*
X111239913Y-48334511D01*
X111417635Y-48320997D01*
X111597722Y-48316443D01*
X111777809Y-48320997D01*
M02*
