%TF.GenerationSoftware,KiCad,Pcbnew,8.0.2*%
%TF.CreationDate,2025-05-20T09:10:07-07:00*%
%TF.ProjectId,ResEQ_Mini,52657345-515f-44d6-996e-692e6b696361,rev?*%
%TF.SameCoordinates,Original*%
%TF.FileFunction,Paste,Bot*%
%TF.FilePolarity,Positive*%
%FSLAX46Y46*%
G04 Gerber Fmt 4.6, Leading zero omitted, Abs format (unit mm)*
G04 Created by KiCad (PCBNEW 8.0.2) date 2025-05-20 09:10:07*
%MOMM*%
%LPD*%
G01*
G04 APERTURE LIST*
G04 Aperture macros list*
%AMRoundRect*
0 Rectangle with rounded corners*
0 $1 Rounding radius*
0 $2 $3 $4 $5 $6 $7 $8 $9 X,Y pos of 4 corners*
0 Add a 4 corners polygon primitive as box body*
4,1,4,$2,$3,$4,$5,$6,$7,$8,$9,$2,$3,0*
0 Add four circle primitives for the rounded corners*
1,1,$1+$1,$2,$3*
1,1,$1+$1,$4,$5*
1,1,$1+$1,$6,$7*
1,1,$1+$1,$8,$9*
0 Add four rect primitives between the rounded corners*
20,1,$1+$1,$2,$3,$4,$5,0*
20,1,$1+$1,$4,$5,$6,$7,0*
20,1,$1+$1,$6,$7,$8,$9,0*
20,1,$1+$1,$8,$9,$2,$3,0*%
G04 Aperture macros list end*
%ADD10RoundRect,0.250000X-0.450000X0.350000X-0.450000X-0.350000X0.450000X-0.350000X0.450000X0.350000X0*%
%ADD11RoundRect,0.250000X0.450000X-0.350000X0.450000X0.350000X-0.450000X0.350000X-0.450000X-0.350000X0*%
%ADD12RoundRect,0.250000X-0.350000X-0.450000X0.350000X-0.450000X0.350000X0.450000X-0.350000X0.450000X0*%
%ADD13RoundRect,0.250000X-0.475000X0.337500X-0.475000X-0.337500X0.475000X-0.337500X0.475000X0.337500X0*%
%ADD14RoundRect,0.450000X-0.850000X0.450000X-0.850000X-0.450000X0.850000X-0.450000X0.850000X0.450000X0*%
%ADD15RoundRect,0.250000X0.350000X0.450000X-0.350000X0.450000X-0.350000X-0.450000X0.350000X-0.450000X0*%
%ADD16RoundRect,0.250000X0.337500X0.475000X-0.337500X0.475000X-0.337500X-0.475000X0.337500X-0.475000X0*%
%ADD17RoundRect,0.250000X-0.337500X-0.475000X0.337500X-0.475000X0.337500X0.475000X-0.337500X0.475000X0*%
%ADD18RoundRect,0.250000X0.475000X-0.337500X0.475000X0.337500X-0.475000X0.337500X-0.475000X-0.337500X0*%
G04 APERTURE END LIST*
D10*
%TO.C,R7*%
X159512000Y-104054400D03*
X159512000Y-106054400D03*
%TD*%
D11*
%TO.C,R12*%
X135001000Y-89011000D03*
X135001000Y-87011000D03*
%TD*%
D12*
%TO.C,R40*%
X153092400Y-77050300D03*
X155092400Y-77050300D03*
%TD*%
D13*
%TO.C,C30*%
X151282400Y-68152100D03*
X151282400Y-70227100D03*
%TD*%
D10*
%TO.C,R29*%
X156413200Y-94199200D03*
X156413200Y-96199200D03*
%TD*%
D14*
%TO.C,C46*%
X150353200Y-127508000D03*
X154853200Y-127508000D03*
%TD*%
D11*
%TO.C,R4*%
X140766800Y-54340000D03*
X140766800Y-52340000D03*
%TD*%
%TO.C,R11*%
X137972800Y-89138000D03*
X137972800Y-87138000D03*
%TD*%
%TO.C,R51*%
X131826000Y-106359200D03*
X131826000Y-104359200D03*
%TD*%
D15*
%TO.C,R38*%
X161883600Y-78943200D03*
X159883600Y-78943200D03*
%TD*%
D11*
%TO.C,R53*%
X141478000Y-120634000D03*
X141478000Y-118634000D03*
%TD*%
D16*
%TO.C,C17*%
X155129900Y-79437900D03*
X153054900Y-79437900D03*
%TD*%
D10*
%TO.C,R27*%
X159105600Y-94250000D03*
X159105600Y-96250000D03*
%TD*%
%TO.C,R2*%
X138430000Y-70628000D03*
X138430000Y-72628000D03*
%TD*%
%TO.C,R21*%
X155854400Y-104070400D03*
X155854400Y-106070400D03*
%TD*%
D17*
%TO.C,C16*%
X159846100Y-76784200D03*
X161921100Y-76784200D03*
%TD*%
D14*
%TO.C,C44*%
X160360800Y-127660400D03*
X164860800Y-127660400D03*
%TD*%
D17*
%TO.C,C36*%
X149432100Y-53975000D03*
X151507100Y-53975000D03*
%TD*%
D10*
%TO.C,R19*%
X159410400Y-120462800D03*
X159410400Y-122462800D03*
%TD*%
D11*
%TO.C,R52*%
X131622800Y-120532400D03*
X131622800Y-118532400D03*
%TD*%
%TO.C,R1*%
X134975600Y-74609200D03*
X134975600Y-72609200D03*
%TD*%
D10*
%TO.C,R15*%
X155956000Y-121580400D03*
X155956000Y-123580400D03*
%TD*%
D11*
%TO.C,R3*%
X128930400Y-54187600D03*
X128930400Y-52187600D03*
%TD*%
D18*
%TO.C,C37*%
X164185600Y-70227100D03*
X164185600Y-68152100D03*
%TD*%
D10*
%TO.C,R48*%
X128473200Y-127625600D03*
X128473200Y-129625600D03*
%TD*%
D11*
%TO.C,R13*%
X141427200Y-106460800D03*
X141427200Y-104460800D03*
%TD*%
D10*
%TO.C,R49*%
X143967200Y-118684800D03*
X143967200Y-120684800D03*
%TD*%
D17*
%TO.C,C31*%
X163808500Y-53975000D03*
X165883500Y-53975000D03*
%TD*%
M02*
