%TF.GenerationSoftware,KiCad,Pcbnew,8.0.2*%
%TF.CreationDate,2025-05-20T09:10:07-07:00*%
%TF.ProjectId,ResEQ_Mini,52657345-515f-44d6-996e-692e6b696361,rev?*%
%TF.SameCoordinates,Original*%
%TF.FileFunction,Profile,NP*%
%FSLAX46Y46*%
G04 Gerber Fmt 4.6, Leading zero omitted, Abs format (unit mm)*
G04 Created by KiCad (PCBNEW 8.0.2) date 2025-05-20 09:10:07*
%MOMM*%
%LPD*%
G01*
G04 APERTURE LIST*
%TA.AperFunction,Profile*%
%ADD10C,0.050000*%
%TD*%
G04 APERTURE END LIST*
D10*
X146050000Y-38709600D02*
X146050000Y-38100000D01*
X167132000Y-38100000D02*
X167132000Y-146050000D01*
X146050000Y-145592800D02*
G75*
G02*
X148082000Y-145592800I1016000J0D01*
G01*
X127000000Y-146050000D02*
X146050000Y-146050000D01*
X146050000Y-42672000D02*
G75*
G02*
X148082000Y-42672000I1016000J0D01*
G01*
X146050000Y-110998000D02*
X146050000Y-75234800D01*
X148082000Y-146050000D02*
X148082000Y-145592800D01*
X148082000Y-71272400D02*
G75*
G02*
X146050000Y-71272400I-1016000J0D01*
G01*
X148082000Y-110998000D02*
X148082000Y-75234800D01*
X146050000Y-141630400D02*
X146050000Y-114960400D01*
X148082000Y-38100000D02*
X167132000Y-38100000D01*
X148082000Y-110998000D02*
G75*
G02*
X146050000Y-110998000I-1016000J0D01*
G01*
X146050000Y-146050000D02*
X146050000Y-145592800D01*
X167132000Y-146050000D02*
X148082000Y-146050000D01*
X148082000Y-38709600D02*
G75*
G02*
X146050000Y-38709600I-1016000J0D01*
G01*
X148082000Y-141630400D02*
G75*
G02*
X146050000Y-141630400I-1016000J0D01*
G01*
X148082000Y-38709600D02*
X148082000Y-38100000D01*
X146050000Y-38100000D02*
X127000000Y-38100000D01*
X146050000Y-114960400D02*
G75*
G02*
X148082000Y-114960400I1016000J0D01*
G01*
X127000000Y-38100000D02*
X127000000Y-146050000D01*
X148082000Y-141630400D02*
X148082000Y-114960400D01*
X146050000Y-75234800D02*
G75*
G02*
X148082000Y-75234800I1016000J0D01*
G01*
X148082000Y-71272400D02*
X148082000Y-42672000D01*
X146050000Y-71272400D02*
X146050000Y-42672000D01*
M02*
