%TF.GenerationSoftware,KiCad,Pcbnew,8.0.2*%
%TF.CreationDate,2025-05-20T09:10:06-07:00*%
%TF.ProjectId,ResEQ_Mini,52657345-515f-44d6-996e-692e6b696361,rev?*%
%TF.SameCoordinates,Original*%
%TF.FileFunction,Copper,L1,Top*%
%TF.FilePolarity,Positive*%
%FSLAX46Y46*%
G04 Gerber Fmt 4.6, Leading zero omitted, Abs format (unit mm)*
G04 Created by KiCad (PCBNEW 8.0.2) date 2025-05-20 09:10:06*
%MOMM*%
%LPD*%
G01*
G04 APERTURE LIST*
G04 Aperture macros list*
%AMRoundRect*
0 Rectangle with rounded corners*
0 $1 Rounding radius*
0 $2 $3 $4 $5 $6 $7 $8 $9 X,Y pos of 4 corners*
0 Add a 4 corners polygon primitive as box body*
4,1,4,$2,$3,$4,$5,$6,$7,$8,$9,$2,$3,0*
0 Add four circle primitives for the rounded corners*
1,1,$1+$1,$2,$3*
1,1,$1+$1,$4,$5*
1,1,$1+$1,$6,$7*
1,1,$1+$1,$8,$9*
0 Add four rect primitives between the rounded corners*
20,1,$1+$1,$2,$3,$4,$5,0*
20,1,$1+$1,$4,$5,$6,$7,0*
20,1,$1+$1,$6,$7,$8,$9,0*
20,1,$1+$1,$8,$9,$2,$3,0*%
G04 Aperture macros list end*
%TA.AperFunction,ComponentPad*%
%ADD10R,1.700000X1.700000*%
%TD*%
%TA.AperFunction,ComponentPad*%
%ADD11O,1.700000X1.700000*%
%TD*%
%TA.AperFunction,SMDPad,CuDef*%
%ADD12RoundRect,0.250000X0.450000X-0.350000X0.450000X0.350000X-0.450000X0.350000X-0.450000X-0.350000X0*%
%TD*%
%TA.AperFunction,SMDPad,CuDef*%
%ADD13RoundRect,0.250000X-0.350000X-0.450000X0.350000X-0.450000X0.350000X0.450000X-0.350000X0.450000X0*%
%TD*%
%TA.AperFunction,ComponentPad*%
%ADD14O,3.100000X2.100000*%
%TD*%
%TA.AperFunction,ComponentPad*%
%ADD15RoundRect,0.650000X-0.650000X-0.650000X0.650000X-0.650000X0.650000X0.650000X-0.650000X0.650000X0*%
%TD*%
%TA.AperFunction,SMDPad,CuDef*%
%ADD16RoundRect,0.250000X-0.450000X0.350000X-0.450000X-0.350000X0.450000X-0.350000X0.450000X0.350000X0*%
%TD*%
%TA.AperFunction,SMDPad,CuDef*%
%ADD17RoundRect,0.250000X0.475000X-0.337500X0.475000X0.337500X-0.475000X0.337500X-0.475000X-0.337500X0*%
%TD*%
%TA.AperFunction,SMDPad,CuDef*%
%ADD18RoundRect,0.150000X-0.825000X-0.150000X0.825000X-0.150000X0.825000X0.150000X-0.825000X0.150000X0*%
%TD*%
%TA.AperFunction,SMDPad,CuDef*%
%ADD19RoundRect,0.250000X-0.475000X0.337500X-0.475000X-0.337500X0.475000X-0.337500X0.475000X0.337500X0*%
%TD*%
%TA.AperFunction,SMDPad,CuDef*%
%ADD20RoundRect,0.250000X0.337500X0.475000X-0.337500X0.475000X-0.337500X-0.475000X0.337500X-0.475000X0*%
%TD*%
%TA.AperFunction,ComponentPad*%
%ADD21O,3.240000X2.720000*%
%TD*%
%TA.AperFunction,ComponentPad*%
%ADD22R,1.800000X1.800000*%
%TD*%
%TA.AperFunction,ComponentPad*%
%ADD23C,1.800000*%
%TD*%
%TA.AperFunction,SMDPad,CuDef*%
%ADD24RoundRect,0.250000X0.350000X0.450000X-0.350000X0.450000X-0.350000X-0.450000X0.350000X-0.450000X0*%
%TD*%
%TA.AperFunction,SMDPad,CuDef*%
%ADD25RoundRect,0.250000X-0.337500X-0.475000X0.337500X-0.475000X0.337500X0.475000X-0.337500X0.475000X0*%
%TD*%
%TA.AperFunction,ComponentPad*%
%ADD26C,1.600000*%
%TD*%
%TA.AperFunction,ViaPad*%
%ADD27C,0.600000*%
%TD*%
%TA.AperFunction,Conductor*%
%ADD28C,0.304800*%
%TD*%
%TA.AperFunction,Conductor*%
%ADD29C,0.635000*%
%TD*%
G04 APERTURE END LIST*
D10*
%TO.P,J14,1,Pin_1*%
%TO.N,/5.2k_B*%
X150007000Y-39853000D03*
D11*
%TO.P,J14,2,Pin_2*%
%TO.N,/Comb_L_B*%
X152547000Y-39853000D03*
%TO.P,J14,3,Pin_3*%
%TO.N,/In_Inv_B*%
X155087000Y-39853000D03*
%TO.P,J14,4,Pin_4*%
%TO.N,/Filter_Pot_CW_B*%
X157627000Y-39853000D03*
%TO.P,J14,5,Pin_5*%
%TO.N,/Filter_Ins_B*%
X160167000Y-39853000D03*
%TO.P,J14,6,Pin_6*%
%TO.N,/Filter_Pot_CCW_B*%
X162707000Y-39853000D03*
%TO.P,J14,7,Pin_7*%
%TO.N,/Comb_R_B*%
X165247000Y-39853000D03*
%TD*%
D12*
%TO.P,R41,1*%
%TO.N,Net-(U3A--)*%
X153314400Y-80502000D03*
%TO.P,R41,2*%
%TO.N,Net-(U2B-+)*%
X153314400Y-78502000D03*
%TD*%
%TO.P,R35,1*%
%TO.N,Net-(U3D--)*%
X159461200Y-80502000D03*
%TO.P,R35,2*%
%TO.N,Net-(U2C-+)*%
X159461200Y-78502000D03*
%TD*%
D13*
%TO.P,R28,1*%
%TO.N,Net-(C13-Pad1)*%
X153838400Y-99161600D03*
%TO.P,R28,2*%
%TO.N,/Filter_Ins_B*%
X155838400Y-99161600D03*
%TD*%
D14*
%TO.P,J1,S*%
%TO.N,GND*%
X141624045Y-70081597D03*
D15*
%TO.P,J1,T*%
%TO.N,Net-(J1-PadT)*%
X141624045Y-58681597D03*
%TO.P,J1,TN*%
%TO.N,unconnected-(J1-PadTN)*%
X141624045Y-66981597D03*
%TD*%
D13*
%TO.P,R24,1*%
%TO.N,/218_B*%
X163439600Y-119024400D03*
%TO.P,R24,2*%
%TO.N,Net-(C19-Pad1)*%
X165439600Y-119024400D03*
%TD*%
D10*
%TO.P,J15,1,Pin_1*%
%TO.N,/61_B*%
X149982000Y-144272000D03*
D11*
%TO.P,J15,2,Pin_2*%
%TO.N,/218_B*%
X152522000Y-144272000D03*
%TO.P,J15,3,Pin_3*%
%TO.N,/777_B*%
X155062000Y-144272000D03*
%TO.P,J15,4,Pin_4*%
%TO.N,/2.8k_B*%
X157602000Y-144272000D03*
%TO.P,J15,5,Pin_5*%
%TO.N,/1.5k_B*%
X160142000Y-144272000D03*
%TO.P,J15,6,Pin_6*%
%TO.N,/411_B*%
X162682000Y-144272000D03*
%TO.P,J15,7,Pin_7*%
%TO.N,/115_B*%
X165222000Y-144272000D03*
%TD*%
D12*
%TO.P,R10,1*%
%TO.N,Net-(C1-Pad2)*%
X157378400Y-44551600D03*
%TO.P,R10,2*%
%TO.N,/Filter_Pot_CW_B*%
X157378400Y-42551600D03*
%TD*%
D16*
%TO.P,R37,1*%
%TO.N,Net-(U3D-+)*%
X161747200Y-78502000D03*
%TO.P,R37,2*%
%TO.N,Net-(U2C-+)*%
X161747200Y-80502000D03*
%TD*%
D12*
%TO.P,R44,1*%
%TO.N,Net-(U2D--)*%
X160172400Y-60182000D03*
%TO.P,R44,2*%
%TO.N,Net-(R44-Pad2)*%
X160172400Y-58182000D03*
%TD*%
D14*
%TO.P,J3,S*%
%TO.N,GND*%
X141624045Y-141201569D03*
D15*
%TO.P,J3,T*%
%TO.N,Net-(J3-PadT)*%
X141624045Y-129801569D03*
%TO.P,J3,TN*%
%TO.N,unconnected-(J3-PadTN)*%
X141624045Y-138101569D03*
%TD*%
D17*
%TO.P,C33,1*%
%TO.N,GND*%
X162763200Y-88870700D03*
%TO.P,C33,2*%
%TO.N,VEE*%
X162763200Y-86795700D03*
%TD*%
D18*
%TO.P,U3,1*%
%TO.N,Net-(U2B-+)*%
X154954200Y-83870800D03*
%TO.P,U3,2,-*%
%TO.N,Net-(U3A--)*%
X154954200Y-85140800D03*
%TO.P,U3,3,+*%
%TO.N,Net-(U3A-+)*%
X154954200Y-86410800D03*
%TO.P,U3,4,V+*%
%TO.N,VCC*%
X154954200Y-87680800D03*
%TO.P,U3,5,+*%
%TO.N,GND*%
X154954200Y-88950800D03*
%TO.P,U3,6,-*%
%TO.N,Net-(U3B--)*%
X154954200Y-90220800D03*
%TO.P,U3,7*%
%TO.N,/1.5k_B*%
X154954200Y-91490800D03*
%TO.P,U3,8*%
%TO.N,/777_B*%
X159904200Y-91490800D03*
%TO.P,U3,9,-*%
%TO.N,Net-(U3C--)*%
X159904200Y-90220800D03*
%TO.P,U3,10,+*%
%TO.N,GND*%
X159904200Y-88950800D03*
%TO.P,U3,11,V-*%
%TO.N,VEE*%
X159904200Y-87680800D03*
%TO.P,U3,12,+*%
%TO.N,Net-(U3D-+)*%
X159904200Y-86410800D03*
%TO.P,U3,13,-*%
%TO.N,Net-(U3D--)*%
X159904200Y-85140800D03*
%TO.P,U3,14*%
%TO.N,Net-(U2C-+)*%
X159904200Y-83870800D03*
%TD*%
%TO.P,U1,1*%
%TO.N,Net-(C1-Pad2)*%
X155132000Y-48768000D03*
%TO.P,U1,2,-*%
%TO.N,/In_Inv_B*%
X155132000Y-50038000D03*
%TO.P,U1,3,+*%
%TO.N,GND*%
X155132000Y-51308000D03*
%TO.P,U1,4,V+*%
%TO.N,VCC*%
X155132000Y-52578000D03*
%TO.P,U1,5,+*%
%TO.N,GND*%
X155132000Y-53848000D03*
%TO.P,U1,6,-*%
%TO.N,Net-(U1B--)*%
X155132000Y-55118000D03*
%TO.P,U1,7*%
%TO.N,/Comb_L_B*%
X155132000Y-56388000D03*
%TO.P,U1,8*%
%TO.N,/Comb_R_B*%
X160082000Y-56388000D03*
%TO.P,U1,9,-*%
%TO.N,Net-(U1C--)*%
X160082000Y-55118000D03*
%TO.P,U1,10,+*%
%TO.N,GND*%
X160082000Y-53848000D03*
%TO.P,U1,11,V-*%
%TO.N,VEE*%
X160082000Y-52578000D03*
%TO.P,U1,12,+*%
%TO.N,GND*%
X160082000Y-51308000D03*
%TO.P,U1,13,-*%
%TO.N,Net-(U1D--)*%
X160082000Y-50038000D03*
%TO.P,U1,14*%
%TO.N,/Filter_Pot_CCW_B*%
X160082000Y-48768000D03*
%TD*%
D12*
%TO.P,R55,1*%
%TO.N,Net-(U1C--)*%
X164185600Y-55102000D03*
%TO.P,R55,2*%
%TO.N,/Comb_R_B*%
X164185600Y-53102000D03*
%TD*%
D19*
%TO.P,C32,1*%
%TO.N,VCC*%
X152349200Y-86795700D03*
%TO.P,C32,2*%
%TO.N,GND*%
X152349200Y-88870700D03*
%TD*%
D12*
%TO.P,R56,1*%
%TO.N,Net-(R44-Pad2)*%
X164287200Y-59623200D03*
%TO.P,R56,2*%
%TO.N,Net-(U1C--)*%
X164287200Y-57623200D03*
%TD*%
D20*
%TO.P,C18,1*%
%TO.N,/Filter_Ins_B*%
X153386700Y-75488800D03*
%TO.P,C18,2*%
%TO.N,Net-(C18-Pad2)*%
X151311700Y-75488800D03*
%TD*%
D21*
%TO.P,RV2,*%
%TO.N,*%
X136525000Y-52881600D03*
X136525000Y-43281600D03*
D22*
%TO.P,RV2,1,1*%
%TO.N,/Filter_Pot_CCW_T*%
X144025000Y-50581600D03*
D23*
%TO.P,RV2,2,2*%
%TO.N,/Filter_Ins_T*%
X144025000Y-48081600D03*
%TO.P,RV2,3,3*%
%TO.N,/Filter_Pot_CW_T*%
X144025000Y-45581600D03*
%TD*%
D14*
%TO.P,J10,S*%
%TO.N,GND*%
X131464049Y-112753583D03*
D15*
%TO.P,J10,T*%
%TO.N,Net-(J10-PadT)*%
X131464049Y-101353583D03*
%TO.P,J10,TN*%
%TO.N,unconnected-(J10-PadTN)*%
X131464049Y-109653583D03*
%TD*%
D12*
%TO.P,R34,1*%
%TO.N,Net-(U3D--)*%
X164592000Y-80502000D03*
%TO.P,R34,2*%
%TO.N,Net-(C15-Pad2)*%
X164592000Y-78502000D03*
%TD*%
%TO.P,R14,1*%
%TO.N,Net-(C5-Pad1)*%
X155803600Y-128914400D03*
%TO.P,R14,2*%
%TO.N,/Filter_Ins_B*%
X155803600Y-126914400D03*
%TD*%
D16*
%TO.P,R42,1*%
%TO.N,Net-(U3A-+)*%
X155397200Y-78451200D03*
%TO.P,R42,2*%
%TO.N,Net-(U2B-+)*%
X155397200Y-80451200D03*
%TD*%
D14*
%TO.P,J7,S*%
%TO.N,GND*%
X141630400Y-98529600D03*
D15*
%TO.P,J7,T*%
%TO.N,Net-(J7-PadT)*%
X141630400Y-87129600D03*
%TO.P,J7,TN*%
%TO.N,unconnected-(J7-PadTN)*%
X141630400Y-95429600D03*
%TD*%
D14*
%TO.P,J11,S*%
%TO.N,GND*%
X141630400Y-126977600D03*
D15*
%TO.P,J11,T*%
%TO.N,Net-(J11-PadT)*%
X141630400Y-115577600D03*
%TO.P,J11,TN*%
%TO.N,unconnected-(J11-PadTN)*%
X141630400Y-123877600D03*
%TD*%
D24*
%TO.P,R25,1*%
%TO.N,/411_B*%
X151876000Y-112471200D03*
%TO.P,R25,2*%
%TO.N,Net-(C20-Pad1)*%
X149876000Y-112471200D03*
%TD*%
D16*
%TO.P,R5,1*%
%TO.N,Net-(C3-Pad1)*%
X159308800Y-104105200D03*
%TO.P,R5,2*%
%TO.N,/Filter_Ins_B*%
X159308800Y-106105200D03*
%TD*%
D17*
%TO.P,C35,1*%
%TO.N,GND*%
X163220400Y-116810700D03*
%TO.P,C35,2*%
%TO.N,VEE*%
X163220400Y-114735700D03*
%TD*%
D12*
%TO.P,R45,1*%
%TO.N,Net-(U2A--)*%
X155549600Y-60283600D03*
%TO.P,R45,2*%
%TO.N,Net-(R45-Pad2)*%
X155549600Y-58283600D03*
%TD*%
D25*
%TO.P,C1,1*%
%TO.N,/In_Inv_B*%
X155172500Y-46599600D03*
%TO.P,C1,2*%
%TO.N,Net-(C1-Pad2)*%
X157247500Y-46599600D03*
%TD*%
D13*
%TO.P,R30,1*%
%TO.N,Net-(U3C--)*%
X161966400Y-96316800D03*
%TO.P,R30,2*%
%TO.N,/777_B*%
X163966400Y-96316800D03*
%TD*%
%TO.P,R32,1*%
%TO.N,/777_B*%
X163490400Y-91541600D03*
%TO.P,R32,2*%
%TO.N,Net-(C19-Pad1)*%
X165490400Y-91541600D03*
%TD*%
D14*
%TO.P,J12,S*%
%TO.N,GND*%
X131464049Y-126977573D03*
D15*
%TO.P,J12,T*%
%TO.N,Net-(J12-PadT)*%
X131464049Y-115577573D03*
%TO.P,J12,TN*%
%TO.N,unconnected-(J12-PadTN)*%
X131464049Y-123877573D03*
%TD*%
D17*
%TO.P,C8,1*%
%TO.N,Net-(C7-Pad1)*%
X159359600Y-124430700D03*
%TO.P,C8,2*%
%TO.N,Net-(U4C--)*%
X159359600Y-122355700D03*
%TD*%
D20*
%TO.P,C13,1*%
%TO.N,Net-(C13-Pad1)*%
X153843900Y-102057200D03*
%TO.P,C13,2*%
%TO.N,/1.5k_B*%
X151768900Y-102057200D03*
%TD*%
D12*
%TO.P,R50,1*%
%TO.N,Net-(U1D--)*%
X163677600Y-45618400D03*
%TO.P,R50,2*%
%TO.N,/Filter_Pot_CCW_B*%
X163677600Y-43618400D03*
%TD*%
D14*
%TO.P,J8,S*%
%TO.N,GND*%
X131464049Y-98529587D03*
D15*
%TO.P,J8,T*%
%TO.N,Net-(J8-PadT)*%
X131464049Y-87129587D03*
%TO.P,J8,TN*%
%TO.N,unconnected-(J8-PadTN)*%
X131464049Y-95429587D03*
%TD*%
D13*
%TO.P,R36,1*%
%TO.N,/2.8k_B*%
X163947600Y-72390000D03*
%TO.P,R36,2*%
%TO.N,Net-(C19-Pad1)*%
X165947600Y-72390000D03*
%TD*%
D17*
%TO.P,C6,1*%
%TO.N,Net-(C5-Pad1)*%
X156006800Y-124430700D03*
%TO.P,C6,2*%
%TO.N,Net-(U4B--)*%
X156006800Y-122355700D03*
%TD*%
D19*
%TO.P,C4,1*%
%TO.N,Net-(C3-Pad1)*%
X159359600Y-108233300D03*
%TO.P,C4,2*%
%TO.N,Net-(U4D--)*%
X159359600Y-110308300D03*
%TD*%
%TO.P,C10,1*%
%TO.N,Net-(C10-Pad1)*%
X155905200Y-108182500D03*
%TO.P,C10,2*%
%TO.N,Net-(U4A--)*%
X155905200Y-110257500D03*
%TD*%
D14*
%TO.P,J9,S*%
%TO.N,GND*%
X141624045Y-112753578D03*
D15*
%TO.P,J9,T*%
%TO.N,Net-(J9-PadT)*%
X141624045Y-101353578D03*
%TO.P,J9,TN*%
%TO.N,unconnected-(J9-PadTN)*%
X141624045Y-109653578D03*
%TD*%
D24*
%TO.P,R26,1*%
%TO.N,Net-(C11-Pad1)*%
X161172400Y-99161600D03*
%TO.P,R26,2*%
%TO.N,/Filter_Ins_B*%
X159172400Y-99161600D03*
%TD*%
%TO.P,R17,1*%
%TO.N,/115_B*%
X152333200Y-119380000D03*
%TO.P,R17,2*%
%TO.N,Net-(C20-Pad1)*%
X150333200Y-119380000D03*
%TD*%
D25*
%TO.P,C3,1*%
%TO.N,Net-(C3-Pad1)*%
X161827300Y-105156000D03*
%TO.P,C3,2*%
%TO.N,/61_B*%
X163902300Y-105156000D03*
%TD*%
%TO.P,C7,1*%
%TO.N,Net-(C7-Pad1)*%
X161979700Y-125425200D03*
%TO.P,C7,2*%
%TO.N,/218_B*%
X164054700Y-125425200D03*
%TD*%
D24*
%TO.P,R23,1*%
%TO.N,Net-(U4A--)*%
X151926800Y-108508800D03*
%TO.P,R23,2*%
%TO.N,/411_B*%
X149926800Y-108508800D03*
%TD*%
D13*
%TO.P,R22,1*%
%TO.N,Net-(U4C--)*%
X161915600Y-122275600D03*
%TO.P,R22,2*%
%TO.N,/218_B*%
X163915600Y-122275600D03*
%TD*%
D12*
%TO.P,R9,1*%
%TO.N,/In_Inv_B*%
X155092400Y-44551600D03*
%TO.P,R9,2*%
%TO.N,/Filter_Pot_CW_B*%
X155092400Y-42551600D03*
%TD*%
D14*
%TO.P,J4,S*%
%TO.N,GND*%
X131464049Y-141201569D03*
D15*
%TO.P,J4,T*%
%TO.N,Net-(J4-PadT)*%
X131464049Y-129801569D03*
%TO.P,J4,TN*%
%TO.N,unconnected-(J4-PadTN)*%
X131464049Y-138101569D03*
%TD*%
D24*
%TO.P,R33,1*%
%TO.N,/1.5k_B*%
X151622000Y-91592400D03*
%TO.P,R33,2*%
%TO.N,Net-(C20-Pad1)*%
X149622000Y-91592400D03*
%TD*%
D12*
%TO.P,R54,1*%
%TO.N,Net-(U1B--)*%
X151790400Y-55000400D03*
%TO.P,R54,2*%
%TO.N,/Comb_L_B*%
X151790400Y-53000400D03*
%TD*%
D14*
%TO.P,J6,S*%
%TO.N,GND*%
X131464049Y-84305587D03*
D15*
%TO.P,J6,T*%
%TO.N,Net-(J6-PadT)*%
X131464049Y-72905587D03*
%TO.P,J6,TN*%
%TO.N,unconnected-(J6-PadTN)*%
X131464049Y-81205587D03*
%TD*%
D20*
%TO.P,C9,1*%
%TO.N,Net-(C10-Pad1)*%
X153691500Y-104495600D03*
%TO.P,C9,2*%
%TO.N,/411_B*%
X151616500Y-104495600D03*
%TD*%
D25*
%TO.P,C11,1*%
%TO.N,Net-(C11-Pad1)*%
X161674900Y-101904800D03*
%TO.P,C11,2*%
%TO.N,/777_B*%
X163749900Y-101904800D03*
%TD*%
D16*
%TO.P,R20,1*%
%TO.N,Net-(C10-Pad1)*%
X155854400Y-104070400D03*
%TO.P,R20,2*%
%TO.N,/Filter_Ins_B*%
X155854400Y-106070400D03*
%TD*%
D24*
%TO.P,R16,1*%
%TO.N,Net-(U4B--)*%
X153552400Y-122428000D03*
%TO.P,R16,2*%
%TO.N,/115_B*%
X151552400Y-122428000D03*
%TD*%
%TO.P,R43,1*%
%TO.N,/5.2k_B*%
X151485600Y-72898000D03*
%TO.P,R43,2*%
%TO.N,Net-(C20-Pad1)*%
X149485600Y-72898000D03*
%TD*%
D25*
%TO.P,C15,1*%
%TO.N,/Filter_Ins_B*%
X162335300Y-75438000D03*
%TO.P,C15,2*%
%TO.N,Net-(C15-Pad2)*%
X164410300Y-75438000D03*
%TD*%
D17*
%TO.P,C14,1*%
%TO.N,Net-(C13-Pad1)*%
X155194000Y-96185900D03*
%TO.P,C14,2*%
%TO.N,Net-(U3B--)*%
X155194000Y-94110900D03*
%TD*%
D24*
%TO.P,R31,1*%
%TO.N,Net-(U3B--)*%
X152587200Y-96672400D03*
%TO.P,R31,2*%
%TO.N,/1.5k_B*%
X150587200Y-96672400D03*
%TD*%
D13*
%TO.P,R6,1*%
%TO.N,Net-(U4D--)*%
X161864800Y-109067600D03*
%TO.P,R6,2*%
%TO.N,/61_B*%
X163864800Y-109067600D03*
%TD*%
D16*
%TO.P,R47,1*%
%TO.N,Net-(R44-Pad2)*%
X162712400Y-48784000D03*
%TO.P,R47,2*%
%TO.N,Net-(U1D--)*%
X162712400Y-50784000D03*
%TD*%
D17*
%TO.P,C12,1*%
%TO.N,Net-(C11-Pad1)*%
X159258000Y-96185900D03*
%TO.P,C12,2*%
%TO.N,Net-(U3C--)*%
X159258000Y-94110900D03*
%TD*%
D18*
%TO.P,U2,1*%
%TO.N,Net-(R45-Pad2)*%
X155106600Y-64363600D03*
%TO.P,U2,2,-*%
%TO.N,Net-(U2A--)*%
X155106600Y-65633600D03*
%TO.P,U2,3,+*%
%TO.N,GND*%
X155106600Y-66903600D03*
%TO.P,U2,4,V+*%
%TO.N,VCC*%
X155106600Y-68173600D03*
%TO.P,U2,5,+*%
%TO.N,Net-(U2B-+)*%
X155106600Y-69443600D03*
%TO.P,U2,6,-*%
%TO.N,/5.2k_B*%
X155106600Y-70713600D03*
%TO.P,U2,7*%
X155106600Y-71983600D03*
%TO.P,U2,8*%
%TO.N,/2.8k_B*%
X160056600Y-71983600D03*
%TO.P,U2,9,-*%
X160056600Y-70713600D03*
%TO.P,U2,10,+*%
%TO.N,Net-(U2C-+)*%
X160056600Y-69443600D03*
%TO.P,U2,11,V-*%
%TO.N,VEE*%
X160056600Y-68173600D03*
%TO.P,U2,12,+*%
%TO.N,GND*%
X160056600Y-66903600D03*
%TO.P,U2,13,-*%
%TO.N,Net-(U2D--)*%
X160056600Y-65633600D03*
%TO.P,U2,14*%
%TO.N,Net-(R44-Pad2)*%
X160056600Y-64363600D03*
%TD*%
D16*
%TO.P,R46,1*%
%TO.N,Net-(R45-Pad2)*%
X164846000Y-48784000D03*
%TO.P,R46,2*%
%TO.N,Net-(U1D--)*%
X164846000Y-50784000D03*
%TD*%
D10*
%TO.P,J19,1,Pin_1*%
%TO.N,GND*%
X149885000Y-45974000D03*
D11*
%TO.P,J19,2,Pin_2*%
X149885000Y-48514000D03*
%TD*%
D12*
%TO.P,R39,1*%
%TO.N,Net-(U3A--)*%
X151282400Y-80502000D03*
%TO.P,R39,2*%
%TO.N,Net-(C18-Pad2)*%
X151282400Y-78502000D03*
%TD*%
%TO.P,R57,1*%
%TO.N,Net-(R45-Pad2)*%
X152857200Y-59623200D03*
%TO.P,R57,2*%
%TO.N,Net-(U1B--)*%
X152857200Y-57623200D03*
%TD*%
D19*
%TO.P,C34,1*%
%TO.N,VCC*%
X151638000Y-115091300D03*
%TO.P,C34,2*%
%TO.N,GND*%
X151638000Y-117166300D03*
%TD*%
D18*
%TO.P,U4,1*%
%TO.N,/411_B*%
X154954200Y-112396300D03*
%TO.P,U4,2,-*%
%TO.N,Net-(U4A--)*%
X154954200Y-113666300D03*
%TO.P,U4,3,+*%
%TO.N,GND*%
X154954200Y-114936300D03*
%TO.P,U4,4,V+*%
%TO.N,VCC*%
X154954200Y-116206300D03*
%TO.P,U4,5,+*%
%TO.N,GND*%
X154954200Y-117476300D03*
%TO.P,U4,6,-*%
%TO.N,Net-(U4B--)*%
X154954200Y-118746300D03*
%TO.P,U4,7*%
%TO.N,/115_B*%
X154954200Y-120016300D03*
%TO.P,U4,8*%
%TO.N,/218_B*%
X159904200Y-120016300D03*
%TO.P,U4,9,-*%
%TO.N,Net-(U4C--)*%
X159904200Y-118746300D03*
%TO.P,U4,10,+*%
%TO.N,GND*%
X159904200Y-117476300D03*
%TO.P,U4,11,V-*%
%TO.N,VEE*%
X159904200Y-116206300D03*
%TO.P,U4,12,+*%
%TO.N,GND*%
X159904200Y-114936300D03*
%TO.P,U4,13,-*%
%TO.N,Net-(U4D--)*%
X159904200Y-113666300D03*
%TO.P,U4,14*%
%TO.N,/61_B*%
X159904200Y-112396300D03*
%TD*%
D13*
%TO.P,R8,1*%
%TO.N,/61_B*%
X163287200Y-112471200D03*
%TO.P,R8,2*%
%TO.N,Net-(C19-Pad1)*%
X165287200Y-112471200D03*
%TD*%
D20*
%TO.P,C5,1*%
%TO.N,Net-(C5-Pad1)*%
X153589900Y-125018800D03*
%TO.P,C5,2*%
%TO.N,/115_B*%
X151514900Y-125018800D03*
%TD*%
D12*
%TO.P,R18,1*%
%TO.N,Net-(C7-Pad1)*%
X159359600Y-128914400D03*
%TO.P,R18,2*%
%TO.N,/Filter_Ins_B*%
X159359600Y-126914400D03*
%TD*%
D14*
%TO.P,J2,S*%
%TO.N,GND*%
X131464049Y-70081597D03*
D15*
%TO.P,J2,T*%
%TO.N,Net-(J2-PadT)*%
X131464049Y-58681597D03*
%TO.P,J2,TN*%
%TO.N,unconnected-(J2-PadTN)*%
X131464049Y-66981597D03*
%TD*%
D14*
%TO.P,J5,S*%
%TO.N,GND*%
X141624045Y-84305587D03*
D15*
%TO.P,J5,T*%
%TO.N,Net-(J5-PadT)*%
X141624045Y-72905587D03*
%TO.P,J5,TN*%
%TO.N,unconnected-(J5-PadTN)*%
X141624045Y-81205587D03*
%TD*%
D17*
%TO.P,C21,1*%
%TO.N,Net-(U1D--)*%
X161391600Y-45655900D03*
%TO.P,C21,2*%
%TO.N,/Filter_Pot_CCW_B*%
X161391600Y-43580900D03*
%TD*%
D26*
%TO.P,C19,1*%
%TO.N,Net-(C19-Pad1)*%
X164338000Y-62179200D03*
%TO.P,C19,2*%
%TO.N,Net-(U2D--)*%
X159338000Y-62179200D03*
%TD*%
D10*
%TO.P,J13,1,Pin_1*%
%TO.N,VCC*%
X152811400Y-134970600D03*
D11*
%TO.P,J13,2,Pin_2*%
X152811400Y-137510600D03*
%TO.P,J13,3,Pin_3*%
%TO.N,GND*%
X155351400Y-134970600D03*
%TO.P,J13,4,Pin_4*%
X155351400Y-137510600D03*
%TO.P,J13,5,Pin_5*%
X157891400Y-134970600D03*
%TO.P,J13,6,Pin_6*%
X157891400Y-137510600D03*
%TO.P,J13,7,Pin_7*%
X160431400Y-134970600D03*
%TO.P,J13,8,Pin_8*%
X160431400Y-137510600D03*
%TO.P,J13,9,Pin_9*%
%TO.N,VEE*%
X162971400Y-134970600D03*
%TO.P,J13,10,Pin_10*%
X162971400Y-137510600D03*
%TD*%
D10*
%TO.P,J17,1,Pin_1*%
%TO.N,/61_T*%
X128900000Y-144272000D03*
D11*
%TO.P,J17,2,Pin_2*%
%TO.N,/218_T*%
X131440000Y-144272000D03*
%TO.P,J17,3,Pin_3*%
%TO.N,/777_T*%
X133980000Y-144272000D03*
%TO.P,J17,4,Pin_4*%
%TO.N,/2.8k_T*%
X136520000Y-144272000D03*
%TO.P,J17,5,Pin_5*%
%TO.N,/1.5k_T*%
X139060000Y-144272000D03*
%TO.P,J17,6,Pin_6*%
%TO.N,/411_T*%
X141600000Y-144272000D03*
%TO.P,J17,7,Pin_7*%
%TO.N,/115_T*%
X144140000Y-144272000D03*
%TD*%
D10*
%TO.P,J18,1,Pin_1*%
%TO.N,GND*%
X128778000Y-45969000D03*
D11*
%TO.P,J18,2,Pin_2*%
X128778000Y-48509000D03*
%TD*%
D26*
%TO.P,C20,1*%
%TO.N,Net-(C20-Pad1)*%
X150876000Y-62230000D03*
%TO.P,C20,2*%
%TO.N,Net-(U2A--)*%
X155876000Y-62230000D03*
%TD*%
D10*
%TO.P,J16,1,Pin_1*%
%TO.N,/5.2k_T*%
X128905000Y-39878000D03*
D11*
%TO.P,J16,2,Pin_2*%
%TO.N,/Comb_L_T*%
X131445000Y-39878000D03*
%TO.P,J16,3,Pin_3*%
%TO.N,/In_Inv_T*%
X133985000Y-39878000D03*
%TO.P,J16,4,Pin_4*%
%TO.N,/Filter_Pot_CW_T*%
X136525000Y-39878000D03*
%TO.P,J16,5,Pin_5*%
%TO.N,/Filter_Ins_T*%
X139065000Y-39878000D03*
%TO.P,J16,6,Pin_6*%
%TO.N,/Filter_Pot_CCW_T*%
X141605000Y-39878000D03*
%TO.P,J16,7,Pin_7*%
%TO.N,/Comb_R_T*%
X144145000Y-39878000D03*
%TD*%
D27*
%TO.N,Net-(C3-Pad1)*%
X160981350Y-106726950D03*
%TO.N,Net-(C5-Pad1)*%
X154686000Y-125018800D03*
%TO.N,Net-(C7-Pad1)*%
X160731200Y-123698000D03*
%TO.N,Net-(C10-Pad1)*%
X153691500Y-105968800D03*
%TO.N,Net-(C11-Pad1)*%
X159656400Y-97645600D03*
%TO.N,Net-(C13-Pad1)*%
X155194000Y-97536000D03*
%TO.N,GND*%
X162204400Y-67005200D03*
X153314400Y-50952400D03*
X158242000Y-114909600D03*
X158445200Y-51308000D03*
X153162000Y-117195600D03*
X158292800Y-117398800D03*
X153466800Y-53848000D03*
X161798000Y-90576400D03*
X161848800Y-53848000D03*
X153111200Y-67157600D03*
X153212800Y-114909600D03*
X153060400Y-90322400D03*
%TO.N,Net-(U3D--)*%
X158576800Y-82245200D03*
X163655200Y-82245200D03*
%TO.N,VCC*%
X150233100Y-115062000D03*
X150622000Y-86817200D03*
X153060400Y-68173600D03*
X153314400Y-52527200D03*
%TO.N,VEE*%
X164990400Y-86817200D03*
X162052000Y-52578000D03*
X162204400Y-68173600D03*
X164744400Y-114757200D03*
%TO.N,Net-(U3D-+)*%
X163002800Y-80264000D03*
%TO.N,Net-(U3A-+)*%
X156819600Y-79873600D03*
%TO.N,/Filter_Ins_B*%
X159207200Y-75438000D03*
X156057600Y-75539600D03*
X157683200Y-75438000D03*
%TO.N,/Filter_Pot_CW_T*%
X140309600Y-42214800D03*
%TO.N,/61_B*%
X151231600Y-131165600D03*
X158292800Y-131165600D03*
X161798000Y-112471200D03*
%TO.N,/115_B*%
X165162000Y-133959600D03*
%TO.N,/218_B*%
X161239200Y-132689600D03*
X151282400Y-132334000D03*
X161290000Y-131216400D03*
%TO.N,/411_B*%
X159766000Y-140712683D03*
X151587200Y-120904000D03*
X151876000Y-111099600D03*
%TO.N,/777_B*%
X163749900Y-100584000D03*
X161380517Y-141416117D03*
X164795200Y-120548400D03*
%TO.N,/1.5k_B*%
X158933883Y-142017483D03*
X150639400Y-120667400D03*
X151768900Y-100431600D03*
%TO.N,/2.8k_B*%
X163576000Y-120599200D03*
X164185600Y-73863200D03*
%TO.N,/5.2k_T*%
X132029200Y-43230800D03*
%TO.N,/Comb_L_T*%
X132537200Y-44907200D03*
%TO.N,Net-(U1B--)*%
X154381200Y-57708800D03*
X153314400Y-55118000D03*
%TO.N,Net-(U1C--)*%
X161899600Y-55731600D03*
X161899600Y-57552400D03*
%TO.N,Net-(R44-Pad2)*%
X162712400Y-47439200D03*
X158038800Y-49987200D03*
%TO.N,Net-(R45-Pad2)*%
X164896800Y-47294800D03*
X156768800Y-48463200D03*
%TD*%
D28*
%TO.N,Net-(C1-Pad2)*%
X157378400Y-44551600D02*
X157378400Y-46468700D01*
X155132000Y-48715100D02*
X157247500Y-46599600D01*
X157378400Y-46468700D02*
X157247500Y-46599600D01*
X155132000Y-48768000D02*
X155132000Y-48715100D01*
%TO.N,Net-(C3-Pad1)*%
X160981350Y-106726950D02*
X159475000Y-108233300D01*
X159475000Y-108233300D02*
X159359600Y-108233300D01*
X159308800Y-104105200D02*
X160776500Y-104105200D01*
X161827300Y-105156000D02*
X161827300Y-105881000D01*
X160776500Y-104105200D02*
X161827300Y-105156000D01*
X161827300Y-105881000D02*
X160981350Y-106726950D01*
%TO.N,Net-(U3A--)*%
X153626800Y-84233058D02*
X154534542Y-85140800D01*
X153626800Y-80814400D02*
X153626800Y-84233058D01*
X153314400Y-80502000D02*
X153626800Y-80814400D01*
X151282400Y-80502000D02*
X153314400Y-80502000D01*
%TO.N,Net-(C5-Pad1)*%
X155752800Y-124430700D02*
X155164700Y-125018800D01*
X153271600Y-125489500D02*
X153271600Y-126382400D01*
X154686000Y-125018800D02*
X153742300Y-125018800D01*
X153742300Y-125018800D02*
X153271600Y-125489500D01*
X153271600Y-126382400D02*
X155803600Y-128914400D01*
X155164700Y-125018800D02*
X154686000Y-125018800D01*
%TO.N,Net-(U3C--)*%
X158929201Y-90220800D02*
X158499800Y-90650201D01*
X159760500Y-94110900D02*
X161966400Y-96316800D01*
X159955000Y-90170000D02*
X159904200Y-90220800D01*
X159904200Y-90220800D02*
X158929201Y-90220800D01*
X158499800Y-90650201D02*
X158499800Y-93352700D01*
X159258000Y-94110900D02*
X159760500Y-94110900D01*
X158499800Y-93352700D02*
X159258000Y-94110900D01*
%TO.N,Net-(C7-Pad1)*%
X159359600Y-124430700D02*
X159998500Y-124430700D01*
X161979700Y-126294300D02*
X159359600Y-128914400D01*
X160731200Y-123698000D02*
X160731200Y-124176700D01*
X161979700Y-125425200D02*
X161899600Y-125425200D01*
X161979700Y-125425200D02*
X161979700Y-126294300D01*
X159998500Y-124430700D02*
X160731200Y-123698000D01*
X160731200Y-124176700D02*
X161979700Y-125425200D01*
%TO.N,Net-(U4A--)*%
X155905200Y-110257500D02*
X153675500Y-110257500D01*
X156514800Y-113131600D02*
X156514800Y-110867100D01*
X155980100Y-113666300D02*
X156514800Y-113131600D01*
X154954200Y-113666300D02*
X155980100Y-113666300D01*
X153675500Y-110257500D02*
X151926800Y-108508800D01*
X156514800Y-110867100D02*
X155905200Y-110257500D01*
%TO.N,Net-(C10-Pad1)*%
X153691500Y-105968800D02*
X153691500Y-104495600D01*
X153691500Y-104495600D02*
X155429200Y-104495600D01*
X155905200Y-108182500D02*
X153691500Y-105968800D01*
X155429200Y-104495600D02*
X155854400Y-104070400D01*
%TO.N,Net-(U4C--)*%
X159635100Y-122275600D02*
X159308800Y-121949300D01*
X158576800Y-121572900D02*
X158576800Y-119098701D01*
X158929201Y-118746300D02*
X159904200Y-118746300D01*
X159439700Y-122275600D02*
X159359600Y-122355700D01*
X159359600Y-122355700D02*
X158576800Y-121572900D01*
X158576800Y-119098701D02*
X158929201Y-118746300D01*
X161915600Y-122275600D02*
X159439700Y-122275600D01*
%TO.N,Net-(C11-Pad1)*%
X159258000Y-97247200D02*
X159656400Y-97645600D01*
X161172400Y-99161600D02*
X161172400Y-101402300D01*
X159258000Y-96185900D02*
X159258000Y-97247200D01*
X159656400Y-97645600D02*
X161172400Y-99161600D01*
X161172400Y-101402300D02*
X161674900Y-101904800D01*
%TO.N,Net-(C13-Pad1)*%
X153843900Y-99167100D02*
X153838400Y-99161600D01*
X155194000Y-97806000D02*
X155194000Y-97536000D01*
X155194000Y-96185900D02*
X155194000Y-97806000D01*
X155194000Y-97806000D02*
X153838400Y-99161600D01*
X153843900Y-102057200D02*
X153843900Y-99167100D01*
%TO.N,Net-(C15-Pad2)*%
X164410300Y-75438000D02*
X164410300Y-78320300D01*
X164410300Y-78320300D02*
X164592000Y-78502000D01*
D29*
%TO.N,GND*%
X153239500Y-114936300D02*
X153212800Y-114909600D01*
X158445200Y-51308000D02*
X160082000Y-51308000D01*
X162763200Y-89611200D02*
X161798000Y-90576400D01*
X151638000Y-117166300D02*
X153132700Y-117166300D01*
X152349200Y-89611200D02*
X153060400Y-90322400D01*
X155132000Y-53848000D02*
X153466800Y-53848000D01*
X155106600Y-66903600D02*
X153365200Y-66903600D01*
X159904200Y-117476300D02*
X158370300Y-117476300D01*
X160082000Y-53848000D02*
X161848800Y-53848000D01*
X154874100Y-88870700D02*
X154954200Y-88950800D01*
X159904200Y-117476300D02*
X162656400Y-117476300D01*
X160078100Y-89124700D02*
X159904200Y-88950800D01*
X162763200Y-89124700D02*
X160078100Y-89124700D01*
X158370300Y-117476300D02*
X158292800Y-117398800D01*
X159904200Y-114936300D02*
X158268700Y-114936300D01*
X152349200Y-88870700D02*
X154874100Y-88870700D01*
X154644200Y-117166300D02*
X154954200Y-117476300D01*
X155132000Y-51308000D02*
X153670000Y-51308000D01*
X160056600Y-66903600D02*
X162102800Y-66903600D01*
X153670000Y-51308000D02*
X153314400Y-50952400D01*
X153365200Y-66903600D02*
X153111200Y-67157600D01*
X152349200Y-88870700D02*
X152349200Y-89611200D01*
X153191300Y-117166300D02*
X154644200Y-117166300D01*
X153162000Y-117195600D02*
X153191300Y-117166300D01*
X154954200Y-114936300D02*
X153239500Y-114936300D01*
X162102800Y-66903600D02*
X162204400Y-67005200D01*
X162763200Y-89124700D02*
X162763200Y-89611200D01*
X158268700Y-114936300D02*
X158242000Y-114909600D01*
X153132700Y-117166300D02*
X153162000Y-117195600D01*
X162656400Y-117476300D02*
X163372800Y-116759900D01*
D28*
%TO.N,Net-(C18-Pad2)*%
X151311700Y-75488800D02*
X151311700Y-78472700D01*
X151311700Y-78472700D02*
X151282400Y-78502000D01*
%TO.N,Net-(C19-Pad1)*%
X165439600Y-119024400D02*
X165439600Y-112623600D01*
X165490400Y-91541600D02*
X165490400Y-112268000D01*
X165947600Y-63360900D02*
X164816700Y-62230000D01*
X165947600Y-72390000D02*
X165947600Y-91084400D01*
X165947600Y-72390000D02*
X165947600Y-63360900D01*
X165439600Y-112623600D02*
X165287200Y-112471200D01*
X165490400Y-112268000D02*
X165287200Y-112471200D01*
X165947600Y-91084400D02*
X165490400Y-91541600D01*
%TO.N,Net-(C20-Pad1)*%
X149876000Y-112471200D02*
X149199600Y-113147600D01*
X149199600Y-113147600D02*
X149199600Y-118246400D01*
X149485600Y-77114400D02*
X149485600Y-63090900D01*
X148974400Y-111569600D02*
X149876000Y-112471200D01*
X149485600Y-91456000D02*
X149622000Y-91592400D01*
X149199600Y-118246400D02*
X150333200Y-119380000D01*
X148974400Y-92240000D02*
X148974400Y-111569600D01*
X149622000Y-91592400D02*
X148974400Y-92240000D01*
X149485600Y-63090900D02*
X150905300Y-61671200D01*
X149485600Y-72898000D02*
X149485600Y-91456000D01*
%TO.N,Net-(U2A--)*%
X155106600Y-65633600D02*
X154131601Y-65633600D01*
X153517600Y-65019599D02*
X153517600Y-63304630D01*
X155549600Y-62056000D02*
X155723600Y-62230000D01*
X154592230Y-62230000D02*
X155723600Y-62230000D01*
X155549600Y-60283600D02*
X155549600Y-62056000D01*
X154131601Y-65633600D02*
X153517600Y-65019599D01*
X153517600Y-63304630D02*
X154592230Y-62230000D01*
%TO.N,Net-(U3B--)*%
X156362400Y-90654001D02*
X156362400Y-92883900D01*
X154954200Y-90220800D02*
X155929199Y-90220800D01*
X152587200Y-96659100D02*
X154859900Y-94386400D01*
X152587200Y-96672400D02*
X152587200Y-96659100D01*
X155929199Y-90220800D02*
X156362400Y-90654001D01*
X156362400Y-92883900D02*
X154859900Y-94386400D01*
%TO.N,Net-(U3D--)*%
X163655200Y-82245200D02*
X164592000Y-81308400D01*
X164592000Y-81308400D02*
X164592000Y-80502000D01*
X158576800Y-82245200D02*
X158576800Y-84307200D01*
X158576800Y-81386400D02*
X158576800Y-82245200D01*
X159461200Y-80502000D02*
X158576800Y-81386400D01*
X159410400Y-85140800D02*
X159904200Y-85140800D01*
X158576800Y-84307200D02*
X159410400Y-85140800D01*
D29*
%TO.N,VCC*%
X152349200Y-86795700D02*
X150643500Y-86795700D01*
X152753000Y-116206300D02*
X154954200Y-116206300D01*
X151638000Y-115091300D02*
X150262400Y-115091300D01*
X155132000Y-52578000D02*
X153365200Y-52578000D01*
X152349200Y-86795700D02*
X153234300Y-87680800D01*
X150262400Y-115091300D02*
X150233100Y-115062000D01*
X153234300Y-87680800D02*
X154954200Y-87680800D01*
X151638000Y-115091300D02*
X152753000Y-116206300D01*
X153060400Y-68173600D02*
X155106600Y-68173600D01*
X150643500Y-86795700D02*
X150622000Y-86817200D01*
X153365200Y-52578000D02*
X153314400Y-52527200D01*
%TO.N,VEE*%
X162763200Y-86795700D02*
X164968900Y-86795700D01*
X160082000Y-52578000D02*
X162052000Y-52578000D01*
X164722900Y-114735700D02*
X164744400Y-114757200D01*
X159904200Y-116206300D02*
X161749800Y-116206300D01*
X163220400Y-114735700D02*
X164722900Y-114735700D01*
X159904200Y-87680800D02*
X161878100Y-87680800D01*
X160056600Y-68173600D02*
X162204400Y-68173600D01*
X161878100Y-87680800D02*
X162763200Y-86795700D01*
X161749800Y-116206300D02*
X163220400Y-114735700D01*
X164968900Y-86795700D02*
X164990400Y-86817200D01*
D28*
%TO.N,Net-(U3D-+)*%
X163002800Y-80264000D02*
X163002800Y-84287199D01*
X161950400Y-78502000D02*
X163002800Y-79554400D01*
X163002800Y-79554400D02*
X163002800Y-80264000D01*
X160879199Y-86410800D02*
X159904200Y-86410800D01*
X163002800Y-84287199D02*
X160879199Y-86410800D01*
%TO.N,Net-(U3A-+)*%
X156819600Y-79873600D02*
X155397200Y-78451200D01*
X155929199Y-86410800D02*
X156819600Y-85520399D01*
X154954200Y-86410800D02*
X155929199Y-86410800D01*
X156819600Y-85520399D02*
X156819600Y-79873600D01*
%TO.N,/In_Inv_B*%
X155087000Y-39853000D02*
X154040000Y-40900000D01*
X155172500Y-46599600D02*
X153871400Y-46599600D01*
X155092400Y-44551600D02*
X153804600Y-45839400D01*
X154279600Y-50038000D02*
X155132000Y-50038000D01*
X153804600Y-49563000D02*
X154279600Y-50038000D01*
X153804600Y-45839400D02*
X153804600Y-46532800D01*
X154040000Y-40900000D02*
X154040000Y-43499200D01*
X153871400Y-46599600D02*
X153804600Y-46532800D01*
X153804600Y-46532800D02*
X153804600Y-49563000D01*
X154040000Y-43499200D02*
X155092400Y-44551600D01*
%TO.N,/Filter_Ins_B*%
X153386700Y-75488800D02*
X156006800Y-75488800D01*
X159156400Y-40863600D02*
X159156400Y-47650400D01*
X159308800Y-106105200D02*
X157750000Y-106105200D01*
X157750000Y-106105200D02*
X157683200Y-106172000D01*
X157683200Y-75438000D02*
X157683200Y-97316800D01*
X157534000Y-58425896D02*
X157534000Y-55682695D01*
X157683200Y-75438000D02*
X157584800Y-75339600D01*
X157270500Y-55419195D02*
X157534000Y-55682695D01*
X159156400Y-47650400D02*
X157270500Y-49536300D01*
X157683200Y-99212400D02*
X157683200Y-105968800D01*
X157584800Y-75339600D02*
X157584800Y-58476696D01*
X155838400Y-99161600D02*
X157734000Y-99161600D01*
X157683200Y-97316800D02*
X157683200Y-99212400D01*
X162335300Y-75438000D02*
X159207200Y-75438000D01*
X159172400Y-99161600D02*
X157734000Y-99161600D01*
X156006800Y-75488800D02*
X156057600Y-75539600D01*
X157683200Y-126914400D02*
X157429200Y-126660400D01*
X157683200Y-105968800D02*
X157683200Y-106172000D01*
X159359600Y-126914400D02*
X157683200Y-126914400D01*
X157632400Y-75488800D02*
X157683200Y-75438000D01*
X157584800Y-58476696D02*
X157534000Y-58425896D01*
X157734000Y-99161600D02*
X157683200Y-99212400D01*
X160167000Y-39853000D02*
X159156400Y-40863600D01*
X157270500Y-49536300D02*
X157270500Y-55419195D01*
X157429200Y-106426000D02*
X157683200Y-106172000D01*
X155803600Y-126914400D02*
X157683200Y-126914400D01*
X157581600Y-106070400D02*
X157683200Y-105968800D01*
X155854400Y-106070400D02*
X157581600Y-106070400D01*
X157429200Y-126660400D02*
X157429200Y-106426000D01*
%TO.N,/Filter_Pot_CW_B*%
X157378400Y-40101600D02*
X157627000Y-39853000D01*
X155092400Y-42551600D02*
X157378400Y-42551600D01*
X157378400Y-42551600D02*
X157378400Y-40101600D01*
X157468400Y-42551600D02*
X157378400Y-42551600D01*
%TO.N,/Filter_Pot_CCW_B*%
X163677600Y-43618400D02*
X163677600Y-40823600D01*
X160082000Y-44890500D02*
X160082000Y-48768000D01*
X161433000Y-43539500D02*
X160082000Y-44890500D01*
X163677600Y-43618400D02*
X161429100Y-43618400D01*
X163677600Y-40823600D02*
X162707000Y-39853000D01*
%TO.N,/Filter_Pot_CW_T*%
X140309600Y-42214800D02*
X138861800Y-42214800D01*
X138861800Y-42214800D02*
X136525000Y-39878000D01*
%TO.N,/Filter_Pot_CCW_T*%
X144025000Y-50581600D02*
X141605000Y-48161600D01*
X141605000Y-48161600D02*
X141605000Y-39878000D01*
%TO.N,/61_B*%
X163864800Y-109067600D02*
X163864800Y-111893600D01*
X161798000Y-112471200D02*
X159979100Y-112471200D01*
X158292800Y-131165600D02*
X151231600Y-131165600D01*
X159979100Y-112471200D02*
X159904200Y-112396300D01*
X163902300Y-109030100D02*
X163864800Y-109067600D01*
X163287200Y-112471200D02*
X161798000Y-112471200D01*
X163864800Y-111893600D02*
X163287200Y-112471200D01*
X163902300Y-105156000D02*
X163902300Y-109030100D01*
%TO.N,/115_B*%
X153517600Y-120016300D02*
X152969500Y-120016300D01*
X155097150Y-129866800D02*
X151514900Y-126284550D01*
X158772000Y-129866800D02*
X155097150Y-129866800D01*
X151514900Y-126284550D02*
X151514900Y-125018800D01*
X154954200Y-120016300D02*
X153517600Y-120016300D01*
X151688800Y-124438500D02*
X151688800Y-121845100D01*
X160883600Y-131978400D02*
X158772000Y-129866800D01*
X165162000Y-133959600D02*
X163180800Y-131978400D01*
X151688800Y-121845100D02*
X153517600Y-120016300D01*
X152969500Y-120016300D02*
X152333200Y-119380000D01*
X163180800Y-131978400D02*
X160883600Y-131978400D01*
%TO.N,/218_B*%
X151282400Y-132334000D02*
X151688800Y-132334000D01*
X163439600Y-119024400D02*
X162434300Y-119024400D01*
X161442400Y-120016300D02*
X159904200Y-120016300D01*
X161239200Y-132630800D02*
X161239200Y-132689600D01*
X162434300Y-119024400D02*
X161442400Y-120016300D01*
X161290000Y-131216400D02*
X164054700Y-128451700D01*
X164054700Y-128451700D02*
X164054700Y-125425200D01*
X151688800Y-132334000D02*
X151985600Y-132630800D01*
X161656300Y-120016300D02*
X161442400Y-120016300D01*
X163915600Y-122275600D02*
X161656300Y-120016300D01*
X151985600Y-132630800D02*
X161239200Y-132630800D01*
X164054700Y-125425200D02*
X164054700Y-122414700D01*
X164054700Y-122414700D02*
X163915600Y-122275600D01*
%TO.N,/411_B*%
X154954200Y-112396300D02*
X151950900Y-112396300D01*
X159766000Y-140712683D02*
X159407083Y-140712683D01*
X151876000Y-111099600D02*
X151876000Y-110458000D01*
X150575000Y-121713000D02*
X151384000Y-120904000D01*
X151876000Y-110458000D02*
X149926800Y-108508800D01*
X149926800Y-106185300D02*
X151616500Y-104495600D01*
X151876000Y-112471200D02*
X151876000Y-111099600D01*
X151130000Y-139750800D02*
X150575000Y-139195800D01*
X158445200Y-139750800D02*
X151130000Y-139750800D01*
X151950900Y-112396300D02*
X151876000Y-112471200D01*
X149926800Y-108508800D02*
X149926800Y-106185300D01*
X159407083Y-140712683D02*
X158445200Y-139750800D01*
X150575000Y-139195800D02*
X150575000Y-121713000D01*
X151384000Y-120904000D02*
X151587200Y-120904000D01*
%TO.N,/777_B*%
X163490400Y-91541600D02*
X163490400Y-95840800D01*
X163749900Y-100584000D02*
X163749900Y-96533300D01*
X159904200Y-91490800D02*
X163439600Y-91490800D01*
X163749900Y-101904800D02*
X163749900Y-100584000D01*
X163749900Y-96533300D02*
X163966400Y-96316800D01*
X161380517Y-141416117D02*
X163843779Y-141416117D01*
X166319200Y-122072400D02*
X164795200Y-120548400D01*
X163439600Y-91490800D02*
X163490400Y-91541600D01*
X166319200Y-138940696D02*
X166319200Y-122072400D01*
X163490400Y-95840800D02*
X163966400Y-96316800D01*
X163843779Y-141416117D02*
X166319200Y-138940696D01*
%TO.N,/1.5k_B*%
X151768900Y-97854100D02*
X150587200Y-96672400D01*
X149656800Y-120667400D02*
X149656800Y-139141200D01*
X157276800Y-140360400D02*
X158933883Y-142017483D01*
X151768900Y-102057200D02*
X151768900Y-100431600D01*
X149656800Y-139141200D02*
X150876000Y-140360400D01*
X150587200Y-96672400D02*
X150587200Y-92627200D01*
X150876000Y-140360400D02*
X157276800Y-140360400D01*
X150639400Y-120667400D02*
X149656800Y-120667400D01*
X154852600Y-91592400D02*
X154954200Y-91490800D01*
X151768900Y-100431600D02*
X151768900Y-97854100D01*
X150587200Y-92627200D02*
X151622000Y-91592400D01*
X151622000Y-91592400D02*
X154852600Y-91592400D01*
%TO.N,/2.8k_B*%
X163576000Y-120599200D02*
X163898050Y-120599200D01*
X160056600Y-71983600D02*
X163541200Y-71983600D01*
X164947600Y-139598400D02*
X162275600Y-139598400D01*
X160056600Y-70713600D02*
X160056600Y-71983600D01*
X165814400Y-138731600D02*
X164947600Y-139598400D01*
X162275600Y-139598400D02*
X157602000Y-144272000D01*
X164185600Y-72628000D02*
X163947600Y-72390000D01*
X165814400Y-122515550D02*
X165814400Y-138731600D01*
X163898050Y-120599200D02*
X165814400Y-122515550D01*
X163541200Y-71983600D02*
X163947600Y-72390000D01*
X164185600Y-73863200D02*
X164185600Y-72628000D01*
%TO.N,/5.2k_B*%
X149964800Y-51254001D02*
X151638000Y-49580801D01*
X154192200Y-72898000D02*
X155106600Y-71983600D01*
X151485600Y-72898000D02*
X154192200Y-72898000D01*
X151638000Y-41484000D02*
X150007000Y-39853000D01*
X151079200Y-64363600D02*
X152028400Y-63414400D01*
X155106600Y-70713600D02*
X155106600Y-71983600D01*
X151638000Y-49580801D02*
X151638000Y-41484000D01*
X149964800Y-59032800D02*
X149964800Y-51254001D01*
X151079200Y-72491600D02*
X151079200Y-64363600D01*
X152028400Y-63414400D02*
X152028400Y-61096400D01*
X151485600Y-72898000D02*
X151079200Y-72491600D01*
X152028400Y-61096400D02*
X149964800Y-59032800D01*
%TO.N,/Comb_L_B*%
X151790400Y-53000400D02*
X150504400Y-53000400D01*
X152547000Y-50094200D02*
X152547000Y-39853000D01*
X150469600Y-52171600D02*
X152547000Y-50094200D01*
X155132000Y-56388000D02*
X151519150Y-56388000D01*
X150469600Y-53035200D02*
X150469600Y-52171600D01*
X150504400Y-53000400D02*
X150469600Y-53035200D01*
X151519150Y-56388000D02*
X150469600Y-55338450D01*
X150469600Y-55338450D02*
X150469600Y-53035200D01*
%TO.N,/Comb_R_B*%
X166097000Y-56388000D02*
X160082000Y-56388000D01*
X165247000Y-39853000D02*
X166097000Y-40703000D01*
X166097000Y-40703000D02*
X166097000Y-53136800D01*
X166078200Y-53118000D02*
X166097000Y-53136800D01*
X166097000Y-53136800D02*
X166097000Y-56388000D01*
X164134800Y-53118000D02*
X166078200Y-53118000D01*
%TO.N,/5.2k_T*%
X128905000Y-39878000D02*
X128905000Y-40106600D01*
X128905000Y-40106600D02*
X132029200Y-43230800D01*
%TO.N,/Comb_L_T*%
X131445000Y-39878000D02*
X131445000Y-40513000D01*
X132681600Y-44762800D02*
X132537200Y-44907200D01*
X132681600Y-41114600D02*
X132681600Y-44762800D01*
X131445000Y-39878000D02*
X132681600Y-41114600D01*
%TO.N,Net-(U2D--)*%
X161031599Y-65633600D02*
X161645600Y-65019599D01*
X161645600Y-63703200D02*
X160121600Y-62179200D01*
X159338000Y-62179200D02*
X159338000Y-61016400D01*
X161645600Y-65019599D02*
X161645600Y-63703200D01*
X159338000Y-61016400D02*
X160172400Y-60182000D01*
X160056600Y-65633600D02*
X161031599Y-65633600D01*
X160121600Y-62179200D02*
X159338000Y-62179200D01*
%TO.N,Net-(U2C-+)*%
X159904200Y-83870800D02*
X161950400Y-81824600D01*
X158496000Y-77536800D02*
X158496000Y-76606400D01*
X161950400Y-81824600D02*
X161950400Y-80502000D01*
X159461200Y-78502000D02*
X158496000Y-77536800D01*
X158496000Y-69948400D02*
X159000800Y-69443600D01*
X158496000Y-76606400D02*
X158496000Y-69948400D01*
X161461200Y-80502000D02*
X159461200Y-78502000D01*
X161950400Y-80502000D02*
X161461200Y-80502000D01*
X159000800Y-69443600D02*
X160056600Y-69443600D01*
%TO.N,Net-(U2B-+)*%
X155397200Y-77063600D02*
X154381200Y-77063600D01*
X156921200Y-77012800D02*
X156921200Y-77063600D01*
X155397200Y-80451200D02*
X155263600Y-80451200D01*
X156870400Y-77063600D02*
X156921200Y-77012800D01*
X156921200Y-70283201D02*
X156921200Y-77012800D01*
X154381200Y-77063600D02*
X153822400Y-77622400D01*
X156081599Y-69443600D02*
X156921200Y-70283201D01*
X153822400Y-77622400D02*
X153822400Y-78603600D01*
X155954653Y-80035853D02*
X155954653Y-80195853D01*
X154954200Y-83870800D02*
X155397200Y-83427800D01*
X155397200Y-83427800D02*
X155397200Y-80451200D01*
X155106600Y-69443600D02*
X156081599Y-69443600D01*
X155263600Y-80451200D02*
X153314400Y-78502000D01*
X155397200Y-77063600D02*
X156870400Y-77063600D01*
X155106600Y-69443600D02*
X154381200Y-69443600D01*
%TO.N,Net-(U1B--)*%
X153314400Y-55118000D02*
X151908000Y-55118000D01*
X152857200Y-57623200D02*
X154295600Y-57623200D01*
X151908000Y-55118000D02*
X151790400Y-55000400D01*
X155132000Y-55118000D02*
X153314400Y-55118000D01*
X154295600Y-57623200D02*
X154381200Y-57708800D01*
%TO.N,Net-(U1C--)*%
X161970400Y-57623200D02*
X161899600Y-57552400D01*
X163556000Y-55731600D02*
X164185600Y-55102000D01*
X161966400Y-57619200D02*
X161899600Y-57552400D01*
X160082000Y-55118000D02*
X164134800Y-55118000D01*
X164287200Y-57623200D02*
X161970400Y-57623200D01*
X161899600Y-55731600D02*
X163556000Y-55731600D01*
%TO.N,Net-(U1D--)*%
X161409400Y-49715400D02*
X161086800Y-50038000D01*
X161643800Y-49715400D02*
X162712400Y-50784000D01*
X161429100Y-45618400D02*
X161391600Y-45655900D01*
X161409400Y-49715400D02*
X161643800Y-49715400D01*
X161409400Y-45673700D02*
X161409400Y-49715400D01*
X161391600Y-45655900D02*
X161409400Y-45673700D01*
X161086800Y-50038000D02*
X160082000Y-50038000D01*
X163677600Y-45618400D02*
X161429100Y-45618400D01*
X162712400Y-50784000D02*
X164846000Y-50784000D01*
%TO.N,Net-(R44-Pad2)*%
X158073600Y-58182000D02*
X158038800Y-58216800D01*
X162712400Y-47439200D02*
X162712400Y-48784000D01*
X158089600Y-58216800D02*
X158089600Y-63398400D01*
X159054800Y-64363600D02*
X160056600Y-64363600D01*
X160172400Y-58182000D02*
X161613600Y-59623200D01*
X160172400Y-58182000D02*
X158073600Y-58182000D01*
X158089600Y-63398400D02*
X159054800Y-64363600D01*
X157775300Y-55210100D02*
X158038800Y-55473600D01*
X161613600Y-59623200D02*
X164287200Y-59623200D01*
X158038800Y-55473600D02*
X158038800Y-58216800D01*
X157775300Y-50250700D02*
X157775300Y-55210100D01*
X158038800Y-49987200D02*
X157775300Y-50250700D01*
%TO.N,Net-(R45-Pad2)*%
X156762000Y-63710000D02*
X156108400Y-64363600D01*
X154210000Y-59623200D02*
X155549600Y-58283600D01*
X157022800Y-63710000D02*
X156762000Y-63710000D01*
X164846000Y-47345600D02*
X164896800Y-47294800D01*
X156718000Y-48514000D02*
X156718000Y-58420000D01*
X157073600Y-58724800D02*
X157073600Y-63710000D01*
X164846000Y-48784000D02*
X164846000Y-47345600D01*
X152857200Y-59623200D02*
X154210000Y-59623200D01*
X155549600Y-58283600D02*
X156581600Y-58283600D01*
X156108400Y-64363600D02*
X155106600Y-64363600D01*
X156581600Y-58283600D02*
X157022800Y-58724800D01*
X156768800Y-48463200D02*
X156718000Y-48514000D01*
%TO.N,Net-(U4D--)*%
X158929201Y-113666300D02*
X159904200Y-113666300D01*
X159359600Y-110308300D02*
X160624100Y-110308300D01*
X160624100Y-110308300D02*
X161864800Y-109067600D01*
X158576800Y-111091100D02*
X158576800Y-113313899D01*
X158576800Y-113313899D02*
X158929201Y-113666300D01*
X159359600Y-110308300D02*
X158576800Y-111091100D01*
%TO.N,Net-(U4B--)*%
X156260800Y-120399358D02*
X156281600Y-120378558D01*
X156260800Y-121847700D02*
X156260800Y-120399358D01*
X156281600Y-120378558D02*
X156281600Y-119654042D01*
X155752800Y-122355700D02*
X156260800Y-121847700D01*
X155680500Y-122428000D02*
X155752800Y-122355700D01*
X155373858Y-118746300D02*
X154954200Y-118746300D01*
X153095200Y-122428000D02*
X155680500Y-122428000D01*
X156281600Y-119654042D02*
X155373858Y-118746300D01*
%TD*%
%TA.AperFunction,Conductor*%
%TO.N,GND*%
G36*
X135339855Y-40544546D02*
G01*
X135356575Y-40563842D01*
X135486500Y-40749395D01*
X135486505Y-40749401D01*
X135653599Y-40916495D01*
X135730485Y-40970331D01*
X135847165Y-41052032D01*
X135847167Y-41052033D01*
X135847170Y-41052035D01*
X136061337Y-41151903D01*
X136061343Y-41151904D01*
X136061344Y-41151905D01*
X136159774Y-41178279D01*
X136219435Y-41214644D01*
X136249964Y-41277491D01*
X136241669Y-41346866D01*
X136197184Y-41400744D01*
X136143867Y-41420993D01*
X136026827Y-41436402D01*
X135901256Y-41452934D01*
X135755518Y-41491984D01*
X135665679Y-41516056D01*
X135665669Y-41516059D01*
X135440359Y-41609386D01*
X135440348Y-41609391D01*
X135229151Y-41731327D01*
X135229135Y-41731338D01*
X135035656Y-41879799D01*
X135035649Y-41879805D01*
X134863205Y-42052249D01*
X134863199Y-42052256D01*
X134714738Y-42245735D01*
X134714727Y-42245751D01*
X134592791Y-42456948D01*
X134592786Y-42456959D01*
X134499459Y-42682269D01*
X134499456Y-42682279D01*
X134455959Y-42844616D01*
X134436335Y-42917853D01*
X134436333Y-42917864D01*
X134404500Y-43159648D01*
X134404500Y-43403551D01*
X134431013Y-43604933D01*
X134436334Y-43645344D01*
X134499456Y-43880920D01*
X134499459Y-43880930D01*
X134592786Y-44106240D01*
X134592791Y-44106251D01*
X134714727Y-44317448D01*
X134714738Y-44317464D01*
X134863199Y-44510943D01*
X134863205Y-44510950D01*
X135035649Y-44683394D01*
X135035656Y-44683400D01*
X135093715Y-44727950D01*
X135229144Y-44831868D01*
X135229151Y-44831872D01*
X135440348Y-44953808D01*
X135440353Y-44953810D01*
X135440356Y-44953812D01*
X135665679Y-45047144D01*
X135901256Y-45110266D01*
X136143056Y-45142100D01*
X136143063Y-45142100D01*
X136906937Y-45142100D01*
X136906944Y-45142100D01*
X137148744Y-45110266D01*
X137384321Y-45047144D01*
X137609644Y-44953812D01*
X137820856Y-44831868D01*
X138014345Y-44683399D01*
X138186799Y-44510945D01*
X138335268Y-44317456D01*
X138457212Y-44106244D01*
X138550544Y-43880921D01*
X138613666Y-43645344D01*
X138645500Y-43403544D01*
X138645500Y-43159656D01*
X138624528Y-43000362D01*
X138635293Y-42931329D01*
X138681673Y-42879073D01*
X138748942Y-42860187D01*
X138771660Y-42862561D01*
X138797494Y-42867700D01*
X138797495Y-42867700D01*
X139808352Y-42867700D01*
X139874323Y-42886705D01*
X139960078Y-42940589D01*
X140130345Y-43000168D01*
X140130350Y-43000169D01*
X140309596Y-43020365D01*
X140309600Y-43020365D01*
X140309604Y-43020365D01*
X140488849Y-43000169D01*
X140488852Y-43000168D01*
X140488855Y-43000168D01*
X140659122Y-42940589D01*
X140762128Y-42875865D01*
X140829364Y-42856865D01*
X140896199Y-42877232D01*
X140941413Y-42930500D01*
X140952100Y-42980859D01*
X140952100Y-48225905D01*
X140952100Y-48225907D01*
X140952099Y-48225907D01*
X140969405Y-48312903D01*
X140969405Y-48312904D01*
X140977189Y-48352037D01*
X140977190Y-48352041D01*
X140977191Y-48352044D01*
X141026408Y-48470864D01*
X141085939Y-48559960D01*
X141097862Y-48577804D01*
X141097863Y-48577805D01*
X142588181Y-50068121D01*
X142621666Y-50129444D01*
X142624500Y-50155802D01*
X142624500Y-51529470D01*
X142624501Y-51529476D01*
X142630908Y-51589083D01*
X142681202Y-51723928D01*
X142681206Y-51723935D01*
X142767452Y-51839144D01*
X142767455Y-51839147D01*
X142882664Y-51925393D01*
X142882671Y-51925397D01*
X143017517Y-51975691D01*
X143017516Y-51975691D01*
X143024444Y-51976435D01*
X143077127Y-51982100D01*
X144972872Y-51982099D01*
X145032483Y-51975691D01*
X145167331Y-51925396D01*
X145282546Y-51839146D01*
X145326234Y-51780786D01*
X145382167Y-51738916D01*
X145451859Y-51733932D01*
X145513182Y-51767417D01*
X145546666Y-51828741D01*
X145549500Y-51855098D01*
X145549500Y-71391750D01*
X145586841Y-71627511D01*
X145586841Y-71627512D01*
X145586842Y-71627515D01*
X145660605Y-71854534D01*
X145768973Y-72067219D01*
X145909279Y-72260333D01*
X145909281Y-72260335D01*
X146013681Y-72364735D01*
X146047166Y-72426058D01*
X146050000Y-72452416D01*
X146050000Y-74054784D01*
X146030315Y-74121823D01*
X146013681Y-74142465D01*
X145909281Y-74246864D01*
X145909281Y-74246865D01*
X145909279Y-74246867D01*
X145875232Y-74293729D01*
X145768973Y-74439980D01*
X145660606Y-74652663D01*
X145586841Y-74879687D01*
X145586841Y-74879688D01*
X145549500Y-75115449D01*
X145549500Y-111117350D01*
X145586841Y-111353111D01*
X145586841Y-111353112D01*
X145586842Y-111353115D01*
X145660605Y-111580134D01*
X145768973Y-111792819D01*
X145909279Y-111985933D01*
X145909281Y-111985935D01*
X146013681Y-112090335D01*
X146047166Y-112151658D01*
X146050000Y-112178016D01*
X146050000Y-113780384D01*
X146030315Y-113847423D01*
X146013681Y-113868065D01*
X145909281Y-113972464D01*
X145909281Y-113972465D01*
X145909279Y-113972467D01*
X145889802Y-113999275D01*
X145768973Y-114165580D01*
X145660606Y-114378263D01*
X145586841Y-114605287D01*
X145586841Y-114605288D01*
X145549500Y-114841049D01*
X145549500Y-141749750D01*
X145586841Y-141985511D01*
X145586841Y-141985512D01*
X145586842Y-141985515D01*
X145660605Y-142212534D01*
X145768973Y-142425219D01*
X145909279Y-142618333D01*
X145909281Y-142618335D01*
X146013681Y-142722735D01*
X146047166Y-142784058D01*
X146050000Y-142810416D01*
X146050000Y-144412784D01*
X146030315Y-144479823D01*
X146013681Y-144500465D01*
X145909281Y-144604864D01*
X145909281Y-144604865D01*
X145909279Y-144604867D01*
X145849022Y-144687802D01*
X145768973Y-144797980D01*
X145660606Y-145010663D01*
X145586841Y-145237687D01*
X145586841Y-145237688D01*
X145554022Y-145444898D01*
X145524093Y-145508033D01*
X145464781Y-145544964D01*
X145431549Y-145549500D01*
X145063345Y-145549500D01*
X144996306Y-145529815D01*
X144950551Y-145477011D01*
X144940607Y-145407853D01*
X144969632Y-145344297D01*
X144992221Y-145323926D01*
X145011393Y-145310501D01*
X145011395Y-145310499D01*
X145011401Y-145310495D01*
X145178495Y-145143401D01*
X145314035Y-144949830D01*
X145413903Y-144735663D01*
X145475063Y-144507408D01*
X145495659Y-144272000D01*
X145475063Y-144036592D01*
X145413903Y-143808337D01*
X145314035Y-143594171D01*
X145308425Y-143586158D01*
X145178494Y-143400597D01*
X145011402Y-143233506D01*
X145011395Y-143233501D01*
X144817834Y-143097967D01*
X144817830Y-143097965D01*
X144756272Y-143069260D01*
X144603663Y-142998097D01*
X144603659Y-142998096D01*
X144603655Y-142998094D01*
X144375413Y-142936938D01*
X144375403Y-142936936D01*
X144140001Y-142916341D01*
X144139999Y-142916341D01*
X143904596Y-142936936D01*
X143904586Y-142936938D01*
X143676344Y-142998094D01*
X143676335Y-142998098D01*
X143462171Y-143097964D01*
X143462169Y-143097965D01*
X143268597Y-143233505D01*
X143101505Y-143400597D01*
X142971575Y-143586158D01*
X142916998Y-143629783D01*
X142847500Y-143636977D01*
X142785145Y-143605454D01*
X142768425Y-143586158D01*
X142638494Y-143400597D01*
X142471402Y-143233506D01*
X142471395Y-143233501D01*
X142277834Y-143097967D01*
X142277830Y-143097965D01*
X142216272Y-143069260D01*
X142063663Y-142998097D01*
X142063659Y-142998096D01*
X142063655Y-142998094D01*
X142053390Y-142995344D01*
X141993729Y-142958979D01*
X141963200Y-142896132D01*
X141971495Y-142826756D01*
X142015980Y-142772879D01*
X142082532Y-142751604D01*
X142085483Y-142751569D01*
X142246038Y-142751569D01*
X142487004Y-142713403D01*
X142719043Y-142638008D01*
X142936422Y-142527247D01*
X143133804Y-142383840D01*
X143306316Y-142211328D01*
X143449723Y-142013946D01*
X143560484Y-141796567D01*
X143635879Y-141564528D01*
X143653770Y-141451569D01*
X142291033Y-141451569D01*
X142308250Y-141441629D01*
X142364105Y-141385774D01*
X142403601Y-141317365D01*
X142424045Y-141241065D01*
X142424045Y-141162073D01*
X142403601Y-141085773D01*
X142364105Y-141017364D01*
X142308250Y-140961509D01*
X142291033Y-140951569D01*
X143653770Y-140951569D01*
X143635879Y-140838609D01*
X143560484Y-140606570D01*
X143449723Y-140389191D01*
X143306316Y-140191809D01*
X143133804Y-140019297D01*
X142948595Y-139884734D01*
X142905930Y-139829404D01*
X142899951Y-139759790D01*
X142932557Y-139697995D01*
X142951399Y-139682120D01*
X143012187Y-139640480D01*
X143162956Y-139489711D01*
X143283454Y-139313806D01*
X143369577Y-139118754D01*
X143418394Y-138911199D01*
X143424545Y-138822581D01*
X143424545Y-137380557D01*
X143418394Y-137291939D01*
X143418392Y-137291933D01*
X143418392Y-137291928D01*
X143369579Y-137084392D01*
X143369577Y-137084386D01*
X143369577Y-137084384D01*
X143283454Y-136889332D01*
X143162956Y-136713427D01*
X143162951Y-136713421D01*
X143012192Y-136562662D01*
X143012186Y-136562657D01*
X142836283Y-136442161D01*
X142836284Y-136442161D01*
X142836282Y-136442160D01*
X142641230Y-136356037D01*
X142641228Y-136356036D01*
X142641227Y-136356036D01*
X142641221Y-136356034D01*
X142433685Y-136307221D01*
X142433669Y-136307219D01*
X142345061Y-136301069D01*
X142345057Y-136301069D01*
X140903033Y-136301069D01*
X140903029Y-136301069D01*
X140814420Y-136307219D01*
X140814404Y-136307221D01*
X140606868Y-136356034D01*
X140606862Y-136356036D01*
X140411806Y-136442161D01*
X140235903Y-136562657D01*
X140235897Y-136562662D01*
X140085138Y-136713421D01*
X140085133Y-136713427D01*
X139964637Y-136889330D01*
X139878512Y-137084386D01*
X139878510Y-137084392D01*
X139829697Y-137291928D01*
X139829695Y-137291944D01*
X139823545Y-137380553D01*
X139823545Y-138822584D01*
X139829695Y-138911193D01*
X139829697Y-138911209D01*
X139878510Y-139118745D01*
X139878512Y-139118751D01*
X139878513Y-139118754D01*
X139964636Y-139313806D01*
X139964637Y-139313807D01*
X140085133Y-139489710D01*
X140085138Y-139489716D01*
X140235897Y-139640475D01*
X140235902Y-139640479D01*
X140235903Y-139640480D01*
X140296682Y-139682115D01*
X140296684Y-139682116D01*
X140340867Y-139736242D01*
X140348774Y-139805662D01*
X140317894Y-139868338D01*
X140299494Y-139884734D01*
X140114286Y-140019296D01*
X139941773Y-140191809D01*
X139798366Y-140389191D01*
X139687605Y-140606570D01*
X139612210Y-140838609D01*
X139594320Y-140951569D01*
X140957057Y-140951569D01*
X140939840Y-140961509D01*
X140883985Y-141017364D01*
X140844489Y-141085773D01*
X140824045Y-141162073D01*
X140824045Y-141241065D01*
X140844489Y-141317365D01*
X140883985Y-141385774D01*
X140939840Y-141441629D01*
X140957057Y-141451569D01*
X139594320Y-141451569D01*
X139612210Y-141564528D01*
X139687605Y-141796567D01*
X139798366Y-142013946D01*
X139941773Y-142211328D01*
X140114285Y-142383840D01*
X140311667Y-142527247D01*
X140529046Y-142638008D01*
X140761085Y-142713403D01*
X141002052Y-142751569D01*
X141114517Y-142751569D01*
X141181556Y-142771254D01*
X141227311Y-142824058D01*
X141237255Y-142893216D01*
X141208230Y-142956772D01*
X141149452Y-142994546D01*
X141146610Y-142995344D01*
X141136344Y-142998094D01*
X141136335Y-142998098D01*
X140922171Y-143097964D01*
X140922169Y-143097965D01*
X140728597Y-143233505D01*
X140561505Y-143400597D01*
X140431575Y-143586158D01*
X140376998Y-143629783D01*
X140307500Y-143636977D01*
X140245145Y-143605454D01*
X140228425Y-143586158D01*
X140098494Y-143400597D01*
X139931402Y-143233506D01*
X139931395Y-143233501D01*
X139737834Y-143097967D01*
X139737830Y-143097965D01*
X139676272Y-143069260D01*
X139523663Y-142998097D01*
X139523659Y-142998096D01*
X139523655Y-142998094D01*
X139295413Y-142936938D01*
X139295403Y-142936936D01*
X139060001Y-142916341D01*
X139059999Y-142916341D01*
X138824596Y-142936936D01*
X138824586Y-142936938D01*
X138596344Y-142998094D01*
X138596335Y-142998098D01*
X138382171Y-143097964D01*
X138382169Y-143097965D01*
X138188597Y-143233505D01*
X138021505Y-143400597D01*
X137891575Y-143586158D01*
X137836998Y-143629783D01*
X137767500Y-143636977D01*
X137705145Y-143605454D01*
X137688425Y-143586158D01*
X137558494Y-143400597D01*
X137391402Y-143233506D01*
X137391395Y-143233501D01*
X137197834Y-143097967D01*
X137197830Y-143097965D01*
X137136272Y-143069260D01*
X136983663Y-142998097D01*
X136983659Y-142998096D01*
X136983655Y-142998094D01*
X136755413Y-142936938D01*
X136755403Y-142936936D01*
X136520001Y-142916341D01*
X136519999Y-142916341D01*
X136284596Y-142936936D01*
X136284586Y-142936938D01*
X136056344Y-142998094D01*
X136056335Y-142998098D01*
X135842171Y-143097964D01*
X135842169Y-143097965D01*
X135648597Y-143233505D01*
X135481505Y-143400597D01*
X135351575Y-143586158D01*
X135296998Y-143629783D01*
X135227500Y-143636977D01*
X135165145Y-143605454D01*
X135148425Y-143586158D01*
X135018494Y-143400597D01*
X134851402Y-143233506D01*
X134851395Y-143233501D01*
X134657834Y-143097967D01*
X134657830Y-143097965D01*
X134596272Y-143069260D01*
X134443663Y-142998097D01*
X134443659Y-142998096D01*
X134443655Y-142998094D01*
X134215413Y-142936938D01*
X134215403Y-142936936D01*
X133980001Y-142916341D01*
X133979999Y-142916341D01*
X133744596Y-142936936D01*
X133744586Y-142936938D01*
X133516344Y-142998094D01*
X133516335Y-142998098D01*
X133302171Y-143097964D01*
X133302169Y-143097965D01*
X133108597Y-143233505D01*
X132941505Y-143400597D01*
X132811575Y-143586158D01*
X132756998Y-143629783D01*
X132687500Y-143636977D01*
X132625145Y-143605454D01*
X132608425Y-143586158D01*
X132478494Y-143400597D01*
X132311402Y-143233506D01*
X132311395Y-143233501D01*
X132117834Y-143097967D01*
X132117830Y-143097965D01*
X132056272Y-143069260D01*
X131903663Y-142998097D01*
X131903659Y-142998096D01*
X131903655Y-142998094D01*
X131893390Y-142995344D01*
X131833729Y-142958979D01*
X131803200Y-142896132D01*
X131811495Y-142826756D01*
X131855980Y-142772879D01*
X131922532Y-142751604D01*
X131925483Y-142751569D01*
X132086042Y-142751569D01*
X132327008Y-142713403D01*
X132559047Y-142638008D01*
X132776426Y-142527247D01*
X132973808Y-142383840D01*
X133146320Y-142211328D01*
X133289727Y-142013946D01*
X133400488Y-141796567D01*
X133475883Y-141564528D01*
X133493774Y-141451569D01*
X132131037Y-141451569D01*
X132148254Y-141441629D01*
X132204109Y-141385774D01*
X132243605Y-141317365D01*
X132264049Y-141241065D01*
X132264049Y-141162073D01*
X132243605Y-141085773D01*
X132204109Y-141017364D01*
X132148254Y-140961509D01*
X132131037Y-140951569D01*
X133493774Y-140951569D01*
X133475883Y-140838609D01*
X133400488Y-140606570D01*
X133289727Y-140389191D01*
X133146320Y-140191809D01*
X132973808Y-140019297D01*
X132788599Y-139884734D01*
X132745934Y-139829404D01*
X132739955Y-139759790D01*
X132772561Y-139697995D01*
X132791403Y-139682120D01*
X132852191Y-139640480D01*
X133002960Y-139489711D01*
X133123458Y-139313806D01*
X133209581Y-139118754D01*
X133258398Y-138911199D01*
X133264549Y-138822581D01*
X133264549Y-137380557D01*
X133258398Y-137291939D01*
X133258396Y-137291933D01*
X133258396Y-137291928D01*
X133209583Y-137084392D01*
X133209581Y-137084386D01*
X133209581Y-137084384D01*
X133123458Y-136889332D01*
X133002960Y-136713427D01*
X133002955Y-136713421D01*
X132852196Y-136562662D01*
X132852190Y-136562657D01*
X132676287Y-136442161D01*
X132676288Y-136442161D01*
X132676286Y-136442160D01*
X132481234Y-136356037D01*
X132481232Y-136356036D01*
X132481231Y-136356036D01*
X132481225Y-136356034D01*
X132273689Y-136307221D01*
X132273673Y-136307219D01*
X132185065Y-136301069D01*
X132185061Y-136301069D01*
X130743037Y-136301069D01*
X130743033Y-136301069D01*
X130654424Y-136307219D01*
X130654408Y-136307221D01*
X130446872Y-136356034D01*
X130446866Y-136356036D01*
X130251810Y-136442161D01*
X130075907Y-136562657D01*
X130075901Y-136562662D01*
X129925142Y-136713421D01*
X129925137Y-136713427D01*
X129804641Y-136889330D01*
X129718516Y-137084386D01*
X129718514Y-137084392D01*
X129669701Y-137291928D01*
X129669699Y-137291944D01*
X129663549Y-137380553D01*
X129663549Y-138822584D01*
X129669699Y-138911193D01*
X129669701Y-138911209D01*
X129718514Y-139118745D01*
X129718516Y-139118751D01*
X129718517Y-139118754D01*
X129804640Y-139313806D01*
X129804641Y-139313807D01*
X129925137Y-139489710D01*
X129925142Y-139489716D01*
X130075901Y-139640475D01*
X130075906Y-139640479D01*
X130075907Y-139640480D01*
X130136686Y-139682115D01*
X130136688Y-139682116D01*
X130180871Y-139736242D01*
X130188778Y-139805662D01*
X130157898Y-139868338D01*
X130139498Y-139884734D01*
X129954290Y-140019296D01*
X129781777Y-140191809D01*
X129638370Y-140389191D01*
X129527609Y-140606570D01*
X129452214Y-140838609D01*
X129434324Y-140951569D01*
X130797061Y-140951569D01*
X130779844Y-140961509D01*
X130723989Y-141017364D01*
X130684493Y-141085773D01*
X130664049Y-141162073D01*
X130664049Y-141241065D01*
X130684493Y-141317365D01*
X130723989Y-141385774D01*
X130779844Y-141441629D01*
X130797061Y-141451569D01*
X129434324Y-141451569D01*
X129452214Y-141564528D01*
X129527609Y-141796567D01*
X129638370Y-142013946D01*
X129781777Y-142211328D01*
X129954289Y-142383840D01*
X130151671Y-142527247D01*
X130369050Y-142638008D01*
X130601089Y-142713403D01*
X130842056Y-142751569D01*
X130954517Y-142751569D01*
X131021556Y-142771254D01*
X131067311Y-142824058D01*
X131077255Y-142893216D01*
X131048230Y-142956772D01*
X130989452Y-142994546D01*
X130986610Y-142995344D01*
X130976344Y-142998094D01*
X130976335Y-142998098D01*
X130762171Y-143097964D01*
X130762169Y-143097965D01*
X130568600Y-143233503D01*
X130446673Y-143355430D01*
X130385350Y-143388914D01*
X130315658Y-143383930D01*
X130259725Y-143342058D01*
X130242810Y-143311081D01*
X130193797Y-143179671D01*
X130193793Y-143179664D01*
X130107547Y-143064455D01*
X130107544Y-143064452D01*
X129992335Y-142978206D01*
X129992328Y-142978202D01*
X129857482Y-142927908D01*
X129857483Y-142927908D01*
X129797883Y-142921501D01*
X129797881Y-142921500D01*
X129797873Y-142921500D01*
X129797864Y-142921500D01*
X128002129Y-142921500D01*
X128002123Y-142921501D01*
X127942516Y-142927908D01*
X127807671Y-142978202D01*
X127807669Y-142978204D01*
X127698811Y-143059695D01*
X127633347Y-143084112D01*
X127565074Y-143069260D01*
X127515668Y-143019855D01*
X127500500Y-142960428D01*
X127500500Y-126727573D01*
X129434324Y-126727573D01*
X130797061Y-126727573D01*
X130779844Y-126737513D01*
X130723989Y-126793368D01*
X130684493Y-126861777D01*
X130664049Y-126938077D01*
X130664049Y-127017069D01*
X130684493Y-127093369D01*
X130723989Y-127161778D01*
X130779844Y-127217633D01*
X130797061Y-127227573D01*
X129434324Y-127227573D01*
X129452214Y-127340532D01*
X129527609Y-127572571D01*
X129638370Y-127789950D01*
X129781777Y-127987332D01*
X129954289Y-128159844D01*
X129954295Y-128159849D01*
X129966822Y-128168951D01*
X130009486Y-128224281D01*
X130015464Y-128293895D01*
X129982856Y-128355689D01*
X129981616Y-128356948D01*
X129925137Y-128413427D01*
X129804641Y-128589330D01*
X129718516Y-128784386D01*
X129718514Y-128784392D01*
X129669701Y-128991928D01*
X129669699Y-128991944D01*
X129663549Y-129080553D01*
X129663549Y-130522584D01*
X129669699Y-130611193D01*
X129669701Y-130611209D01*
X129718514Y-130818745D01*
X129718516Y-130818751D01*
X129718517Y-130818754D01*
X129804640Y-131013806D01*
X129804641Y-131013807D01*
X129925137Y-131189710D01*
X129925142Y-131189716D01*
X130075901Y-131340475D01*
X130075907Y-131340480D01*
X130251812Y-131460978D01*
X130446864Y-131547101D01*
X130446870Y-131547102D01*
X130446872Y-131547103D01*
X130654408Y-131595916D01*
X130654413Y-131595916D01*
X130654419Y-131595918D01*
X130703651Y-131599335D01*
X130743033Y-131602069D01*
X130743037Y-131602069D01*
X132185065Y-131602069D01*
X132220508Y-131599608D01*
X132273679Y-131595918D01*
X132273685Y-131595916D01*
X132273689Y-131595916D01*
X132481225Y-131547103D01*
X132481223Y-131547103D01*
X132481234Y-131547101D01*
X132676286Y-131460978D01*
X132852191Y-131340480D01*
X133002960Y-131189711D01*
X133123458Y-131013806D01*
X133209581Y-130818754D01*
X133258398Y-130611199D01*
X133264549Y-130522581D01*
X133264549Y-129080557D01*
X133258398Y-128991939D01*
X133258396Y-128991933D01*
X133258396Y-128991928D01*
X133209583Y-128784392D01*
X133209581Y-128784386D01*
X133209581Y-128784384D01*
X133123458Y-128589332D01*
X133002960Y-128413427D01*
X133002955Y-128413421D01*
X132946482Y-128356948D01*
X132912997Y-128295625D01*
X132917981Y-128225933D01*
X132959853Y-128170000D01*
X132961282Y-128168946D01*
X132973802Y-128159850D01*
X133146320Y-127987332D01*
X133289727Y-127789950D01*
X133400488Y-127572571D01*
X133475883Y-127340532D01*
X133493774Y-127227573D01*
X132131037Y-127227573D01*
X132148254Y-127217633D01*
X132204109Y-127161778D01*
X132243605Y-127093369D01*
X132264049Y-127017069D01*
X132264049Y-126938077D01*
X132243605Y-126861777D01*
X132204109Y-126793368D01*
X132148254Y-126737513D01*
X132131084Y-126727600D01*
X139600675Y-126727600D01*
X140963412Y-126727600D01*
X140946195Y-126737540D01*
X140890340Y-126793395D01*
X140850844Y-126861804D01*
X140830400Y-126938104D01*
X140830400Y-127017096D01*
X140850844Y-127093396D01*
X140890340Y-127161805D01*
X140946195Y-127217660D01*
X140963412Y-127227600D01*
X139600675Y-127227600D01*
X139618565Y-127340559D01*
X139693960Y-127572598D01*
X139804721Y-127789977D01*
X139948128Y-127987359D01*
X140120644Y-128159875D01*
X140129469Y-128166286D01*
X140172138Y-128221613D01*
X140178121Y-128291226D01*
X140145518Y-128353023D01*
X140144271Y-128354289D01*
X140085133Y-128413427D01*
X139964637Y-128589330D01*
X139878512Y-128784386D01*
X139878510Y-128784392D01*
X139829697Y-128991928D01*
X139829695Y-128991944D01*
X139823545Y-129080553D01*
X139823545Y-130522584D01*
X139829695Y-130611193D01*
X139829697Y-130611209D01*
X139878510Y-130818745D01*
X139878512Y-130818751D01*
X139878513Y-130818754D01*
X139964636Y-131013806D01*
X139964637Y-131013807D01*
X140085133Y-131189710D01*
X140085138Y-131189716D01*
X140235897Y-131340475D01*
X140235903Y-131340480D01*
X140411808Y-131460978D01*
X140606860Y-131547101D01*
X140606866Y-131547102D01*
X140606868Y-131547103D01*
X140814404Y-131595916D01*
X140814409Y-131595916D01*
X140814415Y-131595918D01*
X140863647Y-131599335D01*
X140903029Y-131602069D01*
X140903033Y-131602069D01*
X142345061Y-131602069D01*
X142380504Y-131599608D01*
X142433675Y-131595918D01*
X142433681Y-131595916D01*
X142433685Y-131595916D01*
X142641221Y-131547103D01*
X142641219Y-131547103D01*
X142641230Y-131547101D01*
X142836282Y-131460978D01*
X143012187Y-131340480D01*
X143162956Y-131189711D01*
X143283454Y-131013806D01*
X143369577Y-130818754D01*
X143418394Y-130611199D01*
X143424545Y-130522581D01*
X143424545Y-129080557D01*
X143418394Y-128991939D01*
X143418392Y-128991933D01*
X143418392Y-128991928D01*
X143369579Y-128784392D01*
X143369577Y-128784386D01*
X143369577Y-128784384D01*
X143283454Y-128589332D01*
X143162956Y-128413427D01*
X143162951Y-128413421D01*
X143109168Y-128359638D01*
X143075683Y-128298315D01*
X143080667Y-128228623D01*
X143122539Y-128172690D01*
X143123967Y-128171637D01*
X143140150Y-128159879D01*
X143140155Y-128159875D01*
X143312671Y-127987359D01*
X143456078Y-127789977D01*
X143566839Y-127572598D01*
X143642234Y-127340559D01*
X143660125Y-127227600D01*
X142297388Y-127227600D01*
X142314605Y-127217660D01*
X142370460Y-127161805D01*
X142409956Y-127093396D01*
X142430400Y-127017096D01*
X142430400Y-126938104D01*
X142409956Y-126861804D01*
X142370460Y-126793395D01*
X142314605Y-126737540D01*
X142297388Y-126727600D01*
X143660125Y-126727600D01*
X143642234Y-126614640D01*
X143566839Y-126382601D01*
X143456078Y-126165222D01*
X143312671Y-125967840D01*
X143140159Y-125795328D01*
X142954950Y-125660765D01*
X142912285Y-125605435D01*
X142906306Y-125535821D01*
X142938912Y-125474026D01*
X142957754Y-125458151D01*
X143018542Y-125416511D01*
X143169311Y-125265742D01*
X143289809Y-125089837D01*
X143375932Y-124894785D01*
X143424749Y-124687230D01*
X143430900Y-124598612D01*
X143430900Y-123156588D01*
X143424749Y-123067970D01*
X143424747Y-123067964D01*
X143424747Y-123067959D01*
X143375934Y-122860423D01*
X143375932Y-122860417D01*
X143375932Y-122860415D01*
X143289809Y-122665363D01*
X143169311Y-122489458D01*
X143169306Y-122489452D01*
X143018547Y-122338693D01*
X143018541Y-122338688D01*
X142842638Y-122218192D01*
X142842639Y-122218192D01*
X142842637Y-122218191D01*
X142647585Y-122132068D01*
X142647583Y-122132067D01*
X142647582Y-122132067D01*
X142647576Y-122132065D01*
X142440040Y-122083252D01*
X142440024Y-122083250D01*
X142351416Y-122077100D01*
X142351412Y-122077100D01*
X140909388Y-122077100D01*
X140909384Y-122077100D01*
X140820775Y-122083250D01*
X140820759Y-122083252D01*
X140613223Y-122132065D01*
X140613217Y-122132067D01*
X140418161Y-122218192D01*
X140242258Y-122338688D01*
X140242252Y-122338693D01*
X140091493Y-122489452D01*
X140091488Y-122489458D01*
X139970992Y-122665361D01*
X139884867Y-122860417D01*
X139884865Y-122860423D01*
X139836052Y-123067959D01*
X139836050Y-123067975D01*
X139829900Y-123156584D01*
X139829900Y-124598615D01*
X139836050Y-124687224D01*
X139836052Y-124687240D01*
X139884865Y-124894776D01*
X139884867Y-124894782D01*
X139884868Y-124894785D01*
X139970991Y-125089837D01*
X139970992Y-125089838D01*
X140091488Y-125265741D01*
X140091493Y-125265747D01*
X140242252Y-125416506D01*
X140242257Y-125416510D01*
X140242258Y-125416511D01*
X140303037Y-125458146D01*
X140303039Y-125458147D01*
X140347222Y-125512273D01*
X140355129Y-125581693D01*
X140324249Y-125644369D01*
X140305849Y-125660765D01*
X140120641Y-125795327D01*
X139948128Y-125967840D01*
X139804721Y-126165222D01*
X139693960Y-126382601D01*
X139618565Y-126614640D01*
X139600675Y-126727600D01*
X132131084Y-126727600D01*
X132131037Y-126727573D01*
X133493774Y-126727573D01*
X133475883Y-126614613D01*
X133400488Y-126382574D01*
X133289727Y-126165195D01*
X133146320Y-125967813D01*
X132973808Y-125795301D01*
X132788599Y-125660738D01*
X132745934Y-125605408D01*
X132739955Y-125535794D01*
X132772561Y-125473999D01*
X132791403Y-125458124D01*
X132852191Y-125416484D01*
X133002960Y-125265715D01*
X133123458Y-125089810D01*
X133209581Y-124894758D01*
X133221744Y-124843041D01*
X133258396Y-124687213D01*
X133258396Y-124687209D01*
X133258398Y-124687203D01*
X133264549Y-124598585D01*
X133264549Y-123156561D01*
X133258398Y-123067943D01*
X133258396Y-123067937D01*
X133258396Y-123067932D01*
X133209583Y-122860396D01*
X133209581Y-122860390D01*
X133209581Y-122860388D01*
X133123458Y-122665336D01*
X133002960Y-122489431D01*
X133002955Y-122489425D01*
X132852196Y-122338666D01*
X132852190Y-122338661D01*
X132764238Y-122278413D01*
X132676286Y-122218164D01*
X132481234Y-122132041D01*
X132481232Y-122132040D01*
X132481231Y-122132040D01*
X132481225Y-122132038D01*
X132273689Y-122083225D01*
X132273673Y-122083223D01*
X132185065Y-122077073D01*
X132185061Y-122077073D01*
X130743037Y-122077073D01*
X130743033Y-122077073D01*
X130654424Y-122083223D01*
X130654408Y-122083225D01*
X130446872Y-122132038D01*
X130446866Y-122132040D01*
X130251810Y-122218165D01*
X130075907Y-122338661D01*
X130075901Y-122338666D01*
X129925142Y-122489425D01*
X129925137Y-122489431D01*
X129804641Y-122665334D01*
X129718516Y-122860390D01*
X129718514Y-122860396D01*
X129669701Y-123067932D01*
X129669699Y-123067948D01*
X129663549Y-123156557D01*
X129663549Y-124598588D01*
X129669699Y-124687197D01*
X129669701Y-124687213D01*
X129718514Y-124894749D01*
X129718516Y-124894755D01*
X129718517Y-124894758D01*
X129804640Y-125089810D01*
X129804659Y-125089838D01*
X129925137Y-125265714D01*
X129925142Y-125265720D01*
X130075901Y-125416479D01*
X130075906Y-125416483D01*
X130075907Y-125416484D01*
X130075908Y-125416485D01*
X130075911Y-125416487D01*
X130127295Y-125451685D01*
X130136686Y-125458119D01*
X130136688Y-125458120D01*
X130180871Y-125512246D01*
X130188778Y-125581666D01*
X130157898Y-125644342D01*
X130139498Y-125660738D01*
X129954290Y-125795300D01*
X129781777Y-125967813D01*
X129638370Y-126165195D01*
X129527609Y-126382574D01*
X129452214Y-126614613D01*
X129434324Y-126727573D01*
X127500500Y-126727573D01*
X127500500Y-112503583D01*
X129434324Y-112503583D01*
X130797061Y-112503583D01*
X130779844Y-112513523D01*
X130723989Y-112569378D01*
X130684493Y-112637787D01*
X130664049Y-112714087D01*
X130664049Y-112793079D01*
X130684493Y-112869379D01*
X130723989Y-112937788D01*
X130779844Y-112993643D01*
X130797061Y-113003583D01*
X129434324Y-113003583D01*
X129452214Y-113116542D01*
X129527609Y-113348581D01*
X129638370Y-113565960D01*
X129781777Y-113763342D01*
X129954292Y-113935857D01*
X129966815Y-113944955D01*
X130009482Y-114000285D01*
X130015461Y-114069898D01*
X129982856Y-114131693D01*
X129981613Y-114132955D01*
X129925137Y-114189431D01*
X129804641Y-114365334D01*
X129718516Y-114560390D01*
X129718514Y-114560396D01*
X129669701Y-114767932D01*
X129669699Y-114767948D01*
X129663549Y-114856557D01*
X129663549Y-116298588D01*
X129669699Y-116387197D01*
X129669701Y-116387213D01*
X129718514Y-116594749D01*
X129718516Y-116594755D01*
X129718517Y-116594758D01*
X129804640Y-116789810D01*
X129804659Y-116789838D01*
X129925137Y-116965714D01*
X129925142Y-116965720D01*
X130075901Y-117116479D01*
X130075907Y-117116484D01*
X130251812Y-117236982D01*
X130446864Y-117323105D01*
X130446870Y-117323106D01*
X130446872Y-117323107D01*
X130654408Y-117371920D01*
X130654413Y-117371920D01*
X130654419Y-117371922D01*
X130703651Y-117375339D01*
X130743033Y-117378073D01*
X130743037Y-117378073D01*
X132185065Y-117378073D01*
X132220508Y-117375612D01*
X132273679Y-117371922D01*
X132273685Y-117371920D01*
X132273689Y-117371920D01*
X132429517Y-117335268D01*
X132481234Y-117323105D01*
X132676286Y-117236982D01*
X132852191Y-117116484D01*
X133002960Y-116965715D01*
X133123458Y-116789810D01*
X133209581Y-116594758D01*
X133221744Y-116543041D01*
X133258396Y-116387213D01*
X133258396Y-116387209D01*
X133258398Y-116387203D01*
X133264549Y-116298585D01*
X133264549Y-114856561D01*
X133258398Y-114767943D01*
X133258396Y-114767937D01*
X133258396Y-114767932D01*
X133209583Y-114560396D01*
X133209581Y-114560390D01*
X133209581Y-114560388D01*
X133123458Y-114365336D01*
X133002960Y-114189431D01*
X132946483Y-114132954D01*
X132913000Y-114071634D01*
X132917984Y-114001942D01*
X132959855Y-113946008D01*
X132961285Y-113944954D01*
X132973802Y-113935860D01*
X133146320Y-113763342D01*
X133289727Y-113565960D01*
X133400488Y-113348581D01*
X133475883Y-113116542D01*
X133493774Y-113003583D01*
X132131037Y-113003583D01*
X132148254Y-112993643D01*
X132204109Y-112937788D01*
X132243605Y-112869379D01*
X132264049Y-112793079D01*
X132264049Y-112714087D01*
X132243605Y-112637787D01*
X132204109Y-112569378D01*
X132148254Y-112513523D01*
X132131037Y-112503583D01*
X133493774Y-112503583D01*
X133493773Y-112503578D01*
X139594320Y-112503578D01*
X140957057Y-112503578D01*
X140939840Y-112513518D01*
X140883985Y-112569373D01*
X140844489Y-112637782D01*
X140824045Y-112714082D01*
X140824045Y-112793074D01*
X140844489Y-112869374D01*
X140883985Y-112937783D01*
X140939840Y-112993638D01*
X140957057Y-113003578D01*
X139594320Y-113003578D01*
X139612210Y-113116537D01*
X139687605Y-113348576D01*
X139798366Y-113565955D01*
X139941773Y-113763337D01*
X140114289Y-113935853D01*
X140130509Y-113947637D01*
X140173176Y-114002966D01*
X140179157Y-114072579D01*
X140146552Y-114134375D01*
X140145308Y-114135637D01*
X140091493Y-114189452D01*
X140091488Y-114189458D01*
X139970992Y-114365361D01*
X139884867Y-114560417D01*
X139884865Y-114560423D01*
X139836052Y-114767959D01*
X139836050Y-114767975D01*
X139829900Y-114856584D01*
X139829900Y-116298615D01*
X139836050Y-116387224D01*
X139836052Y-116387240D01*
X139884865Y-116594776D01*
X139884867Y-116594782D01*
X139884868Y-116594785D01*
X139970991Y-116789837D01*
X139970992Y-116789838D01*
X140091488Y-116965741D01*
X140091493Y-116965747D01*
X140242252Y-117116506D01*
X140242258Y-117116511D01*
X140418163Y-117237009D01*
X140613215Y-117323132D01*
X140613221Y-117323133D01*
X140613223Y-117323134D01*
X140820759Y-117371947D01*
X140820764Y-117371947D01*
X140820770Y-117371949D01*
X140870002Y-117375366D01*
X140909384Y-117378100D01*
X140909388Y-117378100D01*
X142351416Y-117378100D01*
X142386859Y-117375639D01*
X142440030Y-117371949D01*
X142440036Y-117371947D01*
X142440040Y-117371947D01*
X142647576Y-117323134D01*
X142647574Y-117323134D01*
X142647585Y-117323132D01*
X142842637Y-117237009D01*
X143018542Y-117116511D01*
X143169311Y-116965742D01*
X143289809Y-116789837D01*
X143375932Y-116594785D01*
X143424749Y-116387230D01*
X143430900Y-116298612D01*
X143430900Y-114856588D01*
X143429821Y-114841049D01*
X143424749Y-114767975D01*
X143424749Y-114767970D01*
X143424747Y-114767964D01*
X143424747Y-114767959D01*
X143375934Y-114560423D01*
X143375932Y-114560417D01*
X143375932Y-114560415D01*
X143289809Y-114365363D01*
X143169311Y-114189458D01*
X143169306Y-114189452D01*
X143110144Y-114130290D01*
X143076659Y-114068967D01*
X143081643Y-113999275D01*
X143123515Y-113943342D01*
X143124943Y-113942288D01*
X143133801Y-113935852D01*
X143306316Y-113763337D01*
X143449723Y-113565955D01*
X143560484Y-113348576D01*
X143635879Y-113116537D01*
X143653770Y-113003578D01*
X142291033Y-113003578D01*
X142308250Y-112993638D01*
X142364105Y-112937783D01*
X142403601Y-112869374D01*
X142424045Y-112793074D01*
X142424045Y-112714082D01*
X142403601Y-112637782D01*
X142364105Y-112569373D01*
X142308250Y-112513518D01*
X142291033Y-112503578D01*
X143653770Y-112503578D01*
X143635879Y-112390618D01*
X143560484Y-112158579D01*
X143449723Y-111941200D01*
X143306316Y-111743818D01*
X143133804Y-111571306D01*
X142948595Y-111436743D01*
X142905930Y-111381413D01*
X142899951Y-111311799D01*
X142932557Y-111250004D01*
X142951399Y-111234129D01*
X143012187Y-111192489D01*
X143162956Y-111041720D01*
X143283454Y-110865815D01*
X143369577Y-110670763D01*
X143381740Y-110619046D01*
X143418392Y-110463218D01*
X143418393Y-110463213D01*
X143418394Y-110463208D01*
X143422494Y-110404129D01*
X143424545Y-110374593D01*
X143424545Y-108932562D01*
X143421811Y-108893180D01*
X143418394Y-108843948D01*
X143418392Y-108843942D01*
X143418392Y-108843937D01*
X143369579Y-108636401D01*
X143369577Y-108636395D01*
X143369577Y-108636393D01*
X143283454Y-108441341D01*
X143162956Y-108265436D01*
X143162955Y-108265435D01*
X143162951Y-108265430D01*
X143012192Y-108114671D01*
X143012186Y-108114666D01*
X142924234Y-108054418D01*
X142836282Y-107994169D01*
X142641230Y-107908046D01*
X142641228Y-107908045D01*
X142641227Y-107908045D01*
X142641221Y-107908043D01*
X142433685Y-107859230D01*
X142433669Y-107859228D01*
X142345061Y-107853078D01*
X142345057Y-107853078D01*
X140903033Y-107853078D01*
X140903029Y-107853078D01*
X140814420Y-107859228D01*
X140814404Y-107859230D01*
X140606868Y-107908043D01*
X140606862Y-107908045D01*
X140411806Y-107994170D01*
X140235903Y-108114666D01*
X140235897Y-108114671D01*
X140085138Y-108265430D01*
X140085133Y-108265436D01*
X139964637Y-108441339D01*
X139878512Y-108636395D01*
X139878510Y-108636401D01*
X139829697Y-108843937D01*
X139829695Y-108843953D01*
X139823545Y-108932562D01*
X139823545Y-110374593D01*
X139829695Y-110463202D01*
X139829697Y-110463218D01*
X139878510Y-110670754D01*
X139878512Y-110670759D01*
X139878513Y-110670763D01*
X139964636Y-110865815D01*
X139964640Y-110865821D01*
X140085133Y-111041719D01*
X140085138Y-111041725D01*
X140235897Y-111192484D01*
X140235902Y-111192488D01*
X140235903Y-111192489D01*
X140235904Y-111192490D01*
X140235907Y-111192492D01*
X140287291Y-111227690D01*
X140296682Y-111234124D01*
X140296684Y-111234125D01*
X140340867Y-111288251D01*
X140348774Y-111357671D01*
X140317894Y-111420347D01*
X140299494Y-111436743D01*
X140114286Y-111571305D01*
X139941773Y-111743818D01*
X139798366Y-111941200D01*
X139687605Y-112158579D01*
X139612210Y-112390618D01*
X139594320Y-112503578D01*
X133493773Y-112503578D01*
X133475883Y-112390623D01*
X133400488Y-112158584D01*
X133289727Y-111941205D01*
X133146320Y-111743823D01*
X132973808Y-111571311D01*
X132788599Y-111436748D01*
X132745934Y-111381418D01*
X132739955Y-111311804D01*
X132772561Y-111250009D01*
X132791403Y-111234134D01*
X132852191Y-111192494D01*
X133002960Y-111041725D01*
X133123458Y-110865820D01*
X133209581Y-110670768D01*
X133226814Y-110597500D01*
X133258396Y-110463223D01*
X133258397Y-110463218D01*
X133258398Y-110463213D01*
X133264549Y-110374595D01*
X133264549Y-108932571D01*
X133264548Y-108932562D01*
X133258398Y-108843958D01*
X133258398Y-108843953D01*
X133258396Y-108843947D01*
X133258396Y-108843942D01*
X133209583Y-108636406D01*
X133209582Y-108636404D01*
X133209581Y-108636398D01*
X133123458Y-108441346D01*
X133002960Y-108265441D01*
X133002955Y-108265435D01*
X132852196Y-108114676D01*
X132852190Y-108114671D01*
X132676287Y-107994175D01*
X132676288Y-107994175D01*
X132676286Y-107994174D01*
X132481234Y-107908051D01*
X132481232Y-107908050D01*
X132481231Y-107908050D01*
X132481225Y-107908048D01*
X132273689Y-107859235D01*
X132273673Y-107859233D01*
X132185065Y-107853083D01*
X132185061Y-107853083D01*
X130743037Y-107853083D01*
X130743033Y-107853083D01*
X130654424Y-107859233D01*
X130654408Y-107859235D01*
X130446872Y-107908048D01*
X130446866Y-107908050D01*
X130446864Y-107908051D01*
X130251824Y-107994169D01*
X130251810Y-107994175D01*
X130075907Y-108114671D01*
X130075901Y-108114676D01*
X129925142Y-108265435D01*
X129925137Y-108265441D01*
X129804641Y-108441344D01*
X129718516Y-108636400D01*
X129718514Y-108636406D01*
X129669701Y-108843942D01*
X129669699Y-108843958D01*
X129663549Y-108932567D01*
X129663549Y-110374598D01*
X129669699Y-110463207D01*
X129669701Y-110463223D01*
X129718514Y-110670759D01*
X129718516Y-110670765D01*
X129718517Y-110670768D01*
X129804640Y-110865820D01*
X129864889Y-110953772D01*
X129925137Y-111041724D01*
X129925142Y-111041730D01*
X130075901Y-111192489D01*
X130075905Y-111192492D01*
X130075907Y-111192494D01*
X130136686Y-111234129D01*
X130136688Y-111234130D01*
X130180871Y-111288256D01*
X130188778Y-111357676D01*
X130157898Y-111420352D01*
X130139498Y-111436748D01*
X129954290Y-111571310D01*
X129781777Y-111743823D01*
X129638370Y-111941205D01*
X129527609Y-112158584D01*
X129452214Y-112390623D01*
X129434324Y-112503583D01*
X127500500Y-112503583D01*
X127500500Y-98279587D01*
X129434324Y-98279587D01*
X130797061Y-98279587D01*
X130779844Y-98289527D01*
X130723989Y-98345382D01*
X130684493Y-98413791D01*
X130664049Y-98490091D01*
X130664049Y-98569083D01*
X130684493Y-98645383D01*
X130723989Y-98713792D01*
X130779844Y-98769647D01*
X130797061Y-98779587D01*
X129434324Y-98779587D01*
X129452214Y-98892546D01*
X129527609Y-99124585D01*
X129638370Y-99341964D01*
X129781777Y-99539346D01*
X129954289Y-99711858D01*
X129954295Y-99711863D01*
X129966822Y-99720965D01*
X130009486Y-99776295D01*
X130015464Y-99845909D01*
X129982856Y-99907703D01*
X129981616Y-99908962D01*
X129925137Y-99965441D01*
X129804641Y-100141344D01*
X129718516Y-100336400D01*
X129718514Y-100336406D01*
X129669701Y-100543942D01*
X129669699Y-100543958D01*
X129663549Y-100632567D01*
X129663549Y-102074598D01*
X129669699Y-102163207D01*
X129669701Y-102163223D01*
X129718514Y-102370759D01*
X129718516Y-102370765D01*
X129718517Y-102370768D01*
X129804640Y-102565820D01*
X129804641Y-102565821D01*
X129925137Y-102741724D01*
X129925142Y-102741730D01*
X130075901Y-102892489D01*
X130075907Y-102892494D01*
X130251812Y-103012992D01*
X130446864Y-103099115D01*
X130446870Y-103099116D01*
X130446872Y-103099117D01*
X130654408Y-103147930D01*
X130654413Y-103147930D01*
X130654419Y-103147932D01*
X130703651Y-103151349D01*
X130743033Y-103154083D01*
X130743037Y-103154083D01*
X132185065Y-103154083D01*
X132220508Y-103151622D01*
X132273679Y-103147932D01*
X132273685Y-103147930D01*
X132273689Y-103147930D01*
X132481225Y-103099117D01*
X132481223Y-103099117D01*
X132481234Y-103099115D01*
X132676286Y-103012992D01*
X132852191Y-102892494D01*
X133002960Y-102741725D01*
X133123458Y-102565820D01*
X133209581Y-102370768D01*
X133258398Y-102163213D01*
X133264549Y-102074595D01*
X133264549Y-100632571D01*
X133264548Y-100632562D01*
X133258398Y-100543958D01*
X133258398Y-100543953D01*
X133258396Y-100543947D01*
X133258396Y-100543942D01*
X133209583Y-100336406D01*
X133209582Y-100336404D01*
X133209581Y-100336398D01*
X133123458Y-100141346D01*
X133002960Y-99965441D01*
X133002955Y-99965435D01*
X132946482Y-99908962D01*
X132912997Y-99847639D01*
X132917981Y-99777947D01*
X132959853Y-99722014D01*
X132961282Y-99720960D01*
X132973802Y-99711864D01*
X133146320Y-99539346D01*
X133289727Y-99341964D01*
X133400488Y-99124585D01*
X133475883Y-98892546D01*
X133493774Y-98779587D01*
X132131037Y-98779587D01*
X132148254Y-98769647D01*
X132204109Y-98713792D01*
X132243605Y-98645383D01*
X132264049Y-98569083D01*
X132264049Y-98490091D01*
X132243605Y-98413791D01*
X132204109Y-98345382D01*
X132148254Y-98289527D01*
X132131060Y-98279600D01*
X139600675Y-98279600D01*
X140963412Y-98279600D01*
X140946195Y-98289540D01*
X140890340Y-98345395D01*
X140850844Y-98413804D01*
X140830400Y-98490104D01*
X140830400Y-98569096D01*
X140850844Y-98645396D01*
X140890340Y-98713805D01*
X140946195Y-98769660D01*
X140963412Y-98779600D01*
X139600675Y-98779600D01*
X139618565Y-98892559D01*
X139693960Y-99124598D01*
X139804721Y-99341977D01*
X139948128Y-99539359D01*
X140120643Y-99711874D01*
X140129481Y-99718295D01*
X140172146Y-99773625D01*
X140178124Y-99843239D01*
X140145517Y-99905033D01*
X140144276Y-99906293D01*
X140085133Y-99965436D01*
X139964637Y-100141339D01*
X139878512Y-100336395D01*
X139878510Y-100336401D01*
X139829697Y-100543937D01*
X139829695Y-100543953D01*
X139823545Y-100632562D01*
X139823545Y-102074593D01*
X139829695Y-102163202D01*
X139829697Y-102163218D01*
X139878510Y-102370754D01*
X139878512Y-102370759D01*
X139878513Y-102370763D01*
X139964636Y-102565815D01*
X139964640Y-102565821D01*
X140085133Y-102741719D01*
X140085138Y-102741725D01*
X140235897Y-102892484D01*
X140235903Y-102892489D01*
X140411808Y-103012987D01*
X140606860Y-103099110D01*
X140606866Y-103099111D01*
X140606868Y-103099112D01*
X140814404Y-103147925D01*
X140814409Y-103147925D01*
X140814415Y-103147927D01*
X140863647Y-103151344D01*
X140903029Y-103154078D01*
X140903033Y-103154078D01*
X142345061Y-103154078D01*
X142380504Y-103151617D01*
X142433675Y-103147927D01*
X142433681Y-103147925D01*
X142433685Y-103147925D01*
X142641200Y-103099117D01*
X142641230Y-103099110D01*
X142836282Y-103012987D01*
X143012187Y-102892489D01*
X143162956Y-102741720D01*
X143283454Y-102565815D01*
X143369577Y-102370763D01*
X143381740Y-102319046D01*
X143418392Y-102163218D01*
X143418393Y-102163213D01*
X143418394Y-102163208D01*
X143422494Y-102104129D01*
X143424545Y-102074593D01*
X143424545Y-100632562D01*
X143421811Y-100593180D01*
X143418394Y-100543948D01*
X143418392Y-100543942D01*
X143418392Y-100543937D01*
X143369579Y-100336401D01*
X143369577Y-100336395D01*
X143369577Y-100336393D01*
X143283454Y-100141341D01*
X143162956Y-99965436D01*
X143109163Y-99911643D01*
X143075677Y-99850320D01*
X143080661Y-99780628D01*
X143122532Y-99724695D01*
X143123962Y-99723640D01*
X143140153Y-99711877D01*
X143312671Y-99539359D01*
X143456078Y-99341977D01*
X143566839Y-99124598D01*
X143642234Y-98892559D01*
X143660125Y-98779600D01*
X142297388Y-98779600D01*
X142314605Y-98769660D01*
X142370460Y-98713805D01*
X142409956Y-98645396D01*
X142430400Y-98569096D01*
X142430400Y-98490104D01*
X142409956Y-98413804D01*
X142370460Y-98345395D01*
X142314605Y-98289540D01*
X142297388Y-98279600D01*
X143660125Y-98279600D01*
X143642234Y-98166640D01*
X143566839Y-97934601D01*
X143456078Y-97717222D01*
X143312671Y-97519840D01*
X143140159Y-97347328D01*
X142954950Y-97212765D01*
X142912285Y-97157435D01*
X142906306Y-97087821D01*
X142938912Y-97026026D01*
X142957754Y-97010151D01*
X143018542Y-96968511D01*
X143169311Y-96817742D01*
X143289809Y-96641837D01*
X143375932Y-96446785D01*
X143424749Y-96239230D01*
X143430900Y-96150612D01*
X143430900Y-94708588D01*
X143424749Y-94619970D01*
X143424747Y-94619962D01*
X143424747Y-94619959D01*
X143375934Y-94412423D01*
X143375932Y-94412417D01*
X143375932Y-94412415D01*
X143289809Y-94217363D01*
X143169311Y-94041458D01*
X143169306Y-94041452D01*
X143018547Y-93890693D01*
X143018541Y-93890688D01*
X142842638Y-93770192D01*
X142842639Y-93770192D01*
X142842637Y-93770191D01*
X142647585Y-93684068D01*
X142647583Y-93684067D01*
X142647582Y-93684067D01*
X142647576Y-93684065D01*
X142440040Y-93635252D01*
X142440024Y-93635250D01*
X142351416Y-93629100D01*
X142351412Y-93629100D01*
X140909388Y-93629100D01*
X140909384Y-93629100D01*
X140820775Y-93635250D01*
X140820759Y-93635252D01*
X140613223Y-93684065D01*
X140613217Y-93684067D01*
X140613215Y-93684068D01*
X140418193Y-93770178D01*
X140418161Y-93770192D01*
X140242258Y-93890688D01*
X140242252Y-93890693D01*
X140091493Y-94041452D01*
X140091488Y-94041458D01*
X139970992Y-94217361D01*
X139884867Y-94412417D01*
X139884865Y-94412423D01*
X139836052Y-94619959D01*
X139836050Y-94619975D01*
X139829900Y-94708584D01*
X139829900Y-96150615D01*
X139836050Y-96239224D01*
X139836052Y-96239240D01*
X139884865Y-96446776D01*
X139884867Y-96446782D01*
X139884868Y-96446785D01*
X139970991Y-96641837D01*
X139970992Y-96641838D01*
X140091488Y-96817741D01*
X140091493Y-96817747D01*
X140242252Y-96968506D01*
X140242257Y-96968510D01*
X140242258Y-96968511D01*
X140303037Y-97010146D01*
X140303039Y-97010147D01*
X140347222Y-97064273D01*
X140355129Y-97133693D01*
X140324249Y-97196369D01*
X140305849Y-97212765D01*
X140120641Y-97347327D01*
X139948128Y-97519840D01*
X139804721Y-97717222D01*
X139693960Y-97934601D01*
X139618565Y-98166640D01*
X139600675Y-98279600D01*
X132131060Y-98279600D01*
X132131037Y-98279587D01*
X133493774Y-98279587D01*
X133475883Y-98166627D01*
X133400488Y-97934588D01*
X133289727Y-97717209D01*
X133146320Y-97519827D01*
X132973808Y-97347315D01*
X132788599Y-97212752D01*
X132745934Y-97157422D01*
X132739955Y-97087808D01*
X132772561Y-97026013D01*
X132791403Y-97010138D01*
X132852191Y-96968498D01*
X133002960Y-96817729D01*
X133123458Y-96641824D01*
X133209581Y-96446772D01*
X133258398Y-96239217D01*
X133264549Y-96150599D01*
X133264549Y-94708575D01*
X133258398Y-94619957D01*
X133258396Y-94619951D01*
X133258396Y-94619946D01*
X133209583Y-94412410D01*
X133209581Y-94412404D01*
X133209581Y-94412402D01*
X133123458Y-94217350D01*
X133002960Y-94041445D01*
X133002955Y-94041439D01*
X132852196Y-93890680D01*
X132852190Y-93890675D01*
X132676287Y-93770179D01*
X132676288Y-93770179D01*
X132676286Y-93770178D01*
X132481234Y-93684055D01*
X132481232Y-93684054D01*
X132481231Y-93684054D01*
X132481225Y-93684052D01*
X132273689Y-93635239D01*
X132273673Y-93635237D01*
X132185065Y-93629087D01*
X132185061Y-93629087D01*
X130743037Y-93629087D01*
X130743033Y-93629087D01*
X130654424Y-93635237D01*
X130654408Y-93635239D01*
X130446872Y-93684052D01*
X130446866Y-93684054D01*
X130251810Y-93770179D01*
X130075907Y-93890675D01*
X130075901Y-93890680D01*
X129925142Y-94041439D01*
X129925137Y-94041445D01*
X129804641Y-94217348D01*
X129718516Y-94412404D01*
X129718514Y-94412410D01*
X129669701Y-94619946D01*
X129669699Y-94619962D01*
X129663549Y-94708571D01*
X129663549Y-96150602D01*
X129669699Y-96239211D01*
X129669701Y-96239227D01*
X129718514Y-96446763D01*
X129718516Y-96446769D01*
X129718517Y-96446772D01*
X129804640Y-96641824D01*
X129804641Y-96641825D01*
X129925137Y-96817728D01*
X129925142Y-96817734D01*
X130075901Y-96968493D01*
X130075906Y-96968497D01*
X130075907Y-96968498D01*
X130075908Y-96968499D01*
X130075911Y-96968501D01*
X130075926Y-96968511D01*
X130136686Y-97010133D01*
X130136688Y-97010134D01*
X130180871Y-97064260D01*
X130188778Y-97133680D01*
X130157898Y-97196356D01*
X130139498Y-97212752D01*
X129954290Y-97347314D01*
X129781777Y-97519827D01*
X129638370Y-97717209D01*
X129527609Y-97934588D01*
X129452214Y-98166627D01*
X129434324Y-98279587D01*
X127500500Y-98279587D01*
X127500500Y-84055587D01*
X129434324Y-84055587D01*
X130797061Y-84055587D01*
X130779844Y-84065527D01*
X130723989Y-84121382D01*
X130684493Y-84189791D01*
X130664049Y-84266091D01*
X130664049Y-84345083D01*
X130684493Y-84421383D01*
X130723989Y-84489792D01*
X130779844Y-84545647D01*
X130797061Y-84555587D01*
X129434324Y-84555587D01*
X129452214Y-84668546D01*
X129527609Y-84900585D01*
X129638370Y-85117964D01*
X129781777Y-85315346D01*
X129954290Y-85487859D01*
X129966820Y-85496962D01*
X130009487Y-85552291D01*
X130015468Y-85621904D01*
X129982863Y-85683700D01*
X129981619Y-85684963D01*
X129925137Y-85741445D01*
X129804641Y-85917348D01*
X129718516Y-86112404D01*
X129718514Y-86112410D01*
X129669701Y-86319946D01*
X129669699Y-86319962D01*
X129663549Y-86408571D01*
X129663549Y-87850602D01*
X129669699Y-87939211D01*
X129669701Y-87939227D01*
X129718514Y-88146763D01*
X129718516Y-88146769D01*
X129718517Y-88146772D01*
X129804640Y-88341824D01*
X129804641Y-88341825D01*
X129925137Y-88517728D01*
X129925142Y-88517734D01*
X130075901Y-88668493D01*
X130075907Y-88668498D01*
X130251812Y-88788996D01*
X130446864Y-88875119D01*
X130446870Y-88875120D01*
X130446872Y-88875121D01*
X130654408Y-88923934D01*
X130654413Y-88923934D01*
X130654419Y-88923936D01*
X130703651Y-88927353D01*
X130743033Y-88930087D01*
X130743037Y-88930087D01*
X132185065Y-88930087D01*
X132220508Y-88927626D01*
X132273679Y-88923936D01*
X132273685Y-88923934D01*
X132273689Y-88923934D01*
X132481170Y-88875134D01*
X132481234Y-88875119D01*
X132676286Y-88788996D01*
X132852191Y-88668498D01*
X133002960Y-88517729D01*
X133123458Y-88341824D01*
X133209581Y-88146772D01*
X133258398Y-87939217D01*
X133264549Y-87850599D01*
X133264549Y-86408575D01*
X133258398Y-86319957D01*
X133258396Y-86319951D01*
X133258396Y-86319946D01*
X133209583Y-86112410D01*
X133209581Y-86112404D01*
X133209581Y-86112402D01*
X133123458Y-85917350D01*
X133002960Y-85741445D01*
X133002955Y-85741439D01*
X132946480Y-85684964D01*
X132912995Y-85623641D01*
X132917979Y-85553949D01*
X132959851Y-85498016D01*
X132961278Y-85496963D01*
X132973804Y-85487862D01*
X133146320Y-85315346D01*
X133289727Y-85117964D01*
X133400488Y-84900585D01*
X133475883Y-84668546D01*
X133493774Y-84555587D01*
X132131037Y-84555587D01*
X132148254Y-84545647D01*
X132204109Y-84489792D01*
X132243605Y-84421383D01*
X132264049Y-84345083D01*
X132264049Y-84266091D01*
X132243605Y-84189791D01*
X132204109Y-84121382D01*
X132148254Y-84065527D01*
X132131037Y-84055587D01*
X133493774Y-84055587D01*
X139594320Y-84055587D01*
X140957057Y-84055587D01*
X140939840Y-84065527D01*
X140883985Y-84121382D01*
X140844489Y-84189791D01*
X140824045Y-84266091D01*
X140824045Y-84345083D01*
X140844489Y-84421383D01*
X140883985Y-84489792D01*
X140939840Y-84545647D01*
X140957057Y-84555587D01*
X139594320Y-84555587D01*
X139612210Y-84668546D01*
X139687605Y-84900585D01*
X139798366Y-85117964D01*
X139941773Y-85315346D01*
X140114285Y-85487858D01*
X140114291Y-85487863D01*
X140130506Y-85499644D01*
X140173172Y-85554973D01*
X140179151Y-85624587D01*
X140146546Y-85686382D01*
X140145303Y-85687642D01*
X140091493Y-85741452D01*
X140091488Y-85741458D01*
X139970992Y-85917361D01*
X139884867Y-86112417D01*
X139884865Y-86112423D01*
X139836052Y-86319959D01*
X139836050Y-86319975D01*
X139829900Y-86408584D01*
X139829900Y-87850615D01*
X139836050Y-87939224D01*
X139836052Y-87939240D01*
X139884865Y-88146776D01*
X139884867Y-88146782D01*
X139884868Y-88146785D01*
X139970991Y-88341837D01*
X139970992Y-88341838D01*
X140091488Y-88517741D01*
X140091493Y-88517747D01*
X140242252Y-88668506D01*
X140242258Y-88668511D01*
X140418163Y-88789009D01*
X140613215Y-88875132D01*
X140613221Y-88875133D01*
X140613223Y-88875134D01*
X140820759Y-88923947D01*
X140820764Y-88923947D01*
X140820770Y-88923949D01*
X140870002Y-88927366D01*
X140909384Y-88930100D01*
X140909388Y-88930100D01*
X142351416Y-88930100D01*
X142386859Y-88927639D01*
X142440030Y-88923949D01*
X142440036Y-88923947D01*
X142440040Y-88923947D01*
X142647576Y-88875134D01*
X142647574Y-88875134D01*
X142647585Y-88875132D01*
X142842637Y-88789009D01*
X143018542Y-88668511D01*
X143169311Y-88517742D01*
X143289809Y-88341837D01*
X143375932Y-88146785D01*
X143424749Y-87939230D01*
X143430900Y-87850612D01*
X143430900Y-86408588D01*
X143424749Y-86319970D01*
X143424747Y-86319962D01*
X143424747Y-86319959D01*
X143375934Y-86112423D01*
X143375932Y-86112417D01*
X143375932Y-86112415D01*
X143289809Y-85917363D01*
X143169311Y-85741458D01*
X143169306Y-85741452D01*
X143110149Y-85682295D01*
X143076664Y-85620972D01*
X143081648Y-85551280D01*
X143123520Y-85495347D01*
X143124950Y-85494292D01*
X143133800Y-85487862D01*
X143306316Y-85315346D01*
X143449723Y-85117964D01*
X143560484Y-84900585D01*
X143635879Y-84668546D01*
X143653770Y-84555587D01*
X142291033Y-84555587D01*
X142308250Y-84545647D01*
X142364105Y-84489792D01*
X142403601Y-84421383D01*
X142424045Y-84345083D01*
X142424045Y-84266091D01*
X142403601Y-84189791D01*
X142364105Y-84121382D01*
X142308250Y-84065527D01*
X142291033Y-84055587D01*
X143653770Y-84055587D01*
X143635879Y-83942627D01*
X143560484Y-83710588D01*
X143449723Y-83493209D01*
X143306316Y-83295827D01*
X143133804Y-83123315D01*
X142948595Y-82988752D01*
X142905930Y-82933422D01*
X142899951Y-82863808D01*
X142932557Y-82802013D01*
X142951399Y-82786138D01*
X143012187Y-82744498D01*
X143162956Y-82593729D01*
X143283454Y-82417824D01*
X143369577Y-82222772D01*
X143418394Y-82015217D01*
X143424545Y-81926599D01*
X143424545Y-80484575D01*
X143418394Y-80395957D01*
X143418392Y-80395951D01*
X143418392Y-80395946D01*
X143369579Y-80188410D01*
X143369577Y-80188404D01*
X143369577Y-80188402D01*
X143283454Y-79993350D01*
X143162956Y-79817445D01*
X143162951Y-79817439D01*
X143012192Y-79666680D01*
X143012186Y-79666675D01*
X142836283Y-79546179D01*
X142836284Y-79546179D01*
X142836282Y-79546178D01*
X142641230Y-79460055D01*
X142641228Y-79460054D01*
X142641227Y-79460054D01*
X142641221Y-79460052D01*
X142433685Y-79411239D01*
X142433669Y-79411237D01*
X142345061Y-79405087D01*
X142345057Y-79405087D01*
X140903033Y-79405087D01*
X140903029Y-79405087D01*
X140814420Y-79411237D01*
X140814404Y-79411239D01*
X140606868Y-79460052D01*
X140606862Y-79460054D01*
X140411806Y-79546179D01*
X140235903Y-79666675D01*
X140235897Y-79666680D01*
X140085138Y-79817439D01*
X140085133Y-79817445D01*
X139964637Y-79993348D01*
X139878512Y-80188404D01*
X139878510Y-80188410D01*
X139829697Y-80395946D01*
X139829695Y-80395962D01*
X139823545Y-80484571D01*
X139823545Y-81926602D01*
X139829695Y-82015211D01*
X139829697Y-82015227D01*
X139878510Y-82222763D01*
X139878512Y-82222769D01*
X139878513Y-82222772D01*
X139964636Y-82417824D01*
X139964637Y-82417825D01*
X140085133Y-82593728D01*
X140085138Y-82593734D01*
X140235897Y-82744493D01*
X140235902Y-82744497D01*
X140235903Y-82744498D01*
X140296682Y-82786133D01*
X140296684Y-82786134D01*
X140340867Y-82840260D01*
X140348774Y-82909680D01*
X140317894Y-82972356D01*
X140299494Y-82988752D01*
X140114286Y-83123314D01*
X139941773Y-83295827D01*
X139798366Y-83493209D01*
X139687605Y-83710588D01*
X139612210Y-83942627D01*
X139594320Y-84055587D01*
X133493774Y-84055587D01*
X133475883Y-83942627D01*
X133400488Y-83710588D01*
X133289727Y-83493209D01*
X133146320Y-83295827D01*
X132973808Y-83123315D01*
X132788599Y-82988752D01*
X132745934Y-82933422D01*
X132739955Y-82863808D01*
X132772561Y-82802013D01*
X132791403Y-82786138D01*
X132852191Y-82744498D01*
X133002960Y-82593729D01*
X133123458Y-82417824D01*
X133209581Y-82222772D01*
X133258398Y-82015217D01*
X133264549Y-81926599D01*
X133264549Y-80484575D01*
X133258398Y-80395957D01*
X133258396Y-80395951D01*
X133258396Y-80395946D01*
X133209583Y-80188410D01*
X133209581Y-80188404D01*
X133209581Y-80188402D01*
X133123458Y-79993350D01*
X133002960Y-79817445D01*
X133002955Y-79817439D01*
X132852196Y-79666680D01*
X132852190Y-79666675D01*
X132676287Y-79546179D01*
X132676288Y-79546179D01*
X132676286Y-79546178D01*
X132481234Y-79460055D01*
X132481232Y-79460054D01*
X132481231Y-79460054D01*
X132481225Y-79460052D01*
X132273689Y-79411239D01*
X132273673Y-79411237D01*
X132185065Y-79405087D01*
X132185061Y-79405087D01*
X130743037Y-79405087D01*
X130743033Y-79405087D01*
X130654424Y-79411237D01*
X130654408Y-79411239D01*
X130446872Y-79460052D01*
X130446866Y-79460054D01*
X130251810Y-79546179D01*
X130075907Y-79666675D01*
X130075901Y-79666680D01*
X129925142Y-79817439D01*
X129925137Y-79817445D01*
X129804641Y-79993348D01*
X129718516Y-80188404D01*
X129718514Y-80188410D01*
X129669701Y-80395946D01*
X129669699Y-80395962D01*
X129663549Y-80484571D01*
X129663549Y-81926602D01*
X129669699Y-82015211D01*
X129669701Y-82015227D01*
X129718514Y-82222763D01*
X129718516Y-82222769D01*
X129718517Y-82222772D01*
X129804640Y-82417824D01*
X129804641Y-82417825D01*
X129925137Y-82593728D01*
X129925142Y-82593734D01*
X130075901Y-82744493D01*
X130075906Y-82744497D01*
X130075907Y-82744498D01*
X130136686Y-82786133D01*
X130136688Y-82786134D01*
X130180871Y-82840260D01*
X130188778Y-82909680D01*
X130157898Y-82972356D01*
X130139498Y-82988752D01*
X129954290Y-83123314D01*
X129781777Y-83295827D01*
X129638370Y-83493209D01*
X129527609Y-83710588D01*
X129452214Y-83942627D01*
X129434324Y-84055587D01*
X127500500Y-84055587D01*
X127500500Y-69831597D01*
X129434324Y-69831597D01*
X130797061Y-69831597D01*
X130779844Y-69841537D01*
X130723989Y-69897392D01*
X130684493Y-69965801D01*
X130664049Y-70042101D01*
X130664049Y-70121093D01*
X130684493Y-70197393D01*
X130723989Y-70265802D01*
X130779844Y-70321657D01*
X130797061Y-70331597D01*
X129434324Y-70331597D01*
X129452214Y-70444556D01*
X129527609Y-70676595D01*
X129638370Y-70893974D01*
X129781777Y-71091356D01*
X129954292Y-71263871D01*
X129966815Y-71272969D01*
X130009482Y-71328299D01*
X130015461Y-71397912D01*
X129982856Y-71459707D01*
X129981613Y-71460969D01*
X129925137Y-71517445D01*
X129804641Y-71693348D01*
X129718516Y-71888404D01*
X129718514Y-71888410D01*
X129669701Y-72095946D01*
X129669699Y-72095962D01*
X129663549Y-72184571D01*
X129663549Y-73626602D01*
X129669699Y-73715211D01*
X129669701Y-73715227D01*
X129718514Y-73922763D01*
X129718516Y-73922769D01*
X129718517Y-73922772D01*
X129804640Y-74117824D01*
X129821520Y-74142465D01*
X129925137Y-74293728D01*
X129925142Y-74293734D01*
X130075901Y-74444493D01*
X130075907Y-74444498D01*
X130251812Y-74564996D01*
X130446864Y-74651119D01*
X130446870Y-74651120D01*
X130446872Y-74651121D01*
X130654408Y-74699934D01*
X130654413Y-74699934D01*
X130654419Y-74699936D01*
X130703651Y-74703353D01*
X130743033Y-74706087D01*
X130743037Y-74706087D01*
X132185065Y-74706087D01*
X132220508Y-74703626D01*
X132273679Y-74699936D01*
X132273685Y-74699934D01*
X132273689Y-74699934D01*
X132429517Y-74663282D01*
X132481234Y-74651119D01*
X132676286Y-74564996D01*
X132852191Y-74444498D01*
X133002960Y-74293729D01*
X133123458Y-74117824D01*
X133209581Y-73922772D01*
X133258398Y-73715217D01*
X133264549Y-73626599D01*
X133264549Y-72184575D01*
X133258398Y-72095957D01*
X133258396Y-72095951D01*
X133258396Y-72095946D01*
X133209583Y-71888410D01*
X133209581Y-71888404D01*
X133209581Y-71888402D01*
X133123458Y-71693350D01*
X133002960Y-71517445D01*
X132946483Y-71460968D01*
X132913000Y-71399648D01*
X132917984Y-71329956D01*
X132959855Y-71274022D01*
X132961285Y-71272968D01*
X132973802Y-71263874D01*
X133146320Y-71091356D01*
X133289727Y-70893974D01*
X133400488Y-70676595D01*
X133475883Y-70444556D01*
X133493774Y-70331597D01*
X132131037Y-70331597D01*
X132148254Y-70321657D01*
X132204109Y-70265802D01*
X132243605Y-70197393D01*
X132264049Y-70121093D01*
X132264049Y-70042101D01*
X132243605Y-69965801D01*
X132204109Y-69897392D01*
X132148254Y-69841537D01*
X132131037Y-69831597D01*
X133493774Y-69831597D01*
X139594320Y-69831597D01*
X140957057Y-69831597D01*
X140939840Y-69841537D01*
X140883985Y-69897392D01*
X140844489Y-69965801D01*
X140824045Y-70042101D01*
X140824045Y-70121093D01*
X140844489Y-70197393D01*
X140883985Y-70265802D01*
X140939840Y-70321657D01*
X140957057Y-70331597D01*
X139594320Y-70331597D01*
X139612210Y-70444556D01*
X139687605Y-70676595D01*
X139798366Y-70893974D01*
X139941773Y-71091356D01*
X140114288Y-71263871D01*
X140126811Y-71272969D01*
X140169478Y-71328299D01*
X140175457Y-71397912D01*
X140142852Y-71459707D01*
X140141609Y-71460969D01*
X140085133Y-71517445D01*
X139964637Y-71693348D01*
X139878512Y-71888404D01*
X139878510Y-71888410D01*
X139829697Y-72095946D01*
X139829695Y-72095962D01*
X139823545Y-72184571D01*
X139823545Y-73626602D01*
X139829695Y-73715211D01*
X139829697Y-73715227D01*
X139878510Y-73922763D01*
X139878512Y-73922769D01*
X139878513Y-73922772D01*
X139964636Y-74117824D01*
X139981516Y-74142465D01*
X140085133Y-74293728D01*
X140085138Y-74293734D01*
X140235897Y-74444493D01*
X140235903Y-74444498D01*
X140411808Y-74564996D01*
X140606860Y-74651119D01*
X140606866Y-74651120D01*
X140606868Y-74651121D01*
X140814404Y-74699934D01*
X140814409Y-74699934D01*
X140814415Y-74699936D01*
X140863647Y-74703353D01*
X140903029Y-74706087D01*
X140903033Y-74706087D01*
X142345061Y-74706087D01*
X142380504Y-74703626D01*
X142433675Y-74699936D01*
X142433681Y-74699934D01*
X142433685Y-74699934D01*
X142589513Y-74663282D01*
X142641230Y-74651119D01*
X142836282Y-74564996D01*
X143012187Y-74444498D01*
X143162956Y-74293729D01*
X143283454Y-74117824D01*
X143369577Y-73922772D01*
X143418394Y-73715217D01*
X143424545Y-73626599D01*
X143424545Y-72184575D01*
X143418394Y-72095957D01*
X143418392Y-72095951D01*
X143418392Y-72095946D01*
X143369579Y-71888410D01*
X143369577Y-71888404D01*
X143369577Y-71888402D01*
X143283454Y-71693350D01*
X143162956Y-71517445D01*
X143106479Y-71460968D01*
X143072996Y-71399648D01*
X143077980Y-71329956D01*
X143119851Y-71274022D01*
X143121281Y-71272968D01*
X143133798Y-71263874D01*
X143306316Y-71091356D01*
X143449723Y-70893974D01*
X143560484Y-70676595D01*
X143635879Y-70444556D01*
X143653770Y-70331597D01*
X142291033Y-70331597D01*
X142308250Y-70321657D01*
X142364105Y-70265802D01*
X142403601Y-70197393D01*
X142424045Y-70121093D01*
X142424045Y-70042101D01*
X142403601Y-69965801D01*
X142364105Y-69897392D01*
X142308250Y-69841537D01*
X142291033Y-69831597D01*
X143653770Y-69831597D01*
X143635879Y-69718637D01*
X143560484Y-69486598D01*
X143449723Y-69269219D01*
X143306316Y-69071837D01*
X143133804Y-68899325D01*
X142948595Y-68764762D01*
X142905930Y-68709432D01*
X142899951Y-68639818D01*
X142932557Y-68578023D01*
X142951399Y-68562148D01*
X143012187Y-68520508D01*
X143162956Y-68369739D01*
X143283454Y-68193834D01*
X143369577Y-67998782D01*
X143418394Y-67791227D01*
X143424545Y-67702609D01*
X143424545Y-66260585D01*
X143418394Y-66171967D01*
X143418392Y-66171961D01*
X143418392Y-66171956D01*
X143369579Y-65964420D01*
X143369577Y-65964414D01*
X143369577Y-65964412D01*
X143283454Y-65769360D01*
X143162956Y-65593455D01*
X143162951Y-65593449D01*
X143012192Y-65442690D01*
X143012186Y-65442685D01*
X142836283Y-65322189D01*
X142836284Y-65322189D01*
X142836282Y-65322188D01*
X142641230Y-65236065D01*
X142641228Y-65236064D01*
X142641227Y-65236064D01*
X142641221Y-65236062D01*
X142433685Y-65187249D01*
X142433669Y-65187247D01*
X142345061Y-65181097D01*
X142345057Y-65181097D01*
X140903033Y-65181097D01*
X140903029Y-65181097D01*
X140814420Y-65187247D01*
X140814404Y-65187249D01*
X140606868Y-65236062D01*
X140606862Y-65236064D01*
X140411806Y-65322189D01*
X140235903Y-65442685D01*
X140235897Y-65442690D01*
X140085138Y-65593449D01*
X140085133Y-65593455D01*
X139964637Y-65769358D01*
X139878512Y-65964414D01*
X139878510Y-65964420D01*
X139829697Y-66171956D01*
X139829695Y-66171972D01*
X139823545Y-66260581D01*
X139823545Y-67702612D01*
X139829695Y-67791221D01*
X139829697Y-67791237D01*
X139878510Y-67998773D01*
X139878512Y-67998779D01*
X139878513Y-67998782D01*
X139964636Y-68193834D01*
X139964637Y-68193835D01*
X140085133Y-68369738D01*
X140085138Y-68369744D01*
X140235897Y-68520503D01*
X140235902Y-68520507D01*
X140235903Y-68520508D01*
X140296682Y-68562143D01*
X140296684Y-68562144D01*
X140340867Y-68616270D01*
X140348774Y-68685690D01*
X140317894Y-68748366D01*
X140299494Y-68764762D01*
X140114286Y-68899324D01*
X139941773Y-69071837D01*
X139798366Y-69269219D01*
X139687605Y-69486598D01*
X139612210Y-69718637D01*
X139594320Y-69831597D01*
X133493774Y-69831597D01*
X133475883Y-69718637D01*
X133400488Y-69486598D01*
X133289727Y-69269219D01*
X133146320Y-69071837D01*
X132973808Y-68899325D01*
X132788599Y-68764762D01*
X132745934Y-68709432D01*
X132739955Y-68639818D01*
X132772561Y-68578023D01*
X132791403Y-68562148D01*
X132852191Y-68520508D01*
X133002960Y-68369739D01*
X133123458Y-68193834D01*
X133209581Y-67998782D01*
X133258398Y-67791227D01*
X133264549Y-67702609D01*
X133264549Y-66260585D01*
X133258398Y-66171967D01*
X133258396Y-66171961D01*
X133258396Y-66171956D01*
X133209583Y-65964420D01*
X133209581Y-65964414D01*
X133209581Y-65964412D01*
X133123458Y-65769360D01*
X133002960Y-65593455D01*
X133002955Y-65593449D01*
X132852196Y-65442690D01*
X132852190Y-65442685D01*
X132676287Y-65322189D01*
X132676288Y-65322189D01*
X132676286Y-65322188D01*
X132481234Y-65236065D01*
X132481232Y-65236064D01*
X132481231Y-65236064D01*
X132481225Y-65236062D01*
X132273689Y-65187249D01*
X132273673Y-65187247D01*
X132185065Y-65181097D01*
X132185061Y-65181097D01*
X130743037Y-65181097D01*
X130743033Y-65181097D01*
X130654424Y-65187247D01*
X130654408Y-65187249D01*
X130446872Y-65236062D01*
X130446866Y-65236064D01*
X130251810Y-65322189D01*
X130075907Y-65442685D01*
X130075901Y-65442690D01*
X129925142Y-65593449D01*
X129925137Y-65593455D01*
X129804641Y-65769358D01*
X129718516Y-65964414D01*
X129718514Y-65964420D01*
X129669701Y-66171956D01*
X129669699Y-66171972D01*
X129663549Y-66260581D01*
X129663549Y-67702612D01*
X129669699Y-67791221D01*
X129669701Y-67791237D01*
X129718514Y-67998773D01*
X129718516Y-67998779D01*
X129718517Y-67998782D01*
X129804640Y-68193834D01*
X129804641Y-68193835D01*
X129925137Y-68369738D01*
X129925142Y-68369744D01*
X130075901Y-68520503D01*
X130075906Y-68520507D01*
X130075907Y-68520508D01*
X130136686Y-68562143D01*
X130136688Y-68562144D01*
X130180871Y-68616270D01*
X130188778Y-68685690D01*
X130157898Y-68748366D01*
X130139498Y-68764762D01*
X129954290Y-68899324D01*
X129781777Y-69071837D01*
X129638370Y-69269219D01*
X129527609Y-69486598D01*
X129452214Y-69718637D01*
X129434324Y-69831597D01*
X127500500Y-69831597D01*
X127500500Y-57960581D01*
X129663549Y-57960581D01*
X129663549Y-59402612D01*
X129669699Y-59491221D01*
X129669701Y-59491237D01*
X129718514Y-59698773D01*
X129718516Y-59698779D01*
X129718517Y-59698782D01*
X129804640Y-59893834D01*
X129804641Y-59893835D01*
X129925137Y-60069738D01*
X129925142Y-60069744D01*
X130075901Y-60220503D01*
X130075907Y-60220508D01*
X130251812Y-60341006D01*
X130446864Y-60427129D01*
X130446870Y-60427130D01*
X130446872Y-60427131D01*
X130654408Y-60475944D01*
X130654413Y-60475944D01*
X130654419Y-60475946D01*
X130703651Y-60479363D01*
X130743033Y-60482097D01*
X130743037Y-60482097D01*
X132185065Y-60482097D01*
X132220508Y-60479636D01*
X132273679Y-60475946D01*
X132273685Y-60475944D01*
X132273689Y-60475944D01*
X132481225Y-60427131D01*
X132481223Y-60427131D01*
X132481234Y-60427129D01*
X132676286Y-60341006D01*
X132852191Y-60220508D01*
X133002960Y-60069739D01*
X133123458Y-59893834D01*
X133209581Y-59698782D01*
X133258398Y-59491227D01*
X133264549Y-59402609D01*
X133264549Y-57960585D01*
X133264549Y-57960581D01*
X139823545Y-57960581D01*
X139823545Y-59402612D01*
X139829695Y-59491221D01*
X139829697Y-59491237D01*
X139878510Y-59698773D01*
X139878512Y-59698779D01*
X139878513Y-59698782D01*
X139964636Y-59893834D01*
X139964637Y-59893835D01*
X140085133Y-60069738D01*
X140085138Y-60069744D01*
X140235897Y-60220503D01*
X140235903Y-60220508D01*
X140411808Y-60341006D01*
X140606860Y-60427129D01*
X140606866Y-60427130D01*
X140606868Y-60427131D01*
X140814404Y-60475944D01*
X140814409Y-60475944D01*
X140814415Y-60475946D01*
X140863647Y-60479363D01*
X140903029Y-60482097D01*
X140903033Y-60482097D01*
X142345061Y-60482097D01*
X142380504Y-60479636D01*
X142433675Y-60475946D01*
X142433681Y-60475944D01*
X142433685Y-60475944D01*
X142641221Y-60427131D01*
X142641219Y-60427131D01*
X142641230Y-60427129D01*
X142836282Y-60341006D01*
X143012187Y-60220508D01*
X143162956Y-60069739D01*
X143283454Y-59893834D01*
X143369577Y-59698782D01*
X143418394Y-59491227D01*
X143424545Y-59402609D01*
X143424545Y-57960585D01*
X143418394Y-57871967D01*
X143418392Y-57871961D01*
X143418392Y-57871956D01*
X143369579Y-57664420D01*
X143369577Y-57664414D01*
X143369577Y-57664412D01*
X143283454Y-57469360D01*
X143162956Y-57293455D01*
X143162951Y-57293449D01*
X143012192Y-57142690D01*
X143012186Y-57142685D01*
X142836283Y-57022189D01*
X142836284Y-57022189D01*
X142836282Y-57022188D01*
X142641230Y-56936065D01*
X142641228Y-56936064D01*
X142641227Y-56936064D01*
X142641221Y-56936062D01*
X142433685Y-56887249D01*
X142433669Y-56887247D01*
X142345061Y-56881097D01*
X142345057Y-56881097D01*
X140903033Y-56881097D01*
X140903029Y-56881097D01*
X140814420Y-56887247D01*
X140814404Y-56887249D01*
X140606868Y-56936062D01*
X140606862Y-56936064D01*
X140411806Y-57022189D01*
X140235903Y-57142685D01*
X140235897Y-57142690D01*
X140085138Y-57293449D01*
X140085133Y-57293455D01*
X139964637Y-57469358D01*
X139878512Y-57664414D01*
X139878510Y-57664420D01*
X139829697Y-57871956D01*
X139829695Y-57871972D01*
X139823545Y-57960581D01*
X133264549Y-57960581D01*
X133258398Y-57871967D01*
X133258396Y-57871961D01*
X133258396Y-57871956D01*
X133209583Y-57664420D01*
X133209581Y-57664414D01*
X133209581Y-57664412D01*
X133123458Y-57469360D01*
X133002960Y-57293455D01*
X133002955Y-57293449D01*
X132852196Y-57142690D01*
X132852190Y-57142685D01*
X132676287Y-57022189D01*
X132676288Y-57022189D01*
X132676286Y-57022188D01*
X132481234Y-56936065D01*
X132481232Y-56936064D01*
X132481231Y-56936064D01*
X132481225Y-56936062D01*
X132273689Y-56887249D01*
X132273673Y-56887247D01*
X132185065Y-56881097D01*
X132185061Y-56881097D01*
X130743037Y-56881097D01*
X130743033Y-56881097D01*
X130654424Y-56887247D01*
X130654408Y-56887249D01*
X130446872Y-56936062D01*
X130446866Y-56936064D01*
X130251810Y-57022189D01*
X130075907Y-57142685D01*
X130075901Y-57142690D01*
X129925142Y-57293449D01*
X129925137Y-57293455D01*
X129804641Y-57469358D01*
X129718516Y-57664414D01*
X129718514Y-57664420D01*
X129669701Y-57871956D01*
X129669699Y-57871972D01*
X129663549Y-57960581D01*
X127500500Y-57960581D01*
X127500500Y-52759648D01*
X134404500Y-52759648D01*
X134404500Y-53003551D01*
X134431013Y-53204933D01*
X134436334Y-53245344D01*
X134436335Y-53245346D01*
X134499456Y-53480920D01*
X134499459Y-53480930D01*
X134592786Y-53706240D01*
X134592791Y-53706251D01*
X134714727Y-53917448D01*
X134714738Y-53917464D01*
X134863199Y-54110943D01*
X134863205Y-54110950D01*
X135035649Y-54283394D01*
X135035655Y-54283399D01*
X135229144Y-54431868D01*
X135229151Y-54431872D01*
X135440348Y-54553808D01*
X135440353Y-54553810D01*
X135440356Y-54553812D01*
X135665679Y-54647144D01*
X135901256Y-54710266D01*
X136143056Y-54742100D01*
X136143063Y-54742100D01*
X136906937Y-54742100D01*
X136906944Y-54742100D01*
X137148744Y-54710266D01*
X137384321Y-54647144D01*
X137609644Y-54553812D01*
X137820856Y-54431868D01*
X138014345Y-54283399D01*
X138186799Y-54110945D01*
X138335268Y-53917456D01*
X138457212Y-53706244D01*
X138550544Y-53480921D01*
X138613666Y-53245344D01*
X138645500Y-53003544D01*
X138645500Y-52759656D01*
X138613666Y-52517856D01*
X138550544Y-52282279D01*
X138457212Y-52056956D01*
X138457210Y-52056953D01*
X138457208Y-52056948D01*
X138335272Y-51845751D01*
X138335268Y-51845744D01*
X138186799Y-51652255D01*
X138186794Y-51652249D01*
X138014350Y-51479805D01*
X138014343Y-51479799D01*
X137820864Y-51331338D01*
X137820862Y-51331336D01*
X137820856Y-51331332D01*
X137820851Y-51331329D01*
X137820848Y-51331327D01*
X137609651Y-51209391D01*
X137609640Y-51209386D01*
X137384330Y-51116059D01*
X137384323Y-51116057D01*
X137384321Y-51116056D01*
X137148744Y-51052934D01*
X137108333Y-51047613D01*
X136906951Y-51021100D01*
X136906944Y-51021100D01*
X136143056Y-51021100D01*
X136143048Y-51021100D01*
X135912896Y-51051401D01*
X135901256Y-51052934D01*
X135665679Y-51116056D01*
X135665669Y-51116059D01*
X135440359Y-51209386D01*
X135440348Y-51209391D01*
X135229151Y-51331327D01*
X135229135Y-51331338D01*
X135035656Y-51479799D01*
X135035649Y-51479805D01*
X134863205Y-51652249D01*
X134863199Y-51652256D01*
X134714738Y-51845735D01*
X134714727Y-51845751D01*
X134592791Y-52056948D01*
X134592786Y-52056959D01*
X134499459Y-52282269D01*
X134499456Y-52282279D01*
X134436335Y-52517853D01*
X134436333Y-52517864D01*
X134404500Y-52759648D01*
X127500500Y-52759648D01*
X127500500Y-49431470D01*
X127520185Y-49364431D01*
X127572989Y-49318676D01*
X127642147Y-49308732D01*
X127705703Y-49337757D01*
X127726075Y-49360347D01*
X127739892Y-49380080D01*
X127906917Y-49547105D01*
X128100421Y-49682600D01*
X128314507Y-49782429D01*
X128314516Y-49782433D01*
X128528000Y-49839634D01*
X128528000Y-48942012D01*
X128585007Y-48974925D01*
X128712174Y-49009000D01*
X128843826Y-49009000D01*
X128970993Y-48974925D01*
X129028000Y-48942012D01*
X129028000Y-49839633D01*
X129241483Y-49782433D01*
X129241492Y-49782429D01*
X129455578Y-49682600D01*
X129649082Y-49547105D01*
X129816105Y-49380082D01*
X129951600Y-49186578D01*
X130051429Y-48972492D01*
X130051432Y-48972486D01*
X130108636Y-48759000D01*
X129211012Y-48759000D01*
X129243925Y-48701993D01*
X129278000Y-48574826D01*
X129278000Y-48443174D01*
X129243925Y-48316007D01*
X129211012Y-48259000D01*
X130108636Y-48259000D01*
X130108635Y-48258999D01*
X130051432Y-48045513D01*
X130051429Y-48045507D01*
X129951600Y-47831422D01*
X129951599Y-47831420D01*
X129816113Y-47637926D01*
X129816108Y-47637920D01*
X129693665Y-47515477D01*
X129660180Y-47454154D01*
X129665164Y-47384462D01*
X129707036Y-47328529D01*
X129738013Y-47311614D01*
X129870086Y-47262354D01*
X129870093Y-47262350D01*
X129985187Y-47176190D01*
X129985190Y-47176187D01*
X130071350Y-47061093D01*
X130071354Y-47061086D01*
X130121596Y-46926379D01*
X130121598Y-46926372D01*
X130127999Y-46866844D01*
X130128000Y-46866827D01*
X130128000Y-46219000D01*
X129211012Y-46219000D01*
X129243925Y-46161993D01*
X129278000Y-46034826D01*
X129278000Y-45903174D01*
X129243925Y-45776007D01*
X129211012Y-45719000D01*
X130128000Y-45719000D01*
X130128000Y-45071172D01*
X130127999Y-45071155D01*
X130121598Y-45011627D01*
X130121596Y-45011620D01*
X130071354Y-44876913D01*
X130071350Y-44876906D01*
X129985190Y-44761812D01*
X129985187Y-44761809D01*
X129870093Y-44675649D01*
X129870086Y-44675645D01*
X129735379Y-44625403D01*
X129735372Y-44625401D01*
X129675844Y-44619000D01*
X129028000Y-44619000D01*
X129028000Y-45535988D01*
X128970993Y-45503075D01*
X128843826Y-45469000D01*
X128712174Y-45469000D01*
X128585007Y-45503075D01*
X128528000Y-45535988D01*
X128528000Y-44619000D01*
X127880155Y-44619000D01*
X127820627Y-44625401D01*
X127820620Y-44625403D01*
X127685910Y-44675646D01*
X127683921Y-44676733D01*
X127681707Y-44677214D01*
X127677601Y-44678746D01*
X127677380Y-44678155D01*
X127615647Y-44691581D01*
X127550184Y-44667160D01*
X127508316Y-44611224D01*
X127500500Y-44567897D01*
X127500500Y-41185828D01*
X127520185Y-41118789D01*
X127572989Y-41073034D01*
X127642147Y-41063090D01*
X127698811Y-41086562D01*
X127812664Y-41171793D01*
X127812671Y-41171797D01*
X127947517Y-41222091D01*
X127947516Y-41222091D01*
X127954444Y-41222835D01*
X128007127Y-41228500D01*
X129052196Y-41228499D01*
X129119235Y-41248183D01*
X129139877Y-41264818D01*
X131207908Y-43332849D01*
X131241393Y-43394172D01*
X131243447Y-43406644D01*
X131243830Y-43410049D01*
X131303410Y-43580321D01*
X131303411Y-43580322D01*
X131399384Y-43733062D01*
X131526938Y-43860616D01*
X131679678Y-43956589D01*
X131849945Y-44016168D01*
X131918584Y-44023901D01*
X131982996Y-44050966D01*
X132022552Y-44108560D01*
X132028700Y-44147121D01*
X132028700Y-44232260D01*
X132009015Y-44299299D01*
X131992381Y-44319941D01*
X131907384Y-44404937D01*
X131811411Y-44557676D01*
X131751831Y-44727945D01*
X131751830Y-44727950D01*
X131731635Y-44907196D01*
X131731635Y-44907203D01*
X131751830Y-45086449D01*
X131751831Y-45086454D01*
X131811411Y-45256723D01*
X131870204Y-45350291D01*
X131907384Y-45409462D01*
X132034938Y-45537016D01*
X132187678Y-45632989D01*
X132270567Y-45661993D01*
X132357945Y-45692568D01*
X132357950Y-45692569D01*
X132537196Y-45712765D01*
X132537200Y-45712765D01*
X132537204Y-45712765D01*
X132716449Y-45692569D01*
X132716452Y-45692568D01*
X132716455Y-45692568D01*
X132886722Y-45632989D01*
X133039462Y-45537016D01*
X133167016Y-45409462D01*
X133262989Y-45256722D01*
X133322568Y-45086455D01*
X133324292Y-45071155D01*
X133342765Y-44907203D01*
X133342765Y-44907197D01*
X133335280Y-44840768D01*
X133334500Y-44826884D01*
X133334500Y-41259420D01*
X133354185Y-41192381D01*
X133406989Y-41146626D01*
X133476147Y-41136682D01*
X133510904Y-41147038D01*
X133521337Y-41151903D01*
X133749592Y-41213063D01*
X133926034Y-41228500D01*
X133984999Y-41233659D01*
X133985000Y-41233659D01*
X133985001Y-41233659D01*
X134043966Y-41228500D01*
X134220408Y-41213063D01*
X134448663Y-41151903D01*
X134662830Y-41052035D01*
X134856401Y-40916495D01*
X135023495Y-40749401D01*
X135153425Y-40563842D01*
X135208002Y-40520217D01*
X135277500Y-40513023D01*
X135339855Y-40544546D01*
G37*
%TD.AperFunction*%
%TA.AperFunction,Conductor*%
G36*
X129028000Y-48075988D02*
G01*
X128970993Y-48043075D01*
X128843826Y-48009000D01*
X128712174Y-48009000D01*
X128585007Y-48043075D01*
X128528000Y-48075988D01*
X128528000Y-46402012D01*
X128585007Y-46434925D01*
X128712174Y-46469000D01*
X128843826Y-46469000D01*
X128970993Y-46434925D01*
X129028000Y-46402012D01*
X129028000Y-48075988D01*
G37*
%TD.AperFunction*%
%TD*%
M02*
