<?xml version="1.0" encoding="UTF-8"?>
<svg id="Layer_2" data-name="Layer 2" xmlns="http://www.w3.org/2000/svg" viewBox="0 0 54.72 355.04">
  <defs>
    <style>
      .cls-1 {
        fill: none;
        stroke: #010101;
        stroke-width: .5px;
      }

      .cls-2 {
        fill: #010101;
        stroke-width: 0px;
      }

      .cls-3 {
        stroke-width: .36px;
      }

      .cls-3, .cls-4 {
        fill: #fff;
        stroke: #231f20;
        stroke-linecap: round;
        stroke-miterlimit: 10;
      }

      .cls-4 {
        stroke-width: .72px;
      }
    </style>
  </defs>
  <g id="Graphic">
    <g>
      <path class="cls-2" d="m47.44,350.49c-.78.16-1.1-.43-1.14-.64-.07-.45.21-.93.83-1.01.77-.09,1.35-.53,1.35-1.34,0-.96-.81-1.33-1.92-1.33h-.52c-.24,0-.39.12-.39.35v7.09c0,.72-.47,1.21-1.26,1.21s-1.27-.49-1.27-1.21v-7.67c0-.92.58-1.45,1.55-1.45h2.21c2.92,0,4.16,1.27,4.16,3.01,0,1.24-.64,2.15-2.11,2.58l-1.49.42Z"/>
      <path class="cls-1" d="m49.82,351.24c-.26-.38-.68-.61-1.11-.61-.23,0-.45.06-.68.2-.35.21-.52.55-.52.89,0,.27.22.6.41.86l1.13,1.61c.26.38.68.61,1.11.61.23,0,.45-.06.68-.2.35-.21.52-.55.52-.89,0-.27-.1-.58-.29-.82l-1.24-1.64Z"/>
    </g>
    <line class="cls-4" x1=".36" y1="26.22" x2="54.36" y2="26.22"/>
    <line class="cls-3" x1=".36" y1="122.91" x2="54.36" y2="122.91"/>
    <line class="cls-4" x1=".36" y1="24.78" x2="54.36" y2="24.78"/>
    <g>
      <path class="cls-2" d="m18.54,77.91h2.2v.04c0,.91-.27,1.66-.79,2.16-.55.54-1.21.68-1.81.68-.78,0-1.33-.22-1.81-.73-.52-.54-.79-1.25-.79-2.02,0-.83.34-1.55.78-1.99.46-.46,1.18-.8,2.01-.8.48,0,.98.1,1.39.34.44.25.71.56.86.8l-.65.46c-.16-.22-.4-.46-.66-.61-.3-.18-.62-.23-.94-.23-.7,0-1.14.29-1.41.55-.35.35-.57.92-.57,1.5,0,.54.2,1.07.55,1.45.37.39.82.54,1.34.54.46,0,.85-.14,1.19-.47.3-.29.42-.6.45-.9h-1.33v-.75Z"/>
      <path class="cls-2" d="m25.76,79.4h-2.28l-.58,1.29h-.88l2.65-5.64,2.53,5.64h-.88l-.56-1.29Zm-.33-.77l-.79-1.81-.82,1.81h1.62Z"/>
      <path class="cls-2" d="m29.65,75.36v5.33h-.82v-5.33h.82Z"/>
      <path class="cls-2" d="m31.89,80.69v-5.69l3.87,4.05v-3.69h.82v5.66l-3.87-4.05v3.73h-.82Z"/>
    </g>
    <g>
      <path class="cls-2" d="m5.71,113.05v5.33h-.82v-5.33h.82Z"/>
      <path class="cls-2" d="m7.95,118.38v-5.69l3.87,4.05v-3.69h.82v5.66l-3.87-4.05v3.73h-.82Z"/>
      <path class="cls-2" d="m19.06,113.8h-.93l.45-.75h1.3v5.33h-.82v-4.58Z"/>
    </g>
    <g>
      <path class="cls-2" d="m33.64,113.05v5.33h-.82v-5.33h.82Z"/>
      <path class="cls-2" d="m35.89,118.38v-5.69l3.87,4.05v-3.69h.82v5.66l-3.87-4.05v3.73h-.82Z"/>
      <path class="cls-2" d="m48.85,118.38h-3.58l1.85-2.24c.18-.22.46-.58.64-.83.15-.22.28-.46.28-.77,0-.45-.29-.86-.89-.86s-.91.46-.94.97h-.78c.02-.52.24-.94.45-1.17.19-.22.58-.52,1.25-.52,1.14,0,1.72.78,1.72,1.61,0,.44-.17.8-.38,1.12-.19.29-.44.58-.76.96l-.83.98h1.99v.75Z"/>
    </g>
    <g>
      <path class="cls-2" d="m9.65,158.7h-3.58l1.85-2.24c.18-.22.46-.58.64-.83.15-.22.28-.46.28-.77,0-.45-.3-.86-.89-.86s-.91.46-.94.97h-.78c.02-.52.24-.94.45-1.17.19-.22.58-.52,1.25-.52,1.14,0,1.72.78,1.72,1.61,0,.44-.17.8-.38,1.12-.19.29-.44.58-.76.96l-.83.98h1.99v.75Z"/>
      <path class="cls-2" d="m14.73,156.36c.2.26.24.56.24.8,0,.54-.21.91-.42,1.14-.25.26-.65.5-1.25.5s-1.01-.23-1.26-.5c-.22-.22-.42-.59-.42-1.14,0-.24.04-.54.24-.8.12-.17.31-.33.56-.43-.22-.1-.38-.26-.47-.4-.14-.22-.19-.49-.19-.73,0-.42.15-.82.45-1.11.17-.16.51-.41,1.1-.41s.93.25,1.1.41c.3.29.45.69.45,1.11,0,.24-.06.51-.19.73-.1.14-.25.3-.47.4.25.1.44.26.56.43Zm-2.07.17c-.16.16-.25.42-.25.65,0,.21.08.45.24.62.11.13.31.27.64.27s.53-.14.64-.27c.16-.18.24-.42.24-.62,0-.23-.09-.49-.25-.65-.16-.16-.4-.25-.63-.25s-.47.09-.63.25Zm.05-2.31c-.14.14-.22.35-.22.59s.1.44.22.56c.14.15.38.24.59.24s.45-.09.59-.24c.12-.12.22-.31.22-.56s-.09-.46-.22-.59c-.14-.13-.34-.22-.58-.22s-.45.09-.58.22Z"/>
      <path class="cls-2" d="m17.81,152.87v3.59l1.1-1.13h1.04l-1.45,1.4,1.55,1.97h-.99l-1.1-1.44-.14.14v1.3h-.78v-5.83h.78Z"/>
    </g>
    <g>
      <path class="cls-2" d="m37.55,154.12h-1.65l-.26.89c.08,0,.17-.02.25-.02.45,0,.9.15,1.23.47.26.25.52.67.52,1.37,0,.58-.18,1.06-.54,1.42-.42.42-.94.54-1.48.54-.31,0-.68-.04-1.02-.24-.08-.05-.38-.23-.63-.62l.62-.51s.16.3.41.46c.18.12.42.18.7.18.43,0,.68-.17.82-.3.16-.16.34-.45.34-.9s-.15-.7-.32-.86c-.26-.25-.62-.3-.87-.3-.23,0-.41.03-.62.11-.17.06-.32.14-.47.24l.79-2.69h2.21v.75Z"/>
      <path class="cls-2" d="m42.81,158.7h-3.58l1.85-2.24c.18-.22.46-.58.64-.83.15-.22.28-.46.28-.77,0-.45-.3-.86-.89-.86s-.91.46-.94.97h-.78c.02-.52.24-.94.45-1.17.19-.22.58-.52,1.25-.52,1.14,0,1.72.78,1.72,1.61,0,.44-.17.8-.38,1.12-.19.29-.44.58-.76.96l-.83.98h1.99v.75Z"/>
      <path class="cls-2" d="m45.74,152.87v3.59l1.09-1.13h1.04l-1.45,1.4,1.55,1.97h-.99l-1.1-1.44-.14.14v1.3h-.78v-5.83h.78Z"/>
    </g>
    <g>
      <path class="cls-2" d="m8.21,194.44h-2.62v-.75h3.97l-3.36,5.52-.64-.4,2.65-4.37Z"/>
      <path class="cls-2" d="m13.71,194.44h-2.62v-.75h3.97l-3.36,5.52-.64-.4,2.65-4.37Z"/>
      <path class="cls-2" d="m19.22,194.44h-2.62v-.75h3.97l-3.36,5.52-.64-.4,2.65-4.37Z"/>
    </g>
    <g>
      <path class="cls-2" d="m36.05,194.44h-.93l.45-.75h1.3v5.33h-.82v-4.58Z"/>
      <path class="cls-2" d="m42.46,194.44h-1.65l-.26.89c.08,0,.17-.02.25-.02.45,0,.9.15,1.23.47.26.25.52.67.52,1.37,0,.58-.18,1.06-.54,1.42-.42.42-.94.54-1.48.54-.31,0-.68-.04-1.02-.24-.08-.05-.38-.23-.63-.62l.62-.51s.16.3.41.46c.18.12.42.18.7.18.43,0,.68-.17.82-.3.16-.16.34-.45.34-.9s-.15-.7-.32-.86c-.26-.25-.62-.3-.87-.3-.23,0-.41.03-.62.11-.17.06-.32.14-.47.24l.79-2.69h2.21v.75Z"/>
      <path class="cls-2" d="m45.43,193.19v3.59l1.1-1.13h1.04l-1.45,1.4,1.55,1.97h-.99l-1.1-1.44-.14.14v1.29h-.78v-5.83h.78Z"/>
    </g>
    <g>
      <path class="cls-2" d="m10.01,239.34h-3.58l1.85-2.24c.18-.22.46-.58.64-.83.15-.22.28-.46.28-.77,0-.45-.3-.86-.89-.86s-.91.46-.94.97h-.78c.02-.52.24-.94.45-1.17.19-.22.58-.52,1.25-.52,1.14,0,1.72.78,1.72,1.61,0,.44-.17.8-.38,1.12-.19.29-.44.58-.76.96l-.83.98h1.99v.75Z"/>
      <path class="cls-2" d="m12.55,234.76h-.93l.45-.75h1.3v5.33h-.82v-4.58Z"/>
      <path class="cls-2" d="m18.87,237c.2.26.24.56.24.8,0,.54-.21.91-.42,1.14-.25.26-.65.5-1.25.5s-1.01-.23-1.26-.5c-.22-.22-.42-.59-.42-1.14,0-.24.04-.54.24-.8.12-.17.31-.33.56-.43-.22-.1-.38-.26-.47-.4-.14-.22-.19-.49-.19-.73,0-.42.15-.82.45-1.11.17-.16.51-.41,1.1-.41s.93.25,1.1.41c.3.29.45.69.45,1.11,0,.24-.06.51-.19.73-.1.14-.25.3-.47.4.25.1.44.26.56.43Zm-2.07.17c-.16.16-.25.42-.25.65,0,.21.08.45.24.62.11.13.31.27.64.27s.53-.14.64-.27c.16-.18.24-.42.24-.62,0-.23-.09-.49-.25-.65-.16-.16-.4-.25-.63-.25s-.47.09-.63.25Zm.05-2.31c-.14.14-.22.35-.22.59s.1.44.22.56c.14.15.38.24.59.24s.45-.09.59-.24c.12-.12.22-.31.22-.56s-.09-.46-.22-.59c-.14-.13-.34-.22-.58-.22s-.45.09-.58.22Z"/>
    </g>
    <g>
      <path class="cls-2" d="m37.93,237.58h.58v.75h-.58v1.01h-.78v-1.01h-2.64l3.42-4.72v3.97Zm-.78.02v-1.72l-1.21,1.72h1.21Z"/>
      <path class="cls-2" d="m41.03,234.76h-.93l.45-.75h1.29v5.33h-.82v-4.58Z"/>
      <path class="cls-2" d="m44.84,234.76h-.93l.45-.75h1.29v5.33h-.82v-4.58Z"/>
    </g>
    <g>
      <path class="cls-2" d="m11.73,274.58l-1.27,1.61c.12-.02.22-.03.34-.03.62,0,1.02.27,1.23.5.29.3.47.76.47,1.25s-.17.99-.53,1.34c-.45.44-1.02.5-1.38.5-.46,0-.97-.1-1.38-.52-.28-.3-.46-.69-.46-1.21,0-.39.09-.7.26-1.02.2-.4.41-.64.65-.95l1.48-1.9.59.44Zm-1.86,2.57c-.18.17-.31.46-.31.79,0,.27.1.59.31.79.17.16.49.3.77.3.25,0,.55-.1.75-.3s.31-.52.31-.79-.11-.59-.31-.79c-.18-.18-.48-.3-.75-.3s-.58.11-.77.3Z"/>
      <path class="cls-2" d="m14.96,275.08h-.93l.45-.75h1.3v5.33h-.82v-4.58Z"/>
    </g>
    <g>
      <path class="cls-2" d="m36.39,275.08h-.93l.45-.75h1.3v5.33h-.82v-4.58Z"/>
      <path class="cls-2" d="m40.2,275.08h-.93l.45-.75h1.29v5.33h-.82v-4.58Z"/>
      <path class="cls-2" d="m46.61,275.08h-1.65l-.26.89c.08,0,.17-.02.25-.02.45,0,.9.15,1.23.47.26.25.52.67.52,1.37,0,.58-.18,1.06-.54,1.42-.42.42-.93.54-1.48.54-.31,0-.68-.04-1.02-.24-.08-.05-.38-.23-.63-.62l.62-.51s.16.3.41.46c.18.12.42.18.7.18.43,0,.68-.17.82-.3.16-.16.34-.45.34-.9s-.15-.7-.32-.86c-.26-.25-.62-.3-.87-.3-.23,0-.41.03-.62.11-.17.06-.32.14-.47.24l.79-2.69h2.21v.75Z"/>
    </g>
    <g>
      <path class="cls-2" d="m9.7,318.85v.77l-3.47-1.69v-.66l3.47-1.69v.77l-2.64,1.25,2.64,1.25Z"/>
      <path class="cls-2" d="m14.66,318.85v.77l-3.47-1.69v-.66l3.47-1.69v.77l-2.64,1.25,2.64,1.25Z"/>
      <path class="cls-2" d="m19.62,318.85v.77l-3.47-1.69v-.66l3.47-1.69v.77l-2.64,1.25,2.64,1.25Z"/>
    </g>
    <g>
      <path class="cls-2" d="m34.17,316.35v-.77l3.47,1.69v.66l-3.47,1.69v-.77l2.64-1.25-2.64-1.25Z"/>
      <path class="cls-2" d="m39.13,316.35v-.77l3.47,1.69v.66l-3.47,1.69v-.77l2.64-1.25-2.64-1.25Z"/>
      <path class="cls-2" d="m44.09,316.35v-.77l3.47,1.69v.66l-3.47,1.69v-.77l2.64-1.25-2.64-1.25Z"/>
    </g>
    <g>
      <path class="cls-2" d="m12.65,0c.97,0,1.6.12,2.11.47.88.59.95,1.54.95,1.88,0,1.15-.71,1.99-1.77,2.23l2.49,3.42h-1.48l-2.29-3.27h-.22v3.27h-1.22V0h1.43Zm-.2,3.67h.38c.34,0,1.7-.04,1.7-1.31,0-1.13-1.07-1.24-1.67-1.24h-.42v2.54Z"/>
      <path class="cls-2" d="m22.84,6.85c-.22.38-.53.72-.85.92-.41.26-.95.38-1.49.38-.67,0-1.22-.17-1.7-.65-.48-.48-.74-1.18-.74-1.93s.28-1.54.8-2.07c.42-.42.97-.68,1.69-.68.8,0,1.32.35,1.62.66.65.67.71,1.61.71,2.13v.14h-3.62c.02.36.18.77.43,1.02.28.28.61.32.9.32.32,0,.56-.07.8-.25.2-.16.36-.36.47-.55l.98.55Zm-1.16-2.05c-.05-.28-.18-.52-.36-.68-.16-.14-.41-.29-.79-.29-.41,0-.67.17-.83.32-.17.16-.3.4-.36.65h2.34Z"/>
      <path class="cls-2" d="m27.21,4.28c-.12-.19-.35-.43-.72-.43-.17,0-.29.06-.36.13-.06.06-.11.16-.11.26,0,.13.06.22.17.29.07.05.14.07.4.2l.6.3c.26.13.52.26.71.47.28.28.37.59.37.94,0,.46-.17.85-.44,1.15-.4.43-.89.56-1.42.56-.32,0-.73-.05-1.09-.32-.29-.22-.53-.56-.65-.92l.96-.46c.06.17.17.38.28.48.07.07.24.19.52.19.18,0,.37-.06.48-.17.1-.1.17-.25.17-.4s-.05-.26-.16-.38c-.14-.14-.31-.23-.5-.31l-.43-.2c-.23-.11-.5-.24-.7-.43-.26-.25-.36-.53-.36-.85,0-.41.16-.8.42-1.08.23-.24.61-.48,1.24-.48.36,0,.65.07.94.26.17.11.4.3.58.62l-.88.58Z"/>
      <path class="cls-2" d="m34.44,1.15h-2.78v2.03h2.69v1.15h-2.69v3.67h-1.22V0h4.01v1.15Z"/>
      <path class="cls-2" d="m37.95,0c1.03,0,1.68.13,2.21.62.43.41.64.92.64,1.58,0,.31-.05.64-.24.95-.18.31-.42.47-.6.55.14.04.64.17,1.03.58.43.46.53,1.01.53,1.5,0,.58-.14,1.03-.53,1.44-.64.67-1.63.78-2.24.78h-2V0h1.21Zm.01,3.44h.37c.3,0,.71-.04,1-.31.28-.26.31-.64.31-.91,0-.24-.04-.53-.29-.77-.28-.26-.62-.3-.97-.3h-.42v2.29Zm0,3.41h.74c.35,0,.9-.06,1.21-.31.24-.19.4-.53.4-.89,0-.32-.12-.64-.32-.84-.34-.32-.83-.36-1.26-.36h-.77v2.4Z"/>
    </g>
  </g>
</svg>