<?xml version="1.0" encoding="utf-8"?>
<!-- Generator: Adobe Illustrator 28.0.0, SVG Export Plug-In . SVG Version: 6.00 Build 0)  -->
<svg version="1.1" xmlns="http://www.w3.org/2000/svg" xmlns:xlink="http://www.w3.org/1999/xlink" x="0px" y="0px"
	 viewBox="0 0 56.7 364.3" style="enable-background:new 0 0 56.7 364.3;" xml:space="preserve">
<style type="text/css">
	.st0{fill:#DDDDDD;}
	.st1{display:none;}
	.st2{display:inline;}
	.st3{fill:none;stroke:#000000;stroke-width:7.200000e-02;stroke-miterlimit:10;}
	.st4{fill:none;stroke:#000000;stroke-width:7.200000e-02;stroke-miterlimit:10;stroke-dasharray:13.9992,13.9992;}
	.st5{fill:none;stroke:#000000;stroke-width:7.200000e-02;stroke-miterlimit:10;stroke-dasharray:11.7692,11.7692;}
	.st6{fill:#010101;}
	.st7{font-family:'FuturaPT-Medium';}
	.st8{font-size:8px;}
	.st9{font-size:12px;}
	.st10{fill:none;stroke:#010101;stroke-width:0.5;}
	.st11{fill:#FFFFFF;stroke:#000000;stroke-width:1.0008;stroke-linecap:round;stroke-miterlimit:10;}
	.st12{fill-rule:evenodd;clip-rule:evenodd;fill:#373737;}
	.st13{fill:none;stroke:#010101;stroke-width:1.0205;}
	.st14{fill:none;stroke:#010101;stroke-width:0.8504;}
	.st15{fill-rule:evenodd;clip-rule:evenodd;fill:#FFFFFF;}
	.st16{fill:none;stroke:#010101;stroke-width:0.7087;stroke-linecap:round;stroke-linejoin:round;}
	
		.st17{clip-path:url(#SVGID_00000149367881499999143730000003382512033277236610_);fill:url(#SVGID_00000012442361719684030430000000693227065810910608_);}
	.st18{fill:#A5A5A5;}
	.st19{fill:none;stroke:#010101;stroke-width:0.25;stroke-miterlimit:10;}
	.st20{fill:#727373;stroke:#010101;stroke-width:0.5;stroke-miterlimit:10;}
	
		.st21{clip-path:url(#SVGID_00000089563861338342241990000008997262310802759852_);fill:url(#SVGID_00000093170453425828015280000003096153403340729275_);}
	
		.st22{clip-path:url(#SVGID_00000130622341370469013160000005151095901831875737_);fill:url(#SVGID_00000150081324641216063480000002256364810921399734_);}
	
		.st23{clip-path:url(#SVGID_00000057130956729275986850000003819620446477626016_);fill:url(#SVGID_00000070832652846187713270000016019042802002487170_);}
	
		.st24{clip-path:url(#SVGID_00000002352039737051874090000007556806005738794630_);fill:url(#SVGID_00000134230434437114942320000016398616150087556003_);}
	
		.st25{clip-path:url(#SVGID_00000018937651740264734010000011008384609767846833_);fill:url(#SVGID_00000029733417390914647160000012331890117769711516_);}
	
		.st26{clip-path:url(#SVGID_00000173152924559423648840000014356000212995743158_);fill:url(#SVGID_00000032623980292258446980000018230753385120102812_);}
	
		.st27{clip-path:url(#SVGID_00000138551532663658157690000010607277620337379742_);fill:url(#SVGID_00000113344054406818022360000015037789100773508276_);}
	
		.st28{clip-path:url(#SVGID_00000029043266993982386910000005817580098254631809_);fill:url(#SVGID_00000047035451650050747200000001309558203760521645_);}
	
		.st29{clip-path:url(#SVGID_00000150814146575110338470000016523669537572147600_);fill:url(#SVGID_00000129167595516636333910000006862606088600267401_);}
	
		.st30{clip-path:url(#SVGID_00000099664184687303791140000007118856885951432087_);fill:url(#SVGID_00000039823858738296786260000001365446621099082926_);}
	
		.st31{clip-path:url(#SVGID_00000139994223257157928210000018090205277048227509_);fill:url(#SVGID_00000002358130604052833690000006148443331282618265_);}
	.st32{fill:none;stroke:#010101;stroke-width:0.25;}
	.st33{fill:none;stroke:#000000;stroke-width:0.72;stroke-miterlimit:10;}
</style>
<g id="Layer_6">
	<rect class="st0" width="56.7" height="364.3"/>
</g>
<g id="Layer_1" class="st1">
	<g class="st2">
		<g>
			<polyline class="st3" points="55.3,332.6 55.3,338.6 49.3,338.6 			"/>
			<line class="st4" x1="35.3" y1="338.6" x2="14.3" y2="338.6"/>
			<polyline class="st3" points="7.3,338.6 1.3,338.6 1.3,332.6 			"/>
			<line class="st5" x1="1.3" y1="320.9" x2="1.4" y2="44.3"/>
			<polyline class="st3" points="1.4,38.4 1.4,32.4 7.4,32.4 			"/>
			<line class="st4" x1="21.4" y1="32.4" x2="42.4" y2="32.4"/>
			<polyline class="st3" points="49.4,32.4 55.4,32.4 55.4,38.4 			"/>
			<line class="st5" x1="55.4" y1="50.2" x2="55.3" y2="326.7"/>
		</g>
	</g>
</g>
<g id="Text">
	<text transform="matrix(1 0 0 1 16.108 86.8717)" class="st6 st7 st8">GAIN</text>
	<text transform="matrix(1 0 0 1 2.8586 124.5621)" class="st6 st7 st8">GAIN</text>
	<text transform="matrix(1 0 0 1 30.7951 124.5621)" class="st6 st7 st8">GAIN</text>
	<text transform="matrix(1 0 0 1 5.2346 164.8811)" class="st6 st7 st8">2.8k</text>
	<text transform="matrix(1 0 0 1 33.171 164.8811)" class="st6 st7 st8">5.2k</text>
	<text transform="matrix(1 0 0 1 6.1706 205.2007)" class="st6 st7 st8">777</text>
	<text transform="matrix(1 0 0 1 33.171 205.2007)" class="st6 st7 st8">1.5k</text>
	<text transform="matrix(1 0 0 1 6.1706 245.522)" class="st6 st7 st8">218</text>
	<text transform="matrix(1 0 0 1 34.1071 245.522)" class="st6 st7 st8">411</text>
	<text transform="matrix(1 0 0 1 8.9226 285.841)" class="st6 st7 st8">61</text>
	<text transform="matrix(1 0 0 1 34.1071 285.841)" class="st6 st7 st8">115</text>
	<text transform="matrix(1 0 0 1 6.9865 326.4368)" class="st6 st7 st8">&lt;&lt;&lt;</text>
	<text transform="matrix(1 0 0 1 34.923 326.4368)" class="st6 st7 st8">&gt;&gt;&gt;</text>
	<text transform="matrix(1 0 0 1 11.2843 14.1821)" class="st6 st7 st9">ResFB</text>
</g>
<g id="Graphic">
	<g>
		<path class="st6" d="M48.5,356.7c-0.8,0.2-1.1-0.4-1.1-0.6c-0.1-0.5,0.2-0.9,0.8-1c0.8-0.1,1.4-0.5,1.4-1.3c0-1-0.8-1.3-1.9-1.3
			h-0.5c-0.2,0-0.4,0.1-0.4,0.4v7.1c0,0.7-0.5,1.2-1.3,1.2c-0.8,0-1.3-0.5-1.3-1.2v-7.7c0-0.9,0.6-1.5,1.5-1.5h2.2
			c2.9,0,4.2,1.3,4.2,3c0,1.2-0.6,2.2-2.1,2.6L48.5,356.7z"/>
		<path class="st10" d="M50.8,357.4c-0.3-0.4-0.7-0.6-1.1-0.6c-0.2,0-0.5,0.1-0.7,0.2c-0.4,0.2-0.5,0.5-0.5,0.9
			c0,0.3,0.2,0.6,0.4,0.9l1.1,1.6c0.3,0.4,0.7,0.6,1.1,0.6c0.2,0,0.5-0.1,0.7-0.2c0.4-0.2,0.5-0.5,0.5-0.9c0-0.3-0.1-0.6-0.3-0.8
			L50.8,357.4z"/>
	</g>
	<line class="st11" x1="1.4" y1="32.4" x2="55.4" y2="32.4"/>
	<line class="st11" x1="1.4" y1="337.7" x2="55.4" y2="337.7"/>
	<line class="st11" x1="1.4" y1="31" x2="55.4" y2="31"/>
</g>
<g id="Panel">
	<g>
		<g>
			<circle class="st12" cx="28.3" cy="60.5" r="17"/>
			<ellipse transform="matrix(0.5672 -0.8236 0.8236 0.5672 -37.5413 49.5184)" class="st13" cx="28.3" cy="60.5" rx="17" ry="17"/>
			<path class="st12" d="M34.2,73.9c-2.9,1.2-2.4,2.8-5.6,2.8c-3.1,0.1-2.7-1.5-5.7-2.7C20,73,19.3,74.4,17,72.2
				c-2.2-2.2-0.9-3-2.1-5.9c-1.2-2.9-2.8-2.4-2.8-5.6c-0.1-3.1,1.5-2.8,2.7-5.7c1.2-2.9-0.2-3.7,1.9-5.9c2.2-2.2,3-0.9,5.9-2.1
				c2.9-1.2,2.4-2.8,5.6-2.8c3.1-0.1,2.7,1.5,5.7,2.7c2.9,1.1,3.7-0.2,5.9,1.9c2.2,2.2,0.9,3,2.1,5.9c1.2,2.9,2.8,2.4,2.8,5.6
				c0.1,3.1-1.5,2.8-2.7,5.7c-1.1,2.9,0.2,3.7-1.9,5.9C37.9,74.1,37,72.7,34.2,73.9z"/>
			<path class="st14" d="M34.2,73.9c-2.9,1.2-2.4,2.8-5.6,2.8c-3.1,0.1-2.7-1.5-5.7-2.7C20,73,19.3,74.4,17,72.2
				c-2.2-2.2-0.9-3-2.1-5.9c-1.2-2.9-2.8-2.4-2.8-5.6c-0.1-3.1,1.5-2.8,2.7-5.7c1.2-2.9-0.2-3.7,1.9-5.9c2.2-2.2,3-0.9,5.9-2.1
				c2.9-1.2,2.4-2.8,5.6-2.8c3.1-0.1,2.7,1.5,5.7,2.7c2.9,1.1,3.7-0.2,5.9,1.9c2.2,2.2,0.9,3,2.1,5.9c1.2,2.9,2.8,2.4,2.8,5.6
				c0.1,3.1-1.5,2.8-2.7,5.7c-1.1,2.9,0.2,3.7-1.9,5.9C37.9,74.1,37,72.7,34.2,73.9z"/>
			<rect x="27.2" y="44.3" class="st15" width="2.3" height="16.2"/>
			<rect x="27.2" y="44.3" class="st16" width="2.3" height="16.2"/>
		</g>
	</g>
	<g>
		<g>
			<defs>
				<polygon id="SVGID_1_" points="48.9,316.6 55,306 48.9,295.4 36.6,295.4 30.5,306 36.6,316.6 				"/>
			</defs>
			<clipPath id="SVGID_00000157296294423110686520000017440440782149128381_">
				<use xlink:href="#SVGID_1_"  style="overflow:visible;"/>
			</clipPath>
			
				<linearGradient id="SVGID_00000046330656717898989940000012326613113574703792_" gradientUnits="userSpaceOnUse" x1="-35.7136" y1="433.8488" x2="-34.7136" y2="433.8488" gradientTransform="matrix(18.124 22.9071 22.9071 -18.124 -9258.5273 8974.1357)">
				<stop  offset="0" style="stop-color:#FFFFFF"/>
				<stop  offset="0.5" style="stop-color:#B3B1B2"/>
				<stop  offset="1" style="stop-color:#DBDAD9"/>
			</linearGradient>
			
				<polygon style="clip-path:url(#SVGID_00000157296294423110686520000017440440782149128381_);fill:url(#SVGID_00000046330656717898989940000012326613113574703792_);" points="
				45.6,283.4 65.4,308.4 39.9,328.6 20.1,303.6 			"/>
		</g>
		<path class="st18" d="M42.8,316.5c5.8,0,10.5-4.7,10.5-10.5c0-5.8-4.7-10.5-10.5-10.5c-5.8,0-10.5,4.7-10.5,10.5
			C32.3,311.8,37,316.5,42.8,316.5"/>
		<path class="st19" d="M42.8,316.5c5.8,0,10.5-4.7,10.5-10.5c0-5.8-4.7-10.5-10.5-10.5c-5.8,0-10.5,4.7-10.5,10.5
			C32.3,311.8,37,316.5,42.8,316.5"/>
		<path class="st20" d="M42.8,314.5c-4.7,0-8.5-3.8-8.5-8.5c0-4.7,3.8-8.5,8.5-8.5c4.7,0,8.5,3.8,8.5,8.5
			C51.3,310.7,47.4,314.5,42.8,314.5z"/>
		<path class="st6" d="M42.8,311.1c-2.8,0-5.1-2.3-5.1-5.1c0-2.8,2.3-5.1,5.1-5.1c2.8,0,5.1,2.3,5.1,5.1S45.6,311.1,42.8,311.1z"/>
	</g>
	<g>
		<g>
			<defs>
				<polygon id="SVGID_00000005252426172999927860000002925793922951483265_" points="20.1,316.6 26.2,306 20.1,295.4 7.8,295.4 
					1.7,306 7.8,316.6 				"/>
			</defs>
			<clipPath id="SVGID_00000041285792668644548530000011994776398670779008_">
				<use xlink:href="#SVGID_00000005252426172999927860000002925793922951483265_"  style="overflow:visible;"/>
			</clipPath>
			
				<linearGradient id="SVGID_00000010279597795388772650000005690426693473606310_" gradientUnits="userSpaceOnUse" x1="-36.3254" y1="433.0756" x2="-35.3254" y2="433.0756" gradientTransform="matrix(18.124 22.9071 22.9071 -18.124 -9258.5273 8974.1357)">
				<stop  offset="0" style="stop-color:#FFFFFF"/>
				<stop  offset="0.5" style="stop-color:#B3B1B2"/>
				<stop  offset="1" style="stop-color:#DBDAD9"/>
			</linearGradient>
			
				<polygon style="clip-path:url(#SVGID_00000041285792668644548530000011994776398670779008_);fill:url(#SVGID_00000010279597795388772650000005690426693473606310_);" points="
				16.8,283.4 36.6,308.4 11.1,328.6 -8.7,303.6 			"/>
		</g>
		<path class="st18" d="M14,316.5c5.8,0,10.5-4.7,10.5-10.5c0-5.8-4.7-10.5-10.5-10.5c-5.8,0-10.5,4.7-10.5,10.5
			C3.5,311.8,8.2,316.5,14,316.5"/>
		<path class="st19" d="M14,316.5c5.8,0,10.5-4.7,10.5-10.5c0-5.8-4.7-10.5-10.5-10.5c-5.8,0-10.5,4.7-10.5,10.5
			C3.5,311.8,8.2,316.5,14,316.5"/>
		<path class="st20" d="M14,314.5c-4.7,0-8.5-3.8-8.5-8.5c0-4.7,3.8-8.5,8.5-8.5c4.7,0,8.5,3.8,8.5,8.5
			C22.5,310.7,18.6,314.5,14,314.5z"/>
		<path class="st6" d="M14,311.1c-2.8,0-5.1-2.3-5.1-5.1c0-2.8,2.3-5.1,5.1-5.1c2.8,0,5.1,2.3,5.1,5.1S16.8,311.1,14,311.1z"/>
	</g>
	<g>
		<g>
			<defs>
				<polygon id="SVGID_00000019650584927630962950000006563154081267749019_" points="48.9,276.3 55,265.7 48.9,255.1 36.6,255.1 
					30.5,265.7 36.6,276.3 				"/>
			</defs>
			<clipPath id="SVGID_00000083802741984285452340000005608242505686695821_">
				<use xlink:href="#SVGID_00000019650584927630962950000006563154081267749019_"  style="overflow:visible;"/>
			</clipPath>
			
				<linearGradient id="SVGID_00000116223652952082982760000012359216611832786083_" gradientUnits="userSpaceOnUse" x1="-36.7961" y1="434.7053" x2="-35.7961" y2="434.7053" gradientTransform="matrix(18.124 22.9071 22.9071 -18.124 -9258.5273 8974.1357)">
				<stop  offset="0" style="stop-color:#FFFFFF"/>
				<stop  offset="0.5" style="stop-color:#B3B1B2"/>
				<stop  offset="1" style="stop-color:#DBDAD9"/>
			</linearGradient>
			
				<polygon style="clip-path:url(#SVGID_00000083802741984285452340000005608242505686695821_);fill:url(#SVGID_00000116223652952082982760000012359216611832786083_);" points="
				45.6,243.1 65.4,268.1 39.9,288.3 20.1,263.2 			"/>
		</g>
		<path class="st18" d="M42.8,276.1c5.8,0,10.5-4.7,10.5-10.5c0-5.8-4.7-10.5-10.5-10.5c-5.8,0-10.5,4.7-10.5,10.5
			C32.3,271.5,37,276.1,42.8,276.1"/>
		<path class="st19" d="M42.8,276.1c5.8,0,10.5-4.7,10.5-10.5c0-5.8-4.7-10.5-10.5-10.5c-5.8,0-10.5,4.7-10.5,10.5
			C32.3,271.5,37,276.1,42.8,276.1"/>
		<path class="st20" d="M42.8,274.2c-4.7,0-8.5-3.8-8.5-8.5c0-4.7,3.8-8.5,8.5-8.5c4.7,0,8.5,3.8,8.5,8.5
			C51.3,270.4,47.4,274.2,42.8,274.2z"/>
		<path class="st6" d="M42.8,270.8c-2.8,0-5.1-2.3-5.1-5.1c0-2.8,2.3-5.1,5.1-5.1c2.8,0,5.1,2.3,5.1,5.1S45.6,270.8,42.8,270.8z"/>
	</g>
	<g>
		<g>
			<defs>
				<polygon id="SVGID_00000004527848580494649260000017632927509384891268_" points="20.1,276.3 26.2,265.7 20.1,255.1 7.8,255.1 
					1.7,265.7 7.8,276.3 				"/>
			</defs>
			<clipPath id="SVGID_00000026134762447744042360000017872160332760002957_">
				<use xlink:href="#SVGID_00000004527848580494649260000017632927509384891268_"  style="overflow:visible;"/>
			</clipPath>
			
				<linearGradient id="SVGID_00000142148875582484993140000018284636902281809315_" gradientUnits="userSpaceOnUse" x1="-37.4078" y1="433.9321" x2="-36.4078" y2="433.9321" gradientTransform="matrix(18.124 22.9071 22.9071 -18.124 -9258.5273 8974.1357)">
				<stop  offset="0" style="stop-color:#FFFFFF"/>
				<stop  offset="0.5" style="stop-color:#B3B1B2"/>
				<stop  offset="1" style="stop-color:#DBDAD9"/>
			</linearGradient>
			
				<polygon style="clip-path:url(#SVGID_00000026134762447744042360000017872160332760002957_);fill:url(#SVGID_00000142148875582484993140000018284636902281809315_);" points="
				16.8,243.1 36.6,268.1 11.1,288.3 -8.7,263.2 			"/>
		</g>
		<path class="st18" d="M14,276.1c5.8,0,10.5-4.7,10.5-10.5c0-5.8-4.7-10.5-10.5-10.5c-5.8,0-10.5,4.7-10.5,10.5
			C3.5,271.5,8.2,276.1,14,276.1"/>
		<path class="st19" d="M14,276.1c5.8,0,10.5-4.7,10.5-10.5c0-5.8-4.7-10.5-10.5-10.5c-5.8,0-10.5,4.7-10.5,10.5
			C3.5,271.5,8.2,276.1,14,276.1"/>
		<path class="st20" d="M14,274.2c-4.7,0-8.5-3.8-8.5-8.5c0-4.7,3.8-8.5,8.5-8.5c4.7,0,8.5,3.8,8.5,8.5
			C22.5,270.4,18.6,274.2,14,274.2z"/>
		<path class="st6" d="M14,270.8c-2.8,0-5.1-2.3-5.1-5.1c0-2.8,2.3-5.1,5.1-5.1c2.8,0,5.1,2.3,5.1,5.1S16.8,270.8,14,270.8z"/>
	</g>
	<g>
		<g>
			<defs>
				<polygon id="SVGID_00000125598668568739155270000002056228850364684204_" points="48.9,236 55,225.4 48.9,214.7 36.6,214.7 
					30.5,225.4 36.6,236 				"/>
			</defs>
			<clipPath id="SVGID_00000177442779319017317340000017499796962454485401_">
				<use xlink:href="#SVGID_00000125598668568739155270000002056228850364684204_"  style="overflow:visible;"/>
			</clipPath>
			
				<linearGradient id="SVGID_00000034794823367927632220000009775726735948341153_" gradientUnits="userSpaceOnUse" x1="-37.8786" y1="435.5618" x2="-36.8786" y2="435.5618" gradientTransform="matrix(18.124 22.9071 22.9071 -18.124 -9258.5273 8974.1357)">
				<stop  offset="0" style="stop-color:#FFFFFF"/>
				<stop  offset="0.5" style="stop-color:#B3B1B2"/>
				<stop  offset="1" style="stop-color:#DBDAD9"/>
			</linearGradient>
			
				<polygon style="clip-path:url(#SVGID_00000177442779319017317340000017499796962454485401_);fill:url(#SVGID_00000034794823367927632220000009775726735948341153_);" points="
				45.6,202.8 65.4,227.8 39.9,247.9 20.1,222.9 			"/>
		</g>
		<path class="st18" d="M42.8,235.8c5.8,0,10.5-4.7,10.5-10.5c0-5.8-4.7-10.5-10.5-10.5c-5.8,0-10.5,4.7-10.5,10.5
			C32.3,231.1,37,235.8,42.8,235.8"/>
		<path class="st19" d="M42.8,235.8c5.8,0,10.5-4.7,10.5-10.5c0-5.8-4.7-10.5-10.5-10.5c-5.8,0-10.5,4.7-10.5,10.5
			C32.3,231.1,37,235.8,42.8,235.8"/>
		<path class="st20" d="M42.8,233.9c-4.7,0-8.5-3.8-8.5-8.5c0-4.7,3.8-8.5,8.5-8.5c4.7,0,8.5,3.8,8.5,8.5
			C51.3,230.1,47.4,233.9,42.8,233.9z"/>
		<path class="st6" d="M42.8,230.5c-2.8,0-5.1-2.3-5.1-5.1c0-2.8,2.3-5.1,5.1-5.1c2.8,0,5.1,2.3,5.1,5.1S45.6,230.5,42.8,230.5z"/>
	</g>
	<g>
		<g>
			<defs>
				<polygon id="SVGID_00000183956241445607063770000011456606676280269697_" points="20.1,236 26.2,225.4 20.1,214.7 7.8,214.7 
					1.7,225.4 7.8,236 				"/>
			</defs>
			<clipPath id="SVGID_00000027602215872228218360000005788517957569546163_">
				<use xlink:href="#SVGID_00000183956241445607063770000011456606676280269697_"  style="overflow:visible;"/>
			</clipPath>
			
				<linearGradient id="SVGID_00000135684179608227957290000005400094783488245683_" gradientUnits="userSpaceOnUse" x1="-38.4903" y1="434.7885" x2="-37.4903" y2="434.7885" gradientTransform="matrix(18.124 22.9071 22.9071 -18.124 -9258.5273 8974.1357)">
				<stop  offset="0" style="stop-color:#FFFFFF"/>
				<stop  offset="0.5" style="stop-color:#B3B1B2"/>
				<stop  offset="1" style="stop-color:#DBDAD9"/>
			</linearGradient>
			
				<polygon style="clip-path:url(#SVGID_00000027602215872228218360000005788517957569546163_);fill:url(#SVGID_00000135684179608227957290000005400094783488245683_);" points="
				16.8,202.8 36.6,227.8 11.1,247.9 -8.7,222.9 			"/>
		</g>
		<path class="st18" d="M14,235.8c5.8,0,10.5-4.7,10.5-10.5c0-5.8-4.7-10.5-10.5-10.5c-5.8,0-10.5,4.7-10.5,10.5
			C3.5,231.1,8.2,235.8,14,235.8"/>
		<path class="st19" d="M14,235.8c5.8,0,10.5-4.7,10.5-10.5c0-5.8-4.7-10.5-10.5-10.5c-5.8,0-10.5,4.7-10.5,10.5
			C3.5,231.1,8.2,235.8,14,235.8"/>
		<path class="st20" d="M14,233.9c-4.7,0-8.5-3.8-8.5-8.5c0-4.7,3.8-8.5,8.5-8.5c4.7,0,8.5,3.8,8.5,8.5
			C22.5,230.1,18.6,233.9,14,233.9z"/>
		<path class="st6" d="M14,230.5c-2.8,0-5.1-2.3-5.1-5.1c0-2.8,2.3-5.1,5.1-5.1c2.8,0,5.1,2.3,5.1,5.1S16.8,230.5,14,230.5z"/>
	</g>
	<g>
		<g>
			<defs>
				<polygon id="SVGID_00000124149322217058856450000000974413674067007639_" points="48.9,195.7 55,185 48.9,174.4 36.6,174.4 
					30.5,185 36.6,195.7 				"/>
			</defs>
			<clipPath id="SVGID_00000141425317529907700950000016045364927286897839_">
				<use xlink:href="#SVGID_00000124149322217058856450000000974413674067007639_"  style="overflow:visible;"/>
			</clipPath>
			
				<linearGradient id="SVGID_00000040551373429259899070000007300494660016625801_" gradientUnits="userSpaceOnUse" x1="-38.9611" y1="436.4183" x2="-37.9611" y2="436.4183" gradientTransform="matrix(18.124 22.9071 22.9071 -18.124 -9258.5273 8974.1357)">
				<stop  offset="0" style="stop-color:#FFFFFF"/>
				<stop  offset="0.5" style="stop-color:#B3B1B2"/>
				<stop  offset="1" style="stop-color:#DBDAD9"/>
			</linearGradient>
			
				<polygon style="clip-path:url(#SVGID_00000141425317529907700950000016045364927286897839_);fill:url(#SVGID_00000040551373429259899070000007300494660016625801_);" points="
				45.6,162.5 65.4,187.5 39.9,207.6 20.1,182.6 			"/>
		</g>
		<path class="st18" d="M42.8,195.5c5.8,0,10.5-4.7,10.5-10.5c0-5.8-4.7-10.5-10.5-10.5c-5.8,0-10.5,4.7-10.5,10.5
			C32.3,190.8,37,195.5,42.8,195.5"/>
		<path class="st19" d="M42.8,195.5c5.8,0,10.5-4.7,10.5-10.5c0-5.8-4.7-10.5-10.5-10.5c-5.8,0-10.5,4.7-10.5,10.5
			C32.3,190.8,37,195.5,42.8,195.5"/>
		<path class="st20" d="M42.8,193.5c-4.7,0-8.5-3.8-8.5-8.5c0-4.7,3.8-8.5,8.5-8.5c4.7,0,8.5,3.8,8.5,8.5
			C51.3,189.7,47.4,193.5,42.8,193.5z"/>
		<path class="st6" d="M42.8,190.1c-2.8,0-5.1-2.3-5.1-5.1c0-2.8,2.3-5.1,5.1-5.1c2.8,0,5.1,2.3,5.1,5.1
			C47.9,187.9,45.6,190.1,42.8,190.1z"/>
	</g>
	<g>
		<g>
			<defs>
				<polygon id="SVGID_00000052079406226612381880000014221484513772513977_" points="20.1,195.7 26.2,185 20.1,174.4 7.8,174.4 
					1.7,185 7.8,195.7 				"/>
			</defs>
			<clipPath id="SVGID_00000138539471811275594240000004812384101775521946_">
				<use xlink:href="#SVGID_00000052079406226612381880000014221484513772513977_"  style="overflow:visible;"/>
			</clipPath>
			
				<linearGradient id="SVGID_00000176033003999734915980000004862111795107132576_" gradientUnits="userSpaceOnUse" x1="-39.5729" y1="435.6451" x2="-38.5729" y2="435.6451" gradientTransform="matrix(18.124 22.9071 22.9071 -18.124 -9258.5273 8974.1357)">
				<stop  offset="0" style="stop-color:#FFFFFF"/>
				<stop  offset="0.5" style="stop-color:#B3B1B2"/>
				<stop  offset="1" style="stop-color:#DBDAD9"/>
			</linearGradient>
			
				<polygon style="clip-path:url(#SVGID_00000138539471811275594240000004812384101775521946_);fill:url(#SVGID_00000176033003999734915980000004862111795107132576_);" points="
				16.8,162.5 36.6,187.5 11.1,207.6 -8.7,182.6 			"/>
		</g>
		<path class="st18" d="M14,195.5c5.8,0,10.5-4.7,10.5-10.5c0-5.8-4.7-10.5-10.5-10.5c-5.8,0-10.5,4.7-10.5,10.5
			C3.5,190.8,8.2,195.5,14,195.5"/>
		<path class="st19" d="M14,195.5c5.8,0,10.5-4.7,10.5-10.5c0-5.8-4.7-10.5-10.5-10.5c-5.8,0-10.5,4.7-10.5,10.5
			C3.5,190.8,8.2,195.5,14,195.5"/>
		<path class="st20" d="M14,193.5c-4.7,0-8.5-3.8-8.5-8.5c0-4.7,3.8-8.5,8.5-8.5c4.7,0,8.5,3.8,8.5,8.5
			C22.5,189.7,18.6,193.5,14,193.5z"/>
		<path class="st6" d="M14,190.1c-2.8,0-5.1-2.3-5.1-5.1c0-2.8,2.3-5.1,5.1-5.1c2.8,0,5.1,2.3,5.1,5.1S16.8,190.1,14,190.1z"/>
	</g>
	<g>
		<g>
			<defs>
				<polygon id="SVGID_00000067234106374463267260000003065543676639856570_" points="48.9,155.3 55,144.7 48.9,134.1 36.6,134.1 
					30.5,144.7 36.6,155.4 				"/>
			</defs>
			<clipPath id="SVGID_00000046299270462284537580000014123284003487261602_">
				<use xlink:href="#SVGID_00000067234106374463267260000003065543676639856570_"  style="overflow:visible;"/>
			</clipPath>
			
				<linearGradient id="SVGID_00000015325683800585870170000004006929368496286379_" gradientUnits="userSpaceOnUse" x1="-40.0436" y1="437.2747" x2="-39.0436" y2="437.2747" gradientTransform="matrix(18.124 22.9071 22.9071 -18.124 -9258.5273 8974.1357)">
				<stop  offset="0" style="stop-color:#FFFFFF"/>
				<stop  offset="0.5" style="stop-color:#B3B1B2"/>
				<stop  offset="1" style="stop-color:#DBDAD9"/>
			</linearGradient>
			
				<polygon style="clip-path:url(#SVGID_00000046299270462284537580000014123284003487261602_);fill:url(#SVGID_00000015325683800585870170000004006929368496286379_);" points="
				45.6,122.1 65.4,147.2 39.9,167.3 20.1,142.3 			"/>
		</g>
		<path class="st18" d="M42.8,155.2c5.8,0,10.5-4.7,10.5-10.5c0-5.8-4.7-10.5-10.5-10.5c-5.8,0-10.5,4.7-10.5,10.5
			C32.3,150.5,37,155.2,42.8,155.2"/>
		<path class="st19" d="M42.8,155.2c5.8,0,10.5-4.7,10.5-10.5c0-5.8-4.7-10.5-10.5-10.5c-5.8,0-10.5,4.7-10.5,10.5
			C32.3,150.5,37,155.2,42.8,155.2"/>
		<path class="st20" d="M42.8,153.2c-4.7,0-8.5-3.8-8.5-8.5c0-4.7,3.8-8.5,8.5-8.5c4.7,0,8.5,3.8,8.5,8.5
			C51.3,149.4,47.4,153.2,42.8,153.2z"/>
		<path class="st6" d="M42.8,149.8c-2.8,0-5.1-2.3-5.1-5.1c0-2.8,2.3-5.1,5.1-5.1c2.8,0,5.1,2.3,5.1,5.1S45.6,149.8,42.8,149.8z"/>
	</g>
	<g>
		<g>
			<defs>
				<polygon id="SVGID_00000020392913022918192690000005828448957857893268_" points="20.1,155.3 26.2,144.7 20.1,134.1 7.8,134.1 
					1.7,144.7 7.8,155.4 				"/>
			</defs>
			<clipPath id="SVGID_00000007399419305852798620000008134277024350878344_">
				<use xlink:href="#SVGID_00000020392913022918192690000005828448957857893268_"  style="overflow:visible;"/>
			</clipPath>
			
				<linearGradient id="SVGID_00000156551573088543152320000004522623146092132756_" gradientUnits="userSpaceOnUse" x1="-40.6554" y1="436.5015" x2="-39.6554" y2="436.5015" gradientTransform="matrix(18.124 22.9071 22.9071 -18.124 -9258.5273 8974.1357)">
				<stop  offset="0" style="stop-color:#FFFFFF"/>
				<stop  offset="0.5" style="stop-color:#B3B1B2"/>
				<stop  offset="1" style="stop-color:#DBDAD9"/>
			</linearGradient>
			
				<polygon style="clip-path:url(#SVGID_00000007399419305852798620000008134277024350878344_);fill:url(#SVGID_00000156551573088543152320000004522623146092132756_);" points="
				16.8,122.1 36.6,147.2 11.1,167.3 -8.7,142.3 			"/>
		</g>
		<path class="st18" d="M14,155.2c5.8,0,10.5-4.7,10.5-10.5c0-5.8-4.7-10.5-10.5-10.5c-5.8,0-10.5,4.7-10.5,10.5
			C3.5,150.5,8.2,155.2,14,155.2"/>
		<path class="st19" d="M14,155.2c5.8,0,10.5-4.7,10.5-10.5c0-5.8-4.7-10.5-10.5-10.5c-5.8,0-10.5,4.7-10.5,10.5
			C3.5,150.5,8.2,155.2,14,155.2"/>
		<path class="st20" d="M14,153.2c-4.7,0-8.5-3.8-8.5-8.5c0-4.7,3.8-8.5,8.5-8.5c4.7,0,8.5,3.8,8.5,8.5
			C22.5,149.4,18.6,153.2,14,153.2z"/>
		<path class="st6" d="M14,149.8c-2.8,0-5.1-2.3-5.1-5.1c0-2.8,2.3-5.1,5.1-5.1c2.8,0,5.1,2.3,5.1,5.1S16.8,149.8,14,149.8z"/>
	</g>
	<g>
		<g>
			<defs>
				<polygon id="SVGID_00000098934187590581249810000009275442090033400746_" points="48.9,115 55,104.4 48.9,93.8 36.6,93.8 
					30.5,104.4 36.6,115 				"/>
			</defs>
			<clipPath id="SVGID_00000070088436213175451970000010177924620357844627_">
				<use xlink:href="#SVGID_00000098934187590581249810000009275442090033400746_"  style="overflow:visible;"/>
			</clipPath>
			
				<linearGradient id="SVGID_00000168822757562852174660000015704639681469267899_" gradientUnits="userSpaceOnUse" x1="-41.1261" y1="438.1312" x2="-40.1261" y2="438.1312" gradientTransform="matrix(18.124 22.9071 22.9071 -18.124 -9258.5273 8974.1357)">
				<stop  offset="0" style="stop-color:#FFFFFF"/>
				<stop  offset="0.5" style="stop-color:#B3B1B2"/>
				<stop  offset="1" style="stop-color:#DBDAD9"/>
			</linearGradient>
			
				<polygon style="clip-path:url(#SVGID_00000070088436213175451970000010177924620357844627_);fill:url(#SVGID_00000168822757562852174660000015704639681469267899_);" points="
				45.6,81.8 65.4,106.8 39.9,127 20.1,102 			"/>
		</g>
		<path class="st18" d="M42.8,114.9c5.8,0,10.5-4.7,10.5-10.5c0-5.8-4.7-10.5-10.5-10.5c-5.8,0-10.5,4.7-10.5,10.5
			C32.3,110.2,37,114.9,42.8,114.9"/>
		<path class="st19" d="M42.8,114.9c5.8,0,10.5-4.7,10.5-10.5c0-5.8-4.7-10.5-10.5-10.5c-5.8,0-10.5,4.7-10.5,10.5
			C32.3,110.2,37,114.9,42.8,114.9"/>
		<path class="st20" d="M42.8,112.9c-4.7,0-8.5-3.8-8.5-8.5c0-4.7,3.8-8.5,8.5-8.5c4.7,0,8.5,3.8,8.5,8.5
			C51.3,109.1,47.4,112.9,42.8,112.9z"/>
		<path class="st6" d="M42.8,109.5c-2.8,0-5.1-2.3-5.1-5.1c0-2.8,2.3-5.1,5.1-5.1c2.8,0,5.1,2.3,5.1,5.1
			C47.9,107.2,45.6,109.5,42.8,109.5z"/>
	</g>
	<g>
		<g>
			<defs>
				<polygon id="SVGID_00000139257195954411624540000008407372136873608377_" points="20.1,115 26.2,104.4 20.1,93.8 7.8,93.8 
					1.7,104.4 7.8,115 				"/>
			</defs>
			<clipPath id="SVGID_00000182496829769494674130000005022801586749892743_">
				<use xlink:href="#SVGID_00000139257195954411624540000008407372136873608377_"  style="overflow:visible;"/>
			</clipPath>
			
				<linearGradient id="SVGID_00000170989200676245401140000008068940481948660639_" gradientUnits="userSpaceOnUse" x1="-41.7379" y1="437.358" x2="-40.7379" y2="437.358" gradientTransform="matrix(18.124 22.9071 22.9071 -18.124 -9258.5273 8974.1357)">
				<stop  offset="0" style="stop-color:#FFFFFF"/>
				<stop  offset="0.5" style="stop-color:#B3B1B2"/>
				<stop  offset="1" style="stop-color:#DBDAD9"/>
			</linearGradient>
			
				<polygon style="clip-path:url(#SVGID_00000182496829769494674130000005022801586749892743_);fill:url(#SVGID_00000170989200676245401140000008068940481948660639_);" points="
				16.8,81.8 36.6,106.8 11.1,127 -8.7,102 			"/>
		</g>
		<path class="st18" d="M14,114.9c5.8,0,10.5-4.7,10.5-10.5c0-5.8-4.7-10.5-10.5-10.5c-5.8,0-10.5,4.7-10.5,10.5
			C3.5,110.2,8.2,114.9,14,114.9"/>
		<path class="st19" d="M14,114.9c5.8,0,10.5-4.7,10.5-10.5c0-5.8-4.7-10.5-10.5-10.5c-5.8,0-10.5,4.7-10.5,10.5
			C3.5,110.2,8.2,114.9,14,114.9"/>
		<path class="st20" d="M14,112.9c-4.7,0-8.5-3.8-8.5-8.5c0-4.7,3.8-8.5,8.5-8.5c4.7,0,8.5,3.8,8.5,8.5
			C22.5,109.1,18.6,112.9,14,112.9z"/>
		<path class="st6" d="M14,109.5c-2.8,0-5.1-2.3-5.1-5.1c0-2.8,2.3-5.1,5.1-5.1c2.8,0,5.1,2.3,5.1,5.1
			C19.1,107.2,16.8,109.5,14,109.5z"/>
	</g>
</g>
<g id="Cut">
	<circle class="st32" cx="28.3" cy="60.5" r="9.9"/>
	<circle class="st32" cx="42.7" cy="306" r="8.6"/>
	<circle class="st32" cx="13.9" cy="306" r="8.6"/>
	<circle class="st32" cx="42.7" cy="265.7" r="8.6"/>
	<circle class="st32" cx="13.9" cy="265.7" r="8.6"/>
	<circle class="st32" cx="42.7" cy="225.4" r="8.6"/>
	<circle class="st32" cx="13.9" cy="225.4" r="8.6"/>
	<circle class="st32" cx="42.7" cy="185" r="8.6"/>
	<circle class="st32" cx="13.9" cy="185" r="8.6"/>
	<circle class="st32" cx="42.7" cy="144.7" r="8.6"/>
	<circle class="st32" cx="13.9" cy="144.7" r="8.6"/>
	<circle class="st32" cx="42.7" cy="104.4" r="8.6"/>
	<circle class="st32" cx="13.9" cy="104.4" r="8.6"/>
	<rect class="st33" width="56.7" height="364.3"/>
</g>
</svg>
